<svg xmlns="http://www.w3.org/2000/svg" width="32.2" height="32.199" viewBox="0 0 32.2 32.199">
  <path id="Union_8" data-name="Union 8" d="M-1716.456,18103a2.613,2.613,0,0,1,0-3.709l10.517-10.521-10.517-10.512a2.62,2.62,0,0,1,0-3.715,2.621,2.621,0,0,1,3.709,0l10.519,10.516,10.517-10.516a2.621,2.621,0,0,1,3.709,0,2.619,2.619,0,0,1,0,3.715l-10.515,10.512,10.515,10.516a2.619,2.619,0,0,1,0,3.715,2.624,2.624,0,0,1-3.709,0l-10.518-10.518-10.518,10.518a2.612,2.612,0,0,1-1.855.773A2.612,2.612,0,0,1-1716.456,18103Z" transform="translate(1718.328 -18072.672)" fill="#f60014" stroke="#fff" stroke-linecap="round" stroke-width="2.2"/>
</svg>
