<svg xmlns="http://www.w3.org/2000/svg" viewBox="0 0 512 512"><g data-name="Layer_1"><path d="M256 512c-68.1 0-132.1-26.5-180.2-74.6C27.6 389.3 1.1 325.3 1.1 257.2S27.6 125.1 75.8 77C123.9 28.8 187.9 2.3 256 2.3S388 28.8 436.2 77c48.1 48.1 74.6 112.1 74.6 180.2s-26.5 132.1-74.6 180.2C388 485.5 324 512 256 512z" fill="#ffc740"/><path d="M358.1 161H153.9c-13.6 0-24.7 11-24.7 24.7v125.5c0 13.6 11 24.7 24.7 24.7h92.9v21.6l-43.3 43.3 24 .9 28-28 28 28h24.9l-43.3-43.3v-22.5H358c13.6 0 24.7-11 24.7-24.7V185.7c0-13.6-11-24.7-24.6-24.7z" fill="#fff"/><path d="M346.2 265.7l-67.8-65.8c-.7-.7-1.8-.2-1.8.8l-.6 94.9c0 1 1.2 1.4 1.8.7l21.6-22.8c.5-.6 1.5-.4 1.8.3l12.5 29.7c.2.5.9.8 1.4.6l10.2-4.3c.5-.2.8-.9.6-1.4l-12.4-29.6c-.3-.7.2-1.5 1-1.5h31.1c.8.2 1.3-1 .6-1.6z" fill="#ffc740"/></g></svg>