<svg data-name="Layer 1" xmlns="http://www.w3.org/2000/svg" viewBox="0 0 130 32"><g fill="#fff"><path d="M38.8 15.22h4.91c2.28 0 4.14.73 4.14 3.3 0 1.35-.69 2.28-2 2.64 1.69.34 2.52 1.28 2.52 3 0 2.65-1.99 3.5-4.32 3.5h-5.23V15.21h-.02zm4.61 5.22c1.35 0 2.11-.4 2.11-1.86 0-1.37-.96-1.67-2.16-1.67h-2.22v3.53h2.27zm.33 5.54c1.38 0 2.25-.53 2.25-1.96 0-1.58-1.08-1.97-2.42-1.97h-2.43v3.93h2.6zM51.31 14.71c.7 0 1.27.52 1.27 1.25s-.54 1.24-1.26 1.24-1.3-.53-1.3-1.25.59-1.24 1.29-1.24zm-1.09 3.87h2.18v9.09h-2.18v-9.09zM54.92 14.87l2.18-.94v13.74h-2.18v-12.8zM59.6 14.87l2.18-.94v13.74H59.6v-12.8zM65.39 14.71c.7 0 1.27.52 1.27 1.25s-.54 1.24-1.26 1.24-1.3-.53-1.3-1.25.59-1.24 1.29-1.24zm-1.1 3.87h2.18v9.09h-2.18v-9.09zM68.93 18.56h2.18v1.45c.59-1.13 1.81-1.64 3.08-1.64 2.19 0 3.17 1.54 3.17 3.61v5.7h-2.21V22.2c0-1.28-.57-2.03-1.86-2.03-1.37 0-2.18.85-2.18 2.16v5.35h-2.18v-9.12zM81.05 28.07c.46 1.01 1.51 1.31 2.51 1.31 1.61 0 2.59-.77 2.59-2.43v-1.37c-.62 1.05-1.84 1.71-3.06 1.71-2.58 0-4.07-2.03-4.07-4.4s1.6-4.54 4.13-4.54c1.24 0 2.36.5 3 1.59v-1.4h2.19v8.43c0 2.86-2.15 4.02-4.78 4.02-1.69 0-3.5-.48-4.24-2.19l1.72-.75v.02zm5.19-5.29c0-1.56-.85-2.74-2.49-2.74-1.74 0-2.48 1.32-2.48 2.9 0 1.42.89 2.68 2.41 2.68 1.7 0 2.57-1.26 2.57-2.84h-.01z"/><g><path d="M38.82 11.28l4.01-5.79h-3.6V4.35h5.48v.56L40.8 10.7h3.79v1.14h-5.77v-.56zM48.14 6.25c1.67 0 2.95 1.17 2.95 2.85s-1.34 2.86-3 2.86-3.01-1.16-3.01-2.83 1.42-2.88 3.07-2.88h-.01zm1.54 2.85c0-1.01-.51-1.85-1.59-1.85s-1.55.88-1.55 1.89.52 1.8 1.58 1.8c1.09.01 1.56-.87 1.56-1.83zM52.04 3.88h1.31v3.36c.36-.68 1.07-.99 1.83-.99 1.31 0 1.97.92 1.97 2.17v3.43h-1.32v-3.3c0-.79-.41-1.22-1.17-1.22-.85 0-1.31.52-1.31 1.3v3.22h-1.31V3.88zM61.08 6.25c1.67 0 2.95 1.17 2.95 2.85s-1.34 2.86-3 2.86-3.01-1.16-3.01-2.83 1.42-2.88 3.07-2.88zm1.53 2.85c0-1.01-.51-1.85-1.59-1.85s-1.55.88-1.55 1.89.52 1.8 1.58 1.8c1.09.01 1.56-.87 1.56-1.83z"/></g></g><g fill="#089949"><path d="M14.12 31.71s-.09 0-.14-.01c-2.49-.37-5.85-1.69-8.53-3.35-1.46-.91-2.63-1.85-3.49-2.8C.92 24.39.39 23.24.39 22.16V9.48c0-.94.48-1.95 1.42-3 .78-.88 1.9-1.79 3.23-2.63C7.75 2.13 11.07.8 13.96.3c.34-.05.67.08.88.34s.26.63.13.93L9.25 15.02c1.77.81 3.58 1.44 5.06 1.76.42.09.74.47.74.9V30.8c0 .27-.12.52-.33.69-.16.15-.38.23-.6.23zM2.23 12.75v9.4c0 .62.38 1.37 1.09 2.17.73.81 1.8 1.67 3.09 2.47 2.12 1.31 4.66 2.38 6.77 2.88V18.4c-2.44-.62-5.35-1.86-7.8-3.34-1.28-.78-2.34-1.55-3.15-2.32zM12.56 2.51c-2.21.61-4.55 1.64-6.53 2.89-2.8 1.78-3.79 3.3-3.79 4.07 0 .7 1.07 2.19 4.11 4.01.4.24.81.48 1.25.7l4.96-11.67zM18.08 31.71c-.28 0-.54-.13-.73-.35a.923.923 0 01-.13-.93l5.72-13.44c-1.77-.81-3.58-1.44-5.06-1.76a.939.939 0 01-.74-.9V1.22c0-.27.12-.52.33-.69s.48-.25.74-.22C20.7.68 24.06 2 26.74 3.66c1.46.91 2.63 1.85 3.49 2.8 1.04 1.16 1.57 2.31 1.57 3.39v12.68c0 .94-.48 1.95-1.42 3-.78.88-1.9 1.79-3.23 2.63-2.7 1.72-6.03 3.04-8.92 3.54-.05 0-.11.01-.15 0zm6.53-13.9l-4.97 11.68c2.21-.61 4.55-1.64 6.53-2.89 2.81-1.78 3.8-3.3 3.8-4.07 0-.7-1.07-2.19-4.11-4.01-.41-.24-.82-.48-1.26-.7h.01zM19 13.6c2.44.62 5.35 1.86 7.8 3.34 1.29.77 2.35 1.55 3.15 2.32v-9.4c0-.62-.38-1.37-1.09-2.17-.73-.81-1.8-1.67-3.09-2.47-2.12-1.31-4.66-2.38-6.77-2.88v11.27z"/></g></svg>