<svg data-name="Layer 1" xmlns="http://www.w3.org/2000/svg" viewBox="0 0 130 32"><g fill="#fff"><path d="M38.85 15.25h4.91c2.28 0 4.14.73 4.14 3.31 0 1.36-.69 2.27-2.01 2.65 1.69.34 2.53 1.28 2.53 3.01 0 2.66-2 3.49-4.33 3.49h-5.24V15.26zm4.61 5.23c1.36 0 2.12-.4 2.12-1.87 0-1.37-.98-1.67-2.16-1.67H41.2v3.54h2.27zm.34 5.55c1.38 0 2.26-.53 2.26-1.96 0-1.58-1.08-1.97-2.42-1.97h-2.43v3.94h2.59zM54.43 18.4c2.77 0 4.89 1.94 4.89 4.73s-2.23 4.75-4.99 4.75-5-1.92-5-4.71 2.35-4.77 5.1-4.77zm2.55 4.75c0-1.68-.85-3.07-2.64-3.07s-2.57 1.46-2.57 3.14.86 2.99 2.63 2.99 2.58-1.46 2.58-3.06zM65.11 18.4c2.77 0 4.89 1.94 4.89 4.73s-2.23 4.75-4.99 4.75-5-1.92-5-4.71 2.37-4.77 5.1-4.77zm2.56 4.75c0-1.68-.85-3.07-2.64-3.07s-2.57 1.46-2.57 3.14.86 2.99 2.63 2.99 2.58-1.46 2.58-3.06zM71.6 14.47h2.18v8.1l3.31-3.97h2.39l-3.61 4.18 3.89 4.94h-2.52l-3.46-4.45v4.45H71.6V14.47zM81.98 25c.34.89 1.27 1.32 2.26 1.32.71 0 1.58-.22 1.58-1.08 0-.91-.99-1.13-2.12-1.37-1.46-.3-3.1-.66-3.1-2.71 0-1.88 1.75-2.77 3.4-2.77 1.44 0 3.1.54 3.7 1.99l-1.62.69c-.36-.81-1.25-1.12-2-1.12s-1.42.29-1.42 1.03c0 .84.89 1.01 2 1.23 1.49.29 3.27.63 3.27 2.76s-1.8 2.91-3.7 2.91c-1.61 0-3.34-.54-3.91-2.18l1.66-.69z"/><g><path d="M38.86 11.31l4.01-5.79h-3.6V4.38h5.49v.56l-3.92 5.79h3.8v1.14h-5.78v-.56zM48.2 6.27c1.67 0 2.95 1.17 2.95 2.85s-1.35 2.86-3.01 2.86-3.02-1.16-3.02-2.83c0-1.74 1.41-2.89 3.07-2.89zm1.53 2.85c0-1.01-.51-1.86-1.58-1.86s-1.55.88-1.55 1.89.52 1.8 1.58 1.8c1.1.01 1.55-.87 1.55-1.83zM52.11 3.9h1.31v3.36c.36-.68 1.07-.99 1.83-.99 1.31 0 1.97.92 1.97 2.17v3.44H55.9V8.57c0-.79-.41-1.22-1.17-1.22-.85 0-1.3.52-1.3 1.3v3.22h-1.31V3.9h-.01zM61.14 6.27c1.67 0 2.95 1.17 2.95 2.85s-1.35 2.86-3.01 2.86-3.02-1.16-3.02-2.83 1.42-2.89 3.07-2.89h.01zm1.54 2.85c0-1.01-.51-1.86-1.59-1.86s-1.55.88-1.55 1.89.52 1.8 1.58 1.8c1.11.01 1.56-.87 1.56-1.83z"/></g></g><g fill="#226db4"><path d="M22.8 31.77H1.31c-.51 0-.92-.41-.92-.92v-7.81c0-1.7 1.08-3.22 2.7-3.78l23.82-8.18c1.86-.64 3.1-2.39 3.1-4.34 0-2.53-2.06-4.59-4.59-4.59H2.23v15.21c0 .51-.41.92-.92.92s-.92-.41-.92-.92V1.23C.39.72.8.3 1.31.3h24.11c3.55 0 6.43 2.89 6.43 6.43 0 2.74-1.75 5.2-4.35 6.09L3.69 21c-.87.3-1.45 1.12-1.45 2.04v6.88h20.57c1.92 0 3.73-.75 5.1-2.12s2.12-3.17 2.12-5.09c0-1.37-.38-2.69-1.11-3.84a7.23 7.23 0 00-2.95-2.64.92.92 0 01-.42-1.24c.22-.46.77-.65 1.24-.42 1.52.74 2.8 1.89 3.7 3.32.91 1.44 1.4 3.11 1.4 4.83 0 2.42-.94 4.69-2.65 6.4-1.74 1.69-4 2.64-6.42 2.64h-.02z"/><path d="M10.76 13.2c-2.03 0-3.69-1.65-3.69-3.69s1.65-3.69 3.69-3.69 3.69 1.65 3.69 3.69-1.66 3.69-3.69 3.69zm0-5.53c-1.02 0-1.84.82-1.84 1.84s.82 1.84 1.84 1.84 1.84-.82 1.84-1.84-.82-1.84-1.84-1.84zM20.01 26.22c-2.03 0-3.69-1.65-3.69-3.69s1.65-3.69 3.69-3.69 3.69 1.65 3.69 3.69-1.66 3.69-3.69 3.69zm0-5.53c-1.02 0-1.84.82-1.84 1.84s.82 1.84 1.84 1.84 1.84-.82 1.84-1.84-.82-1.84-1.84-1.84z"/></g></svg>