<svg data-name="Layer 1" xmlns="http://www.w3.org/2000/svg" viewBox="0 0 130 32"><g fill="#fff"><path d="M49.84 24.25c-.77 2.36-3 3.6-5.41 3.6-4.01 0-6.22-2.55-6.22-6.46 0-3.58 2.48-6.34 6.16-6.34 2.35 0 4.41 1.13 5.36 3.36l-2 .85c-.53-1.37-1.76-2.32-3.26-2.32-2.64 0-3.73 2.26-3.73 4.55s1.19 4.45 3.78 4.45c1.64 0 2.83-1 3.39-2.49l1.93.81zM55.66 18.36c2.77 0 4.89 1.94 4.89 4.73s-2.23 4.75-4.99 4.75-5-1.92-5-4.71 2.35-4.77 5.1-4.77zm2.55 4.75c0-1.68-.85-3.07-2.64-3.07S53 21.5 53 23.17s.86 2.99 2.62 2.99 2.58-1.46 2.58-3.06h.01zM62.15 18.56h2.18v1.4c.54-1.05 1.65-1.59 2.83-1.59s2.22.5 2.65 1.63c.69-1.04 1.89-1.63 3.19-1.63 2.09 0 3.08 1.53 3.08 3.54v5.77h-2.17v-5.64c0-1.14-.57-1.88-1.74-1.88-1.27 0-1.95.88-1.95 2.06v5.45h-2.18v-5.64c0-1.14-.57-1.88-1.75-1.88-1.26 0-1.95.88-1.95 2.06v5.45h-2.19v-9.11zM78.36 18.56h2.18v1.4c.54-1.05 1.65-1.59 2.83-1.59s2.22.5 2.65 1.63c.69-1.04 1.89-1.63 3.19-1.63 2.09 0 3.08 1.53 3.08 3.54v5.77h-2.17v-5.64c0-1.14-.57-1.88-1.74-1.88-1.27 0-1.95.88-1.95 2.06v5.45h-2.18v-5.64c0-1.14-.57-1.88-1.75-1.88-1.26 0-1.95.88-1.95 2.06v5.45h-2.18v-9.11h-.01zM102.73 25.69c-.76 1.6-2.4 2.16-4.07 2.16-2.87 0-4.68-1.92-4.68-4.76 0-2.67 1.84-4.73 4.59-4.73 2.95 0 4.38 1.72 4.38 5.24h-6.74c0 1.54.89 2.67 2.55 2.67.99 0 1.8-.4 2.28-1.32l1.7.75h-.01zm-1.95-3.52c-.07-1.38-.9-2.22-2.19-2.22-1.37 0-2.17.97-2.35 2.22h4.54zM104.69 18.56h2.18v1.71c.62-1.25 1.6-1.84 2.99-1.84v2.02c-1.76 0-2.99.57-2.99 2.53v4.71h-2.18v-9.12zM119.51 25.1c-.61 1.91-2.31 2.74-4.21 2.74-2.9 0-4.62-1.94-4.62-4.76s1.93-4.73 4.67-4.73c1.84 0 3.44.77 4.11 2.56l-1.76.77c-.37-1.02-1.25-1.6-2.35-1.6-1.78 0-2.43 1.54-2.43 3.1s.7 2.99 2.47 2.99c1.25 0 2.09-.69 2.47-1.83l1.64.76h.01zM129.39 25.69c-.76 1.6-2.4 2.16-4.07 2.16-2.87 0-4.68-1.92-4.68-4.76 0-2.67 1.84-4.73 4.59-4.73 2.95 0 4.38 1.72 4.38 5.24h-6.74c0 1.54.89 2.67 2.55 2.67.99 0 1.8-.4 2.28-1.32l1.7.75h-.01zm-1.96-3.52c-.07-1.38-.9-2.22-2.19-2.22-1.37 0-2.17.97-2.35 2.22h4.54z"/><g><path d="M38.86 11.27l4.01-5.79h-3.6V4.34h5.49v.56l-3.91 5.79h3.8v1.14h-5.78v-.56h-.01zM48.18 6.24c1.67 0 2.95 1.17 2.95 2.85s-1.34 2.86-3 2.86-3.01-1.16-3.01-2.83 1.42-2.88 3.07-2.88h-.01zm1.54 2.85c0-1.01-.51-1.85-1.59-1.85s-1.55.88-1.55 1.89.52 1.8 1.58 1.8c1.11.01 1.56-.87 1.56-1.83zM52.09 3.87h1.31v3.36c.36-.68 1.07-.99 1.83-.99 1.31 0 1.97.92 1.97 2.17v3.44h-1.32V8.54c0-.79-.41-1.23-1.17-1.23-.85 0-1.31.52-1.31 1.3v3.22h-1.31V3.87zM61.13 6.24c1.67 0 2.95 1.17 2.95 2.85s-1.34 2.86-3 2.86-3.01-1.16-3.01-2.83 1.42-2.88 3.07-2.88h-.01zm1.54 2.85c0-1.01-.51-1.85-1.59-1.85s-1.55.88-1.55 1.89.52 1.8 1.58 1.8c1.1.01 1.56-.87 1.56-1.83z"/></g></g><path d="M28.16 31.72H4.09c-1.03 0-2.02-.43-2.72-1.19a3.763 3.763 0 01-.97-2.81L2 8.78c.04-.51.49-.89 1-.85s.89.49.85 1L2.26 27.87a1.847 1.847 0 001.84 2.01h24.06A1.847 1.847 0 0030 27.87L28.2 6.25c-.03-.38-.17-.73-.41-1.02l-2.01-2.44c-.36-.43-.87-.67-1.43-.67H7.91c-.55 0-1.07.25-1.43.67l-1.3 1.59h19.63c.51 0 .92.41.92.92s-.41.92-.92.92H3.85c-.48 0-.9-.27-1.1-.69-.21-.43-.14-.92.16-1.29l2.15-2.62C5.75.76 6.8.28 7.9.28h16.43c1.11 0 2.15.49 2.85 1.36l2 2.43c.48.59.76 1.28.82 2.03l1.82 21.63c.09 1.03-.26 2.05-.97 2.81-.68.76-1.67 1.19-2.7 1.19z" fill="#089949"/><path d="M16.13 17.87c-2.1 0-4.08-.81-5.56-2.3s-2.3-3.46-2.3-5.56c0-.51.41-.92.92-.92s.92.41.92.92c0 3.32 2.7 6.02 6.02 6.02s6.02-2.7 6.02-6.02c0-.51.41-.92.92-.92s.92.41.92.92c0 2.1-.81 4.08-2.3 5.56a7.797 7.797 0 01-5.56 2.3z" fill="#089949"/><circle cx="6.43" cy="20.07" r="1.07" fill="#e42527"/><circle cx="6.43" cy="23.29" r="1.07" fill="#e42527"/><circle cx="6.43" cy="26.52" r="1.07" fill="#e42527"/></svg>