<svg data-name="Layer 1" xmlns="http://www.w3.org/2000/svg" viewBox="0 0 130 32"><g fill="#fff"><path d="M40.15 15.23h8.57v1.94h-6.07v3.47h4.94v1.84h-4.94v3.7h6.36v1.94h-8.86V15.23zM53.22 23.28l-3.07-4.6h2.6l1.96 3.03 1.94-3.03h2.36l-3.06 4.44 3.38 4.99h-2.62l-2.19-3.39-2.25 3.39h-2.36l3.32-4.83zM60.91 18.68h2.25v1.53c.65-1.1 1.97-1.73 3.23-1.73 2.88 0 4.27 2.31 4.27 4.89s-1.48 4.92-4.21 4.92c-1.32 0-2.66-.53-3.29-1.66v4.71h-2.25V18.68h.01zm7.42 4.64c0-1.59-.8-3.07-2.64-3.07s-2.61 1.49-2.61 3.19.81 3.1 2.68 3.1c2 .01 2.57-1.47 2.57-3.21zM80.93 26.06c-.79 1.66-2.47 2.22-4.21 2.22-2.97 0-4.85-1.99-4.85-4.92 0-2.76 1.91-4.89 4.75-4.89 3.05 0 4.53 1.78 4.53 5.42h-6.98c0 1.59.92 2.76 2.64 2.76 1.02 0 1.86-.42 2.36-1.37l1.76.79zm-2.02-3.64c-.07-1.42-.93-2.3-2.27-2.3-1.41 0-2.24 1-2.43 2.3h4.7zM82.96 18.68h2.25v1.5c.61-1.17 1.87-1.69 3.19-1.69 2.27 0 3.29 1.59 3.29 3.74v5.9H89.4v-5.68c0-1.32-.59-2.1-1.93-2.1-1.41 0-2.25.89-2.25 2.23v5.54h-2.25v-9.45h-.01zM95.05 25.3c.35.92 1.31 1.37 2.33 1.37.73 0 1.64-.22 1.64-1.12s-1.02-1.17-2.19-1.41c-1.51-.31-3.21-.68-3.21-2.8 0-1.94 1.81-2.86 3.51-2.86 1.49 0 3.21.56 3.83 2.05l-1.67.72c-.37-.84-1.29-1.16-2.06-1.16s-1.47.3-1.47 1.07c0 .86.92 1.04 2.06 1.27 1.54.3 3.38.65 3.38 2.85s-1.86 3.01-3.83 3.01c-1.66 0-3.46-.56-4.04-2.25l1.72-.72v-.02zM111.4 26.06c-.79 1.66-2.47 2.22-4.21 2.22-2.97 0-4.85-1.99-4.85-4.92 0-2.76 1.91-4.89 4.75-4.89 3.05 0 4.53 1.78 4.53 5.42h-6.98c0 1.59.92 2.76 2.64 2.76 1.02 0 1.86-.42 2.36-1.37l1.76.79zm-2.02-3.64c-.07-1.42-.93-2.3-2.27-2.3-1.41 0-2.24 1-2.43 2.3h4.7z"/><g><path d="M40.17 11.14l4.15-5.99H40.6V3.97h5.68v.58l-4.05 5.99h3.93v1.18h-5.98v-.58h-.01zM49.82 5.94c1.73 0 3.05 1.21 3.05 2.95s-1.39 2.96-3.11 2.96-3.12-1.2-3.12-2.93c0-1.79 1.46-2.98 3.17-2.98h.01zm1.59 2.95c0-1.04-.53-1.92-1.64-1.92s-1.6.91-1.6 1.95.54 1.86 1.64 1.86c1.13.01 1.6-.9 1.6-1.9zM53.86 3.48h1.36v3.48c.37-.71 1.11-1.02 1.9-1.02 1.36 0 2.04.95 2.04 2.24v3.56h-1.37V8.32c0-.82-.43-1.26-1.21-1.26-.87 0-1.35.54-1.35 1.35v3.33h-1.36V3.48h-.01zM63.21 5.94c1.73 0 3.05 1.21 3.05 2.95s-1.39 2.96-3.11 2.96-3.12-1.2-3.12-2.93 1.47-2.98 3.17-2.98zm1.59 2.95c0-1.04-.53-1.92-1.65-1.92s-1.6.91-1.6 1.95.54 1.86 1.64 1.86c1.14.01 1.62-.9 1.62-1.9h-.01z"/></g></g><g fill="#e42527"><path d="M27.25 31.77c-2.5 0-4.94-.9-7.04-2.58a.507.507 0 00-.68.03l-1.83 1.84c-.94.93-2.46.93-3.39 0l-1.78-1.78c-.2-.2-.52-.2-.72 0L10 31.07c-.92.91-2.4.91-3.31 0l-.09-.09C-.22 23.39-1.55 12.33 3.25 3.33A5.701 5.701 0 018.3.3h17.68c1.79 0 3.48 1.19 4.76 3.34 1.16 1.95 1.93 4.63 2.19 7.54.13 1.57-1.02 2.96-2.59 3.1-.09.01-.17.01-.25.01H20.9c.02.54.07 1.07.12 1.58v.04c.11 1.58.4 3.14.89 4.64.46 1.42 1.08 2.74 1.83 3.89.74 1.14 1.59 2.11 2.55 2.87s1.97 1.31 3.03 1.64c.72.21 1.12.96.91 1.68-.15.49-.55.85-1.05.95-.64.12-1.27.18-1.91.18h-.02zM8.3 2.2c-1.41 0-2.7.77-3.37 2.02-4.43 8.3-3.2 18.5 3.1 25.5.16.18.44.19.62.03.01 0 .01-.01.02-.01l1.79-1.79c.94-.94 2.47-.94 3.41 0l1.78 1.78c.19.19.5.19.7 0l1.84-1.84a2.43 2.43 0 013.22-.18c1.56 1.25 3.31 1.97 5.13 2.13-.52-.3-1.01-.64-1.47-1.01-1.1-.9-2.1-2.01-2.95-3.32-1.73-2.65-2.77-5.91-3.02-9.42-.1-.91-.15-1.82-.15-2.73 0-3.38.66-6.56 1.88-8.97.43-.84.91-1.57 1.42-2.17L8.28 2.2h.02zm12.58 10.19h9.19c.53 0 .95-.43.95-.95v-.09c-.22-2.64-.91-5.03-1.92-6.74-.92-1.55-2.02-2.41-3.11-2.41-.58 0-1.18.25-1.75.73-.62.52-1.2 1.31-1.69 2.29-.99 1.94-1.57 4.46-1.67 7.18z"/><path d="M14.19 14.3H7.12a.95.95 0 110-1.9h7.07a.95.95 0 110 1.9zM10.73 19.06H7.32a.95.95 0 110-1.9h3.41a.95.95 0 110 1.9zM14.63 9.54H7.97a.95.95 0 110-1.9h6.65c.53 0 .95.43.95.95s-.42.95-.94.95z"/></g></svg>