<svg data-name="Layer 1" xmlns="http://www.w3.org/2000/svg" viewBox="0 0 130 32"><g fill="#fff"><path d="M39.06 15.24h2.42v12.51h-2.42V15.24zM44.09 18.6h2.19v1.46c.59-1.13 1.82-1.64 3.09-1.64 2.2 0 3.19 1.55 3.19 3.62v5.73h-2.22v-5.51c0-1.28-.58-2.04-1.87-2.04-1.37 0-2.19.86-2.19 2.17v5.38h-2.19v-9.16zM53.41 18.6h2.34l2.36 6.92 2.34-6.92h2.13l-3.3 9.15h-2.56L53.4 18.6zM71.76 25.76c-.76 1.61-2.39 2.16-4.08 2.16-2.88 0-4.7-1.93-4.7-4.78 0-2.68 1.85-4.75 4.6-4.75 2.96 0 4.4 1.73 4.4 5.26h-6.77c0 1.55.89 2.68 2.56 2.68.99 0 1.81-.4 2.29-1.33l1.71.76h-.01zm-1.96-3.54c-.07-1.38-.9-2.23-2.2-2.23-1.37 0-2.18.97-2.36 2.23h4.56zM73.73 18.6h2.19v1.46c.59-1.13 1.82-1.64 3.09-1.64 2.2 0 3.19 1.55 3.19 3.62v5.73h-2.22v-5.51c0-1.28-.58-2.04-1.87-2.04-1.37 0-2.19.86-2.19 2.17v5.38h-2.19v-9.16zM89.13 27.68c-.47.14-.96.22-1.5.22-1.74 0-2.78-.9-2.78-2.72v-4.97h-1.23V18.6h1.23v-1.88l2.19-.95v2.84h2.01v1.61h-2.01V25c0 .72.3 1.16 1.11 1.16.3 0 .65-.07.98-.17v1.7zM95 18.4c2.78 0 4.91 1.95 4.91 4.75s-2.24 4.77-5.01 4.77-5.02-1.93-5.02-4.72 2.36-4.79 5.12-4.79zm2.56 4.77c0-1.69-.85-3.08-2.64-3.08s-2.58 1.47-2.58 3.15.86 3 2.63 3 2.59-1.47 2.59-3.07zM101.51 18.6h2.19v1.72c.62-1.25 1.61-1.85 3-1.85v2.02c-1.76 0-3 .58-3 2.54v4.72h-2.19V18.6zM111.13 26.81l-3.59-8.22h2.34l2.41 5.85 2.24-5.85h2.12l-5.03 12.29h-2.14l1.65-4.07z"/><g><path d="M38.98 11.28l4.03-5.81H39.4V4.33h5.51v.57l-3.93 5.81h3.81v1.14h-5.8v-.57zM48.36 6.23c1.68 0 2.96 1.18 2.96 2.86s-1.35 2.87-3.02 2.87-3.03-1.16-3.03-2.84c0-1.74 1.41-2.9 3.08-2.9h.01zm1.53 2.86c0-1.01-.51-1.86-1.59-1.86s-1.56.88-1.56 1.89.52 1.81 1.59 1.81c1.1.01 1.56-.87 1.56-1.84zM52.28 3.85h1.32v3.37c.36-.69 1.08-.99 1.84-.99 1.32 0 1.98.93 1.98 2.18v3.45h-1.33V8.54c0-.79-.41-1.22-1.18-1.22-.85 0-1.31.52-1.31 1.31v3.23h-1.32V3.85h.01zM61.34 6.23c1.68 0 2.96 1.18 2.96 2.86s-1.35 2.87-3.02 2.87-3.03-1.16-3.03-2.84 1.43-2.9 3.08-2.9zm1.55 2.86c0-1.01-.51-1.86-1.6-1.86s-1.56.88-1.56 1.89.52 1.81 1.59 1.81c1.11.01 1.57-.87 1.57-1.84z"/></g></g><path d="M10.33 26.24c-.11 0-.22.01-.33.03-.99.17-1.65 1.13-1.48 2.12s1.13 1.65 2.12 1.48 1.65-1.13 1.48-2.12c-.15-.87-.91-1.51-1.8-1.51zM14 27.95l15.12-2.67c.61-.11 1.02-.69.93-1.3s-.69-1.02-1.3-.91h-.01l-14.08 2.48c-.75.13-1.49-.03-2.1-.41.85.65 1.42 1.67 1.45 2.81z" fill="none"/><path d="M21.8 9.25l-5.34.95c-.45.08-.76.46-.76.91 0 .51.41.93.93.93.05 0 .11 0 .16-.01l5.34-.95c.5-.09.84-.57.75-1.07a.942.942 0 00-1.08-.76z" fill="#f9b21d"/><path d="M31.9 23.59c-.32-1.61-1.87-2.67-3.48-2.35l-14.08 2.48c-.61.11-1.2-.3-1.3-.91L10.56 8.74c-.11-.61.3-1.2.91-1.31l14.08-2.48c.61-.11 1.2.3 1.31.91l2.3 13.03c.1.49.57.82 1.06.74.5-.09.85-.56.76-1.06L28.67 5.54a2.97 2.97 0 00-3.44-2.41L11.15 5.6a2.97 2.97 0 00-2.41 3.44l2.48 14.08c.13.75.53 1.38 1.1 1.83-.58-.37-1.26-.59-1.99-.59-.39 0-.77.07-1.13.17L5.43 3.22c-.2-1.1-.98-1.99-2.05-2.33L1.6.33A.93.93 0 00.45.96c-.15.49.13 1 .62 1.15l1.79.56c.4.12.7.46.77.88l3.91 22.14c-.56.64-.89 1.48-.89 2.41 0 2.05 1.65 3.7 3.7 3.7.22 0 .44-.02.64-.05 1.11-.2 2.04-.88 2.56-1.81l15.92-2.81s.07-.01.1-.02c1.61-.34 2.67-1.89 2.35-3.5h-.01zm-21.26 6.28c-.99.17-1.95-.49-2.12-1.48s.49-1.95 1.48-2.12a1.833 1.833 0 012.13 1.48c.19.99-.49 1.95-1.48 2.12zm18.48-4.59L14 27.95c-.04-1.14-.6-2.16-1.45-2.81.6.38 1.34.54 2.1.41l14.08-2.48h.01a1.121 1.121 0 11.37 2.21h.01z" fill="#e42527"/></svg>