<svg data-name="Layer 1" xmlns="http://www.w3.org/2000/svg" viewBox="0 0 130 32"><g fill="#fff"><path d="M38.69 11.32l4-5.77H39.1V4.42h5.47v.56l-3.9 5.77h3.78v1.13h-5.76v-.56zM47.99 6.31c1.66 0 2.94 1.17 2.94 2.84S49.59 12 47.94 12s-3-1.16-3-2.82 1.4-2.87 3.06-2.87zm1.54 2.84c0-1-.51-1.85-1.58-1.85s-1.54.88-1.54 1.88.52 1.79 1.58 1.79c1.08.01 1.54-.86 1.54-1.83zM51.88 3.94h1.31v3.35c.36-.68 1.07-.98 1.83-.98 1.31 0 1.97.92 1.97 2.16v3.42h-1.32V8.6c0-.79-.41-1.21-1.17-1.21-.84 0-1.3.52-1.3 1.3v3.21h-1.31V3.94h-.01zM60.88 6.31c1.66 0 2.94 1.17 2.94 2.84S62.48 12 60.83 12s-3-1.16-3-2.82 1.42-2.87 3.06-2.87zm1.54 2.84c0-1-.51-1.85-1.59-1.85s-1.54.88-1.54 1.88.52 1.79 1.58 1.79c1.1.01 1.56-.86 1.56-1.83h-.01z"/></g><path d="M31.69 8.73a.928.928 0 00-.43-.56l-9.51-5.49c-.22-.12-.46-.15-.7-.1-.24.06-.43.22-.56.43l-2.67 4.61-3.94-2.29c-.44-.26-1-.11-1.25.33l-2.67 4.61-3.95-2.28c-.44-.26-1-.11-1.25.33l-3.5 6.06c-1.77 3.06-.71 6.99 2.34 8.76l9.37 5.4.04.02c.03.02.06.04.1.06.98.57 2.08.86 3.2.86.56 0 1.11-.08 1.67-.22 1.65-.44 3.04-1.5 3.89-2.98l9.74-16.87a.99.99 0 00.09-.71v.03zM13.75 7.39l3.96 2.29 3.98 2.29-5.33 9.23-3.18-1.84 2.67-4.61c.25-.44.11-1-.33-1.25l-3.96-2.29 2.19-3.81zm-3.63 17.37s.01.03.01.05l-5.62-3.24c-2.18-1.26-2.94-4.06-1.67-6.24l3.04-5.26 7.92 4.57-3.04 5.26a6.4 6.4 0 00-.64 4.86zm10.14.63c-1.25 2.18-4.06 2.93-6.24 1.66a4.568 4.568 0 01-1.75-6.1l3.96 2.29c.14.09.3.12.45.12.31 0 .63-.16.8-.46l6.24-10.81c.12-.22.15-.46.1-.7a.928.928 0 00-.43-.56l-3.98-2.29 2.2-3.81 7.92 4.57-9.28 16.11v-.02z" fill="#089949"/><g fill="#fff"><path d="M38.77 15.25h4.31c.66 0 1.26.06 1.83.21.56.14 1.06.37 1.47.67.42.31.75.71.98 1.21.24.5.36 1.1.36 1.81 0 .79-.14 1.43-.43 1.92-.28.5-.67.89-1.15 1.17s-1.03.48-1.64.57c-.62.11-1.25.16-1.92.16h-1.43v4.68h-2.41v-12.4h.03zm4.29 6c.73 0 1.31-.16 1.72-.49.4-.32.6-.86.6-1.62 0-.39-.05-.71-.16-.98s-.27-.48-.46-.64c-.21-.16-.44-.27-.73-.35-.28-.06-.6-.1-.95-.1h-1.89v4.17h1.88-.01zM49.34 18.58h2.17v1.71c.3-.63.7-1.09 1.2-1.39s1.09-.45 1.78-.45v2.02c-.44 0-.84.04-1.21.12s-.68.22-.94.41-.46.45-.62.78c-.15.32-.22.72-.22 1.21v4.68h-2.17v-9.09zM61.02 26.54c-.35.45-.76.79-1.24.98s-1 .29-1.57.29c-.42 0-.82-.05-1.19-.16s-.69-.27-.96-.49-.49-.5-.65-.82c-.16-.33-.24-.71-.24-1.17 0-.42.06-.78.21-1.09.14-.3.32-.57.56-.78.24-.22.51-.39.82-.53.31-.14.65-.24 1-.31s.71-.13 1.09-.16c.37-.03.73-.04 1.08-.04H61v-.14c0-.32-.02-.62-.08-.88-.04-.26-.14-.49-.27-.67s-.31-.32-.54-.42-.53-.15-.9-.15c-.44 0-.84.11-1.21.33s-.64.54-.8.96l-1.69-.72c.15-.4.37-.73.65-1.02.28-.28.59-.51.94-.68s.72-.3 1.12-.38.8-.12 1.21-.12c.54 0 1.03.06 1.48.19s.84.33 1.18.6c.33.27.58.62.77 1.04.18.42.27.92.27 1.49v5.93H61v-1.1l.02.02zm-1.1-2.95c-.25 0-.52.01-.82.04-.3.02-.58.09-.84.19s-.49.25-.66.45c-.17.19-.26.46-.26.81 0 .22.03.4.11.55s.17.27.31.37c.13.1.29.16.46.21s.37.06.57.06c.28 0 .55-.03.81-.11.27-.08.51-.18.71-.33.22-.15.38-.33.51-.56.13-.23.19-.5.19-.8v-.89h-1.1zM73.63 25.08c-.15.48-.37.89-.65 1.23s-.59.63-.96.85c-.37.23-.77.39-1.21.5s-.9.16-1.37.16c-.71 0-1.36-.12-1.93-.35s-1.05-.55-1.45-.97c-.4-.41-.7-.92-.91-1.49-.21-.58-.31-1.22-.31-1.92s.12-1.3.35-1.87c.23-.57.55-1.07.96-1.49.41-.42.9-.75 1.47-.98.57-.24 1.19-.36 1.88-.36.45 0 .9.05 1.32.15s.81.25 1.17.45.67.46.94.79.5.7.67 1.16l-1.75.77a2.27 2.27 0 00-.9-1.19c-.41-.28-.9-.41-1.45-.41-.44 0-.81.09-1.12.26-.3.17-.56.41-.75.7s-.33.62-.42.99c-.09.37-.13.75-.13 1.13s.04.78.14 1.15c.09.36.24.68.43.95s.45.49.77.65c.31.16.68.24 1.12.24.63 0 1.15-.16 1.56-.49.41-.32.71-.77.9-1.34l1.64.72zM79.94 27.58c-.24.06-.48.12-.72.16-.24.04-.5.05-.77.05-.86 0-1.53-.23-2.02-.67-.49-.45-.72-1.12-.72-2.03v-4.93h-1.22v-1.59h1.22V16.7l2.17-.94v2.81h2v1.59h-2v4.73c0 .36.09.64.25.84.16.21.45.31.85.31.15 0 .31-.01.48-.04.16-.03.33-.08.5-.13v1.7h-.02zM81.6 15.98c0-.18.03-.35.1-.5s.16-.28.28-.39.26-.19.41-.26c.15-.05.32-.09.5-.09s.33.03.49.1c.15.06.29.15.4.26.12.11.21.24.27.39.06.15.1.31.1.5 0 .17-.03.33-.1.49-.06.15-.15.28-.26.39s-.24.19-.39.26c-.15.06-.32.1-.5.1s-.35-.03-.5-.1c-.16-.06-.29-.15-.41-.26s-.22-.24-.28-.39c-.08-.16-.11-.32-.11-.5zm.2 2.62h2.17v9.05H81.8V18.6zM94.6 25.08c-.15.48-.37.89-.65 1.23s-.59.63-.96.85c-.37.23-.77.39-1.21.5s-.9.16-1.37.16c-.71 0-1.36-.12-1.93-.35s-1.05-.55-1.45-.97c-.4-.41-.7-.92-.91-1.49-.21-.58-.31-1.22-.31-1.92s.12-1.3.35-1.87c.23-.57.55-1.07.96-1.49.41-.42.9-.75 1.47-.98.57-.24 1.19-.36 1.88-.36.45 0 .9.05 1.32.15s.81.25 1.17.45.67.46.94.79.5.7.67 1.16l-1.75.77a2.27 2.27 0 00-.9-1.19c-.41-.28-.9-.41-1.45-.41-.44 0-.81.09-1.12.26-.3.17-.56.41-.75.7s-.33.62-.42.99c-.09.37-.13.75-.13 1.13s.04.78.14 1.15c.09.36.24.68.43.95s.45.49.77.65c.31.16.68.24 1.12.24.63 0 1.15-.16 1.56-.49.41-.32.71-.77.9-1.34l1.64.72zM104.42 25.68c-.18.4-.42.73-.71 1.02-.29.27-.62.5-.96.66-.36.16-.73.29-1.13.36-.4.08-.81.11-1.23.11-.71 0-1.36-.12-1.93-.35s-1.07-.55-1.47-.96-.71-.92-.93-1.49c-.22-.58-.32-1.22-.32-1.93 0-.67.11-1.29.33-1.86s.53-1.07.93-1.49.89-.75 1.44-.99c.56-.24 1.18-.36 1.86-.36 1.47 0 2.56.43 3.28 1.3s1.08 2.17 1.08 3.91h-6.72c0 .39.05.73.16 1.06s.27.6.49.84.48.42.8.55c.31.13.68.19 1.09.19.5 0 .94-.11 1.33-.31s.7-.54.94-1l1.69.76-.02-.02zm-1.95-3.5c-.03-.69-.25-1.23-.63-1.62-.39-.39-.9-.58-1.54-.58-.33 0-.65.05-.92.17-.27.11-.51.27-.7.46s-.36.43-.48.7-.21.56-.26.88h4.53z"/></g></svg>