<?xml version="1.0" encoding="utf-8"?>
<!-- Generator: Adobe Illustrator 27.3.1, SVG Export Plug-In . SVG Version: 6.00 Build 0)  -->
<svg version="1.1" id="Layer_1" xmlns="http://www.w3.org/2000/svg" xmlns:xlink="http://www.w3.org/1999/xlink" x="0px" y="0px"
	 viewBox="0 0 605 296" style="enable-background:new 0 0 605 296;" xml:space="preserve">
<style type="text/css">
	.st0{fill:#FFFFFF;}
	.st1{fill:#E42527;}
	.st2{fill:#226DB4;}
</style>
<g>
	<g>
		<path d="M355.4,140.8h22.2v114.9h-22.2V140.8z"/>
		<path d="M396.5,197.8c0-33.9,25-58.6,59.6-58.6s58,24.7,58,58.9c0,34.7-24.2,59.2-59,59.2C420.3,257.2,396.5,232.7,396.5,197.8z
			 M491,198.2c0-22.5-11.8-41.4-36.2-41.4c-24.6,0-35.1,19.1-35.1,42.1c0,21.6,12.9,40.7,36.5,40.7C480.5,239.6,491,219.5,491,198.2
			z"/>
		<path d="M549.9,158.1h-32.2v-17.3h86.6v17.3h-32.1v97.5h-22.3V158.1z"/>
	</g>
	<g>
		<path d="M354.8,104.4l37-53.4h-33.2V40.5h50.6v5.2l-36.1,53.4h35v10.5h-53.3V104.4z"/>
		<path d="M440.8,58c15.4,0,27.2,10.8,27.2,26.3c0,15.9-12.4,26.4-27.7,26.4c-15.4,0-27.8-10.7-27.8-26.1
			C412.5,68.6,425.6,58,440.8,58z M455,84.3c0-9.3-4.7-17.1-14.7-17.1c-10.2,0-14.3,8.1-14.3,17.4c0,9,4.8,16.6,14.6,16.6
			C450.8,101.3,455,93.2,455,84.3z"/>
		<path d="M476.9,36.1H489v31c3.3-6.3,9.9-9.1,16.9-9.1C518,58,524,66.5,524,78v31.7h-12.2V79.2c0-7.3-3.8-11.3-10.8-11.3
			c-7.8,0-12.1,4.8-12.1,12v29.7h-12.1V36.1z"/>
		<path d="M560.2,58c15.4,0,27.2,10.8,27.2,26.3c0,15.9-12.4,26.4-27.7,26.4c-15.4,0-27.8-10.7-27.8-26.1
			C531.9,68.6,545,58,560.2,58z M574.4,84.3c0-9.3-4.7-17.1-14.7-17.1c-10.2,0-14.3,8.1-14.3,17.4c0,9,4.8,16.6,14.6,16.6
			C570.1,101.3,574.4,93.2,574.4,84.3z"/>
	</g>
</g>
<g>
	<g>
		<path class="st1" d="M201.8,103c-2,0-4-0.7-5.6-2.1c-12.3-10.7-27.3-17.3-43.5-18.8c-4.7-0.5-8.1-4.6-7.6-9.3
			c0.5-4.7,4.6-8.1,9.3-7.6c19.7,1.9,38.1,9.9,53,23c3.5,3.1,3.9,8.5,0.8,12C206.5,102,204.1,103,201.8,103z"/>
	</g>
	<g>
		<path class="st1" d="M232.8,73.7c-2.1,0-4.2-0.8-5.8-2.3c-10-9.3-21.3-16.8-33.7-22.2c-12.8-5.6-26.4-8.9-40.4-9.8
			c-4.7-0.3-8.2-4.4-7.9-9c0.3-4.7,4.4-8.2,9-7.9c16,1,31.5,4.8,46.1,11.2c14.2,6.2,27.1,14.7,38.5,25.3c3.4,3.2,3.6,8.6,0.4,12
			C237.3,72.8,235.1,73.7,232.8,73.7z"/>
	</g>
	<g>
		<path class="st2" d="M289.8,194.3c-1.8-10.2-8.9-18.9-14.6-24.4c-4.9-4.8-10.9-9.3-16.1-12c-0.2-11.8-2.1-23.4-5.8-34.5
			c-1.5-4.5-6.3-6.9-10.8-5.4c-4.5,1.5-6.9,6.3-5.4,10.8c3.3,9.9,5,20.2,5,30.8c0,6.4-0.6,12.7-1.8,18.9c-0.9,4.6,2.1,9.1,6.7,10
			c0.6,0.1,1.1,0.2,1.7,0.2c4,0,7.5-2.8,8.3-6.9c0.3-1.5,0.6-3,0.8-4.5c6.7,5.2,14,13.1,15.2,20c0.4,2.3,0.4,5.5-3.7,9.2
			c-3.3,3-10.5,3.3-20.2,0.8c-2.9-0.8-6.1-1.8-9.4-3c0,0-0.1,0-0.1,0c-7.7-2.9-16.4-7-26.1-12.4c-19.7-10.9-37.8-23.8-44-28.4
			c0.8-5.4-0.1-10.8-2.7-15.7c-6.5-12.1-21.7-16.6-33.7-10c-0.9,0.5-1.8,1.1-2.7,1.7c-7.6-5.1-25.5-16.8-45.5-26.9
			c-6.8-3.5-13.3-6.4-19.4-8.8c9.4-13.3,21.9-24,36.6-31.3c4.2-2.1,5.9-7.2,3.9-11.4c-2.1-4.2-7.2-5.9-11.4-3.9
			c-10.3,5.1-19.8,11.7-28.2,19.7C59.7,83,53.8,90.1,48.9,97.8c-1.4-0.4-2.9-0.7-4.2-1c-16.1-3.6-28.2-1.6-35.8,6
			c-7.2,7.1-10,15.7-8,25c2.1,10.1,9.6,18.5,15.5,23.9c4.5,4.1,9.8,7.8,14.6,10.4c0.3,14.5,3.3,28.6,8.9,41.9
			c5.7,13.6,14,25.8,24.5,36.3c10.5,10.5,22.7,18.7,36.3,24.5c14.1,6,29,9,44.4,9c20.5,0,40.5-5.5,58-15.8c15-8.8,27.7-21,37.3-35.5
			c7.7,2.4,14.5,3.6,20.5,3.6c8.3,0,15-2.3,20-7C288.3,212.1,291.4,203.6,289.8,194.3z M141.2,152.5c1.2-0.6,2.5-1,3.7-1
			c2.8,0,5.5,1.5,6.9,4.1c1,1.8,1.2,4,0.6,6c-0.6,2-1.9,3.7-3.8,4.7h0c-1.8,1-4,1.2-6,0.6c-2-0.6-3.7-1.9-4.7-3.8
			C136,159.4,137.4,154.6,141.2,152.5z M194.3,243.1c-14.9,8.8-32,13.5-49.4,13.5c-25.9,0-50.3-10.1-68.7-28.5s-28.5-42.7-28.5-68.7
			c0-6.1,0.6-12.2,1.7-18.2c0.9-4.6-2.2-9.1-6.8-9.9c-4.6-0.9-9.1,2.2-9.9,6.8c-0.3,1.5-0.5,3-0.7,4.5c-6.5-4.9-13.3-12-14.6-18.4
			c-0.5-2.3-0.6-5.5,3.3-9.3c3.2-3.1,10.3-3.7,20.1-1.5c2.8,0.6,5.9,1.5,9.1,2.5c0.1,0,0.1,0,0.2,0.1c7.9,2.6,16.9,6.4,26.9,11.5
			c19,9.6,36.5,21,43.8,25.9c-1.5,5.9-0.9,12.3,2.2,18c3.2,5.8,8.4,10.1,14.8,12c2.3,0.7,4.7,1,7.1,1c4.1,0,8.1-1,11.8-3
			c1.6-0.9,3.1-1.9,4.4-3c7.7,5.6,24.8,17.6,43.9,28.2c6.7,3.7,12.9,6.9,18.8,9.5C216.1,227,206,236.2,194.3,243.1z"/>
		<path class="st2" d="M128.2,197.8c-4.3-1.9-9.3,0.1-11.2,4.4l-8.5,19.5c-1.9,4.3,0.1,9.3,4.4,11.2c1.1,0.5,2.3,0.7,3.4,0.7
			c3.3,0,6.4-1.9,7.8-5.1l8.5-19.5C134.4,204.7,132.5,199.7,128.2,197.8z"/>
	</g>
</g>
</svg>
