<?xml version="1.0" encoding="utf-8"?>
<!-- Generator: Adobe Illustrator 27.4.0, SVG Export Plug-In . SVG Version: 6.00 Build 0)  -->
<svg version="1.1" id="Layer_1" xmlns="http://www.w3.org/2000/svg" xmlns:xlink="http://www.w3.org/1999/xlink" x="0px" y="0px"
	 viewBox="0 0 1130 296" style="enable-background:new 0 0 1130 296;" xml:space="preserve">
<style type="text/css">
	.st0{fill:#FFFFFF;}
	.st1{fill:#226DB4;}
</style>
<g>
	<g>
		<path d="M354.29,140.79h39.94c24.17,0,43.08,9.73,43.08,36.18c0,29.11-22.99,35.39-47.56,35.39h-13.18v43.32h-22.29V140.79z
			 M394.07,196.35c13.73,0,21.5-5.65,21.5-19.54c0-14.44-8.48-19.15-21.5-19.15h-17.5v38.69H394.07z"/>
		<path d="M496.17,245.4c-6.36,8.48-15.69,11.85-26.05,11.85c-15.77,0-28.17-8-28.17-24.48c0-23.31,24.64-27,44.18-27h9.89v-1.33
			c0-12.01-2.83-19.62-16.4-19.62c-8.16,0-15.7,4.24-18.68,12.01l-15.62-6.75c5.65-14.83,21.34-20.25,36.33-20.25
			c19.85,0,34.29,9.57,34.29,30.92v54.93h-19.78V245.4z M485.88,218.09c-9.26,0-24.01,1.1-24.01,13.81
			c0,8.08,5.89,11.07,13.42,11.07c10.2,0,20.72-5.34,20.72-16.72v-8.16H485.88z"/>
		<path d="M560.35,247.13l-32.96-75.49h21.5l22.05,53.68l20.56-53.68h19.54l-46.22,112.85h-19.7L560.35,247.13z"/>
		<path d="M624.46,171.63h20.09v12.87c5.02-9.65,15.22-14.67,26.13-14.67c10.36,0,20.48,4.55,24.41,14.99
			c6.36-9.57,17.42-14.99,29.35-14.99c19.3,0,28.41,14.13,28.41,32.65v53.21h-20.01v-51.95c0-10.52-5.34-17.34-16.01-17.34
			c-11.69,0-18.05,8.08-18.05,18.99v50.3h-20.09v-51.95c0-10.52-5.34-17.34-16.09-17.34c-11.61,0-18.05,8.08-18.05,18.99v50.3
			h-20.09V171.63z"/>
		<path d="M849.13,237.39c-6.98,14.83-22.05,19.85-37.51,19.85c-26.53,0-43.24-17.74-43.24-43.87c0-24.64,17.03-43.55,42.3-43.55
			c27.15,0,40.42,15.85,40.42,48.26h-62.23c0,14.2,8.24,24.56,23.54,24.56c9.1,0,16.64-3.69,21.03-12.24L849.13,237.39z
			 M831.08,204.9c-0.63-12.71-8.32-20.48-20.17-20.48c-12.63,0-20.01,8.87-21.74,20.48H831.08z"/>
		<path d="M867.26,171.63h20.09v13.34c5.42-10.36,16.71-15.15,28.41-15.15c20.17,0,29.27,14.2,29.27,33.27v52.58h-20.4v-50.62
			c0-11.77-5.26-18.68-17.19-18.68c-12.63,0-20.09,7.85-20.09,19.93v49.36h-20.09V171.63z"/>
		<path d="M1008.67,255.05c-4.32,1.26-8.79,2.04-13.81,2.04c-16.01,0-25.5-8.32-25.5-25.03v-45.67h-11.3v-14.75h11.3v-17.34
			l20.09-8.71v26.05h18.52v14.75h-18.52v43.87c0,6.59,2.83,10.67,10.2,10.67c2.83,0,5.96-0.63,9.03-1.65V255.05z"/>
		<path d="M1034.25,230.64c3.14,8.24,11.69,12.16,20.8,12.16c6.51,0,14.6-2.04,14.6-9.97c0-8.4-9.1-10.36-19.46-12.56
			c-13.5-2.83-28.64-6.12-28.64-24.96c0-17.26,16.09-25.5,31.31-25.5c13.34,0,28.56,5.02,34.06,18.29l-14.91,6.43
			c-3.3-7.46-11.54-10.28-18.44-10.28c-6.67,0-13.11,2.67-13.11,9.5c0,7.69,8.24,9.34,18.36,11.3c13.73,2.67,30.06,5.81,30.06,25.43
			c0,19.78-16.56,26.76-34.06,26.76c-14.83,0-30.76-5.02-36.02-20.09L1034.25,230.64z"/>
	</g>
	<g>
		<path d="M354.44,104.43l36.97-53.42h-33.23V40.47h50.63v5.25l-36.07,53.42h35.03v10.54h-53.32V104.43z"/>
		<path d="M440.48,57.96c15.36,0,27.18,10.78,27.18,26.28c0,15.93-12.43,26.38-27.7,26.38c-15.41,0-27.8-10.68-27.8-26.14
			C412.16,68.59,425.26,57.96,440.48,57.96z M454.66,84.33c0-9.31-4.73-17.06-14.65-17.06c-10.21,0-14.28,8.13-14.28,17.4
			c0,8.98,4.77,16.64,14.56,16.64C450.41,101.3,454.66,93.17,454.66,84.33z"/>
		<path d="M476.5,36.12h12.1v30.96c3.26-6.29,9.93-9.12,16.92-9.12c12.1,0,18.15,8.51,18.15,20.04v31.67h-12.2V79.18
			c0-7.28-3.78-11.25-10.83-11.25c-7.75,0-12.05,4.77-12.05,12.01v29.73h-12.1V36.12z"/>
		<path d="M559.84,57.96c15.36,0,27.18,10.78,27.18,26.28c0,15.93-12.43,26.38-27.7,26.38c-15.41,0-27.8-10.68-27.8-26.14
			C531.53,68.59,544.62,57.96,559.84,57.96z M574.02,84.33c0-9.31-4.73-17.06-14.65-17.06c-10.21,0-14.28,8.13-14.28,17.4
			c0,8.98,4.77,16.64,14.56,16.64C569.77,101.3,574.02,93.17,574.02,84.33z"/>
	</g>
</g>
<path class="st1" d="M289.83,100.73c0.02-1.63-0.06-3.26-0.22-4.88c-1.08-11.32-6.62-21.75-15.4-28.97c-2.3-2.03-4.8-3.83-7.46-5.37
	l-37.2-21.47l-17.14-10.06c-0.46-0.27-0.94-0.49-1.44-0.67l-43.6-25.18c-2.63-1.52-5.87-1.52-8.5,0L40.65,72.39
	c-2.63,1.52-4.25,4.33-4.25,7.37v110.3c0.03,19.24,10.29,37,26.93,46.65l95.53,55.15c2.63,1.52,5.87,1.52,8.5,0l91.38-52.76
	c1.49-0.76,2.97-1.55,4.43-2.4c0.51-0.29,0.98-0.63,1.42-1.02c15.68-9.88,25.21-27.11,25.23-45.64v-88.54
	C289.83,101.25,289.83,100.99,289.83,100.73z M272.82,153.97c-27.53,22.63-66.22,25.77-97.05,7.89l-39.76-23.07v-19.83l41.54,23.81
	c30.35,17.39,68.3,14.16,95.27-8.12V153.97z M163.12,274.68l-91.28-52.69c-11.39-6.6-18.4-18.76-18.43-31.92V84.66l109.71-63.34
	L221,54.73l38.82,22.77c1.18,0.7,2.3,1.48,3.36,2.35c5.9,5.34,9.38,12.85,9.62,20.8c-0.09,7.31-3.26,14.24-8.73,19.09
	c-21.5,19.34-53,22.67-78.07,8.26l-54.27-31.1c-4.07-2.34-9.27-0.93-11.61,3.15c-0.74,1.29-1.13,2.74-1.13,4.22v98.37
	c0,3.04,1.62,5.85,4.25,7.37l46.16,26.68c11.76,6.79,24.86,10.95,38.39,12.19L163.12,274.68z M254.4,221.99l-3.74,2.16
	c-10.66,5.34-22.42,8.12-34.34,8.12l0,0c-13.47-0.01-26.7-3.55-38.37-10.29l-41.93-24.23v-39.29l31.23,18.12
	c15.55,9.06,33.23,13.84,51.22,13.83c3.56,0,7.12-0.18,10.66-0.55c15.52-1.57,30.47-6.69,43.7-14.96v15.17
	C272.8,203.22,265.79,215.39,254.4,221.99z"/>
</svg>
