<?xml version="1.0" encoding="utf-8"?>
<!-- Generator: Adobe Illustrator 27.4.0, SVG Export Plug-In . SVG Version: 6.00 Build 0)  -->
<svg version="1.1" id="Layer_1" xmlns="http://www.w3.org/2000/svg" xmlns:xlink="http://www.w3.org/1999/xlink" x="0px" y="0px"
	 viewBox="0 0 910 296" style="enable-background:new 0 0 910 296;" xml:space="preserve">
<style type="text/css">
	.st0{fill:#FFFFFF;}
	.st1{fill:#E42527;}
	.st2{fill:#F9B21D;}
</style>
<g>
	<g>
		<path d="M382.17,140.79h39.94c24.17,0,43.08,9.73,43.08,36.18c0,29.11-22.99,35.39-47.56,35.39h-13.18v43.32h-22.29V140.79z
			 M421.95,196.35c13.73,0,21.5-5.65,21.5-19.54c0-14.44-8.48-19.15-21.5-19.15h-17.5v38.69H421.95z"/>
		<path d="M524.05,245.4c-6.36,8.48-15.69,11.85-26.05,11.85c-15.77,0-28.17-8-28.17-24.48c0-23.31,24.64-27,44.18-27h9.89v-1.33
			c0-12.01-2.83-19.62-16.4-19.62c-8.16,0-15.7,4.24-18.68,12.01l-15.62-6.75c5.65-14.83,21.34-20.25,36.33-20.25
			c19.85,0,34.29,9.57,34.29,30.92v54.93h-19.78V245.4z M513.77,218.09c-9.26,0-24.01,1.1-24.01,13.81
			c0,8.08,5.89,11.07,13.42,11.07c10.2,0,20.72-5.34,20.72-16.72v-8.16H513.77z"/>
		<path d="M588.24,247.13l-32.96-75.49h21.5l22.05,53.68l20.56-53.68h19.54l-46.22,112.85h-19.7L588.24,247.13z"/>
		<path d="M652.35,171.63h20.09v15.77c5.65-11.54,14.83-17.03,27.62-17.03v18.6c-16.24,0-27.62,5.34-27.62,23.31v43.4h-20.09V171.63
			z"/>
		<path d="M752.79,169.83c25.5,0,45.12,17.89,45.12,43.63c0,26.45-20.64,43.79-45.99,43.79c-25.58,0-46.14-17.74-46.14-43.4
			C705.78,187.48,727.52,169.83,752.79,169.83z M776.33,213.62c0-15.46-7.85-28.33-24.33-28.33c-16.95,0-23.7,13.5-23.7,28.88
			c0,14.91,7.93,27.62,24.17,27.62C769.27,241.79,776.33,228.29,776.33,213.62z"/>
		<path d="M813.13,137.57l20.09-8.71v126.82h-20.09V137.57z"/>
		<path d="M856.37,137.57l20.09-8.71v126.82h-20.09V137.57z"/>
	</g>
	<g>
		<path d="M382.32,104.43l36.97-53.42h-33.23V40.47h50.63v5.25l-36.07,53.42h35.03v10.54h-53.32V104.43z"/>
		<path d="M468.36,57.96c15.36,0,27.18,10.78,27.18,26.28c0,15.93-12.43,26.38-27.7,26.38c-15.41,0-27.8-10.68-27.8-26.14
			C440.04,68.59,453.14,57.96,468.36,57.96z M482.54,84.33c0-9.31-4.73-17.06-14.65-17.06c-10.21,0-14.28,8.13-14.28,17.4
			c0,8.98,4.77,16.64,14.56,16.64C478.29,101.3,482.54,93.17,482.54,84.33z"/>
		<path d="M504.38,36.12h12.1v30.96c3.26-6.29,9.93-9.12,16.92-9.12c12.1,0,18.15,8.51,18.15,20.04v31.67h-12.2V79.18
			c0-7.28-3.78-11.25-10.83-11.25c-7.75,0-12.05,4.77-12.05,12.01v29.73h-12.1V36.12z"/>
		<path d="M587.72,57.96c15.36,0,27.18,10.78,27.18,26.28c0,15.93-12.43,26.38-27.7,26.38c-15.41,0-27.8-10.68-27.8-26.14
			C559.41,68.59,572.5,57.96,587.72,57.96z M601.9,84.33c0-9.31-4.73-17.06-14.65-17.06c-10.21,0-14.28,8.13-14.28,17.4
			c0,8.98,4.77,16.64,14.56,16.64C597.65,101.3,601.9,93.17,601.9,84.33z"/>
	</g>
</g>
<g>
	<g>
		<path class="st1" d="M240.97,293H206.7c-14.05,0-25.49-11.44-25.49-25.49v-42.72H53.2c-14.05,0-25.49-11.44-25.49-25.49V28.49
			C27.71,14.44,39.15,3,53.2,3h187.77c20.5,0,39.77,7.98,54.27,22.48c14.5,14.49,22.48,33.77,22.48,54.27v136.5
			c0,20.5-7.98,39.77-22.48,54.27C280.74,285.02,261.46,293,240.97,293z M198.2,216.29v51.22c0,4.68,3.81,8.5,8.5,8.5h34.27
			c32.95,0,59.76-26.81,59.76-59.76v-88.36c-1.72,2.12-3.56,4.17-5.51,6.13c-14.5,14.49-33.77,22.48-54.27,22.48H206.7
			c-4.68,0-8.5,3.81-8.5,8.5L198.2,216.29L198.2,216.29z M53.2,19.99c-4.68,0-8.5,3.81-8.5,8.5V199.3c0,4.68,3.81,8.5,8.5,8.5
			h128.01v-42.81c0-14.05,11.44-25.49,25.49-25.49h34.24c32.95,0,59.76-26.81,59.76-59.76s-26.81-59.76-59.76-59.76H53.2z"/>
	</g>
	<g>
		<path class="st2" d="M240.97,116.57c-20.3,0-36.82-16.51-36.82-36.82s16.51-36.82,36.82-36.82s36.82,16.51,36.82,36.82
			S261.27,116.57,240.97,116.57z M240.97,59.92c-10.93,0-19.82,8.89-19.82,19.82s8.89,19.82,19.82,19.82
			c10.93,0,19.82-8.89,19.82-19.82S251.9,59.92,240.97,59.92z"/>
	</g>
	<g>
		<path class="st1" d="M138.06,70.96H87.14c-4.69,0-8.5-3.81-8.5-8.5s3.81-8.5,8.5-8.5h50.92c4.69,0,8.5,3.81,8.5,8.5
			S142.75,70.96,138.06,70.96z"/>
	</g>
	<g>
		<path class="st1" d="M121.09,104.91H87.14c-4.69,0-8.5-3.81-8.5-8.5s3.81-8.5,8.5-8.5h33.96c4.69,0,8.5,3.81,8.5,8.5
			S125.79,104.91,121.09,104.91z"/>
	</g>
</g>
</svg>
