<?xml version="1.0" encoding="utf-8"?>
<!-- Generator: Adobe Illustrator 27.6.1, SVG Export Plug-In . SVG Version: 6.00 Build 0)  -->
<svg version="1.1" id="Layer_1" xmlns="http://www.w3.org/2000/svg" xmlns:xlink="http://www.w3.org/1999/xlink" x="0px" y="0px"
	 viewBox="0 0 1320 296" style="enable-background:new 0 0 1320 296;" xml:space="preserve">
<style type="text/css">
	.st0{fill:#E42527;}
</style>
<g>
	<g>
		<path d="M339.3,140.8h39.9c24.2,0,43.1,9.7,43.1,36.2c0,29.1-23,35.4-47.6,35.4h-13.2v43.3h-22.3L339.3,140.8L339.3,140.8z
			 M379.1,196.3c13.7,0,21.5-5.6,21.5-19.5s-8.5-19.1-21.5-19.1h-17.5v38.7L379.1,196.3L379.1,196.3z"/>
		<path d="M437.3,171.6h20.1v15.8c5.6-11.5,14.8-17,27.6-17V189c-16.2,0-27.6,5.3-27.6,23.3v43.4h-20.1V171.6L437.3,171.6z"/>
		<path d="M537.7,169.8c25.5,0,45.1,17.9,45.1,43.6s-20.6,43.8-46,43.8s-46.1-17.7-46.1-43.4S512.5,169.8,537.7,169.8z M561.3,213.6
			c0-15.5-7.8-28.3-24.3-28.3s-23.7,13.5-23.7,28.9s7.9,27.6,24.2,27.6S561.3,228.3,561.3,213.6L561.3,213.6z"/>
		<path d="M586.2,270.6c7.5-0.4,11.8-3.8,11.8-11.7v-87.1h20.1v86.6c0,21-12.8,27.5-31.9,27.5V270.6L586.2,270.6z M608,136.1
			c6.5,0,11.7,4.8,11.7,11.4s-5.1,11.5-11.7,11.5s-11.9-4.9-11.9-11.5S601.5,136.1,608,136.1z"/>
		<path d="M716,237.4c-7,14.8-22,19.8-37.5,19.8c-26.5,0-43.2-17.7-43.2-43.9c0-24.6,17-43.6,42.3-43.6c27.2,0,40.4,15.9,40.4,48.3
			h-62.2c0,14.2,8.2,24.6,23.5,24.6c9.1,0,16.6-3.7,21-12.2L716,237.4L716,237.4z M698,204.9c-0.6-12.7-8.3-20.5-20.2-20.5
			c-12.6,0-20,8.9-21.7,20.5H698z"/>
		<path d="M810,231.9c-5.6,17.6-21.3,25.4-38.8,25.4c-26.7,0-42.6-17.9-42.6-43.9s17.8-43.6,43.1-43.6c17,0,31.7,7.1,37.9,23.6
			l-16.2,7.1c-3.4-9.4-11.5-14.8-21.7-14.8c-16.4,0-22.4,14.2-22.4,28.6s6.5,27.6,22.8,27.6c11.5,0,19.3-6.4,22.8-16.9L810,231.9
			L810,231.9z"/>
		<path d="M868.4,255.1c-4.3,1.3-8.8,2-13.8,2c-16,0-25.5-8.3-25.5-25v-45.7h-11.3v-14.8h11.3v-17.3l20.1-8.7v26.1h18.5v14.8h-18.5
			v43.9c0,6.6,2.8,10.7,10.2,10.7c2.8,0,6-0.6,9-1.6L868.4,255.1L868.4,255.1z"/>
		<path d="M894,230.6c3.1,8.2,11.7,12.2,20.8,12.2c6.5,0,14.6-2,14.6-10c0-8.4-9.1-10.4-19.5-12.6c-13.5-2.8-28.6-6.1-28.6-25
			c0-17.3,16.1-25.5,31.3-25.5c13.3,0,28.6,5,34.1,18.3l-14.9,6.4c-3.3-7.5-11.5-10.3-18.4-10.3s-13.1,2.7-13.1,9.5
			c0,7.7,8.2,9.3,18.4,11.3c13.7,2.7,30.1,5.8,30.1,25.4s-16.6,26.8-34.1,26.8c-14.8,0-30.8-5-36-20.1L894,230.6L894,230.6z"/>
		<path d="M1000.7,140.8h39.9c24.2,0,43.1,9.7,43.1,36.2c0,29.1-23,35.4-47.6,35.4H1023v43.3h-22.3L1000.7,140.8L1000.7,140.8z
			 M1040.5,196.3c13.7,0,21.5-5.6,21.5-19.5s-8.5-19.1-21.5-19.1H1023v38.7L1040.5,196.3L1040.5,196.3z"/>
		<path d="M1099.3,137.6l20.1-8.7v126.8h-20.1V137.6L1099.3,137.6z"/>
		<path d="M1198.3,242.5c-5.3,10.2-16.1,14.8-27.7,14.8c-19.3,0-29.5-12.7-29.5-31.8v-53.8h20.1V223c0,11.5,5.3,18.5,16.9,18.5
			c12.6,0,20.2-8.1,20.2-20.1v-49.8h20v84.1h-20V242.5L1198.3,242.5z"/>
		<path d="M1249.2,230.6c3.1,8.2,11.7,12.2,20.8,12.2c6.5,0,14.6-2,14.6-10c0-8.4-9.1-10.4-19.5-12.6c-13.5-2.8-28.6-6.1-28.6-25
			c0-17.3,16.1-25.5,31.3-25.5c13.3,0,28.6,5,34.1,18.3l-14.9,6.4c-3.3-7.5-11.5-10.3-18.4-10.3s-13.1,2.7-13.1,9.5
			c0,7.7,8.2,9.3,18.4,11.3c13.7,2.7,30.1,5.8,30.1,25.4s-16.6,26.8-34.1,26.8c-14.8,0-30.8-5-36-20.1L1249.2,230.6L1249.2,230.6z"
			/>
	</g>
	<g>
		<path d="M339.4,104.4l37-53.4h-33.2V40.5h50.6v5.2l-36.1,53.4h35v10.5h-53.3L339.4,104.4L339.4,104.4z"/>
		<path d="M425.5,58c15.4,0,27.2,10.8,27.2,26.3s-12.4,26.4-27.7,26.4s-27.8-10.7-27.8-26.1S410.2,58,425.5,58z M439.7,84.3
			c0-9.3-4.7-17.1-14.6-17.1s-14.3,8.1-14.3,17.4s4.8,16.6,14.6,16.6S439.7,93.2,439.7,84.3L439.7,84.3z"/>
		<path d="M461.5,36.1h12.1v31c3.3-6.3,9.9-9.1,16.9-9.1c12.1,0,18.1,8.5,18.1,20v31.7h-12.2V79.2c0-7.3-3.8-11.2-10.8-11.2
			c-7.8,0-12,4.8-12,12v29.7h-12.1L461.5,36.1L461.5,36.1z"/>
		<path d="M544.8,58c15.4,0,27.2,10.8,27.2,26.3s-12.4,26.4-27.7,26.4s-27.8-10.7-27.8-26.1S529.6,58,544.8,58z M559,84.3
			c0-9.3-4.7-17.1-14.7-17.1s-14.3,8.1-14.3,17.4s4.8,16.6,14.6,16.6S559,93.2,559,84.3L559,84.3z"/>
	</g>
</g>
<g>
	<path class="st0" d="M274.8,78.3c0-0.1,0-0.1,0-0.2c0-0.1,0-0.2,0-0.3c0-0.1,0-0.1,0-0.2c0-0.1,0-0.3-0.1-0.4c0-0.1,0-0.1,0-0.2
		c0-0.1-0.1-0.2-0.1-0.4c0,0,0-0.1,0-0.1c-0.1-0.2-0.1-0.3-0.2-0.4c0,0,0-0.1-0.1-0.1c-0.1-0.3-0.3-0.6-0.5-0.9c0,0,0-0.1-0.1-0.1
		c-0.1-0.1-0.2-0.3-0.3-0.4c0,0-0.1-0.1-0.1-0.1c-0.1-0.1-0.2-0.2-0.3-0.3c0,0-0.1-0.1-0.1-0.1c-0.1-0.1-0.2-0.2-0.3-0.3
		c0,0-0.1-0.1-0.1-0.1c-0.1-0.1-0.2-0.1-0.3-0.2c0,0-0.1-0.1-0.1-0.1c0,0,0,0-0.1,0L151.3,3.8c-1.8-1-3.9-1-5.7,0L25,73.4
		c-1.8,1-2.8,2.9-2.8,4.9v139.3c0,2,1.1,3.9,2.8,4.9l120.7,69.7c0,0,0,0,0.1,0c0.1,0,0.1,0.1,0.2,0.1c0.1,0.1,0.2,0.1,0.3,0.1
		c0,0,0.1,0,0.1,0.1c0.1,0.1,0.3,0.1,0.4,0.2c0.1,0,0.1,0,0.2,0.1c0.1,0,0.2,0.1,0.3,0.1c0,0,0.1,0,0.1,0c0.2,0,0.3,0.1,0.5,0.1
		c0,0,0.1,0,0.1,0c0.2,0,0.3,0,0.5,0c0.2,0,0.3,0,0.5,0c0,0,0.1,0,0.1,0c0.2,0,0.3,0,0.5-0.1c0,0,0.1,0,0.1,0c0.1,0,0.2-0.1,0.3-0.1
		c0.1,0,0.1,0,0.2-0.1c0.1,0,0.3-0.1,0.4-0.2c0,0,0.1,0,0.1-0.1c0.1,0,0.2-0.1,0.3-0.1c0.1,0,0.1-0.1,0.2-0.1c0,0,0,0,0.1,0
		L272,222.6c1.8-1,2.8-2.9,2.8-4.9L274.8,78.3C274.8,78.3,274.8,78.3,274.8,78.3z M154.2,151.3l36.8-21.2v42.5l-36.8,21.2V151.3z
		 M148.5,141.5L74.4,98.7l44.3-25.6l27,15.6c0.9,0.5,1.9,0.8,2.8,0.8c1,0,2-0.3,2.8-0.8l60.8-35.1c0.4-0.3,0.8-0.6,1.2-0.9
		l44.5,25.7L148.5,141.5z M33.5,81.6l115-66.4l53.7,31l-53.7,31l-27-15.6c0,0-0.1,0-0.1-0.1c-0.1-0.1-0.2-0.1-0.3-0.2
		c-0.1,0-0.2-0.1-0.2-0.1c-0.1,0-0.2-0.1-0.3-0.1c-0.1,0-0.2-0.1-0.3-0.1c-0.1,0-0.1,0-0.2-0.1c-0.1,0-0.2,0-0.3-0.1
		c-0.1,0-0.1,0-0.2,0c-0.1,0-0.2,0-0.3,0c-0.1,0-0.2,0-0.2,0c-0.1,0-0.2,0-0.3,0c-0.1,0-0.2,0-0.3,0c-0.1,0-0.2,0-0.2,0
		c-0.1,0-0.2,0-0.3,0c-0.1,0-0.1,0-0.2,0c-0.1,0-0.2,0-0.3,0.1c-0.1,0-0.1,0-0.2,0.1c-0.1,0-0.2,0.1-0.3,0.1c-0.1,0-0.2,0.1-0.2,0.1
		c-0.1,0-0.2,0.1-0.3,0.1c-0.1,0-0.2,0.1-0.3,0.2c0,0-0.1,0-0.1,0.1L63.1,92.1l-11.4-6.6C49,84,45.5,84.9,44,87.7
		c-1.6,2.7-0.6,6.2,2.1,7.7l14.2,8.2c0,0,0,0,0,0l82.5,47.6v126.3L33.5,214.4V81.6z M154.2,277.5v-70.6l45.3-26.1
		c1.8-1,2.8-2.9,2.8-4.9v-52.3l61.3-35.4v126.3L154.2,277.5z"/>
	<path class="st0" d="M224.7,71.9c-1.6-2.7-5-3.6-7.7-2.1l-68.5,39.5L115.1,90c-2.7-1.6-6.2-0.6-7.7,2.1s-0.6,6.2,2.1,7.7l36.3,20.9
		c0.9,0.5,1.9,0.8,2.8,0.8s2-0.3,2.8-0.8l71.3-41.2C225.3,78.1,226.3,74.6,224.7,71.9z"/>
</g>
</svg>
