<?xml version="1.0" encoding="UTF-8"?>
<svg id="Layer_1" data-name="Layer 1" xmlns="http://www.w3.org/2000/svg" viewBox="0 0 648.08 296">
  <defs>
    <style>
      .cls-1 {
        fill: #226db4;
      }

      .cls-2 {
        fill: #089949;
      }
    </style>
  </defs>
  <g>
    <g>
      <path d="m342.93,140.79h41.59c22.99,0,43.24,8.48,43.24,34.53,0,16.4-9.81,27-25.43,30.84l32.33,49.52h-24.01l-29.9-46.3h-15.54v46.3h-22.29v-114.89Zm40.96,53.21c12.79,0,22.21-4.87,22.21-18.6s-10.04-17.58-22.21-17.58h-18.68v36.18h18.68Z"/>
      <path d="m449.26,140.79h39.94c24.17,0,43.08,9.73,43.08,36.18,0,29.11-22.99,35.39-47.56,35.39h-13.18v43.32h-22.29v-114.89Zm39.79,55.56c13.73,0,21.5-5.65,21.5-19.54s-8.48-19.15-21.5-19.15h-17.5v38.69h17.5Z"/>
      <path d="m565.25,140.79h28.8l38.53,114.89h-22.99l-8.55-26.52h-45.12l-8.32,26.52h-21.11l38.77-114.89Zm30.84,72.43l-17.5-54.46-17.58,54.46h35.08Z"/>
    </g>
    <g>
      <path d="m343.09,104.43l36.97-53.42h-33.23v-10.54h50.63v5.25l-36.07,53.42h35.03v10.54h-53.32v-5.25Z"/>
      <path d="m429.13,57.96c15.36,0,27.18,10.78,27.18,26.28s-12.43,26.38-27.7,26.38-27.8-10.68-27.8-26.14,13.09-26.52,28.32-26.52Zm14.18,26.38c0-9.31-4.73-17.06-14.65-17.06s-14.28,8.13-14.28,17.4,4.77,16.64,14.56,16.64,14.37-8.13,14.37-16.97Z"/>
      <path d="m465.15,36.12h12.1v30.96c3.26-6.29,9.93-9.12,16.92-9.12,12.1,0,18.15,8.51,18.15,20.04v31.67h-12.2v-30.49c0-7.28-3.78-11.25-10.83-11.25-7.75,0-12.05,4.77-12.05,12.01v29.73h-12.1V36.12Z"/>
      <path d="m548.49,57.96c15.36,0,27.18,10.78,27.18,26.28s-12.43,26.38-27.7,26.38-27.8-10.68-27.8-26.14,13.09-26.52,28.32-26.52Zm14.18,26.38c0-9.31-4.73-17.06-14.65-17.06s-14.28,8.13-14.28,17.4,4.77,16.64,14.56,16.64,14.37-8.13,14.37-16.97Z"/>
    </g>
  </g>
  <g>
    <path class="cls-2" d="m257.33,118.97c.05-.06.1-.12.15-.18.04-.05.07-.09.11-.14.05-.07.1-.14.15-.21.03-.04.06-.08.09-.13.05-.07.1-.15.14-.22.03-.04.05-.08.08-.13.04-.07.09-.15.13-.22.03-.05.05-.09.08-.14.04-.07.07-.14.11-.21.03-.05.05-.11.08-.16.03-.07.06-.13.09-.2.03-.06.06-.13.08-.19.02-.06.05-.12.07-.18.03-.07.06-.14.08-.22.02-.05.04-.1.05-.15.03-.08.05-.16.08-.25.01-.05.03-.09.04-.14.02-.09.05-.18.07-.27.01-.04.02-.08.03-.13.02-.09.04-.18.06-.28,0-.04.02-.09.02-.13.02-.09.03-.18.05-.28,0-.05.01-.1.02-.15.01-.09.02-.17.03-.26,0-.07.01-.13.02-.2,0-.07.01-.14.02-.21,0-.12,0-.25,0-.37,0-.02,0-.03,0-.05v-22.9c0-4.69-3.8-8.5-8.5-8.5s-8.5,3.8-8.5,8.5v2.38L159.66,10.47c-4.82-4.82-11.22-7.47-18.03-7.47s-13.21,2.65-18.03,7.47L12.39,121.69c-5.85,5.85-7.59,14.58-4.42,22.23,3.17,7.65,10.56,12.59,18.84,12.59h63.06c4.69,0,8.5-3.8,8.5-8.5s-3.8-8.5-8.5-8.5H26.81c-1.98,0-2.82-1.31-3.14-2.1s-.66-2.31.74-3.7L135.63,22.49c1.61-1.61,3.74-2.49,6.01-2.49s4.4.88,6.01,2.49l82.6,82.6h-2.38c-4.69,0-8.5,3.8-8.5,8.5s3.8,8.5,8.5,8.5h22.89c.14,0,.29,0,.43-.01.05,0,.11,0,.16-.01.08,0,.17-.01.25-.02.08,0,.15-.02.23-.03.06,0,.12-.01.18-.02.08-.01.17-.03.25-.04.05,0,.1-.02.15-.03.09-.02.17-.04.26-.06.05-.01.1-.02.15-.03.08-.02.16-.04.25-.07.05-.01.1-.03.16-.04.08-.02.15-.05.23-.07.06-.02.12-.04.17-.06.07-.02.13-.05.2-.08.06-.02.13-.05.19-.08.06-.02.12-.05.17-.08.07-.03.14-.06.21-.1.05-.02.1-.05.15-.07.08-.04.15-.08.23-.12.04-.02.08-.05.13-.07.08-.04.16-.09.24-.14.04-.02.08-.05.11-.07.08-.05.16-.1.24-.15.04-.03.08-.05.11-.08.07-.05.15-.1.22-.16.04-.03.09-.07.13-.1.06-.05.13-.1.19-.15.06-.05.12-.1.17-.15.05-.04.09-.08.14-.12.21-.19.41-.39.6-.6.04-.04.08-.09.11-.13.05-.06.11-.12.16-.18Z"/>
    <circle class="cls-1" cx="124.67" cy="130.78" r="8.5"/>
    <circle class="cls-1" cx="158.8" cy="130.81" r="8.5"/>
    <path class="cls-1" d="m275.27,152.1c-3.17-7.65-10.56-12.59-18.84-12.59h-62.95c-4.69,0-8.5,3.8-8.5,8.5v26.09c0,4.7-3.82,8.52-8.52,8.52h-69.49c-4.7,0-8.52-3.82-8.52-8.52v-60.83c0-4.7,3.82-8.52,8.52-8.52h69.49c4.7,0,8.52,3.82,8.52,8.52v.52c0,4.69,3.8,8.5,8.5,8.5s8.5-3.8,8.5-8.5v-.52c0-14.07-11.45-25.52-25.52-25.52h-69.49c-14.07,0-25.52,11.45-25.52,25.52v60.83c0,14.07,11.45,25.52,25.52,25.52h69.49c14.07,0,25.52-11.45,25.52-25.52v-17.59h54.45c1.98,0,2.82,1.31,3.14,2.1.32.78.66,2.31-.74,3.7l-111.22,111.22c-3.31,3.31-8.7,3.31-12.02,0l-82.41-82.41h2.38c4.69,0,8.5-3.8,8.5-8.5s-3.8-8.5-8.5-8.5h-22.89c-.14,0-.29,0-.43.01-.05,0-.11,0-.16.01-.08,0-.17.01-.25.02-.08,0-.15.02-.23.03-.06,0-.12.01-.18.02-.08.01-.17.03-.25.04-.05,0-.1.02-.16.03-.09.02-.17.04-.26.06-.05.01-.1.02-.15.03-.08.02-.16.04-.25.07-.05.01-.1.03-.16.04-.08.02-.15.05-.23.07-.06.02-.12.04-.17.06-.07.02-.13.05-.2.08-.06.02-.13.05-.19.08-.06.02-.12.05-.17.08-.07.03-.14.06-.21.1-.05.02-.1.05-.15.07-.08.04-.15.08-.23.12-.04.02-.08.05-.13.07-.08.04-.16.09-.24.14-.04.02-.07.05-.11.07-.08.05-.16.1-.24.15-.04.02-.07.05-.11.08-.08.05-.15.11-.23.16-.04.03-.08.06-.12.1-.07.05-.13.1-.2.16-.05.04-.11.09-.16.14-.05.04-.1.09-.15.13-.1.09-.21.19-.3.29h0s0,0,0,0c-.1.1-.19.2-.29.3-.05.05-.09.1-.13.15-.05.05-.09.11-.14.16-.05.07-.1.13-.16.2-.03.04-.07.08-.1.13-.05.07-.11.15-.16.22-.03.04-.05.08-.08.11-.05.08-.1.16-.15.23-.02.04-.05.08-.07.11-.05.08-.09.16-.14.23-.02.04-.05.09-.07.13-.04.07-.08.15-.12.23-.02.05-.05.1-.07.15-.03.07-.06.14-.09.21-.03.06-.05.12-.08.18-.03.06-.05.13-.07.19-.03.07-.05.14-.08.21-.02.06-.04.11-.06.17-.03.08-.05.15-.08.23-.02.05-.03.1-.04.15-.02.08-.05.17-.07.25-.01.05-.02.09-.03.14-.02.09-.04.17-.06.26,0,.05-.02.1-.03.15-.02.09-.03.17-.04.26,0,.06-.01.11-.02.17,0,.08-.02.16-.03.24,0,.08-.01.16-.02.24,0,.06,0,.12-.01.18,0,.14-.01.28-.01.42v22.89c0,4.69,3.8,8.5,8.5,8.5s8.5-3.8,8.5-8.5v-2.38l82.41,82.41c4.97,4.97,11.5,7.45,18.03,7.45s13.06-2.49,18.03-7.46l111.22-111.22c5.85-5.85,7.59-14.58,4.42-22.23Z"/>
  </g>
</svg>