<?xml version="1.0" encoding="utf-8"?>
<!-- Generator: Adobe Illustrator 27.3.1, SVG Export Plug-In . SVG Version: 6.00 Build 0)  -->
<svg version="1.1" id="Layer_1" xmlns="http://www.w3.org/2000/svg" xmlns:xlink="http://www.w3.org/1999/xlink" x="0px" y="0px"
	 viewBox="0 0 732 296" style="enable-background:new 0 0 732 296;" xml:space="preserve">
<style type="text/css">
	.st0{fill:#FFFFFF;}
	.st1{fill:#089949;}
</style>
<g>
	<g>
		<path d="M372.6,221.1c4.7,13.1,16.3,19.9,30.3,19.9c10.6,0,21.7-5.6,21.7-17.6c0-12.7-12.6-15-26.5-17.5
			c-17.8-3.2-37.4-7-37.4-33.4c0-22.1,19.8-33.3,39.6-33.3c18.4,0,34.6,7.5,41.7,25.4l-16.3,7.4c-4.9-10.1-14-16.2-25.7-16.2
			c-9.3,0-18.7,3.9-18.7,15.1c0,12.4,11.6,14.6,25.6,17.1c18,3.2,38.8,6.8,38.8,33.7c0,23.3-21.7,35.6-42.9,35.6
			c-20.6,0-41.4-7.4-47.6-28.7L372.6,221.1z"/>
		<path d="M505.3,255.1c-4.3,1.3-8.8,2-13.8,2c-16,0-25.5-8.3-25.5-25v-45.7h-11.3v-14.8H466v-17.3l20.1-8.7v26.1h18.5v14.8h-18.5
			v43.9c0,6.6,2.8,10.7,10.2,10.7c2.8,0,6-0.6,9-1.6V255.1z"/>
		<path d="M570.6,245.4c-6.4,8.5-15.7,11.8-26.1,11.8c-15.8,0-28.2-8-28.2-24.5c0-23.3,24.6-27,44.2-27h9.9v-1.3
			c0-12-2.8-19.6-16.4-19.6c-8.2,0-15.7,4.2-18.7,12l-15.6-6.7c5.6-14.8,21.3-20.2,36.3-20.2c19.9,0,34.3,9.6,34.3,30.9v54.9h-19.8
			V245.4z M560.3,218.1c-9.3,0-24,1.1-24,13.8c0,8.1,5.9,11.1,13.4,11.1c10.2,0,20.7-5.3,20.7-16.7v-8.2H560.3z"/>
		<path d="M611.5,171.6h20.1v15.8c5.7-11.5,14.8-17,27.6-17V189c-16.2,0-27.6,5.3-27.6,23.3v43.4h-20.1V171.6z"/>
		<path d="M718.1,255.1c-4.3,1.3-8.8,2-13.8,2c-16,0-25.5-8.3-25.5-25v-45.7h-11.3v-14.8h11.3v-17.3l20.1-8.7v26.1h18.5v14.8h-18.5
			v43.9c0,6.6,2.8,10.7,10.2,10.7c2.8,0,6-0.6,9-1.6V255.1z"/>
	</g>
	<g>
		<path d="M363.9,104.4l37-53.4h-33.2V40.5h50.6v5.2l-36.1,53.4h35v10.5h-53.3V104.4z"/>
		<path d="M449.9,58c15.4,0,27.2,10.8,27.2,26.3c0,15.9-12.4,26.4-27.7,26.4c-15.4,0-27.8-10.7-27.8-26.1
			C421.6,68.6,434.7,58,449.9,58z M464.1,84.3c0-9.3-4.7-17.1-14.7-17.1c-10.2,0-14.3,8.1-14.3,17.4c0,9,4.8,16.6,14.6,16.6
			C459.8,101.3,464.1,93.2,464.1,84.3z"/>
		<path d="M485.9,36.1H498v31c3.3-6.3,9.9-9.1,16.9-9.1c12.1,0,18.2,8.5,18.2,20v31.7h-12.2V79.2c0-7.3-3.8-11.3-10.8-11.3
			c-7.8,0-12.1,4.8-12.1,12v29.7h-12.1V36.1z"/>
		<path d="M569.3,58c15.4,0,27.2,10.8,27.2,26.3c0,15.9-12.4,26.4-27.7,26.4c-15.4,0-27.8-10.7-27.8-26.1
			C541,68.6,554.1,58,569.3,58z M583.5,84.3c0-9.3-4.7-17.1-14.7-17.1c-10.2,0-14.3,8.1-14.3,17.4c0,9,4.8,16.6,14.6,16.6
			C579.2,101.3,583.5,93.2,583.5,84.3z"/>
	</g>
</g>
<path class="st1" d="M296.9,5.5c-1.6-1.6-3.8-2.5-6-2.5h-91.2c-4.7,0-8.5,3.8-8.5,8.5V94h-82.4c-4.7,0-8.5,3.8-8.5,8.5V185H17.8
	c-4.7,0-8.5,3.8-8.5,8.5v91c0,4.7,3.8,8.5,8.5,8.5h273c4.7,0,8.5-3.8,8.5-8.5l0.1-273C299.4,9.3,298.5,7.1,296.9,5.5z M282.3,276
	h-256v-74h82.4c4.7,0,8.5-3.8,8.5-8.5V111h82.4c4.7,0,8.5-3.8,8.5-8.5V20h74.2L282.3,276z"/>
</svg>
