<svg data-name="Layer 1" xmlns="http://www.w3.org/2000/svg" viewBox="0 0 351 294"><defs><mask id="customize-a" x="0" y="0" width="350.54" height="476.02" maskUnits="userSpaceOnUse"><path d="M.73 230.09h349.81v63.65H.73v-63.65z" fill="#d9d9d9"/></mask></defs><g mask="url(#customize-a)"><rect x="17.43" y="245.53" width="321.1" height="229.84" rx="9.33" ry="9.33" fill="#fff"/><path d="M329.21 476.02H26.77c-5.5 0-9.98-4.48-9.98-9.98V254.86c0-5.5 4.48-9.98 9.98-9.98h302.44c5.5 0 9.98 4.48 9.98 9.98v211.18c0 5.5-4.48 9.98-9.98 9.98zM26.77 246.18c-4.79 0-8.68 3.89-8.68 8.68v211.18c0 4.79 3.89 8.68 8.68 8.68h302.44c4.79 0 8.68-3.89 8.68-8.68V254.86c0-4.79-3.89-8.68-8.68-8.68H26.77z" fill="#edecea"/><path d="M95.15 273.46h4.03c.56 0 1.08.05 1.55.15.48.1.9.27 1.25.52s.63.58.83.99c.2.42.3.94.3 1.57s-.15 1.18-.46 1.62c-.31.44-.77.76-1.39.96.85.17 1.47.5 1.86.97.39.47.59 1.12.59 1.95 0 .63-.1 1.17-.31 1.61-.21.44-.49.8-.86 1.09-.36.28-.79.49-1.27.61-.49.13-1.01.19-1.58.19h-4.54v-12.24zm4.02 5.34c.4 0 .75-.04 1.06-.11.31-.07.57-.19.78-.37.21-.17.37-.4.48-.69.11-.29.16-.64.16-1.07s-.07-.73-.2-.98-.31-.45-.54-.59c-.23-.15-.49-.24-.8-.3-.3-.05-.63-.08-.97-.08H96.6v4.18h2.57zm.48 5.73c.4 0 .76-.04 1.09-.12.32-.08.6-.22.82-.4.22-.18.39-.42.51-.71s.18-.64.18-1.05c0-.46-.07-.84-.22-1.14s-.35-.53-.6-.7-.55-.29-.89-.35c-.34-.06-.71-.1-1.09-.1h-2.84v4.57h3.05zM113.21 283.64c-.41.73-.92 1.28-1.55 1.65-.63.37-1.36.55-2.18.55-.68 0-1.29-.12-1.83-.36s-.99-.57-1.36-.99c-.37-.42-.65-.91-.85-1.47-.19-.56-.29-1.16-.29-1.78s.1-1.23.29-1.8c.2-.56.47-1.06.84-1.48.36-.42.8-.76 1.32-1.01s1.1-.37 1.74-.37c.75 0 1.38.13 1.9.39.51.26.93.62 1.25 1.06.32.45.54.97.68 1.56.14.6.2 1.23.2 1.9h-6.74c0 .45.05.86.18 1.25s.31.72.55 1c.24.28.54.51.9.67.36.16.77.24 1.24.24.26 0 .51-.04.75-.12.24-.08.46-.19.67-.33.21-.14.39-.31.56-.5.17-.19.31-.4.43-.62l1.32.56zm-1.32-3.29c-.02-.79-.25-1.42-.69-1.88-.43-.47-1.06-.7-1.87-.7-.37 0-.71.07-1.02.2-.31.13-.58.32-.81.55-.23.23-.41.51-.56.82s-.24.65-.28 1.01h5.22zM115.29 276.74h1.42v1.42c.14-.28.31-.52.52-.71a2.99 2.99 0 011.5-.77c.29-.06.58-.09.89-.09.56 0 1.04.09 1.45.28.41.19.75.45 1.02.77.27.33.47.72.61 1.17.13.46.2.95.2 1.48v5.41h-1.42v-5.51c0-.76-.18-1.35-.54-1.75-.36-.41-.91-.61-1.65-.61-.39 0-.74.06-1.06.17-.31.11-.58.28-.81.49-.23.21-.4.47-.52.77s-.18.64-.18 1.02v5.42h-1.42v-8.95zM132.86 283.64c-.41.73-.92 1.28-1.55 1.65-.63.37-1.36.55-2.18.55-.68 0-1.29-.12-1.83-.36s-.99-.57-1.36-.99c-.37-.42-.65-.91-.85-1.47-.19-.56-.29-1.16-.29-1.78s.1-1.23.29-1.8c.2-.56.47-1.06.84-1.48.36-.42.8-.76 1.32-1.01s1.1-.37 1.74-.37c.75 0 1.38.13 1.9.39.51.26.93.62 1.25 1.06.32.45.54.97.68 1.56.14.6.2 1.23.2 1.9h-6.74c0 .45.05.86.18 1.25s.31.72.55 1c.24.28.54.51.9.67.36.16.77.24 1.24.24.26 0 .51-.04.75-.12.24-.08.46-.19.67-.33.21-.14.39-.31.56-.5.17-.19.31-.4.43-.62l1.32.56zm-1.32-3.29c-.02-.79-.25-1.42-.69-1.88-.43-.47-1.06-.7-1.87-.7-.37 0-.71.07-1.02.2-.31.13-.58.32-.81.55-.23.23-.41.51-.56.82s-.24.65-.28 1.01h5.22zM135.25 277.93h-1.29v-1.2h1.29v-.39c0-.51.02-1 .06-1.46.04-.46.15-.87.33-1.22.18-.35.45-.63.81-.84s.86-.31 1.5-.31c.2 0 .39.01.6.04.2.02.41.07.61.13l-.46 1.09c-.27-.04-.5-.07-.69-.07-.25 0-.46.04-.63.11-.17.08-.3.18-.41.32-.11.14-.18.3-.23.48-.04.19-.07.39-.07.61v1.49h2.19v1.2h-2.19v7.76h-1.42v-7.76zM140.57 274.17a.92.92 0 01.94-.94.92.92 0 01.94.94.92.92 0 01-.94.94.92.92 0 01-.94-.94zm.26 2.59h1.42v8.93h-1.42v-8.93zM148.87 285.62c-.39.12-.8.18-1.23.18-.78 0-1.38-.19-1.78-.58-.41-.38-.61-.98-.61-1.78v-5.52h-1.29v-1.2h1.29v-1.68l1.42-.62v2.3h2.09v1.2h-2.09v5.37c0 .19.02.36.06.52.04.16.1.3.19.41.09.12.21.21.36.27.15.06.34.1.56.1.32 0 .67-.06 1.04-.19v1.2zM151.14 283.03c.17.52.45.92.86 1.2.4.28.88.42 1.42.42.25 0 .49-.02.73-.07s.45-.12.64-.23c.19-.11.34-.25.46-.43s.18-.4.18-.67-.06-.49-.18-.66c-.12-.18-.28-.32-.48-.44a3.2 3.2 0 00-.7-.29c-.26-.08-.53-.15-.82-.21-.34-.08-.68-.18-1.02-.28-.34-.1-.65-.24-.92-.42s-.49-.42-.66-.71c-.17-.29-.25-.67-.25-1.13 0-.4.09-.75.26-1.06.17-.31.4-.58.68-.79.28-.22.6-.38.95-.5s.72-.17 1.09-.17c.69 0 1.3.18 1.85.55.55.37.99.86 1.32 1.49l-1.09.48c-.2-.43-.49-.77-.87-.99-.38-.23-.8-.34-1.25-.34-.2 0-.4.02-.59.07-.19.05-.37.12-.52.23-.15.11-.28.24-.37.41-.09.17-.14.36-.14.59 0 .26.06.47.18.63s.28.3.48.41c.2.11.43.2.69.26.26.07.53.13.82.19.35.07.69.15 1.04.25.35.09.66.23.94.4.28.18.5.41.68.7.17.29.26.67.26 1.14s-.09.89-.28 1.25c-.18.35-.43.64-.74.87-.31.23-.66.4-1.05.51s-.81.16-1.23.16c-.82 0-1.53-.2-2.14-.59-.6-.39-1.04-.97-1.3-1.74l1.09-.48z"/><rect x="42.82" y="262.67" width="33.42" height="33.42" rx="3.34" ry="3.34" fill="#d5d8d1"/></g><rect x="16.03" y=".27" width="321.1" height="229.84" rx="9.33" ry="9.33" fill="#fff"/><path d="M327.8 230.76H25.36c-5.5 0-9.98-4.48-9.98-9.98V9.6c0-5.5 4.48-9.98 9.98-9.98H327.8c5.5 0 9.98 4.48 9.98 9.98v211.18c0 5.5-4.48 9.98-9.98 9.98zM25.36.92c-4.79 0-8.68 3.89-8.68 8.68v211.18c0 4.79 3.89 8.68 8.68 8.68H327.8c4.79 0 8.68-3.89 8.68-8.68V9.6c0-4.79-3.89-8.68-8.68-8.68H25.36z" fill="#edecea"/><path d="M94.44 36.75c.13.35.3.66.51.92a3.17 3.17 0 001.66 1.06c.34.09.69.13 1.06.13.28 0 .56-.04.84-.11s.52-.19.74-.34.39-.35.53-.58c.14-.24.2-.51.2-.83 0-.34-.08-.62-.23-.83-.16-.21-.36-.38-.62-.51s-.56-.23-.9-.31c-.34-.08-.7-.15-1.07-.21-.47-.08-.95-.19-1.42-.31s-.9-.3-1.28-.55-.69-.58-.92-1.01c-.24-.43-.36-.99-.36-1.7 0-.58.12-1.1.36-1.54s.56-.81.96-1.11c.4-.3.85-.52 1.35-.67s1.02-.22 1.55-.22c.49 0 .96.05 1.41.16.45.1.87.26 1.26.48.39.22.73.5 1.04.84s.55.75.74 1.23l-1.74.79a3.1 3.1 0 00-1.1-1.27c-.47-.31-1.01-.46-1.64-.46-.25 0-.49.03-.73.08s-.45.15-.64.28-.34.29-.45.5c-.11.2-.17.46-.17.76 0 .33.07.6.22.8.15.21.34.37.59.5.25.13.54.23.86.3s.68.15 1.05.21l.97.18c.33.07.64.15.95.26.31.11.59.24.86.41.27.16.5.37.7.61s.36.54.47.89c.11.35.17.76.17 1.23 0 .62-.13 1.16-.4 1.64s-.61.87-1.04 1.19-.92.56-1.47.72-1.1.24-1.67.24-1.09-.05-1.63-.16c-.53-.11-1.03-.28-1.48-.52-.46-.24-.86-.55-1.2-.94-.34-.39-.6-.87-.76-1.44l1.85-.79zM109.01 39.34c-.34.45-.75.77-1.22.97-.48.19-.99.29-1.55.29-.42 0-.81-.05-1.17-.16-.37-.11-.68-.27-.95-.49-.27-.22-.48-.49-.64-.81-.16-.33-.23-.71-.23-1.15 0-.41.07-.77.2-1.07s.32-.56.55-.77c.23-.21.5-.38.81-.52.31-.13.64-.24.99-.31s.71-.13 1.07-.15.72-.04 1.07-.04h1.05v-.14c0-.32-.02-.61-.07-.87s-.14-.48-.26-.66c-.13-.18-.31-.32-.53-.42s-.52-.15-.88-.15c-.43 0-.83.11-1.2.33a1.9 1.9 0 00-.79.95l-1.66-.72c.15-.4.36-.73.64-1 .27-.27.58-.5.93-.67.35-.17.72-.3 1.11-.37s.79-.11 1.19-.11c.53 0 1.02.07 1.46.2s.83.33 1.16.6c.33.27.58.61.76 1.02s.27.91.27 1.47v5.85h-2.11v-1.09zm-1.1-2.91c-.25 0-.52.01-.81.04-.3.03-.58.09-.84.19s-.48.25-.65.44c-.17.2-.26.46-.26.8 0 .22.04.4.11.55.07.15.17.27.3.36s.28.16.46.2c.17.04.36.06.56.06.27 0 .54-.04.8-.11s.5-.18.71-.33c.21-.15.38-.33.51-.56.13-.23.19-.49.19-.79v-.87h-1.08zM113.26 27.86l2.14-.93v13.51h-2.14V27.86zM122.76 39.34c-.34.45-.75.77-1.22.97-.48.19-.99.29-1.55.29-.42 0-.81-.05-1.17-.16-.37-.11-.68-.27-.95-.49-.27-.22-.48-.49-.64-.81-.16-.33-.23-.71-.23-1.15 0-.41.07-.77.2-1.07s.32-.56.55-.77c.23-.21.5-.38.81-.52.31-.13.64-.24.99-.31s.71-.13 1.07-.15.72-.04 1.07-.04h1.05v-.14c0-.32-.02-.61-.07-.87s-.14-.48-.26-.66c-.13-.18-.31-.32-.53-.42s-.52-.15-.88-.15c-.43 0-.83.11-1.2.33a1.9 1.9 0 00-.79.95l-1.66-.72c.15-.4.36-.73.64-1 .27-.27.58-.5.93-.67.35-.17.72-.3 1.11-.37s.79-.11 1.19-.11c.53 0 1.02.07 1.46.2s.83.33 1.16.6c.33.27.58.61.76 1.02s.27.91.27 1.47v5.85h-2.11v-1.09zm-1.09-2.91c-.25 0-.52.01-.81.04-.3.03-.58.09-.84.19s-.48.25-.65.44c-.17.2-.26.46-.26.8 0 .22.04.4.11.55.07.15.17.27.3.36s.28.16.46.2c.17.04.36.06.56.06.27 0 .54-.04.8-.11s.5-.18.71-.33c.21-.15.38-.33.51-.56.13-.23.19-.49.19-.79v-.87h-1.08zM126.95 31.48h2.14v1.68c.3-.62.7-1.08 1.18-1.37.49-.29 1.07-.44 1.76-.44v1.98c-.43 0-.83.04-1.19.12-.36.08-.67.21-.93.41-.26.19-.46.45-.61.76-.14.32-.22.72-.22 1.19v4.62h-2.14v-8.95zM136.2 39.52l-3.51-8.04h2.29l2.35 5.72 2.19-5.72h2.08l-4.92 12.02h-2.1l1.62-3.98zM157.34 37.07a4.69 4.69 0 01-.82 1.53 5.23 5.23 0 01-2.78 1.78c-.56.15-1.13.23-1.72.23-.99 0-1.86-.15-2.62-.45-.76-.3-1.4-.73-1.92-1.28s-.91-1.22-1.18-2c-.27-.78-.4-1.65-.4-2.61 0-.88.15-1.7.44-2.46s.7-1.42 1.23-1.98 1.17-1 1.91-1.32c.74-.32 1.57-.48 2.47-.48.58 0 1.14.07 1.67.21.53.14 1.03.35 1.48.62.46.28.86.62 1.22 1.03s.65.89.88 1.44l-1.96.83c-.13-.33-.3-.64-.51-.92-.21-.28-.46-.52-.73-.72s-.58-.36-.91-.47a3.3 3.3 0 00-1.05-.17c-.65 0-1.2.13-1.66.38-.46.25-.84.59-1.14 1.01-.3.42-.51.9-.65 1.43-.14.54-.21 1.09-.21 1.65 0 .59.07 1.15.22 1.68s.38.99.68 1.39c.31.4.69.71 1.16.95.47.23 1.02.35 1.65.35.4 0 .78-.06 1.12-.17s.66-.28.94-.5c.28-.21.53-.47.74-.77.21-.3.39-.63.53-1l1.89.81zM157.88 35.98c0-.7.13-1.34.41-1.92.27-.58.63-1.07 1.09-1.48.46-.41.99-.73 1.59-.95s1.24-.34 1.92-.34 1.31.11 1.9.34 1.09.54 1.53.95c.43.41.77.9 1.02 1.47s.37 1.2.37 1.88-.13 1.34-.38 1.91c-.26.57-.61 1.06-1.05 1.47-.44.41-.96.72-1.56.94s-1.23.33-1.91.33-1.32-.11-1.92-.34c-.6-.23-1.12-.54-1.56-.95-.44-.41-.79-.89-1.05-1.46s-.38-1.19-.38-1.88zm4.97 2.97c.45 0 .83-.08 1.15-.25.32-.17.58-.39.79-.66.21-.28.36-.59.46-.96.1-.36.15-.74.15-1.13 0-.41-.05-.8-.16-1.17-.11-.37-.27-.69-.48-.96-.21-.28-.48-.49-.81-.65-.32-.16-.71-.24-1.15-.24s-.84.08-1.16.25-.58.39-.78.67-.35.61-.44.98c-.09.37-.14.76-.14 1.17s.05.77.16 1.13.27.67.48.94c.21.27.48.48.8.64.32.16.7.24 1.13.24zM169.08 31.48h2.14v1.37a2.829 2.829 0 011.16-1.17c.24-.13.5-.23.78-.3.28-.07.56-.1.85-.1s.55.03.81.09.51.16.74.29c.23.13.44.3.61.5.18.2.32.44.43.72.34-.51.79-.91 1.34-1.18a3.89 3.89 0 011.79-.41c.51 0 .96.09 1.34.27.38.18.69.42.94.73s.44.68.56 1.1c.12.42.18.88.18 1.38v5.67h-2.13v-5.53c0-.56-.14-1.01-.42-1.35-.28-.33-.71-.5-1.28-.5-.31 0-.59.05-.83.16-.24.1-.44.24-.6.42-.16.18-.28.39-.37.64-.08.25-.12.52-.12.81v5.36h-2.14v-5.53c0-.56-.14-1.01-.43-1.35-.28-.33-.71-.5-1.29-.5-.31 0-.58.05-.82.16-.24.1-.44.24-.61.42-.16.18-.29.39-.37.64-.08.25-.13.52-.13.81v5.36h-2.14v-8.95zM184.84 31.48h2.14v1.45c.16-.26.35-.49.57-.7a3.748 3.748 0 011.59-.83c.3-.07.6-.11.9-.11.68 0 1.28.13 1.79.38s.93.59 1.26 1.02c.33.43.58.92.75 1.48.17.56.25 1.14.25 1.75s-.09 1.23-.26 1.79-.43 1.06-.76 1.49c-.34.43-.75.76-1.25 1.02-.5.25-1.07.38-1.72.38-.31 0-.62-.03-.93-.1-.31-.06-.6-.16-.88-.29-.28-.13-.53-.29-.75-.49-.23-.2-.41-.43-.56-.7v4.47h-2.14V31.47zm4.61 7.45c.47 0 .87-.08 1.18-.25.31-.16.56-.39.75-.66s.32-.6.4-.97.12-.76.12-1.17c0-.38-.05-.74-.15-1.09-.1-.35-.25-.66-.45-.93s-.46-.49-.78-.65c-.31-.16-.69-.24-1.13-.24s-.82.08-1.13.25c-.31.16-.57.38-.77.66-.2.28-.35.6-.44.96-.09.37-.14.75-.14 1.15s.05.81.15 1.16c.1.36.25.67.46.93s.47.47.79.62c.32.15.7.23 1.15.23zM194.8 35.98c0-.7.13-1.34.41-1.92.27-.58.63-1.07 1.09-1.48.46-.41.99-.73 1.59-.95s1.24-.34 1.92-.34 1.31.11 1.9.34 1.09.54 1.53.95c.43.41.77.9 1.02 1.47s.37 1.2.37 1.88-.13 1.34-.38 1.91c-.26.57-.61 1.06-1.05 1.47-.44.41-.96.72-1.56.94-.6.22-1.23.33-1.91.33s-1.32-.11-1.92-.34c-.6-.23-1.12-.54-1.56-.95-.44-.41-.79-.89-1.05-1.46s-.38-1.19-.38-1.88zm4.98 2.97c.45 0 .83-.08 1.15-.25.32-.17.58-.39.79-.66.21-.28.36-.59.46-.96.1-.36.15-.74.15-1.13 0-.41-.05-.8-.16-1.17-.11-.37-.27-.69-.48-.96-.21-.28-.48-.49-.81-.65-.32-.16-.71-.24-1.15-.24s-.84.08-1.16.25-.58.39-.78.67c-.2.28-.35.61-.44.98-.09.37-.14.76-.14 1.17s.05.77.16 1.13c.11.36.27.67.48.94.21.27.48.48.8.64.32.16.7.24 1.13.24zM206.01 31.48h2.14v1.42c.14-.28.33-.52.54-.72.22-.2.46-.37.72-.5s.54-.23.84-.3c.3-.06.61-.1.92-.1.54 0 1 .09 1.39.27.39.18.72.43.97.74.26.32.45.69.57 1.12.12.43.18.9.18 1.41v5.6h-2.17v-5.39c0-.63-.14-1.12-.43-1.47-.29-.35-.75-.52-1.4-.52-.67 0-1.2.19-1.58.58-.38.38-.56.9-.56 1.55v5.26H206v-8.95zM224.37 38.49c-.18.4-.42.73-.71 1s-.6.49-.95.65c-.35.17-.72.28-1.12.36s-.8.11-1.22.11c-.71 0-1.35-.11-1.91-.34-.57-.23-1.05-.54-1.45-.95s-.71-.9-.92-1.48c-.21-.57-.32-1.21-.32-1.91 0-.66.11-1.27.33-1.83a4.265 4.265 0 012.34-2.45c.55-.24 1.17-.35 1.84-.35 1.45 0 2.53.42 3.24 1.27.71.85 1.07 2.14 1.07 3.87h-6.63c0 .38.05.73.16 1.05s.27.6.48.83.47.41.79.54c.31.13.67.2 1.08.2.49 0 .93-.1 1.31-.31s.69-.54.93-1l1.67.74zm-1.93-3.46c-.03-.68-.24-1.21-.62-1.6-.38-.39-.89-.58-1.53-.58-.33 0-.64.06-.9.17-.27.11-.5.27-.69.46-.19.2-.35.42-.47.69-.12.26-.21.55-.25.87h4.46zM226.12 31.48h2.14v1.42c.15-.28.33-.52.54-.72.22-.2.46-.37.72-.5.26-.13.54-.23.84-.3s.61-.1.92-.1c.54 0 1 .09 1.39.27.39.18.72.43.97.74.26.32.45.69.57 1.12.12.43.18.9.18 1.41v5.6h-2.17v-5.39c0-.63-.14-1.12-.43-1.47-.29-.35-.75-.52-1.4-.52-.67 0-1.2.19-1.58.58-.38.38-.56.9-.56 1.55v5.26h-2.14v-8.95zM241.01 40.37c-.23.07-.47.12-.71.16s-.49.06-.76.06c-.85 0-1.52-.22-2-.66-.48-.44-.72-1.11-.72-2v-4.86h-1.2V31.5h1.2v-1.85l2.14-.93v2.77h1.97v1.57h-1.97v4.67c0 .35.08.63.25.83.17.2.44.3.84.3.15 0 .31-.02.47-.05s.33-.07.49-.13v1.68zM243.57 37.77c.08.22.2.41.35.57.15.17.32.3.52.41.2.11.41.19.64.24s.47.08.71.08c.17 0 .35-.01.54-.05.18-.03.35-.09.5-.17.15-.08.27-.19.37-.33.1-.14.15-.31.15-.52a.88.88 0 00-.17-.55c-.11-.15-.26-.27-.46-.36-.19-.1-.41-.18-.66-.24-.25-.06-.51-.12-.79-.18-.36-.08-.72-.17-1.08-.26s-.69-.24-.98-.43a2.22 2.22 0 01-.71-.75c-.18-.31-.28-.72-.28-1.22 0-.46.1-.86.29-1.2.2-.34.45-.62.76-.84.32-.22.67-.39 1.07-.5s.8-.17 1.21-.17c.36 0 .72.03 1.09.1.37.07.71.18 1.04.34.33.16.62.36.89.61.26.25.47.55.61.9l-1.59.68c-.09-.2-.21-.37-.35-.5-.14-.14-.31-.25-.48-.34-.18-.09-.37-.15-.56-.19a2.76 2.76 0 00-1.09-.01c-.17.03-.32.09-.45.18a.864.864 0 00-.43.78c0 .21.05.38.16.5.1.13.24.24.42.33.18.09.38.16.62.21.24.06.49.11.76.16.37.07.74.16 1.12.25s.72.24 1.03.43c.31.19.56.44.76.76s.29.74.29 1.27-.1.97-.31 1.33-.47.66-.81.88-.72.38-1.16.48-.89.15-1.35.15c-.4 0-.79-.04-1.19-.11s-.77-.19-1.11-.36-.65-.39-.92-.66-.47-.61-.61-1.01l1.65-.69z"/><g><path d="M48.02 103.45h3.3c.46 0 .9.05 1.32.15s.79.26 1.11.48c.32.22.58.51.77.86.19.35.29.78.29 1.29 0 .4-.06.76-.18 1.07-.12.31-.29.58-.51.81-.22.23-.48.42-.78.57s-.64.26-1 .34l3.07 4.44h-1.36l-2.97-4.35h-1.83v4.35h-1.22v-10.02zm3.38 4.69c.32 0 .61-.03.88-.1s.5-.18.69-.33.34-.35.45-.59.16-.54.16-.88-.06-.64-.17-.88-.27-.42-.46-.56c-.2-.14-.43-.24-.69-.29-.27-.06-.55-.08-.86-.08h-2.16v3.71h2.16zM62.78 111.79c-.33.6-.76 1.05-1.27 1.35s-1.11.45-1.78.45c-.56 0-1.05-.1-1.49-.3-.44-.2-.81-.47-1.11-.81s-.53-.74-.69-1.2c-.16-.46-.24-.95-.24-1.46s.08-1.01.24-1.47.39-.86.68-1.21.66-.62 1.08-.82c.42-.2.9-.3 1.43-.3.62 0 1.13.11 1.55.32s.76.5 1.02.87.45.79.56 1.28.17 1 .17 1.55h-5.52c0 .36.04.7.14 1.02s.25.59.45.82.44.42.74.55.63.2 1.02.2c.21 0 .42-.03.62-.1s.38-.15.55-.27a2.55 2.55 0 00.81-.92l1.08.46zm-1.08-2.7c-.02-.65-.21-1.16-.56-1.54-.36-.38-.87-.57-1.53-.57-.31 0-.58.05-.84.16s-.47.26-.66.45-.34.42-.45.67-.19.53-.23.83h4.27zM65.01 113.95c.1.22.25.41.42.56.18.15.37.28.58.37s.44.16.67.21.47.06.69.06c.36 0 .69-.05 1-.14s.57-.24.79-.42.4-.42.53-.71c.13-.28.19-.61.19-.99v-1.07c-.14.22-.3.42-.5.59s-.41.32-.64.44c-.23.12-.47.21-.72.28s-.51.1-.76.1c-.51 0-.97-.09-1.38-.28-.41-.19-.76-.44-1.05-.77-.29-.32-.51-.7-.67-1.12s-.24-.88-.24-1.36.08-.97.25-1.42.4-.84.7-1.17c.3-.33.66-.6 1.08-.8s.88-.29 1.38-.29c.26 0 .51.03.75.08s.48.14.7.25.42.25.61.41.35.36.49.57v-1.18h1.16v6.82c0 .53-.1 1-.29 1.39s-.46.73-.8.99-.73.46-1.18.59c-.45.13-.93.19-1.43.19-.33 0-.66-.03-.98-.09a3.6 3.6 0 01-.91-.3c-.28-.14-.54-.32-.78-.55s-.43-.51-.59-.83l.92-.4zm2.45-1.7c.39 0 .74-.07 1.05-.21.31-.14.57-.33.78-.57.21-.24.37-.53.48-.85.11-.33.16-.68.16-1.05s-.05-.7-.16-1.02-.26-.59-.46-.82c-.2-.23-.45-.41-.74-.54-.29-.13-.62-.19-1-.19-.4 0-.75.07-1.06.22s-.56.34-.76.59-.36.54-.46.87c-.1.33-.15.67-.15 1.04 0 .33.06.65.17.95.11.31.27.58.48.81.21.23.45.42.73.56s.6.21.95.21zM78.15 112.3c-.22.45-.53.77-.93.98s-.84.31-1.33.31c-.44 0-.83-.06-1.18-.19s-.63-.31-.86-.55-.41-.54-.53-.88-.18-.74-.18-1.18v-4.63h1.16v4.58c0 .63.16 1.1.49 1.4s.8.46 1.42.46c.31 0 .58-.05.82-.14s.45-.23.61-.41c.17-.18.29-.39.38-.63s.13-.52.13-.82v-4.44h1.16v7.32h-1.16v-1.16zM81.05 102.87l1.18-.52v11.11h-1.18v-10.59zM88.53 112.54c-.26.35-.6.61-1.02.79a3.233 3.233 0 01-2.21.12c-.29-.09-.55-.23-.77-.41-.22-.18-.39-.4-.52-.67s-.19-.58-.19-.93c0-.37.07-.69.22-.95.14-.26.33-.47.57-.64s.51-.3.82-.4.63-.17.96-.21c.33-.04.66-.07.98-.08s.63-.01.9-.01h.26v-.05c0-.31-.02-.6-.06-.87-.04-.26-.13-.49-.25-.67s-.3-.33-.53-.44-.52-.16-.88-.16c-.2 0-.4.03-.59.09s-.37.14-.53.26c-.16.11-.31.25-.43.4-.12.16-.22.33-.28.52l-.99-.43c.13-.31.3-.57.5-.8.2-.23.42-.41.67-.56a3.23 3.23 0 011.73-.45c.41 0 .79.06 1.13.18.34.12.64.29.89.52s.44.51.58.83.21.7.21 1.11v4.8h-1.16v-.92zm-1.01-2.55c-.16 0-.33 0-.52.02-.19.01-.38.04-.56.07s-.37.09-.55.15-.33.15-.47.26c-.13.11-.24.24-.32.39s-.12.34-.12.55.03.41.1.57c.07.16.16.28.28.38.12.1.26.17.42.21.16.04.34.07.54.07.27 0 .54-.04.8-.11.26-.08.5-.19.71-.34s.38-.33.51-.55.19-.47.19-.76v-.91h-1zM91.79 106.14h1.16v1.31c.26-.49.59-.85.99-1.08.39-.22.87-.35 1.42-.37v1.09c-.4.01-.75.06-1.05.15-.3.09-.55.22-.75.41-.2.18-.35.42-.45.71-.1.29-.15.64-.15 1.06v4.02H91.8v-7.32zM99.66 103.45h3.12c.48 0 .94.06 1.36.17.43.11.8.29 1.11.53.32.24.57.56.75.94s.27.85.27 1.39c0 .44-.06.82-.18 1.14-.12.32-.29.58-.5.8-.21.22-.47.39-.76.52s-.6.23-.94.29-.69.11-1.06.13c-.37.02-.73.03-1.1.03h-.87v4.06h-1.22v-10.01zm3.21 4.97c.69 0 1.23-.16 1.62-.48.39-.32.58-.83.58-1.55 0-.37-.05-.68-.15-.93s-.25-.45-.44-.6c-.19-.15-.42-.26-.69-.33s-.58-.1-.91-.1h-1.99v3.99h1.99zM111.89 112.54c-.26.35-.6.61-1.02.79a3.233 3.233 0 01-2.21.12c-.29-.09-.55-.23-.77-.41-.22-.18-.39-.4-.52-.67s-.19-.58-.19-.93c0-.37.07-.69.22-.95.14-.26.33-.47.57-.64s.51-.3.82-.4.63-.17.96-.21c.33-.04.66-.07.98-.08s.63-.01.9-.01h.26v-.05c0-.31-.02-.6-.06-.87-.04-.26-.13-.49-.25-.67s-.3-.33-.53-.44-.52-.16-.88-.16c-.2 0-.4.03-.59.09s-.37.14-.53.26c-.16.11-.31.25-.43.4-.12.16-.22.33-.28.52l-.99-.43c.13-.31.3-.57.5-.8.2-.23.42-.41.67-.56a3.23 3.23 0 011.73-.45c.41 0 .79.06 1.13.18.34.12.64.29.89.52s.44.51.58.83.21.7.21 1.11v4.8h-1.16v-.92zm-1-2.55c-.16 0-.33 0-.52.02-.19.01-.38.04-.56.07s-.37.09-.55.15-.33.15-.47.26c-.13.11-.24.24-.32.39s-.12.34-.12.55.03.41.1.57c.07.16.16.28.28.38.12.1.26.17.42.21.16.04.34.07.54.07.27 0 .54-.04.8-.11.26-.08.5-.19.71-.34s.38-.33.51-.55.19-.47.19-.76v-.91h-1zM117.05 112.7l-2.83-6.56h1.24l2.2 5.25 2.03-5.25h1.19l-4.05 9.87h-1.18l1.39-3.31z"/></g><g><path d="M52.45 158.49c-.73 0-1.4-.13-2-.4-.61-.27-1.12-.63-1.56-1.1s-.77-1.01-1-1.63-.36-1.29-.36-2.01.12-1.39.36-2.02c.24-.63.58-1.17 1.02-1.63s.96-.82 1.57-1.09 1.27-.4 2-.4 1.41.13 2.01.4 1.11.64 1.53 1.1.75 1.01.98 1.63.35 1.29.35 2-.12 1.39-.35 2.01-.57 1.17-.99 1.63-.94.83-1.54 1.1c-.6.27-1.27.4-2 .4zm.03-1c.62 0 1.15-.11 1.6-.34s.82-.54 1.12-.92.52-.83.66-1.34c.14-.51.22-1.04.22-1.6s-.08-1.07-.24-1.56-.39-.92-.7-1.3c-.31-.37-.69-.67-1.13-.89-.45-.22-.96-.33-1.55-.33-.63 0-1.17.11-1.63.33-.46.22-.84.52-1.15.9-.3.38-.53.83-.67 1.34s-.22 1.06-.22 1.64c0 .54.09 1.06.26 1.55s.42.92.73 1.3.71.67 1.17.89c.46.22.97.33 1.54.33zM58.28 151.05h1.26l2.11 6.15 2.08-6.15h1.2l-2.58 7.32h-1.48l-2.6-7.32zM72.23 156.69c-.33.6-.76 1.05-1.27 1.35s-1.11.45-1.78.45c-.56 0-1.05-.1-1.49-.3-.44-.2-.81-.47-1.11-.81s-.53-.74-.69-1.2c-.16-.46-.24-.95-.24-1.46s.08-1.01.24-1.47.39-.86.68-1.21.66-.62 1.08-.82c.42-.2.9-.3 1.43-.3.62 0 1.13.11 1.55.32s.76.5 1.02.87.45.79.56 1.28.17 1 .17 1.55h-5.52c0 .36.04.7.14 1.02s.25.59.45.82.44.42.74.55.63.2 1.02.2c.21 0 .42-.03.62-.1s.38-.15.55-.27a2.55 2.55 0 00.81-.92l1.08.46zM71.15 154c-.02-.65-.21-1.16-.56-1.54-.36-.38-.87-.57-1.53-.57-.31 0-.58.05-.84.16s-.47.26-.66.45-.34.42-.45.67-.19.53-.23.83h4.27zM73.93 151.05h1.16v1.31c.26-.49.59-.85.99-1.08.39-.22.87-.35 1.42-.37V152c-.4.01-.75.06-1.05.15-.3.09-.55.22-.75.41-.2.18-.35.42-.45.71-.1.29-.15.64-.15 1.06v4.02h-1.16v-7.32zM83.86 149.35h-2.91v-.99H88v.99h-2.91v9.02h-1.22v-9.02zM89.14 148.94c0-.22.07-.4.22-.55.15-.15.33-.22.55-.22s.4.07.55.22c.15.15.22.33.22.55s-.07.4-.22.55c-.15.15-.33.22-.55.22s-.4-.07-.55-.22a.739.739 0 01-.22-.55zm.21 2.12h1.16v7.31h-1.16v-7.31zM92.7 151.05h1.16v1.12c.19-.43.46-.74.82-.95.36-.2.76-.3 1.22-.3.24 0 .48.03.72.09s.47.14.68.26.4.26.57.43c.17.17.3.37.39.6.24-.46.56-.8.98-1.03a2.9 2.9 0 011.42-.35c.43 0 .81.07 1.13.22.33.15.6.35.83.61s.39.57.51.92.17.74.17 1.16v4.54h-1.16v-4.62c0-.59-.14-1.04-.43-1.35s-.73-.46-1.33-.46c-.28 0-.53.05-.76.16s-.41.25-.56.42-.27.38-.35.62-.12.49-.12.76v4.48h-1.16v-4.62c0-.59-.14-1.04-.43-1.35s-.73-.46-1.33-.46c-.28 0-.53.05-.76.16s-.41.25-.56.42-.27.38-.35.62-.12.49-.12.76v4.48h-1.16v-7.32zM111.44 156.69c-.33.6-.76 1.05-1.27 1.35s-1.11.45-1.78.45c-.56 0-1.05-.1-1.49-.3-.44-.2-.81-.47-1.11-.81s-.53-.74-.69-1.2c-.16-.46-.24-.95-.24-1.46s.08-1.01.24-1.47.39-.86.68-1.21.66-.62 1.08-.82c.42-.2.9-.3 1.43-.3.62 0 1.13.11 1.55.32s.76.5 1.02.87.45.79.56 1.28.17 1 .17 1.55h-5.52c0 .36.04.7.14 1.02s.25.59.45.82.44.42.74.55.63.2 1.02.2c.21 0 .42-.03.62-.1s.38-.15.55-.27a2.55 2.55 0 00.81-.92l1.08.46zm-1.08-2.69c-.02-.65-.21-1.16-.56-1.54-.36-.38-.87-.57-1.53-.57-.31 0-.58.05-.84.16s-.47.26-.66.45-.34.42-.45.67-.19.53-.23.83h4.27zM115.94 148.36h3.12c.48 0 .94.06 1.36.17.43.11.8.29 1.11.53.32.24.57.56.75.94s.27.85.27 1.39c0 .44-.06.82-.18 1.14-.12.32-.29.58-.5.8-.21.22-.47.39-.76.52s-.6.23-.94.29-.69.11-1.06.13c-.37.02-.73.03-1.1.03h-.87v4.06h-1.22v-10.01zm3.21 4.97c.69 0 1.23-.16 1.62-.48.39-.32.58-.83.58-1.55 0-.37-.05-.68-.15-.93s-.25-.45-.44-.6c-.19-.15-.42-.26-.69-.33s-.58-.1-.91-.1h-1.99v3.99h1.99zM128.18 157.45c-.26.35-.6.61-1.02.79a3.233 3.233 0 01-2.21.12c-.29-.09-.55-.23-.77-.41-.22-.18-.39-.4-.52-.67s-.19-.58-.19-.93c0-.37.07-.69.22-.95.14-.26.33-.47.57-.64s.51-.3.82-.4.63-.17.96-.21c.33-.04.66-.07.98-.08s.63-.01.9-.01h.26v-.05c0-.31-.02-.6-.06-.87-.04-.26-.13-.49-.25-.67s-.3-.33-.53-.44-.52-.16-.88-.16c-.2 0-.4.03-.59.09s-.37.14-.53.26c-.16.11-.31.25-.43.4-.12.16-.22.33-.28.52l-.99-.43c.13-.31.3-.57.5-.8.2-.23.42-.41.67-.56a3.23 3.23 0 011.73-.45c.41 0 .79.06 1.13.18.34.12.64.29.89.52s.44.51.58.83.21.7.21 1.11v4.8h-1.16v-.92zm-1.01-2.55c-.16 0-.33 0-.52.02-.19.01-.38.04-.56.07s-.37.09-.55.15-.33.15-.47.26c-.13.11-.24.24-.32.39s-.12.34-.12.55.03.41.1.57c.07.16.16.28.28.38.12.1.26.17.42.21.16.04.34.07.54.07.27 0 .54-.04.8-.11.26-.08.5-.19.71-.34s.38-.33.51-.55.19-.47.19-.76v-.91h-1zM133.33 157.61l-2.83-6.56h1.24l2.2 5.25 2.03-5.25h1.19l-4.05 9.87h-1.18l1.39-3.31z"/></g><g><path d="M48.01 191.2h2.93c.8 0 1.51.11 2.14.34.63.23 1.16.55 1.59.98.43.43.76.95.99 1.56s.35 1.31.35 2.1-.12 1.52-.36 2.15-.58 1.15-1.02 1.58c-.44.43-.98.75-1.61.97s-1.33.33-2.11.33h-2.9V191.2zm2.87 9.02c.66 0 1.23-.1 1.71-.29s.88-.46 1.2-.82.56-.79.71-1.3c.16-.51.24-1.08.24-1.71 0-1.28-.32-2.25-.96-2.92-.64-.66-1.61-1-2.92-1h-1.64v8.03h1.65zM60.82 201.33c-.55 0-1.04-.1-1.49-.29s-.82-.46-1.13-.8c-.31-.34-.55-.74-.72-1.2-.17-.46-.25-.95-.25-1.47s.09-1.05.27-1.51.43-.87.75-1.21c.32-.34.71-.61 1.16-.8.45-.19.95-.29 1.48-.29s1.04.1 1.49.29.83.46 1.14.81.56.74.73 1.2c.17.46.26.95.26 1.47s-.09 1.04-.27 1.5-.43.87-.76 1.21c-.33.34-.71.61-1.17.8-.45.19-.95.29-1.49.29zm.02-.97c.42 0 .78-.08 1.09-.23s.57-.36.77-.62.35-.56.45-.9c.1-.34.15-.69.15-1.06s-.05-.74-.15-1.08c-.1-.34-.26-.64-.46-.89-.21-.26-.47-.46-.78-.61s-.67-.23-1.08-.23-.77.08-1.08.23c-.3.15-.55.36-.75.62s-.34.56-.43.9c-.09.34-.14.7-.14 1.08 0 .4.05.77.15 1.11s.25.64.45.89.45.45.76.6c.3.14.65.21 1.05.21zM71.06 200.05c-.22.45-.53.77-.93.98s-.84.31-1.33.31c-.44 0-.83-.06-1.18-.19s-.63-.31-.86-.55-.41-.54-.53-.88-.18-.74-.18-1.18v-4.63h1.16v4.58c0 .63.16 1.1.49 1.4s.8.46 1.42.46c.31 0 .58-.05.82-.14s.45-.23.61-.41c.17-.18.29-.39.38-.63s.13-.52.13-.82v-4.44h1.16v7.32h-1.16v-1.16zM73.93 190.58h1.16v4.55c.13-.21.3-.39.49-.56s.41-.31.64-.43.47-.21.72-.27.5-.1.74-.1c.55 0 1.04.1 1.45.3s.77.47 1.05.81.5.74.64 1.19c.14.45.22.93.22 1.43s-.07 1-.22 1.46-.36.87-.65 1.22-.63.63-1.05.84c-.41.21-.89.31-1.42.31-.26 0-.52-.03-.77-.08s-.49-.14-.72-.25-.43-.25-.63-.42-.36-.36-.49-.59v1.21h-1.16v-10.64zm3.63 9.78c.44 0 .8-.08 1.1-.24.29-.16.53-.37.7-.63.18-.26.3-.57.37-.91s.11-.71.11-1.09c0-.35-.05-.69-.14-1.03s-.23-.63-.42-.89c-.19-.26-.42-.46-.71-.62-.29-.16-.63-.24-1.02-.24-.43 0-.8.08-1.11.23-.31.15-.57.36-.78.62s-.36.56-.46.91c-.1.34-.15.71-.15 1.09s.05.77.16 1.11.27.64.48.89c.21.25.47.44.78.58.31.14.67.21 1.08.21zM82.7 190.62l1.18-.52v11.11H82.7v-10.59zM92.11 199.54c-.33.6-.76 1.05-1.27 1.35s-1.11.45-1.78.45c-.56 0-1.05-.1-1.49-.3-.44-.2-.81-.47-1.11-.81s-.53-.74-.69-1.2c-.16-.46-.24-.95-.24-1.46s.08-1.01.24-1.47.39-.86.68-1.21.66-.62 1.08-.82c.42-.2.9-.3 1.43-.3.62 0 1.13.11 1.55.32s.76.5 1.02.87.45.79.56 1.28.17 1 .17 1.55h-5.52c0 .36.04.7.14 1.02s.25.59.45.82.44.42.74.55.63.2 1.02.2c.21 0 .42-.03.62-.1s.38-.15.55-.27a2.55 2.55 0 00.81-.92l1.08.46zm-1.08-2.7c-.02-.65-.21-1.16-.56-1.54-.36-.38-.87-.57-1.53-.57-.31 0-.58.05-.84.16s-.47.26-.66.45-.34.42-.45.67-.19.53-.23.83h4.27zM98.67 192.2h-2.91v-.99h7.05v.99H99.9v9.02h-1.22v-9.02zM103.95 191.79c0-.22.07-.4.22-.55.15-.15.33-.22.55-.22s.4.07.55.22c.15.15.22.33.22.55s-.07.4-.22.55c-.15.15-.33.22-.55.22s-.4-.07-.55-.22a.739.739 0 01-.22-.55zm.21 2.11h1.16v7.31h-1.16v-7.31zM107.51 193.89h1.16v1.12c.19-.43.46-.74.82-.95.36-.2.76-.3 1.22-.3.24 0 .48.03.72.09s.47.14.68.26.4.26.57.43c.17.17.3.37.39.6.24-.46.56-.8.98-1.03a2.9 2.9 0 011.42-.35c.43 0 .81.07 1.13.22.33.15.6.35.83.61s.39.57.51.92.17.74.17 1.16v4.54h-1.16v-4.62c0-.59-.14-1.04-.43-1.35s-.73-.46-1.33-.46c-.28 0-.53.05-.76.16s-.41.25-.56.42-.27.38-.35.62-.12.49-.12.76v4.48h-1.16v-4.62c0-.59-.14-1.04-.43-1.35s-.73-.46-1.33-.46c-.28 0-.53.05-.76.16s-.41.25-.56.42-.27.38-.35.62-.12.49-.12.76v4.48h-1.16v-7.32zM126.25 199.54c-.33.6-.76 1.05-1.27 1.35s-1.11.45-1.78.45c-.56 0-1.05-.1-1.49-.3-.44-.2-.81-.47-1.11-.81s-.53-.74-.69-1.2c-.16-.46-.24-.95-.24-1.46s.08-1.01.24-1.47.39-.86.68-1.21.66-.62 1.08-.82c.42-.2.9-.3 1.43-.3.62 0 1.13.11 1.55.32s.76.5 1.02.87.45.79.56 1.28.17 1 .17 1.55h-5.52c0 .36.04.7.14 1.02s.25.59.45.82.44.42.74.55.63.2 1.02.2c.21 0 .42-.03.62-.1s.38-.15.55-.27a2.55 2.55 0 00.81-.92l1.08.46zm-1.08-2.7c-.02-.65-.21-1.16-.56-1.54-.36-.38-.87-.57-1.53-.57-.31 0-.58.05-.84.16s-.47.26-.66.45-.34.42-.45.67-.19.53-.23.83h4.27zM130.75 191.2h3.12c.48 0 .94.06 1.36.17.43.11.8.29 1.11.53.32.24.57.56.75.94s.27.85.27 1.39c0 .44-.06.82-.18 1.14-.12.32-.29.58-.5.8-.21.22-.47.39-.76.52s-.6.23-.94.29-.69.11-1.06.13c-.37.02-.73.03-1.1.03h-.87v4.06h-1.22v-10.01zm3.21 4.97c.69 0 1.23-.16 1.62-.48.39-.32.58-.83.58-1.55 0-.37-.05-.68-.15-.93s-.25-.45-.44-.6c-.19-.15-.42-.26-.69-.33s-.58-.1-.91-.1h-1.99v3.99h1.99zM142.98 200.29c-.26.35-.6.61-1.02.79a3.233 3.233 0 01-2.21.12c-.29-.09-.55-.23-.77-.41-.22-.18-.39-.4-.52-.67s-.19-.58-.19-.93c0-.37.07-.69.22-.95.14-.26.33-.47.57-.64s.51-.3.82-.4.63-.17.96-.21c.33-.04.66-.07.98-.08s.63-.01.9-.01h.26v-.05c0-.31-.02-.6-.06-.87-.04-.26-.13-.49-.25-.67s-.3-.33-.53-.44-.52-.16-.88-.16c-.2 0-.4.03-.59.09s-.37.14-.53.26c-.16.11-.31.25-.43.4-.12.16-.22.33-.28.52l-.99-.43c.13-.31.3-.57.5-.8.2-.23.42-.41.67-.56a3.23 3.23 0 011.73-.45c.41 0 .79.06 1.13.18.34.12.64.29.89.52s.44.51.58.83.21.7.21 1.11v4.8h-1.16v-.92zm-1-2.55c-.16 0-.33 0-.52.02-.19.01-.38.04-.56.07s-.37.09-.55.15-.33.15-.47.26c-.13.11-.24.24-.32.39s-.12.34-.12.55.03.41.1.57c.07.16.16.28.28.38.12.1.26.17.42.21.16.04.34.07.54.07.27 0 .54-.04.8-.11.26-.08.5-.19.71-.34s.38-.33.51-.55.19-.47.19-.76v-.91h-1zM148.14 200.45l-2.83-6.56h1.24l2.2 5.25 2.03-5.25h1.19l-4.05 9.87h-1.18l1.39-3.31z"/></g><g><path d="M47.52 75.31v-6.22h3.76v.67h-3v2.1h2.81v.67h-2.81v2.12h3.05v.67h-3.8zM52.81 75.31h-.79l2.29-6.22h.78l2.29 6.22h-.79l-1.86-5.24h-.05l-1.86 5.24zm.29-2.43h3.19v.67H53.1v-.67zM58.26 75.31v-6.22h2.1c.49 0 .89.08 1.2.25s.54.39.69.68c.15.29.22.61.22.98s-.07.69-.22.98c-.15.28-.38.51-.69.67s-.71.24-1.19.24h-1.7v-.68h1.68c.33 0 .6-.05.8-.15s.35-.24.44-.42c.09-.18.14-.39.14-.64s-.05-.47-.14-.65a.9.9 0 00-.45-.43c-.21-.1-.48-.15-.81-.15H59v5.56h-.75zm2.93-2.8l1.53 2.8h-.88l-1.51-2.8h.85zM68.58 69.09v6.22h-.73l-3.39-4.89h-.06v4.89h-.75v-6.22h.73l3.4 4.9h.06v-4.9h.74zM70.75 69.09v6.22H70v-6.22h.75zM77.11 69.09v6.22h-.73l-3.39-4.89h-.06v4.89h-.75v-6.22h.73l3.4 4.9h.06v-4.9h.74zM82.79 71.03c-.07-.2-.15-.39-.26-.55-.11-.16-.24-.3-.39-.42-.15-.12-.32-.2-.51-.26s-.4-.09-.62-.09c-.37 0-.7.1-1.01.29s-.54.47-.72.84-.27.83-.27 1.36.09.99.27 1.37c.18.37.42.65.73.84.31.19.65.29 1.04.29.36 0 .67-.08.94-.23.27-.15.49-.37.64-.65.15-.28.23-.61.23-.99l.23.05h-1.87v-.67h2.37v.67c0 .51-.11.96-.33 1.34s-.52.67-.9.88c-.38.21-.82.31-1.31.31-.55 0-1.03-.13-1.45-.39-.42-.26-.74-.63-.97-1.11s-.35-1.04-.35-1.7c0-.49.07-.94.2-1.33.13-.39.32-.73.56-1.01s.53-.49.86-.64c.33-.15.7-.22 1.1-.22.33 0 .63.05.92.15.28.1.54.24.76.42.22.18.41.39.56.64.15.25.25.52.31.83h-.78zM88.21 70.64a.96.96 0 00-.44-.72c-.26-.17-.58-.26-.95-.26-.28 0-.52.04-.72.13s-.37.21-.48.37c-.11.16-.17.33-.17.53 0 .17.04.31.12.43.08.12.18.22.31.29.13.08.26.14.4.19.14.05.26.09.38.12l.63.17c.16.04.34.1.54.18.2.08.39.18.57.31.18.13.33.29.45.49s.18.45.18.74c0 .34-.09.64-.26.91s-.43.49-.77.65c-.34.16-.74.24-1.22.24-.45 0-.83-.07-1.16-.22-.32-.14-.58-.34-.77-.6-.19-.26-.29-.56-.31-.9h.78c.02.24.1.43.24.58.14.15.31.27.53.34.21.07.44.11.69.11.29 0 .55-.05.77-.14.23-.09.41-.23.54-.39.13-.17.2-.37.2-.59 0-.21-.06-.38-.17-.5-.12-.13-.27-.24-.46-.32s-.39-.15-.61-.21l-.77-.22c-.49-.14-.87-.34-1.15-.6-.28-.26-.43-.6-.43-1.02 0-.35.09-.65.28-.91.19-.26.44-.46.77-.61.32-.14.68-.22 1.08-.22s.76.07 1.07.21.56.34.74.58c.18.25.28.53.29.84h-.73z"/></g><g><g fill="#888"><path d="M133.48 75.31h-1.92v-6.22h2.01c.6 0 1.12.12 1.55.37.43.25.76.6.99 1.07s.34 1.02.34 1.66-.12 1.21-.35 1.67-.57.83-1.01 1.08c-.44.25-.98.38-1.61.38zm-1.16-.67h1.12c.51 0 .94-.1 1.28-.3.34-.2.59-.48.76-.85.17-.37.25-.8.25-1.31s-.08-.94-.25-1.3c-.16-.36-.41-.64-.74-.84-.33-.2-.73-.29-1.22-.29h-1.2v4.89zM137.63 75.31v-6.22h3.76v.67h-3v2.1h2.81v.67h-2.81v2.12h3.05v.67h-3.8zM144.58 75.31h-1.92v-6.22h2.01c.6 0 1.12.12 1.55.37.43.25.76.6.99 1.07s.34 1.02.34 1.66-.12 1.21-.35 1.67-.57.83-1.01 1.08c-.44.25-.98.38-1.61.38zm-1.17-.67h1.12c.51 0 .94-.1 1.28-.3.34-.2.59-.48.76-.85.17-.37.25-.8.25-1.31s-.08-.94-.25-1.3c-.16-.36-.41-.64-.74-.84-.33-.2-.73-.29-1.22-.29h-1.2v4.89zM152.81 69.09h.75v4.12c0 .43-.1.81-.3 1.14s-.48.6-.84.79-.79.29-1.28.29-.91-.1-1.28-.29c-.36-.19-.64-.45-.84-.79-.2-.33-.3-.71-.3-1.14v-4.12h.75v4.06c0 .3.07.57.2.81.13.24.32.42.57.56s.55.2.89.2.64-.07.89-.2.44-.32.57-.56c.13-.24.2-.51.2-.81v-4.06zM159.99 71.03h-.75c-.04-.22-.12-.41-.23-.57s-.24-.3-.4-.42c-.16-.11-.33-.2-.52-.25s-.39-.09-.6-.09c-.38 0-.72.1-1.02.29-.31.19-.55.47-.73.84s-.27.83-.27 1.36.09.99.27 1.37c.18.37.42.65.73.84.3.19.65.29 1.02.29.21 0 .41-.03.6-.08s.36-.14.52-.25a1.591 1.591 0 00.63-.99h.75c-.06.32-.16.6-.31.85s-.34.46-.56.64c-.22.17-.47.31-.75.4-.28.09-.57.14-.89.14-.53 0-1-.13-1.42-.39-.41-.26-.74-.63-.98-1.11-.24-.48-.36-1.04-.36-1.7s.12-1.22.36-1.7.56-.85.98-1.11c.41-.26.89-.39 1.42-.39.31 0 .61.05.89.14.28.09.53.22.75.4.22.17.41.39.56.64.15.25.25.54.31.86zM160.78 69.75v-.67h4.67v.67h-1.96v5.56h-.75v-5.56h-1.96zM167.29 69.09v6.22h-.75v-6.22h.75zM173.96 72.2c0 .66-.12 1.22-.36 1.7s-.56.85-.98 1.11c-.41.26-.89.39-1.42.39s-1-.13-1.42-.39c-.41-.26-.74-.63-.98-1.11-.24-.48-.36-1.04-.36-1.7s.12-1.22.36-1.7.56-.85.98-1.11c.41-.26.89-.39 1.42-.39s1 .13 1.42.39c.41.26.74.63.98 1.11.24.48.36 1.04.36 1.7zm-.73 0c0-.54-.09-.99-.27-1.36s-.42-.65-.73-.84c-.31-.19-.65-.29-1.02-.29s-.72.1-1.02.29c-.31.19-.55.47-.73.84s-.27.83-.27 1.36.09.99.27 1.37c.18.37.42.65.73.84.3.19.65.29 1.02.29s.72-.09 1.02-.29c.3-.19.55-.47.73-.84.18-.37.27-.83.27-1.37zM180.07 69.09v6.22h-.73l-3.39-4.89h-.06v4.89h-.75v-6.22h.73l3.4 4.9h.06v-4.9h.74zM184.9 70.64a.96.96 0 00-.44-.72c-.26-.17-.58-.26-.96-.26-.28 0-.52.04-.72.13-.21.09-.37.21-.48.37a.84.84 0 00-.17.53c0 .17.04.31.12.43.08.12.18.22.31.29.12.08.26.14.39.19.14.05.26.09.38.12l.63.17c.16.04.34.1.54.18s.39.18.57.31.33.29.45.49.18.45.18.74c0 .34-.09.64-.26.91-.18.27-.43.49-.77.65-.34.16-.74.24-1.22.24-.45 0-.83-.07-1.16-.22s-.58-.34-.77-.6c-.19-.26-.29-.56-.31-.9h.78c.02.24.1.43.24.58.14.15.31.27.53.34.21.07.44.11.69.11.29 0 .55-.05.78-.14.23-.09.41-.23.54-.39.13-.17.2-.37.2-.59 0-.21-.06-.38-.17-.5-.12-.13-.27-.24-.46-.32s-.39-.15-.61-.21l-.77-.22c-.49-.14-.87-.34-1.15-.6-.28-.26-.43-.6-.43-1.02 0-.35.09-.65.28-.91.19-.26.44-.46.77-.61s.68-.22 1.08-.22.76.07 1.07.21c.31.14.56.34.74.58.18.25.28.53.29.84h-.73z"/></g></g><path d="M221.82 193.44h60.41v6.84h-60.41v-6.84zm-7.36-40.68h67.76v6.84h-67.76v-6.84zm16.7-47.69h51.07v6.84h-51.07v-6.84z" fill="#e2e2e2"/><path d="M311.29 176.03H41.41v-.61h269.88v.61zm0-45.01H41.41v-.61h269.88v.61zm0-45.02H41.41v-.61h269.88V86z" fill="#d0cfcf"/><path d="M41.41 83.82h54.13V86H41.41v-2.18z" fill="#e44338"/><rect x="41.41" y="17.41" width="33.42" height="33.42" rx="3.34" ry="3.34" fill="#ffc740"/><path d="M62.84 30.46v-3.04H50.12v9.11h2.41v3.29h13.58v-9.36h-3.27zm-11.39-1.72h10.07v6.46H51.45v-6.46zm13.34 9.75H53.86v-1.96h8.98v-4.75h1.95v6.71zM0 0"/></svg>