<svg data-name="Layer 1" xmlns="http://www.w3.org/2000/svg" viewBox="0 0 512 400"><defs><mask id="distribute-automatically-a" x="21.91" y="130.28" width="467.21" height="270.49" maskUnits="userSpaceOnUse"><g data-name="mask"><g data-name="path-1-outside-1 3624 4362"><path fill="#fff" d="M21.91 130.28h467.21v270.49H21.91z"/><path d="M24.8 145.72c0-6.93 5.62-12.55 12.55-12.55h437.23c6.93 0 12.55 5.62 12.55 12.55v254.15H24.8V145.72z"/></g></g></mask></defs><g data-name="Group 10161"><g data-name="Rectangle 907"><path d="M24.8 145.72c0-6.93 5.62-12.55 12.55-12.55h437.23c6.93 0 12.55 5.62 12.55 12.55v254.15H24.8V145.72z" fill="#fff"/><g mask="url(#distribute-automatically-a)"><path d="M22.92 145.72c0-7.97 6.46-14.43 14.43-14.43h437.23c7.97 0 14.43 6.46 14.43 14.43h-3.76c0-5.89-4.77-10.67-10.67-10.67H37.35c-5.89 0-10.67 4.77-10.67 10.67h-3.76zm464.21 254.15H24.8h462.33zm-464.21 0V145.72c0-7.97 6.46-14.43 14.43-14.43v3.76c-5.89 0-10.67 4.77-10.67 10.67v254.15h-3.76zm451.66-268.58c7.97 0 14.43 6.46 14.43 14.43v254.15h-3.76V145.72c0-5.89-4.77-10.67-10.67-10.67v-3.76z" fill="#edecea"/></g></g><rect data-name="Rectangle 908" x="24.8" y="22.75" width="462.33" height="92.23" rx="12.55" ry="12.55" fill="#fff"/><g fill="#b42b11" data-name="NET PAY"><path d="M232.31 231.19v-9.65h1.32l4.69 7.16h.04v-7.16h1.38v9.65h-1.32l-4.7-7.18h-.04v7.18h-1.37zM247.9 231.19h-5.92v-9.65h5.92v1.25h-4.47v2.88h4.21v1.2h-4.21v3.06h4.47v1.25zM251.69 231.19v-8.38h-2.87v-1.27h7.19v1.27h-2.87v8.38h-1.45zM263.74 221.55c1.92 0 3.13 1.28 3.13 3.07s-1.22 3.06-3.14 3.06h-2.17v3.51h-1.45v-9.65h3.63zm-2.17 4.91h1.36c1.55 0 2.46-.35 2.46-1.83 0-1.17-.67-1.83-1.82-1.83h-1.99v3.68zM267.1 231.19l3.36-9.65h1.58l3.36 9.65h-1.54l-.91-2.76h-3.46l-.91 2.76h-1.5zm4.11-8.06l-1.36 4.17h2.77l-1.36-4.17h-.05zM278.03 231.19v-3.99l-3.23-5.65h1.63l2.3 4.21h.05l2.31-4.21h1.61l-3.23 5.63v4.02h-1.45.02z"/></g><g fill="#b42b11"><path d="M235.55 288.74c2.84 0 4.27 1.68 4.27 4.81s-1.43 4.83-4.27 4.83h-3.23v-9.65h3.23zm-1.78 8.39h1.64c1.87 0 2.89-1.08 2.89-3.57 0-2.31-.89-3.57-2.89-3.57h-1.64v7.14zM247.43 298.39h-5.92v-9.65h5.92v1.25h-4.47v2.88h4.21v1.2h-4.21v3.06h4.47v1.25zM252.56 288.74c2.84 0 4.27 1.68 4.27 4.81s-1.43 4.83-4.27 4.83h-3.23v-9.65h3.23zm-1.77 8.39h1.64c1.87 0 2.89-1.08 2.89-3.57 0-2.31-.89-3.57-2.89-3.57h-1.64v7.14zM259.87 294.97c0 1.45.91 2.34 2.29 2.34s2.3-.9 2.3-2.34v-6.23h1.45v6.43c0 2-1.4 3.42-3.74 3.42s-3.73-1.42-3.73-3.42v-6.43h1.45v6.23zM269.08 294.2c0 2 .87 3.12 2.42 3.12 1.3 0 2.16-.79 2.2-1.96h1.42v.08c0 1.83-1.53 3.15-3.63 3.15-2.45 0-3.87-1.64-3.87-4.38v-1.22c0-2.77 1.43-4.44 3.87-4.44 2.1 0 3.63 1.37 3.63 3.3v.08h-1.42c-.03-1.24-.9-2.1-2.2-2.1-1.55 0-2.42 1.13-2.42 3.17v1.22zM278.78 298.39v-8.38h-2.87v-1.27h7.19v1.27h-2.87v8.38h-1.45zM284.52 298.39v-9.65h1.46v9.65h-1.46zM287.81 292.93c0-2.74 1.55-4.38 3.97-4.38s3.94 1.64 3.94 4.38v1.36c0 2.73-1.55 4.3-3.97 4.3s-3.94-1.57-3.94-4.3v-1.36zm1.46 1.36c0 2.06 1.08 3.03 2.49 3.03s2.49-.96 2.49-3.03v-1.37c0-2.06-1.07-3.11-2.49-3.11s-2.49 1.05-2.49 3.11v1.37zM297.56 298.39v-9.65h1.32l4.69 7.16h.04v-7.16h1.38v9.65h-1.32l-4.7-7.18h-.04v7.18h-1.37zM307.96 295.74c.09.88.84 1.62 2.25 1.62 1.29 0 2.08-.61 2.08-1.58 0-.77-.49-1.18-1.55-1.45l-1.63-.41c-1.2-.29-2.31-1.03-2.31-2.57 0-1.83 1.62-2.83 3.43-2.83s3.37.95 3.41 2.79h-1.41c-.08-.86-.75-1.56-2.03-1.56-1.14 0-1.95.55-1.95 1.5 0 .65.43 1.12 1.35 1.34l1.62.41c1.46.37 2.53 1.05 2.53 2.66 0 1.89-1.56 2.93-3.68 2.93-2.63 0-3.52-1.56-3.56-2.84h1.45z"/></g><g fill="#181732" data-name="11 499.00"><path d="M237.3 263.46v-1.47c-3.55-.26-5.07-2.37-5.11-4.54h2.42c.09 1.27 1 2.26 2.72 2.48v-5.19l-.94-.24c-1.98-.47-3.85-1.71-3.85-4.24 0-2.74 2.09-4.21 4.76-4.48v-1.52h1.68v1.52c2.72.26 4.69 1.93 4.74 4.43h-2.37c-.04-1.17-.9-2.16-2.38-2.37v4.88l.94.24c2.41.58 4.09 1.73 4.09 4.37 0 2.81-2.08 4.41-5.04 4.67v1.48h-1.68zm-.49-11.3c.16.06.34.11.53.18v-4.52c-1.33.16-2.32.94-2.32 2.25 0 .93.58 1.64 1.8 2.09zm2.49 3c-.1-.04-.21-.06-.31-.09v4.86c1.53-.14 2.61-.99 2.61-2.42 0-1.11-.6-1.85-2.3-2.35zM249.92 261.95v-13.21h-.09c-.58.31-2.94 1.82-3.69 2.35v-2.66c.82-.59 3.04-2 3.88-2.45h2.7v15.96h-2.8zM259.62 261.95v-13.21h-.09c-.58.31-2.94 1.82-3.69 2.35v-2.66c.82-.59 3.04-2 3.88-2.45h2.7v15.96h-2.8zM264.47 264.89l1.18-5.27h2.74l-1.85 5.27h-2.07zM280.31 245.99v10.57h1.98v2.32h-1.98v3.06h-2.66v-3.06h-7.73v-2.31c1.89-3.53 4.13-7.14 6.36-10.58h4.03zm-2.66 10.56v-8.36h-.09c-1.72 2.62-3.51 5.56-5.03 8.33v.02h5.12zM286.83 257.92c.13.99 1.08 2.05 2.7 2.05 2.4 0 3.51-2.56 3.46-5.87h-.13c-.41 1.17-1.72 2.31-3.94 2.31-2.59 0-4.97-1.81-4.97-5.23s2.66-5.48 5.61-5.48c3.73 0 6.1 2.45 6.1 8.04 0 5.3-2.28 8.5-6.21 8.5-3.5 0-5.21-2.36-5.32-4.32h2.69zm2.84-9.97c-1.56 0-3 1.07-3 3.16s1.36 3.14 2.95 3.14 3.05-1.29 3.05-3.1c0-2.09-1.33-3.19-3-3.19zM300.36 257.92c.13.99 1.08 2.05 2.7 2.05 2.4 0 3.51-2.56 3.46-5.87h-.13c-.41 1.17-1.72 2.31-3.94 2.31-2.58 0-4.97-1.81-4.97-5.23s2.66-5.48 5.61-5.48c3.73 0 6.1 2.45 6.1 8.04 0 5.3-2.28 8.5-6.21 8.5-3.5 0-5.21-2.36-5.32-4.32h2.69zm2.83-9.97c-1.56 0-3 1.07-3 3.16s1.36 3.14 2.95 3.14 3.05-1.29 3.05-3.1c0-2.09-1.33-3.19-3-3.19zM312.65 258.84c.91 0 1.67.76 1.67 1.68s-.76 1.67-1.67 1.67-1.68-.76-1.68-1.67.76-1.68 1.68-1.68zM316.21 253.4c0-4.66 2.14-7.73 5.95-7.73s5.88 3.05 5.88 7.73v1.14c0 4.52-2.02 7.72-5.92 7.72s-5.91-3.06-5.91-7.72v-1.14zm2.82 1.12c0 3.51 1.21 5.4 3.1 5.4s3.1-1.89 3.1-5.4v-1.11c0-3.51-1.2-5.39-3.1-5.39s-3.1 1.87-3.1 5.39v1.11zM330.02 253.4c0-4.66 2.14-7.73 5.95-7.73s5.88 3.05 5.88 7.73v1.14c0 4.52-2.02 7.72-5.92 7.72s-5.91-3.06-5.91-7.72v-1.14zm2.81 1.12c0 3.51 1.21 5.4 3.1 5.4s3.1-1.89 3.1-5.4v-1.11c0-3.51-1.2-5.39-3.1-5.39s-3.1 1.87-3.1 5.39v1.11z"/></g><g fill="#181732" data-name="5 958.00"><path d="M237.3 330.23v-1.47c-3.55-.26-5.07-2.37-5.11-4.54h2.42c.09 1.27 1 2.26 2.72 2.48v-5.2l-.94-.24c-1.98-.47-3.85-1.71-3.85-4.24 0-2.74 2.09-4.21 4.76-4.48v-1.52h1.68v1.52c2.72.26 4.69 1.93 4.74 4.43h-2.37c-.04-1.17-.9-2.16-2.38-2.37v4.88l.94.24c2.41.58 4.09 1.73 4.09 4.37 0 2.81-2.08 4.41-5.04 4.67v1.48h-1.68zm-.49-11.29c.16.06.34.11.53.18v-4.52c-1.33.16-2.32.94-2.32 2.25 0 .93.58 1.65 1.8 2.1zm2.49 3.01c-.1-.04-.21-.06-.31-.09v4.85c1.53-.14 2.61-.99 2.61-2.42 0-1.11-.6-1.85-2.3-2.35zM249.05 324.52c.21 1.42 1.42 2.25 3.05 2.25 1.52 0 3.15-1.17 3.15-3.25s-1.38-3.23-3.12-3.23-2.66.97-3.04 1.82h-2.47l.79-9.35h9.45v2.31h-7.17l-.43 4.38h.09c.39-.54 1.62-1.37 3.44-1.37 2.81 0 5.26 2.07 5.26 5.31 0 3.41-2.57 5.65-6.04 5.65s-5.47-2.08-5.59-4.53h2.64zM259.01 331.66l1.18-5.27h2.74l-1.85 5.27h-2.07zM267.82 324.71c.13.99 1.08 2.05 2.7 2.05 2.4 0 3.51-2.56 3.46-5.87h-.13c-.41 1.17-1.72 2.31-3.94 2.31-2.59 0-4.97-1.81-4.97-5.23s2.66-5.48 5.61-5.48c3.73 0 6.1 2.45 6.1 8.04 0 5.3-2.28 8.5-6.21 8.5-3.5 0-5.21-2.36-5.32-4.32h2.69zm2.85-9.98c-1.56 0-3 1.07-3 3.16s1.36 3.14 2.95 3.14 3.05-1.29 3.05-3.1c0-2.09-1.33-3.19-3-3.19zM281.56 324.52c.21 1.42 1.42 2.25 3.05 2.25 1.52 0 3.15-1.17 3.15-3.25s-1.38-3.23-3.12-3.23-2.66.97-3.04 1.82h-2.47l.79-9.35h9.45v2.31h-7.17l-.43 4.38h.09c.39-.54 1.62-1.37 3.44-1.37 2.81 0 5.26 2.07 5.26 5.31 0 3.41-2.57 5.65-6.03 5.65s-5.47-2.08-5.59-4.53h2.63zM292.62 324.36c0-2.52 1.89-3.7 3.31-4.02v-.09c-1.29-.4-2.67-1.51-2.67-3.58 0-2.45 2.18-4.23 5.4-4.23s5.4 1.79 5.4 4.23c0 2.11-1.45 3.2-2.69 3.58v.09c1.43.3 3.31 1.49 3.31 4 0 2.77-2.45 4.7-6.06 4.7s-5.97-1.91-5.97-4.69zm9.24-.18c0-1.63-1.39-2.77-3.21-2.77s-3.23 1.13-3.23 2.77 1.4 2.75 3.23 2.75 3.21-1.11 3.21-2.75zm-.55-7.2c0-1.43-1.12-2.38-2.66-2.38s-2.67.95-2.67 2.38 1.13 2.43 2.67 2.43 2.66-.99 2.66-2.43zM308.72 325.61c.91 0 1.67.76 1.67 1.68s-.76 1.67-1.67 1.67-1.68-.76-1.68-1.67.76-1.68 1.68-1.68zM312.28 320.18c0-4.66 2.14-7.73 5.95-7.73s5.88 3.05 5.88 7.73v1.14c0 4.52-2.02 7.72-5.92 7.72s-5.91-3.06-5.91-7.72v-1.14zm2.82 1.12c0 3.52 1.21 5.4 3.1 5.4s3.1-1.89 3.1-5.4v-1.11c0-3.51-1.2-5.4-3.1-5.4s-3.1 1.87-3.1 5.4v1.11zM326.08 320.18c0-4.66 2.14-7.73 5.95-7.73s5.88 3.05 5.88 7.73v1.14c0 4.52-2.02 7.72-5.92 7.72s-5.91-3.06-5.91-7.72v-1.14zm2.82 1.12c0 3.52 1.21 5.4 3.1 5.4s3.1-1.89 3.1-5.4v-1.11c0-3.51-1.2-5.4-3.1-5.4s-3.1 1.87-3.1 5.4v1.11z"/></g><g fill="#888" data-name="Total Gross Pay:"><path d="M68.68 377.3v-8.91h-3.06v-1.34h7.64v1.34H70.2v8.91h-1.53zM79.78 372.99v.67c0 2.2-1.21 3.78-3.47 3.78s-3.49-1.58-3.49-3.78V373c0-2.14 1.23-3.75 3.49-3.75s3.47 1.6 3.47 3.74zm-5.42.04v.6c0 1.49.67 2.54 1.96 2.54s1.95-1.04 1.95-2.54v-.6c0-1.52-.66-2.53-1.95-2.53s-1.96 1.02-1.96 2.53zM82.18 367.43h1.49v1.96h1.56v1.23h-1.56V375c0 .9.32 1.14 1.25 1.14.13 0 .26 0 .36-.02v1.18c-.13.02-.43.06-.74.06-1.91 0-2.38-.71-2.38-2.29v-4.46h-1.08v-1.23h1.1v-1.96zM89.15 377.43c-1.53 0-2.58-.94-2.58-2.4s.97-2.29 2.79-2.29h2.03v-.77c0-.96-.56-1.48-1.55-1.48s-1.48.49-1.56 1.23h-1.43c.08-1.36.99-2.44 3.02-2.44 1.73 0 3.01.9 3.01 2.62v5.42h-1.45v-.97h-.06c-.37.61-1.08 1.11-2.25 1.11v-.02zm2.24-2.75v-.9h-1.82c-1.01 0-1.46.48-1.46 1.16 0 .87.72 1.29 1.49 1.29 1.02 0 1.8-.64 1.8-1.56zM95.06 366.51h1.51v10.79h-1.51v-10.79zM108.09 370.22c-.15-1.26-1.02-2.04-2.38-2.04-1.65 0-2.62 1.17-2.62 3.18v1.46c0 2.09.9 3.34 2.66 3.34 1.44 0 2.38-.89 2.38-2.13v-.88h-2.48v-1.27h3.97v2.09c0 1.97-1.54 3.52-3.9 3.52-2.77 0-4.2-1.77-4.2-4.68v-1.46c0-2.78 1.55-4.53 4.17-4.53 2.3 0 3.78 1.42 3.9 3.39h-1.52zM111.5 369.38h1.52v1.01h.06c.21-.48.8-1.12 1.92-1.12.2 0 .38.02.53.04v1.36a4.03 4.03 0 00-.68-.05c-1.37 0-1.81.84-1.81 1.91v4.78h-1.53v-7.92zM123.52 372.99v.67c0 2.2-1.21 3.78-3.47 3.78s-3.49-1.58-3.49-3.78V373c0-2.14 1.23-3.75 3.49-3.75s3.47 1.6 3.47 3.74zm-5.42.04v.6c0 1.49.67 2.54 1.96 2.54s1.95-1.04 1.95-2.54v-.6c0-1.52-.66-2.53-1.95-2.53s-1.96 1.02-1.96 2.53zM128.09 369.25c1.87 0 2.88 1.02 2.88 2.39h-1.38c-.05-.57-.41-1.23-1.55-1.23-.88 0-1.5.4-1.5 1.11 0 .86 1.09 1.02 1.98 1.19 1.48.26 2.66.7 2.66 2.22s-1.27 2.51-3.21 2.51c-1.84 0-3.04-.88-3.04-2.3h1.48c.09.68.68 1.12 1.66 1.12 1.11 0 1.63-.53 1.63-1.15 0-.85-.91-1.01-1.98-1.22-1.46-.3-2.66-.78-2.66-2.22 0-1.7 1.45-2.43 3.01-2.43zM135.64 369.25c1.87 0 2.88 1.02 2.88 2.39h-1.38c-.05-.57-.41-1.23-1.55-1.23-.88 0-1.5.4-1.5 1.11 0 .86 1.09 1.02 1.98 1.19 1.48.26 2.66.7 2.66 2.22s-1.27 2.51-3.21 2.51c-1.84 0-3.04-.88-3.04-2.3h1.48c.09.68.68 1.12 1.66 1.12 1.11 0 1.63-.53 1.63-1.15 0-.85-.91-1.01-1.98-1.22-1.46-.3-2.66-.78-2.66-2.22 0-1.7 1.45-2.43 3.01-2.43zM147.47 367.05c2.03 0 3.33 1.35 3.33 3.27s-1.3 3.25-3.34 3.25h-2.31v3.73h-1.54v-10.25h3.86zm-2.3 5.22h1.45c1.64 0 2.62-.37 2.62-1.96 0-1.25-.72-1.96-1.94-1.96h-2.12v3.9zM154.43 377.43c-1.53 0-2.58-.94-2.58-2.4s.97-2.29 2.79-2.29h2.03v-.77c0-.96-.56-1.48-1.55-1.48s-1.48.49-1.56 1.23h-1.43c.08-1.36.99-2.44 3.02-2.44 1.73 0 3.01.9 3.01 2.62v5.42h-1.45v-.97h-.06c-.37.61-1.08 1.11-2.25 1.11v-.02zm2.24-2.75v-.9h-1.82c-1.01 0-1.46.48-1.46 1.16 0 .87.72 1.29 1.49 1.29 1.02 0 1.8-.64 1.8-1.56zM163.81 377.25l-.2.55c-.47 1.26-1.09 2.36-2.86 2.36-.33 0-.7-.04-.9-.07v-1.18c.12.02.42.04.6.04.95 0 1.32-.43 1.52-1.2l.1-.38-2.86-8h1.68l1.99 6.37h.06l2-6.37h1.62l-2.75 7.87zM168.58 370.25c.53 0 .96.43.96.97s-.43.96-.96.96-.97-.43-.97-.96.43-.97.97-.97zm0 5.27c.53 0 .96.43.96.97s-.43.96-.96.96-.97-.43-.97-.96.43-.97.97-.97z"/></g><g fill="#181732" data-name="17 408.00"><path d="M179.99 378.2v-1.04c-2.51-.18-3.59-1.68-3.62-3.21h1.71c.06.9.71 1.6 1.93 1.76v-3.68l-.66-.16c-1.41-.33-2.72-1.21-2.72-3 0-1.94 1.48-2.98 3.36-3.17v-1.08h1.19v1.08c1.93.19 3.32 1.37 3.36 3.14h-1.68c-.03-.83-.63-1.53-1.69-1.68v3.45l.67.16c1.7.41 2.9 1.23 2.9 3.09 0 1.98-1.47 3.12-3.56 3.31v1.05h-1.19zm-.35-7.99c.11.04.24.09.37.12v-3.19c-.94.11-1.64.66-1.64 1.59 0 .65.41 1.16 1.28 1.48zm1.76 2.13c-.08-.03-.15-.04-.23-.06v3.43c1.09-.09 1.84-.7 1.84-1.71 0-.78-.43-1.3-1.63-1.66zM188.91 377.14v-9.35h-.07c-.41.23-2.08 1.29-2.62 1.66v-1.88c.58-.42 2.15-1.42 2.75-1.73h1.91v11.3h-1.97zM200.58 365.85v1.7l-4.59 9.59h-2.11l4.75-9.59v-.05h-5.64v-1.65h7.6zM199.32 379.22l.83-3.73h1.94l-1.3 3.73h-1.46zM210.53 365.85v7.48h1.41v1.64h-1.41v2.16h-1.89v-2.16h-5.47v-1.63c1.34-2.49 2.92-5.06 4.5-7.49h2.86zm-1.88 7.47v-5.91h-.07a83.153 83.153 0 00-3.56 5.9v.02h3.63zM213.1 371.09c0-3.3 1.51-5.47 4.21-5.47s4.17 2.16 4.17 5.47v.81c0 3.19-1.44 5.46-4.2 5.46s-4.18-2.16-4.18-5.46v-.81zm1.99.79c0 2.49.85 3.83 2.19 3.83s2.19-1.34 2.19-3.83v-.78c0-2.49-.85-3.82-2.19-3.82s-2.19 1.32-2.19 3.82v.78zM222.89 374.05c0-1.79 1.34-2.63 2.34-2.83v-.06c-.91-.28-1.9-1.07-1.9-2.53 0-1.73 1.55-3 3.82-3s3.82 1.27 3.82 3c0 1.49-1.03 2.27-1.9 2.53v.06c1.01.22 2.34 1.06 2.34 2.83 0 1.97-1.73 3.33-4.29 3.33s-4.23-1.35-4.23-3.32zm6.54-.14c0-1.16-.98-1.97-2.28-1.97s-2.29.8-2.29 1.97.99 1.95 2.29 1.95 2.28-.78 2.28-1.95zm-.39-5.09c0-1.01-.79-1.69-1.89-1.69s-1.9.68-1.9 1.69.8 1.72 1.9 1.72 1.89-.7 1.89-1.72zM234.28 374.94c.64 0 1.18.54 1.18 1.19s-.54 1.18-1.18 1.18-1.19-.54-1.19-1.18.54-1.19 1.19-1.19zM236.79 371.09c0-3.3 1.51-5.47 4.21-5.47s4.17 2.16 4.17 5.47v.81c0 3.19-1.44 5.46-4.2 5.46s-4.18-2.16-4.18-5.46v-.81zm2 .79c0 2.49.85 3.83 2.19 3.83s2.19-1.34 2.19-3.83v-.78c0-2.49-.85-3.82-2.19-3.82s-2.19 1.32-2.19 3.82v.78zM246.55 371.09c0-3.3 1.51-5.47 4.21-5.47s4.17 2.16 4.17 5.47v.81c0 3.19-1.44 5.46-4.2 5.46s-4.18-2.16-4.18-5.46v-.81zm2 .79c0 2.49.85 3.83 2.19 3.83s2.19-1.34 2.19-3.83v-.78c0-2.49-.85-3.82-2.19-3.82s-2.19 1.32-2.19 3.82v.78z"/></g><g data-name="Group 10137"><path d="M124.13 217.11v30.22c-9.58.71-17.95 5.82-23.07 13.31h-.02l-24.01-18.33c10.65-14.72 27.72-24.49 47.09-25.2z" fill="#cc291f"/><path data-name="Vector 2" d="M128.76 217.09v30.24c15.92 1.18 28.48 14.48 28.48 30.7s-13.78 30.77-30.77 30.77c-12.48 0-24.1-8.2-28.65-19.77-3.1-7.89-2.69-17.12 1.09-24.69l-23.13-17.32-1.3-.85a60.749 60.749 0 00-8.96 33.44c.85 32.94 27.82 59.39 60.95 59.39s60.96-27.31 60.96-60.96-26.06-59.72-58.67-60.92v-.03zm-28.63 76.87c-.13-.22-.26-.43-.38-.66.12.23.26.43.38.66zm-1.38-2.52c-.08-.17-.17-.33-.26-.5.08.16.17.33.26.5zm-1.21-2.85c-.06-.17-.12-.35-.18-.53.06.18.12.35.18.53z" fill="#fedecf"/></g><g data-name="Pay Stubs"><path d="M66.92 160.98h4.06c.62 0 1.21.07 1.75.21s1.02.36 1.43.66c.41.3.73.7.95 1.18.24.48.35 1.07.35 1.76 0 .77-.14 1.39-.43 1.88s-.66.87-1.12 1.15c-.47.27-1.01.46-1.62.57-.61.1-1.25.15-1.9.14l-1.55-.02v4.88h-1.93v-12.41zm4.12 6.09c.8 0 1.42-.18 1.85-.55s.65-.95.65-1.77c0-.43-.06-.77-.17-1.07-.11-.28-.28-.52-.5-.7s-.48-.3-.78-.38a4.15 4.15 0 00-1.04-.11h-2.19v4.56h2.19zM81.86 172.26c-.34.45-.76.78-1.24.99s-1.01.3-1.56.3c-.42 0-.8-.06-1.17-.17-.37-.11-.69-.28-.96-.51s-.49-.51-.65-.84-.25-.73-.25-1.16c0-.41.07-.76.21-1.06s.32-.55.55-.77c.24-.21.5-.39.81-.52s.63-.24.98-.31c.35-.08.71-.13 1.07-.16.37-.03.73-.04 1.07-.04h1.12c0-.37-.02-.7-.06-1-.04-.3-.12-.57-.26-.78-.13-.22-.33-.39-.59-.51s-.6-.18-1.02-.18c-.23 0-.45.04-.67.1s-.43.16-.61.28a2.127 2.127 0 00-.84 1.05l-1.47-.63c.16-.39.38-.73.63-1 .26-.27.56-.5.88-.68s.68-.31 1.07-.4c.38-.09.77-.12 1.16-.12.53 0 1.01.08 1.45.21.43.14.81.35 1.13.62s.56.62.74 1.04.26.9.26 1.44v5.94h-1.78v-1.12zm-1.16-3.06c-.27 0-.58.02-.91.05-.34.03-.65.1-.94.22s-.54.28-.74.51c-.2.23-.29.53-.29.91 0 .46.14.8.43 1.01.29.21.67.31 1.14.31.3 0 .6-.04.89-.12.29-.09.55-.21.78-.37s.42-.38.57-.62c.14-.26.22-.55.22-.88v-1.01H80.7zM88.26 172.44l-3.54-8.14h1.94l2.53 6.17 2.36-6.17h1.79l-4.98 12.23h-1.79l1.69-4.09zM99.09 169.6c.11.37.26.71.45 1.01.19.3.42.56.68.77.26.22.56.38.89.49s.68.17 1.07.17c.33 0 .65-.05.97-.13.31-.09.6-.23.83-.41.25-.18.43-.4.59-.67.15-.26.23-.59.23-.94s-.09-.69-.25-.93c-.17-.24-.39-.43-.66-.59-.27-.15-.6-.26-.95-.36-.36-.09-.74-.17-1.12-.25-.31-.07-.63-.13-.95-.2s-.62-.16-.92-.27-.56-.25-.81-.41-.47-.36-.66-.6-.33-.53-.43-.86-.16-.73-.16-1.18c0-.56.1-1.06.32-1.49.21-.43.5-.8.87-1.1s.8-.52 1.3-.67 1.04-.23 1.62-.23c1.99 0 3.39.94 4.2 2.82l-1.55.68c-.26-.6-.6-1.07-1.03-1.4-.43-.33-.97-.5-1.64-.5-.29 0-.57.04-.84.1s-.52.17-.73.31a1.522 1.522 0 00-.69 1.31c0 .38.08.69.24.93s.37.43.64.59a4 4 0 00.94.36c.36.09.74.18 1.14.26.31.07.63.13.95.2.32.08.63.16.93.27.3.11.58.25.84.41s.49.36.68.6c.2.25.35.53.45.87s.16.74.16 1.19c0 .6-.13 1.13-.39 1.6-.26.46-.6.86-1.02 1.18-.43.32-.9.57-1.43.74-.53.17-1.07.25-1.62.25-.59 0-1.12-.06-1.63-.18s-.95-.31-1.36-.58c-.41-.26-.77-.6-1.07-1s-.55-.9-.74-1.46l1.65-.73v.03zM113 173.32c-.43.13-.88.21-1.36.21-.85 0-1.49-.21-1.93-.62s-.66-1.06-.66-1.93v-5.26h-1.28v-1.41h1.28v-1.79l1.79-.78v2.57h2.04v1.41h-2.04v5.09c0 .37.09.67.25.9.17.24.46.35.89.35.3 0 .64-.07 1.02-.19v1.46zM120.91 171.94c-.27.56-.67.96-1.19 1.22-.52.26-1.11.39-1.74.39-.53 0-.99-.09-1.39-.25s-.74-.4-1.01-.7-.48-.67-.61-1.1c-.14-.43-.21-.91-.21-1.43v-5.78h1.78v5.62c0 .7.17 1.24.51 1.6s.84.54 1.52.54c.37 0 .71-.06.99-.16a1.974 1.974 0 001.2-1.2c.1-.29.16-.6.16-.94v-5.45h1.78v9.09h-1.78v-1.45zM125.21 160.02h1.8v5.78c.15-.26.35-.5.58-.71s.49-.39.77-.53c.28-.15.58-.26.88-.33.31-.08.6-.11.91-.11.7 0 1.3.13 1.81.39s.94.6 1.29 1.03.6.94.77 1.49c.17.57.26 1.16.26 1.78s-.09 1.26-.26 1.82-.43 1.08-.78 1.51-.77.77-1.27 1.03-1.08.38-1.73.38c-.32 0-.64-.04-.96-.1s-.62-.17-.91-.3c-.28-.13-.54-.3-.77-.51s-.43-.44-.58-.73v1.47h-1.8v-13.36zm4.57 12.08c.51 0 .94-.09 1.28-.27s.61-.43.82-.73.35-.66.43-1.06.12-.82.12-1.26c0-.41-.06-.8-.16-1.19-.1-.39-.26-.73-.48-1.03-.22-.29-.49-.54-.82-.72-.33-.18-.73-.27-1.19-.27-.5 0-.93.09-1.29.26s-.66.42-.89.72-.4.65-.51 1.05-.17.81-.17 1.26.06.89.18 1.29.29.74.53 1.03c.24.28.53.51.89.67s.77.25 1.25.25zM136.82 170.68c.09.24.21.44.36.63.15.18.33.34.52.46.2.12.41.23.64.29s.47.1.72.1c.22 0 .44-.02.66-.06.22-.04.42-.1.59-.2s.31-.23.42-.39.16-.36.16-.6-.06-.46-.18-.63c-.12-.17-.28-.3-.48-.42-.21-.11-.43-.2-.7-.27-.26-.07-.55-.14-.85-.21-.34-.08-.68-.17-1.03-.27s-.66-.25-.94-.43-.51-.43-.69-.74-.26-.7-.26-1.18c0-.43.09-.81.29-1.14.19-.33.44-.6.75-.83.31-.23.65-.39 1.04-.5s.77-.17 1.15-.17.72.04 1.06.12.65.21.95.38c.29.17.57.38.8.63s.43.55.6.89l-1.36.6c-.19-.43-.46-.74-.82-.94s-.75-.29-1.17-.29c-.19 0-.39.02-.58.07-.19.04-.37.11-.52.21s-.27.22-.37.36c-.09.15-.14.33-.14.54 0 .24.06.43.17.57.11.15.27.27.46.37s.42.18.67.25c.26.07.52.12.79.18.36.08.73.16 1.1.26.37.09.7.25.99.43s.54.43.73.75c.19.31.28.71.28 1.22s-.09.94-.29 1.31-.46.66-.78.9-.7.4-1.11.51c-.42.1-.85.16-1.29.16-.41 0-.8-.05-1.18-.13s-.74-.23-1.06-.42-.6-.43-.86-.71c-.25-.28-.44-.62-.58-1.02l1.37-.6h-.02z"/></g><g fill="#181732" data-name="Salary received"><path d="M105.13 71.17c.13.43.31.83.54 1.18s.49.65.79.91.65.44 1.03.58c.38.13.79.2 1.25.2.39 0 .77-.06 1.13-.16.37-.1.69-.26.97-.47s.51-.47.69-.78c.17-.31.26-.68.26-1.11s-.09-.8-.29-1.09c-.2-.28-.45-.51-.77-.68s-.7-.31-1.11-.42c-.43-.1-.86-.2-1.31-.28-.37-.08-.74-.15-1.11-.24-.37-.09-.73-.19-1.07-.31-.34-.13-.65-.28-.94-.47s-.55-.42-.77-.7c-.22-.28-.39-.61-.51-1s-.18-.85-.18-1.37c0-.65.12-1.23.37-1.74s.59-.94 1.01-1.28c.43-.35.94-.6 1.52-.78s1.22-.26 1.89-.26c2.32 0 3.96 1.1 4.9 3.28l-1.81.79c-.3-.7-.71-1.24-1.21-1.63s-1.14-.59-1.92-.59c-.34 0-.66.04-.98.12-.32.08-.6.2-.84.37-.25.16-.44.38-.59.62-.15.26-.23.55-.23.9 0 .44.09.8.27 1.09s.43.51.76.68.68.31 1.11.42c.42.1.86.21 1.33.29.37.08.74.15 1.11.24.37.09.74.19 1.09.31.35.13.68.28.98.47s.57.43.79.71.41.62.54 1.02c.13.4.19.86.19 1.4 0 .7-.15 1.32-.45 1.86-.3.55-.7 1-1.19 1.38-.49.38-1.05.66-1.66.85-.62.2-1.25.29-1.89.29-.68 0-1.31-.08-1.9-.22a5.42 5.42 0 01-1.6-.67c-.47-.3-.89-.69-1.25-1.16s-.64-1.05-.86-1.71l1.93-.85v.02zM122.35 74.27c-.4.53-.88.92-1.45 1.15s-1.17.36-1.81.36c-.48 0-.94-.07-1.37-.2s-.8-.33-1.12-.6c-.32-.26-.58-.6-.77-.98s-.28-.85-.28-1.36c0-.47.08-.89.24-1.23s.37-.64.64-.89.59-.44.94-.6c.36-.15.75-.27 1.14-.37.41-.09.82-.15 1.25-.18.43-.04.84-.05 1.25-.05h1.31c0-.43-.02-.82-.07-1.17s-.15-.66-.3-.92-.39-.45-.68-.6-.69-.22-1.19-.22c-.26 0-.53.04-.78.12-.26.08-.5.19-.72.33a2.425 2.425 0 00-.99 1.22l-1.72-.75c.19-.45.43-.84.75-1.16.3-.32.64-.59 1.03-.79.38-.21.79-.36 1.24-.46.44-.09.9-.15 1.36-.15.61 0 1.17.09 1.68.25s.95.41 1.32.73.65.73.86 1.21.3 1.04.3 1.67v6.94h-2.07v-1.31zm-1.36-3.58c-.31 0-.67.02-1.06.06-.4.04-.76.12-1.1.26s-.62.33-.86.6c-.23.26-.35.61-.35 1.06 0 .54.17.94.51 1.18s.78.37 1.33.37c.35 0 .69-.05 1.03-.14s.64-.24.92-.43.49-.43.66-.73.26-.63.26-1.02v-1.18h-1.34zM127.28 60.93l2.11-.93v15.57h-2.11V60.92zM138.4 74.27c-.4.53-.88.92-1.45 1.15s-1.17.36-1.81.36c-.48 0-.94-.07-1.37-.2s-.8-.33-1.12-.6c-.32-.26-.58-.6-.77-.98s-.28-.85-.28-1.36c0-.47.08-.89.24-1.23s.37-.64.64-.89.59-.44.94-.6c.36-.15.75-.27 1.14-.37.41-.09.82-.15 1.25-.18.43-.04.84-.05 1.25-.05h1.31c0-.43-.02-.82-.07-1.17s-.15-.66-.3-.92-.39-.45-.68-.6-.69-.22-1.19-.22c-.26 0-.53.04-.78.12-.26.08-.5.19-.72.33a2.425 2.425 0 00-.99 1.22l-1.72-.75c.19-.45.43-.84.75-1.16.3-.32.64-.59 1.03-.79.38-.21.79-.36 1.24-.46.44-.09.9-.15 1.36-.15.61 0 1.17.09 1.68.25s.95.41 1.32.73.65.73.86 1.21.3 1.04.3 1.67v6.94h-2.07v-1.31zm-1.35-3.58c-.31 0-.67.02-1.06.06-.4.04-.76.12-1.1.26s-.62.33-.86.6c-.23.26-.35.61-.35 1.06 0 .54.17.94.51 1.18s.78.37 1.33.37c.35 0 .69-.05 1.03-.14s.64-.24.92-.43.49-.43.66-.73.26-.63.26-1.02v-1.18h-1.34zM143.21 64.98h2.11v1.95c.38-.73.84-1.27 1.4-1.62s1.25-.52 2.06-.52v1.97c-.54.02-1.02.09-1.46.2s-.79.29-1.09.54-.52.57-.68.96-.24.88-.24 1.46v5.66h-2.11v-10.6zM153.91 74.47l-4.13-9.5h2.27l2.96 7.19 2.76-7.19h2.09l-5.81 14.27h-2.09l1.97-4.77zM165.38 64.98h2.11v1.95c.38-.73.84-1.27 1.4-1.62s1.25-.52 2.06-.52v1.97c-.54.02-1.02.09-1.46.2s-.79.29-1.09.54-.52.57-.68.96-.24.88-.24 1.46v5.66h-2.11v-10.6zM181.36 73.21c-.23.44-.51.83-.82 1.16-.32.33-.67.6-1.06.8-.39.21-.79.36-1.24.46-.43.09-.9.15-1.37.15-.84 0-1.59-.14-2.24-.42s-1.21-.66-1.66-1.15-.8-1.07-1.04-1.73-.36-1.38-.36-2.15.12-1.5.36-2.18c.24-.67.59-1.27 1.03-1.76.44-.5.98-.89 1.62-1.17.63-.28 1.34-.43 2.12-.43.93 0 1.71.15 2.32.46.62.31 1.12.73 1.5 1.27.38.53.65 1.16.81 1.88.16.72.25 1.49.25 2.31h-7.86c0 .49.07.94.19 1.36.13.42.32.78.58 1.09s.58.55.96.72c.38.18.83.26 1.33.26.65 0 1.22-.14 1.7-.44.48-.29.86-.71 1.14-1.24l1.74.74zm-1.88-4c-.03-.43-.1-.81-.23-1.16s-.3-.64-.53-.89c-.23-.25-.5-.43-.83-.58-.33-.13-.71-.2-1.13-.2s-.85.08-1.19.22c-.35.14-.64.34-.89.6s-.44.56-.6.9c-.15.35-.26.72-.31 1.11h5.72zM193.02 72.52c-.19.54-.43 1.01-.76 1.42s-.69.75-1.11 1.01c-.42.27-.88.47-1.39.61-.51.14-1.04.21-1.61.21-.82 0-1.56-.14-2.2-.42s-1.18-.67-1.63-1.16-.77-1.09-1-1.77c-.23-.68-.35-1.42-.35-2.21s.13-1.47.39-2.14a5.2 5.2 0 011.09-1.72c.47-.49 1.03-.87 1.69-1.15.66-.28 1.39-.42 2.18-.42.51 0 .99.06 1.46.18s.9.3 1.29.55c.4.25.76.55 1.07.92s.58.8.79 1.29l-1.79.77c-.1-.31-.26-.59-.45-.83-.2-.25-.43-.45-.69-.62s-.55-.3-.87-.4a3.5 3.5 0 00-.97-.14c-.54 0-.99.11-1.38.34s-.7.52-.94.89-.43.78-.55 1.25c-.12.46-.18.94-.18 1.43s.07.97.19 1.43c.12.44.32.84.58 1.18.26.34.6.6.99.8.41.2.88.29 1.43.29.36 0 .7-.06 1.02-.17s.6-.26.86-.47c.26-.2.48-.44.67-.72s.34-.59.45-.92l1.7.72v-.03zM204.18 73.21c-.23.44-.51.83-.82 1.16-.32.33-.67.6-1.06.8-.39.21-.79.36-1.24.46-.43.09-.9.15-1.37.15-.84 0-1.59-.14-2.24-.42s-1.21-.66-1.66-1.15-.8-1.07-1.04-1.73-.36-1.38-.36-2.15.12-1.5.36-2.18c.24-.67.59-1.27 1.03-1.76.44-.5.98-.89 1.62-1.17.63-.28 1.34-.43 2.12-.43.93 0 1.71.15 2.32.46.62.31 1.12.73 1.5 1.27.38.53.65 1.16.81 1.88.16.72.25 1.49.25 2.31h-7.86c0 .49.07.94.19 1.36.13.42.32.78.58 1.09s.58.55.96.72c.38.18.83.26 1.33.26.65 0 1.22-.14 1.7-.44.48-.29.86-.71 1.14-1.24l1.74.74zm-1.88-4c-.03-.43-.1-.81-.23-1.16s-.3-.64-.53-.89c-.23-.25-.5-.43-.83-.58-.33-.13-.71-.2-1.13-.2s-.85.08-1.19.22c-.35.14-.64.34-.89.6s-.44.56-.6.9c-.15.35-.26.72-.31 1.11h5.72zM206.32 61.93c0-.18.04-.34.1-.5.07-.15.16-.29.28-.41s.26-.21.42-.27.33-.09.5-.09.35.03.5.09c.16.07.29.15.42.26s.22.26.28.41.1.32.1.51-.04.34-.1.5-.16.29-.28.41-.26.21-.42.27a1.426 1.426 0 01-1 0c-.16-.07-.29-.16-.42-.27-.12-.11-.21-.26-.28-.41-.07-.15-.1-.32-.1-.5zm.28 3.08h2.09v10.57h-2.09V65.01zM210.56 64.98h2.27l2.87 8.46 2.85-8.46h2.11l-3.77 10.6h-2.53l-3.81-10.6zM231.39 73.21c-.23.44-.51.83-.82 1.16-.32.33-.67.6-1.06.8-.39.21-.79.36-1.24.46-.43.09-.9.15-1.37.15-.84 0-1.59-.14-2.24-.42s-1.21-.66-1.66-1.15-.8-1.07-1.04-1.73-.36-1.38-.36-2.15.12-1.5.36-2.18c.24-.67.59-1.27 1.03-1.76.44-.5.98-.89 1.62-1.17.63-.28 1.34-.43 2.12-.43.93 0 1.71.15 2.32.46.62.31 1.12.73 1.5 1.27.38.53.65 1.16.81 1.88.16.72.25 1.49.25 2.31h-7.86c0 .49.07.94.19 1.36.13.42.32.78.58 1.09s.58.55.96.72c.38.18.83.26 1.33.26.65 0 1.22-.14 1.7-.44.48-.29.86-.71 1.14-1.24l1.74.74zm-1.88-4c-.03-.43-.1-.81-.23-1.16s-.3-.64-.53-.89c-.23-.25-.5-.43-.83-.58-.33-.13-.71-.2-1.13-.2s-.85.08-1.19.22c-.35.14-.64.34-.89.6s-.44.56-.6.9c-.15.35-.26.72-.31 1.11h5.72zM241.49 73.77c-.17.31-.4.59-.67.83-.27.25-.59.45-.92.62-.34.17-.69.3-1.05.4s-.72.14-1.07.14c-.8 0-1.5-.14-2.1-.43-.6-.29-1.09-.68-1.48-1.18-.4-.49-.69-1.08-.88-1.74-.2-.66-.29-1.37-.29-2.11s.1-1.44.32-2.1.53-1.26.94-1.77c.42-.51.92-.92 1.52-1.22s1.29-.45 2.06-.45c.37 0 .73.04 1.09.11.35.08.69.19 1 .35.31.15.6.35.87.59s.49.52.67.84v-6.66h2.11v15.58h-2.11v-1.8zm-3.27.31c.59 0 1.09-.1 1.51-.3s.77-.48 1.04-.83.47-.77.6-1.24.19-.98.19-1.51-.06-1.01-.18-1.46c-.12-.45-.31-.84-.58-1.18s-.6-.6-.99-.79c-.41-.19-.88-.28-1.45-.28-.6 0-1.1.1-1.5.32s-.74.5-.98.86-.43.77-.53 1.25c-.11.47-.16.97-.16 1.49 0 .47.06.94.18 1.38.12.44.3.84.55 1.18s.56.61.94.81.84.3 1.36.3zM246.7 74.27c0-.21.04-.4.12-.58.08-.18.19-.33.31-.46.13-.13.29-.24.47-.31s.38-.11.59-.11.4.04.58.1c.18.08.33.17.46.3s.24.28.31.46c.08.18.11.37.11.58s-.04.41-.12.59c-.08.18-.19.33-.32.46s-.29.23-.47.3c-.18.08-.37.11-.57.11s-.4-.04-.58-.11-.33-.17-.46-.3-.24-.28-.31-.45c-.08-.18-.12-.37-.12-.57zm.31-13.17h2.35l-.35 10.24h-1.66L247 61.1z"/></g><path fill="#d0cfcf" d="M65.49 196.1h379.82v.58H65.49z"/><g data-name="Group 10138"><circle data-name="Ellipse 4" cx="76.55" cy="68.87" r="14.99"/><path data-name="Vector Stroke" d="M83.21 65.62l-8.43 8.24-4.89-4.79 1.79-1.75 3.11 3.04 6.64-6.49 1.79 1.75z" fill="#fff" fill-rule="evenodd"/></g></g></svg>