<svg data-name="Layer 1" xmlns="http://www.w3.org/2000/svg" viewBox="0 0 512 400"><defs><mask id="experience-ui-a" x="388.67" y="211.95" width="50.91" height="59.35" maskUnits="userSpaceOnUse"><path d="M434.35 249.11l-20.6 2.66c-.92.12-1.76.55-2.39 1.23l-14.06 15.22c-2.42 2.63-6.83.91-6.82-2.65l.06-47.9c0-3.16 3.59-5.01 6.19-3.19l39.37 27.55c2.93 2.05 1.8 6.62-1.75 7.08z" fill="#fff" data-name="path-19-inside-1 3633 4452"/></mask></defs><g data-name="Group 10164"><path data-name="Rectangle 915" d="M74.47 29.72C74.47 17.17 84.64 7 97.19 7H391.5c12.55 0 22.72 10.17 22.72 22.72v370.2H74.47V29.72z" fill="#282828"/><g data-name="Group 10163"><path d="M394.57 179.37H103.23a6.68 6.68 0 00-6.68 6.68v44.94a6.68 6.68 0 006.68 6.68h291.34a6.68 6.68 0 006.68-6.68v-44.94a6.68 6.68 0 00-6.68-6.68z" fill="#fff" opacity=".2"/><g fill="#fff"><path d="M168.49 59.97h6.19c1.5 0 2.85.19 4.04.58 1.19.39 2.21.97 3.04 1.75.83.77 1.47 1.74 1.92 2.89.44 1.15.67 2.49.67 4.03s-.23 2.82-.69 3.96c-.46 1.14-1.11 2.09-1.96 2.86-.85.77-1.87 1.35-3.06 1.74-1.19.39-2.52.58-3.98.58h-6.17V59.97zm6.08 15.62c1.07 0 1.99-.15 2.75-.45.76-.3 1.39-.73 1.88-1.29s.85-1.25 1.08-2.05c.23-.81.35-1.71.35-2.72 0-2.08-.49-3.65-1.46-4.72-.98-1.07-2.52-1.6-4.64-1.6h-2.46V75.6h2.51zM194.74 76.72c-.51.68-1.12 1.16-1.84 1.46-.72.29-1.49.44-2.33.44-.63 0-1.22-.08-1.77-.24-.55-.16-1.03-.4-1.43-.73-.41-.33-.73-.73-.96-1.23-.23-.49-.35-1.07-.35-1.73 0-.62.1-1.16.31-1.61.21-.46.48-.84.83-1.16.35-.32.76-.58 1.22-.78.47-.2.96-.36 1.49-.47.52-.11 1.06-.19 1.61-.23s1.09-.06 1.61-.06h1.58v-.21c0-.48-.04-.91-.11-1.3s-.2-.72-.4-.99a1.88 1.88 0 00-.8-.63c-.34-.15-.78-.22-1.33-.22-.65 0-1.25.17-1.8.5-.55.33-.94.81-1.19 1.43l-2.5-1.08c.23-.59.54-1.1.95-1.51.41-.41.88-.75 1.39-1 .52-.26 1.08-.45 1.67-.56.59-.11 1.19-.17 1.8-.17.8 0 1.53.1 2.2.29.67.2 1.25.5 1.74.9s.87.92 1.14 1.54c.27.62.41 1.36.41 2.22v8.79h-3.17v-1.65zm-1.64-4.37c-.37 0-.78.02-1.23.06-.45.04-.87.13-1.26.28-.39.15-.71.37-.97.67s-.39.69-.39 1.21c0 .33.05.6.16.82.11.22.26.4.46.55.2.14.42.25.68.31.26.06.54.09.84.09.41 0 .81-.05 1.21-.16s.75-.27 1.06-.49.57-.5.76-.84c.19-.34.29-.73.29-1.19v-1.31h-1.62zM202.72 74.36c.13.33.3.61.53.86s.49.45.78.61c.29.16.61.28.96.36a4.72 4.72 0 001.86.05c.27-.05.53-.13.75-.25.23-.12.41-.28.56-.49s.22-.47.22-.79c0-.33-.08-.61-.25-.83-.17-.22-.4-.4-.68-.55-.29-.15-.62-.27-.99-.36-.37-.1-.77-.19-1.19-.27-.54-.12-1.08-.25-1.63-.4s-1.04-.36-1.48-.64-.79-.66-1.07-1.12c-.28-.47-.41-1.08-.41-1.83 0-.7.15-1.3.44-1.81s.68-.93 1.15-1.27 1.01-.59 1.61-.75c.6-.17 1.2-.25 1.81-.25.54 0 1.08.05 1.63.16.55.1 1.07.27 1.56.51.49.23.93.54 1.33.91s.71.82.92 1.35l-2.39 1.03c-.13-.3-.31-.55-.53-.76a3.09 3.09 0 00-.73-.51c-.27-.13-.55-.23-.84-.29a3.967 3.967 0 00-1.63-.01c-.25.05-.48.14-.67.26s-.35.28-.47.47c-.12.19-.18.43-.18.7 0 .31.08.56.23.76.16.2.36.36.63.49s.58.24.94.32c.36.08.74.16 1.14.24.55.11 1.11.23 1.68.38.57.14 1.09.36 1.55.64.46.28.84.67 1.14 1.15.29.48.44 1.12.44 1.9s-.15 1.46-.46 2c-.31.55-.71.99-1.22 1.33-.51.34-1.09.58-1.74.73-.65.15-1.33.23-2.04.23-.59 0-1.19-.05-1.78-.16s-1.15-.29-1.67-.54c-.52-.25-.98-.58-1.39-.99s-.71-.92-.92-1.52l2.47-1.04zM214.03 58.82h3.22v8.23c.22-.42.49-.78.81-1.09s.68-.56 1.07-.75c.39-.2.81-.34 1.26-.44.45-.1.9-.14 1.36-.14.8 0 1.51.13 2.11.4s1.11.64 1.51 1.11.7 1.03.9 1.68c.2.65.3 1.36.3 2.13v8.42h-3.24v-8.1c0-.97-.25-1.71-.73-2.22s-1.2-.77-2.14-.77c-1.04 0-1.83.29-2.38.87-.55.58-.82 1.35-.82 2.32v7.9h-3.22V58.83zM229.97 58.82h3.22v8.27c.23-.39.52-.73.86-1.04.34-.31.71-.56 1.11-.77s.83-.37 1.27-.48c.45-.11.89-.17 1.34-.17 1.02 0 1.92.19 2.68.57.77.38 1.4.89 1.92 1.53s.89 1.38 1.14 2.22c.25.84.38 1.72.38 2.64s-.13 1.84-.4 2.69c-.26.85-.65 1.6-1.16 2.24-.51.64-1.14 1.15-1.88 1.53-.75.38-1.61.56-2.58.56-.48 0-.95-.05-1.41-.14-.46-.1-.9-.25-1.31-.45-.41-.2-.79-.45-1.12-.75-.34-.3-.62-.66-.84-1.07v2.16h-3.22V58.82zm6.98 17.28c.7 0 1.29-.12 1.75-.37s.84-.58 1.11-1c.28-.42.47-.9.58-1.46.11-.55.17-1.14.17-1.76 0-.57-.07-1.12-.21-1.65a4.13 4.13 0 00-.67-1.4c-.31-.41-.7-.73-1.17-.97-.48-.24-1.05-.36-1.71-.36s-1.23.12-1.7.37-.86.58-1.16.99c-.3.41-.52.9-.66 1.44-.14.55-.21 1.12-.21 1.71 0 .63.08 1.21.23 1.76.15.54.39 1.02.71 1.41.32.4.72.71 1.21.94.49.23 1.06.34 1.73.34zM245.2 71.67c0-1.06.2-2.02.61-2.88s.95-1.61 1.64-2.22c.69-.62 1.48-1.09 2.39-1.43.91-.34 1.87-.51 2.88-.51s1.97.17 2.85.51c.88.34 1.64.82 2.29 1.43.65.62 1.16 1.35 1.53 2.21.37.86.55 1.8.55 2.83s-.19 2.01-.58 2.88c-.38.86-.91 1.6-1.58 2.21s-1.45 1.08-2.34 1.42c-.9.33-1.85.5-2.86.5s-1.98-.17-2.88-.51c-.9-.34-1.68-.81-2.35-1.43a6.683 6.683 0 01-1.58-2.19c-.39-.85-.58-1.79-.58-2.82zm7.48 4.47c.67 0 1.25-.13 1.73-.38s.88-.58 1.19-1c.31-.41.54-.89.68-1.44.15-.54.22-1.11.22-1.7 0-.62-.08-1.2-.24-1.75s-.4-1.03-.72-1.44c-.32-.41-.73-.74-1.21-.98-.49-.24-1.06-.36-1.72-.36s-1.26.13-1.74.38-.87.59-1.17 1.01c-.3.42-.52.91-.67 1.47-.14.56-.21 1.15-.21 1.77s.08 1.16.24 1.7c.16.54.4 1 .72 1.41.32.4.72.72 1.21.96.48.24 1.05.36 1.7.36zM270.01 76.72c-.51.68-1.12 1.16-1.84 1.46-.72.29-1.49.44-2.33.44-.63 0-1.22-.08-1.76-.24-.55-.16-1.03-.4-1.43-.73s-.73-.73-.96-1.23c-.23-.49-.35-1.07-.35-1.73 0-.62.1-1.16.31-1.61s.48-.84.83-1.16c.35-.32.76-.58 1.22-.78.47-.2.96-.36 1.49-.47.52-.11 1.06-.19 1.61-.23s1.09-.06 1.61-.06h1.58v-.21c0-.48-.04-.91-.11-1.3s-.2-.72-.4-.99a1.88 1.88 0 00-.8-.63c-.34-.15-.78-.22-1.33-.22-.65 0-1.25.17-1.8.5-.55.33-.94.81-1.19 1.43l-2.5-1.08c.23-.59.54-1.1.95-1.51s.88-.75 1.39-1c.52-.26 1.08-.45 1.67-.56.59-.11 1.19-.17 1.8-.17.8 0 1.53.1 2.2.29.67.2 1.25.5 1.74.9s.87.92 1.14 1.54c.27.62.41 1.36.41 2.22v8.79h-3.17v-1.65zm-1.64-4.37c-.37 0-.78.02-1.22.06-.45.04-.87.13-1.26.28-.39.15-.71.37-.97.67-.26.29-.39.69-.39 1.21 0 .33.05.6.16.82.11.22.26.4.46.55.2.14.42.25.68.31.26.06.54.09.84.09.41 0 .81-.05 1.21-.16s.75-.27 1.06-.49.57-.5.76-.84c.19-.34.29-.73.29-1.19v-1.31h-1.62zM276.57 64.91h3.22v2.52c.45-.93 1.04-1.62 1.78-2.06.73-.44 1.61-.67 2.64-.67v2.98c-.65 0-1.25.06-1.79.18s-1 .32-1.39.61a2.9 2.9 0 00-.91 1.15c-.22.48-.33 1.08-.33 1.8v6.95h-3.22V64.92zM296.39 76.1a4.5 4.5 0 01-.86 1.05c-.35.31-.73.58-1.14.79-.41.21-.85.38-1.31.5-.46.12-.91.18-1.35.18-1.03 0-1.92-.19-2.68-.56-.76-.37-1.39-.88-1.88-1.51s-.87-1.37-1.11-2.22c-.24-.85-.36-1.74-.36-2.69s.13-1.81.4-2.66c.27-.85.66-1.6 1.19-2.24.52-.64 1.17-1.16 1.93-1.54.76-.38 1.64-.58 2.63-.58.94 0 1.81.19 2.62.57.81.38 1.46.98 1.93 1.79v-8.16h3.2v19.54h-3.2V76.1zm-3.69 0c.66 0 1.23-.12 1.71-.37s.87-.58 1.17-1c.31-.42.53-.9.67-1.46.14-.55.21-1.14.21-1.76s-.07-1.18-.21-1.71c-.14-.53-.36-1-.66-1.39-.3-.4-.69-.71-1.16-.94-.47-.23-1.04-.34-1.71-.34-.7 0-1.29.13-1.77.38s-.86.59-1.16 1.02c-.3.43-.51.92-.63 1.48a7.81 7.81 0 00-.19 1.77c0 .56.07 1.1.21 1.63.14.52.36.98.67 1.38.3.4.69.72 1.16.95.47.24 1.04.36 1.69.36z"/></g><g fill="#fff"><path d="M168.78 128.88H181v2.78h-8.65v4.94h7.03v2.62h-7.03v5.28h9.08v2.78h-12.65v-18.39zM183.97 133.81h3.22v2.06c.2-.38.45-.72.75-1.02.3-.29.63-.54.99-.73s.75-.35 1.17-.45c.41-.1.84-.15 1.27-.15s.83.05 1.23.14c.4.09.77.24 1.12.43.35.2.66.45.92.75s.48.66.64 1.08c.51-.77 1.18-1.36 2.01-1.78s1.73-.62 2.69-.62c.77 0 1.44.13 2.01.4.57.27 1.04.63 1.42 1.1s.66 1.02.84 1.65.28 1.33.28 2.07v8.52h-3.2v-8.32c0-.85-.21-1.52-.63-2.02s-1.07-.75-1.93-.75c-.47 0-.88.08-1.24.23-.36.15-.66.37-.9.63-.24.27-.43.59-.55.96s-.19.78-.19 1.21v8.05h-3.22v-8.32c0-.85-.21-1.52-.64-2.02-.43-.5-1.07-.75-1.93-.75-.46 0-.87.08-1.23.23-.36.15-.66.37-.91.63-.25.27-.43.59-.56.96s-.19.78-.19 1.21v8.05h-3.22v-13.45zM207.92 133.81h3.22v2.17c.23-.39.52-.74.86-1.05.34-.31.71-.56 1.12-.77a5.66 5.66 0 012.63-.64c1.03 0 1.93.19 2.69.57.76.38 1.39.89 1.9 1.54s.88 1.39 1.13 2.22c.25.84.38 1.72.38 2.64s-.13 1.84-.39 2.69c-.26.85-.64 1.6-1.15 2.24s-1.13 1.15-1.88 1.53c-.75.38-1.61.56-2.58.56-.47 0-.94-.05-1.4-.14-.46-.1-.9-.24-1.32-.43-.41-.19-.79-.44-1.13-.73-.34-.3-.62-.65-.85-1.05v6.72h-3.22v-18.06zm6.93 11.19c.71 0 1.3-.12 1.77-.37s.84-.58 1.12-1c.28-.42.48-.9.6-1.46.12-.55.18-1.14.18-1.76 0-.57-.07-1.12-.22-1.65s-.37-.99-.68-1.4-.7-.73-1.17-.97-1.04-.36-1.7-.36-1.23.12-1.7.37-.86.58-1.16.99c-.3.41-.52.9-.66 1.45s-.21 1.13-.21 1.73.07 1.21.22 1.75.38 1 .69 1.4c.31.4.71.71 1.19.94s1.06.34 1.73.34zM224.56 128.36l3.22-1.39v20.3h-3.22v-18.9zM230.07 140.57c0-1.06.2-2.02.61-2.88s.95-1.61 1.64-2.22c.69-.62 1.48-1.09 2.39-1.43.91-.34 1.87-.51 2.88-.51s1.97.17 2.85.51c.88.34 1.64.82 2.29 1.43.65.62 1.16 1.35 1.53 2.21.37.86.55 1.8.55 2.83s-.19 2.01-.58 2.88c-.39.86-.91 1.6-1.58 2.21-.67.61-1.45 1.08-2.34 1.42-.9.33-1.85.5-2.86.5s-1.98-.17-2.88-.51c-.9-.34-1.68-.81-2.35-1.43a6.683 6.683 0 01-1.58-2.19c-.39-.85-.58-1.79-.58-2.82zm7.48 4.47c.67 0 1.25-.13 1.73-.38s.88-.58 1.19-1c.31-.41.54-.89.68-1.44.15-.54.22-1.11.22-1.7 0-.62-.08-1.2-.24-1.75s-.4-1.03-.72-1.44c-.32-.41-.73-.74-1.21-.98-.49-.24-1.06-.36-1.72-.36s-1.26.13-1.74.38-.87.59-1.17 1.01c-.3.42-.52.91-.67 1.47-.14.56-.21 1.15-.21 1.77s.08 1.16.24 1.7c.16.54.4 1 .72 1.41.32.4.72.72 1.21.96.48.24 1.05.36 1.7.36zM250.89 145.9l-5.28-12.08h3.44l3.53 8.59 3.29-8.59H259l-7.4 18.06h-3.15l2.44-5.98zM272.35 144.34c-.28.59-.63 1.1-1.06 1.5-.43.41-.91.73-1.43.98s-1.08.42-1.68.53-1.21.16-1.83.16c-1.06 0-2.02-.17-2.88-.51-.85-.34-1.58-.82-2.18-1.43s-1.06-1.35-1.38-2.22c-.32-.86-.48-1.82-.48-2.86 0-.99.16-1.91.49-2.76.33-.85.79-1.59 1.38-2.21.59-.62 1.31-1.11 2.13-1.47.83-.36 1.75-.53 2.76-.53 2.18 0 3.8.64 4.87 1.92s1.6 3.21 1.6 5.81h-9.96c0 .57.08 1.09.25 1.58.16.48.4.9.72 1.24.32.35.71.62 1.18.82.47.2 1.01.3 1.62.3.74 0 1.39-.15 1.97-.46.58-.31 1.04-.81 1.39-1.49l2.51 1.12zm-2.89-5.2c-.05-1.02-.36-1.82-.94-2.41-.57-.58-1.34-.87-2.29-.87-.5 0-.96.08-1.36.25-.4.17-.75.4-1.04.69-.29.29-.53.64-.71 1.04-.18.4-.31.83-.38 1.3h6.71zM287.28 144.34c-.28.59-.63 1.1-1.06 1.5-.43.41-.91.73-1.43.98s-1.08.42-1.68.53-1.21.16-1.83.16c-1.06 0-2.02-.17-2.88-.51-.85-.34-1.58-.82-2.18-1.43s-1.06-1.35-1.38-2.22c-.32-.86-.48-1.82-.48-2.86 0-.99.16-1.91.49-2.76.33-.85.79-1.59 1.38-2.21.59-.62 1.31-1.11 2.13-1.47.83-.36 1.75-.53 2.76-.53 2.18 0 3.8.64 4.87 1.92s1.6 3.21 1.6 5.81h-9.96c0 .57.08 1.09.25 1.58.16.48.4.9.72 1.24.32.35.71.62 1.18.82.47.2 1.01.3 1.62.3.74 0 1.39-.15 1.97-.46.58-.31 1.04-.81 1.39-1.49l2.51 1.12zm-2.89-5.2c-.05-1.02-.36-1.82-.94-2.41-.57-.58-1.34-.87-2.29-.87-.5 0-.96.08-1.36.25-.4.17-.75.4-1.04.69-.29.29-.53.64-.71 1.04-.18.4-.31.83-.38 1.3h6.71zM291.66 143.26c.12.33.3.61.53.86.23.25.49.45.78.61s.61.28.96.36a4.72 4.72 0 001.86.05c.27-.05.53-.13.75-.25.23-.12.41-.28.56-.49.15-.21.22-.47.22-.79 0-.33-.08-.61-.25-.83-.17-.22-.4-.4-.68-.55-.29-.15-.62-.27-.99-.36-.37-.1-.77-.19-1.19-.27-.54-.12-1.08-.25-1.63-.4s-1.04-.36-1.48-.64c-.44-.28-.79-.66-1.07-1.12-.28-.47-.41-1.08-.41-1.83 0-.7.15-1.3.44-1.81s.68-.93 1.15-1.27c.47-.33 1.01-.59 1.61-.75.6-.17 1.2-.25 1.82-.25.54 0 1.08.05 1.63.16.55.1 1.07.27 1.56.51.49.23.93.54 1.33.91s.71.82.92 1.35l-2.39 1.03c-.13-.3-.31-.55-.53-.76s-.46-.37-.73-.51-.55-.23-.84-.29a3.967 3.967 0 00-1.63-.01c-.25.05-.47.14-.67.26-.2.12-.35.28-.47.47-.12.19-.18.43-.18.7 0 .31.08.56.23.76.15.2.36.36.63.49s.58.24.94.32c.36.08.74.16 1.14.24.55.11 1.11.23 1.68.38.57.14 1.09.36 1.55.64s.84.67 1.14 1.15c.29.48.44 1.12.44 1.9s-.15 1.46-.46 2c-.31.55-.71.99-1.22 1.33-.51.34-1.09.58-1.74.73-.65.15-1.33.23-2.03.23-.59 0-1.19-.05-1.78-.16s-1.15-.29-1.67-.54c-.52-.25-.98-.58-1.39-.99s-.71-.92-.92-1.52l2.47-1.04z"/></g><g fill="#fff" data-name="Pay Runs"><path d="M168.49 197.81h6.39c.97 0 1.88.1 2.71.31s1.57.54 2.19 1 1.11 1.06 1.46 1.8.53 1.63.53 2.69c0 1.16-.21 2.11-.63 2.85-.42.74-.99 1.31-1.7 1.73-.71.41-1.52.7-2.44.85s-1.87.23-2.85.23h-2.11v6.93h-3.57v-18.39zm6.37 8.89c1.1 0 1.94-.24 2.54-.73s.9-1.29.9-2.4c0-.58-.08-1.06-.25-1.46-.16-.39-.4-.71-.7-.95-.3-.24-.66-.41-1.09-.51s-.89-.15-1.41-.15h-2.8v6.19h2.8zM191.2 214.55c-.51.68-1.12 1.16-1.84 1.46-.72.29-1.49.44-2.33.44-.63 0-1.22-.08-1.77-.24-.55-.16-1.03-.4-1.43-.73-.41-.33-.73-.73-.96-1.23-.23-.49-.35-1.07-.35-1.73 0-.62.1-1.16.31-1.61.21-.46.48-.84.83-1.16.35-.32.76-.58 1.22-.78.47-.2.96-.36 1.49-.47.52-.11 1.06-.19 1.61-.23s1.09-.06 1.61-.06h1.58V208c0-.48-.04-.91-.11-1.3s-.2-.72-.4-.99a1.88 1.88 0 00-.8-.63c-.34-.15-.78-.22-1.33-.22-.65 0-1.25.17-1.8.5-.55.33-.94.81-1.19 1.43l-2.5-1.08c.23-.59.54-1.1.95-1.51.41-.41.88-.75 1.39-1 .52-.26 1.08-.45 1.67-.56.59-.11 1.19-.17 1.8-.17.8 0 1.53.1 2.2.29.67.2 1.25.5 1.74.9s.87.92 1.14 1.54c.27.62.41 1.36.41 2.22v8.79h-3.17v-1.65zm-1.64-4.37c-.37 0-.78.02-1.23.06-.45.04-.87.13-1.26.28-.39.15-.71.37-.97.67s-.39.69-.39 1.21c0 .33.05.6.16.82.11.22.26.4.46.55.2.14.42.25.68.31.26.06.54.09.84.09.41 0 .81-.05 1.21-.16s.75-.27 1.06-.49.57-.5.76-.84c.19-.34.29-.73.29-1.19v-1.31h-1.62zM201.48 214.83l-5.28-12.08h3.44l3.53 8.59 3.29-8.59h3.13l-7.4 18.06h-3.15l2.44-5.98zM217.52 197.81h6.66c.92 0 1.8.09 2.64.28s1.57.49 2.2.92c.63.43 1.14 1 1.51 1.7.38.7.56 1.58.56 2.63 0 .65-.09 1.25-.28 1.79-.19.54-.46 1.02-.81 1.43-.35.41-.78.77-1.28 1.06s-1.07.51-1.7.66l5.18 7.93h-3.84l-4.79-7.41h-2.49v7.41h-3.57v-18.39zm6.55 8.51c.51 0 .98-.05 1.42-.16.44-.1.81-.27 1.12-.51s.56-.54.74-.92.27-.84.27-1.39-.09-1.04-.28-1.4c-.19-.36-.44-.65-.77-.86s-.7-.35-1.13-.43c-.43-.08-.89-.12-1.38-.12h-2.99v5.79h2.99zM243.31 214.08c-.21.41-.47.76-.79 1.06s-.66.54-1.05.73c-.39.19-.8.33-1.24.43-.44.09-.89.14-1.36.14-.77 0-1.45-.12-2.04-.36-.59-.24-1.08-.59-1.48-1.04-.4-.45-.7-.98-.9-1.61-.2-.62-.3-1.32-.3-2.08v-8.62h3.22v8.23c0 .92.22 1.65.65 2.17.44.53 1.12.79 2.06.79.5 0 .95-.08 1.35-.23.4-.16.74-.37 1.02-.65s.49-.62.64-1.02c.15-.4.22-.84.22-1.31v-7.98h3.2v13.45h-3.2v-2.11zM250.04 202.74h3.22v2.14c.22-.42.49-.78.82-1.08.33-.3.69-.55 1.08-.75s.82-.35 1.27-.45.91-.14 1.38-.14c.8 0 1.5.13 2.09.4s1.08.64 1.46 1.12c.39.48.67 1.04.86 1.69.18.65.28 1.35.28 2.12v8.42h-3.27v-8.1c0-.95-.22-1.68-.65-2.2s-1.13-.79-2.1-.79c-1.01 0-1.8.29-2.37.87-.56.58-.85 1.35-.85 2.32v7.9h-3.22v-13.45zM267.29 212.19c.12.33.3.61.53.86.23.25.49.45.78.61s.61.28.96.36a4.72 4.72 0 001.86.05c.27-.05.53-.13.75-.25.23-.12.41-.28.56-.49.15-.21.22-.47.22-.79 0-.33-.08-.61-.25-.83-.17-.22-.4-.4-.68-.55-.29-.15-.62-.27-.99-.36-.37-.1-.77-.19-1.19-.27-.54-.12-1.08-.25-1.63-.4s-1.04-.36-1.48-.64c-.44-.28-.79-.66-1.07-1.12-.28-.47-.41-1.08-.41-1.83 0-.7.15-1.3.44-1.81s.68-.93 1.15-1.27c.47-.33 1.01-.59 1.61-.75.6-.17 1.2-.25 1.82-.25.54 0 1.08.05 1.63.16.55.1 1.07.27 1.56.51.49.23.93.54 1.33.91s.71.82.92 1.35l-2.39 1.03c-.13-.3-.31-.55-.53-.76s-.46-.37-.73-.51-.55-.23-.84-.29a3.967 3.967 0 00-1.63-.01c-.25.05-.47.14-.67.26-.2.12-.35.28-.47.47-.12.19-.18.43-.18.7 0 .31.08.56.23.76.15.2.36.36.63.49s.58.24.94.32c.36.08.74.16 1.14.24.55.11 1.11.23 1.68.38.57.14 1.09.36 1.55.64s.84.67 1.14 1.15c.29.48.44 1.12.44 1.9s-.15 1.46-.46 2c-.31.55-.71.99-1.22 1.33-.51.34-1.09.58-1.74.73-.65.15-1.33.23-2.03.23-.59 0-1.19-.05-1.78-.16s-1.15-.29-1.67-.54c-.52-.25-.98-.58-1.39-.99s-.71-.92-.92-1.52l2.47-1.04z"/></g><g fill="#fff" data-name="Taxes &amp;amp; Forms"><path d="M172.2 269.53h-5.15v-2.78h13.85v2.78h-5.14v15.61h-3.57v-15.61zM187.53 283.49c-.51.68-1.12 1.16-1.84 1.46-.72.29-1.49.44-2.33.44-.63 0-1.22-.08-1.77-.24-.55-.16-1.03-.4-1.43-.73-.41-.33-.73-.74-.96-1.22-.23-.49-.35-1.07-.35-1.73 0-.62.1-1.16.31-1.61.21-.46.48-.84.83-1.16.35-.32.76-.58 1.22-.78.47-.2.96-.36 1.49-.47s1.06-.19 1.61-.23 1.09-.06 1.61-.06h1.58v-.21c0-.48-.04-.91-.11-1.3s-.2-.72-.4-.99a1.88 1.88 0 00-.8-.63c-.34-.15-.78-.22-1.33-.22-.65 0-1.25.17-1.8.5-.55.33-.94.81-1.19 1.43l-2.5-1.08c.23-.59.54-1.1.95-1.51.41-.41.88-.75 1.39-1 .52-.26 1.08-.45 1.67-.56.59-.11 1.19-.17 1.8-.17.8 0 1.53.1 2.2.3.67.2 1.25.5 1.74.9s.87.92 1.14 1.54.41 1.36.41 2.22v8.79h-3.17v-1.65zm-1.64-4.37c-.37 0-.78.02-1.23.06-.45.04-.87.13-1.26.28-.39.15-.71.37-.97.67s-.39.7-.39 1.21c0 .33.05.6.16.82s.26.4.46.55.42.25.68.31c.26.06.54.09.84.09.41 0 .81-.05 1.21-.16.39-.11.75-.27 1.06-.49.31-.22.57-.5.76-.83.19-.34.29-.73.29-1.19v-1.31h-1.62zM197.48 278.24l-4.38-6.56h3.72l2.8 4.32 2.76-4.32h3.35l-4.36 6.33 4.82 7.12h-3.74l-3.12-4.84-3.22 4.84h-3.35l4.71-6.9zM220.16 282.21c-.28.59-.63 1.09-1.06 1.5s-.91.73-1.43.98c-.52.25-1.08.43-1.68.53-.6.11-1.21.16-1.83.16-1.06 0-2.02-.17-2.88-.51-.85-.34-1.58-.82-2.18-1.43s-1.06-1.35-1.38-2.22c-.32-.86-.48-1.82-.48-2.86 0-.99.16-1.91.49-2.76.33-.85.79-1.59 1.38-2.21s1.31-1.11 2.14-1.47c.83-.36 1.75-.53 2.76-.53 2.18 0 3.8.64 4.87 1.92 1.07 1.28 1.6 3.21 1.6 5.81h-9.96c0 .57.08 1.09.25 1.58s.4.9.72 1.24c.32.35.71.62 1.18.82.47.2 1.01.29 1.62.29.74 0 1.39-.16 1.97-.46.58-.31 1.04-.81 1.39-1.5l2.51 1.12zm-2.89-5.2c-.05-1.02-.36-1.82-.94-2.41-.57-.58-1.34-.87-2.29-.87-.5 0-.95.08-1.36.25-.4.17-.75.4-1.04.69-.29.29-.53.64-.71 1.04s-.31.83-.38 1.3h6.71zM224.54 281.13c.13.33.3.61.53.86s.49.45.78.61c.29.16.61.28.96.36a4.72 4.72 0 001.86.05c.27-.05.53-.13.75-.25.23-.12.41-.29.56-.49s.22-.47.22-.79c0-.33-.08-.61-.25-.83-.17-.22-.4-.4-.68-.55-.29-.15-.62-.27-.99-.36-.37-.1-.77-.19-1.19-.27-.54-.12-1.08-.25-1.63-.4s-1.04-.36-1.48-.64-.79-.66-1.07-1.12-.41-1.08-.41-1.83c0-.7.15-1.3.44-1.81s.68-.93 1.15-1.27c.47-.33 1.01-.59 1.61-.75.6-.17 1.2-.25 1.81-.25.54 0 1.08.05 1.63.16.55.11 1.07.27 1.56.51s.93.54 1.33.91.71.82.92 1.35l-2.39 1.03c-.13-.3-.31-.55-.53-.76-.22-.21-.46-.38-.73-.51-.27-.13-.55-.23-.84-.29a3.967 3.967 0 00-1.63-.01c-.25.05-.48.14-.67.26s-.35.28-.47.47c-.12.19-.18.43-.18.7 0 .31.08.56.23.76.16.2.36.36.63.49s.58.24.94.32c.36.08.74.16 1.14.24.55.11 1.11.23 1.68.38.57.14 1.09.36 1.55.64.46.28.84.67 1.14 1.15.29.48.44 1.12.44 1.9s-.15 1.46-.46 2c-.31.55-.71.99-1.22 1.33-.51.33-1.09.58-1.74.73-.65.15-1.33.23-2.04.23-.59 0-1.19-.05-1.78-.16s-1.15-.29-1.67-.54c-.52-.25-.98-.58-1.39-.99s-.71-.92-.92-1.52l2.47-1.04zM251.61 283.32c-.74.7-1.52 1.21-2.35 1.54-.83.33-1.75.5-2.76.5-.81 0-1.59-.11-2.33-.33s-1.4-.54-1.97-.98-1.02-.98-1.36-1.63c-.34-.65-.51-1.4-.51-2.27 0-.7.11-1.33.33-1.89.22-.56.52-1.06.9-1.5.38-.44.83-.84 1.34-1.18.51-.34 1.05-.65 1.62-.93-.39-.53-.73-1.1-1-1.71s-.41-1.28-.41-2 .14-1.32.43-1.86.66-1 1.13-1.37c.47-.37 1.01-.65 1.63-.84.62-.19 1.25-.28 1.9-.28.62 0 1.22.09 1.8.26.58.17 1.09.43 1.53.77.44.34.8.76 1.06 1.26s.4 1.08.4 1.73c0 .59-.11 1.13-.32 1.61-.21.48-.5.91-.85 1.29-.36.38-.77.72-1.23 1-.46.29-.95.54-1.45.76l2.98 3.54 1.98-3.54 2.4 1.02-2.65 4.74 3.35 4.12h-4.08l-1.49-1.82zm-5.6-6.75c-.33.18-.64.37-.92.57-.28.21-.52.44-.73.69-.21.26-.37.55-.48.87-.12.33-.18.7-.18 1.11 0 .48.08.9.24 1.26s.38.67.66.92.62.44 1.01.57.82.19 1.29.19c.59 0 1.14-.14 1.66-.41a4.3 4.3 0 001.35-1.09l-3.91-4.68zm1.6-2.8c.34-.16.66-.33.96-.51.3-.18.56-.4.78-.64.22-.24.4-.52.53-.83.13-.31.19-.67.19-1.08 0-.53-.17-.95-.52-1.28-.35-.33-.81-.49-1.39-.49-.62 0-1.09.2-1.43.6-.33.4-.5.92-.5 1.56 0 .26.04.51.13.75.08.24.19.47.33.69.13.22.28.43.44.64.16.21.32.4.48.6zM265.89 266.75H278v2.78h-8.54v5.43h6.81v2.7h-6.81v7.49h-3.57v-18.39zM278.34 278.44c0-1.05.2-2.02.61-2.88.41-.87.95-1.61 1.64-2.22.69-.62 1.48-1.09 2.39-1.43.91-.34 1.87-.51 2.88-.51s1.97.17 2.85.51c.88.34 1.64.82 2.29 1.43.65.62 1.16 1.35 1.53 2.21s.55 1.8.55 2.83-.19 2.01-.58 2.88c-.38.86-.91 1.6-1.58 2.21-.67.61-1.45 1.08-2.34 1.42-.9.33-1.85.5-2.86.5s-1.98-.17-2.88-.51c-.9-.34-1.68-.81-2.35-1.43a6.683 6.683 0 01-1.58-2.19c-.38-.85-.58-1.79-.58-2.82zm7.47 4.48c.67 0 1.25-.12 1.73-.38.48-.25.88-.58 1.19-1 .31-.42.54-.89.68-1.44.15-.54.22-1.11.22-1.7 0-.62-.08-1.2-.24-1.75-.16-.55-.4-1.03-.72-1.44-.32-.41-.73-.74-1.21-.98-.49-.24-1.06-.36-1.72-.36s-1.26.13-1.74.38-.87.59-1.17 1.01c-.3.42-.52.91-.67 1.47-.14.56-.21 1.14-.21 1.76s.08 1.16.24 1.7c.16.54.4 1 .72 1.41.32.4.72.72 1.21.96.48.24 1.05.36 1.7.36zM295.43 271.69h3.22v2.53c.45-.93 1.04-1.62 1.78-2.06.73-.44 1.61-.67 2.64-.67v2.98c-.65 0-1.25.06-1.79.18s-1 .32-1.39.61-.69.67-.91 1.15c-.22.48-.33 1.08-.33 1.8v6.95h-3.22v-13.45zM305.62 271.69h3.22v2.06c.2-.39.45-.72.75-1.02.3-.29.63-.54.99-.74.36-.2.75-.34 1.17-.45a5.381 5.381 0 012.49-.01c.39.09.77.24 1.12.43.35.2.66.45.92.75.27.3.48.66.64 1.08.51-.77 1.18-1.36 2.01-1.78.83-.41 1.73-.62 2.69-.62.77 0 1.44.13 2.01.4.57.27 1.04.63 1.42 1.1.38.46.66 1.01.84 1.65s.28 1.33.28 2.07v8.52h-3.2v-8.32c0-.85-.21-1.52-.63-2.02-.42-.5-1.07-.75-1.93-.75-.47 0-.88.08-1.24.23-.36.16-.66.37-.9.63-.24.27-.43.59-.55.96s-.19.78-.19 1.21v8.05h-3.22v-8.32c0-.85-.21-1.52-.64-2.02-.43-.5-1.07-.75-1.93-.75-.46 0-.87.08-1.23.23-.36.16-.66.37-.91.63s-.43.59-.56.96-.19.78-.19 1.21v8.05h-3.22v-13.45zM330.98 281.13c.12.33.3.61.53.86.23.25.49.45.78.61s.61.28.96.36a4.72 4.72 0 001.86.05c.27-.05.53-.13.75-.25.23-.12.41-.29.56-.49.15-.21.22-.47.22-.79 0-.33-.08-.61-.25-.83-.17-.22-.4-.4-.68-.55-.29-.15-.62-.27-.99-.36-.37-.1-.77-.19-1.19-.27-.54-.12-1.08-.25-1.63-.4s-1.04-.36-1.48-.64c-.44-.28-.79-.66-1.07-1.12s-.41-1.08-.41-1.83c0-.7.15-1.3.44-1.81s.68-.93 1.15-1.27c.47-.33 1.01-.59 1.61-.75.6-.17 1.2-.25 1.82-.25.54 0 1.08.05 1.63.16.55.11 1.07.27 1.56.51.49.23.93.54 1.33.91s.71.82.92 1.35l-2.39 1.03c-.13-.3-.31-.55-.53-.76s-.46-.38-.73-.51c-.27-.13-.55-.23-.84-.29a3.967 3.967 0 00-1.63-.01c-.25.05-.47.14-.67.26-.2.12-.35.28-.47.47-.12.19-.18.43-.18.7 0 .31.08.56.23.76.15.2.36.36.63.49s.58.24.94.32c.36.08.74.16 1.14.24.55.11 1.11.23 1.68.38.57.14 1.09.36 1.55.64.46.28.84.67 1.14 1.15.29.48.44 1.12.44 1.9s-.15 1.46-.46 2c-.31.55-.71.99-1.22 1.33s-1.09.58-1.74.73c-.65.15-1.33.23-2.03.23-.59 0-1.19-.05-1.78-.16s-1.15-.29-1.67-.54c-.52-.25-.98-.58-1.39-.99s-.71-.92-.92-1.52l2.47-1.04z"/></g><g fill="#fff"><path data-name="Vector 2" d="M133.01 62.82c-2.42-2.42-5.65-3.76-9.07-3.76s-6.66 1.33-9.07 3.76c-2.42 2.42-3.76 5.65-3.76 9.07s1.33 6.66 3.76 9.07c2.42 2.42 5.65 3.76 9.07 3.76s6.66-1.33 9.07-3.76c2.42-2.42 3.76-5.65 3.76-9.07s-1.33-6.66-3.76-9.07zm-9.07 19.11c-5.53 0-10.02-4.5-10.02-10.02s4.5-10.02 10.02-10.02 10.02 4.5 10.02 10.02-4.5 10.02-10.02 10.02z"/><path data-name="Vector 3" d="M128.25 66.19l-5.82 5.82 1.99 1.99 5.82-5.82-1.99-1.99z"/></g><g data-name="Group 2" fill="#fff"><path data-name="Vector 4" d="M124.01 136.16c3.08 0 5.6-2.51 5.6-5.6s-2.51-5.6-5.6-5.6-5.6 2.51-5.6 5.6 2.51 5.6 5.6 5.6zm0-8.39c1.53 0 2.8 1.25 2.8 2.8s-1.25 2.8-2.8 2.8-2.8-1.25-2.8-2.8 1.25-2.8 2.8-2.8z"/><path data-name="Vector 5" d="M132.17 139.82c-1.87-1.89-4.66-2.85-8.26-2.85s-6.27.95-8.15 2.84c-3.02 3.03-2.99 7.58-2.97 10.3v.5h2.81v-.52c0-2.43-.03-6.1 2.16-8.3 1.1-1.1 2.69-1.75 4.77-1.96v5.47h2.81v-5.47c2.13.19 3.75.86 4.85 1.96 2.12 2.15 2.09 5.75 2.06 8.12v.69h2.81v-.67c.03-2.68.07-7.14-2.88-10.12h-.01z"/></g><g data-name="Group 3" fill="#fff"><path data-name="Vector 6" d="M132.13 196.51v-2.54h-2.81v2.54h-7.38v-2.54h-2.81v2.54h-5.95v23.17h24.88v-23.17h-5.94zm3.13 20.37H116v-17.56h3.14v2.55h2.81v-2.55h7.38v2.55h2.81v-2.55h3.14v17.56h-.01z"/><path data-name="Vector 7" d="M124.65 205.28l1.83 1.85h-7.2v2.8h7.19l-1.83 1.83 1.98 2 5.23-5.23-5.22-5.23-1.98 1.98z"/></g><g data-name="Group 4" fill="#fff"><path data-name="Vector 8" d="M129.56 271.6l-9.24 9.24 1.99 1.99 9.24-9.24-1.99-1.99z"/><path data-name="Vector 9" d="M123.82 272.37h-2.81v2.68h2.81v-2.68z"/><path data-name="Vector 10" d="M130.83 280h-2.81v2.68h2.81V280z"/><path data-name="Vector 11" d="M130.39 264.38h-15.52v25.67h22.08v-19.1l-6.57-6.57h.01zm3.77 22.86h-16.48v-20.05h11.54l4.92 4.92v15.13h.01z"/></g><g fill="#fff"><path d="M168.49 335.33h7.25c.84 0 1.63.08 2.37.23s1.39.41 1.95.79c.56.37 1 .87 1.32 1.5.32.63.48 1.42.48 2.37 0 1-.25 1.84-.75 2.5-.5.66-1.24 1.13-2.21 1.41 1.26.25 2.19.73 2.81 1.44.62.71.92 1.71.92 2.99 0 .98-.17 1.8-.52 2.46-.34.66-.81 1.19-1.39 1.59-.58.4-1.26.68-2.04.85-.77.17-1.59.26-2.46.26h-7.74v-18.39zm6.81 7.71c.5 0 .95-.04 1.33-.13.39-.08.71-.23.98-.44s.47-.49.61-.85.21-.8.21-1.34c0-.5-.08-.91-.25-1.23-.17-.32-.4-.57-.68-.75-.29-.18-.63-.31-1.01-.38-.39-.07-.8-.1-1.23-.1h-3.28v5.21h3.33zm.49 8.17c.51 0 .97-.05 1.38-.16.41-.11.76-.27 1.05-.5.29-.23.51-.53.67-.9.15-.37.23-.82.23-1.34 0-.59-.09-1.07-.28-1.44s-.44-.67-.77-.89c-.32-.22-.7-.37-1.13-.45-.43-.08-.89-.13-1.39-.13h-3.58v5.82h3.82zM197.29 350.79c-.28.59-.63 1.09-1.06 1.5s-.91.73-1.43.98c-.52.25-1.08.43-1.68.53-.6.11-1.21.16-1.83.16-1.06 0-2.02-.17-2.88-.51-.85-.34-1.58-.82-2.18-1.43s-1.06-1.35-1.38-2.22c-.32-.86-.48-1.82-.48-2.86 0-.99.16-1.91.49-2.76.33-.85.79-1.59 1.38-2.21s1.31-1.11 2.14-1.47c.83-.36 1.75-.53 2.76-.53 2.18 0 3.8.64 4.87 1.92 1.07 1.28 1.6 3.21 1.6 5.81h-9.96c0 .57.08 1.09.25 1.58s.4.9.72 1.24c.32.35.71.62 1.18.82.47.2 1.01.29 1.62.29.74 0 1.39-.16 1.97-.46.58-.31 1.04-.81 1.39-1.5l2.51 1.12zm-2.88-5.2c-.05-1.02-.36-1.82-.94-2.41-.57-.58-1.34-.87-2.29-.87-.5 0-.95.08-1.36.25-.4.17-.75.4-1.04.69-.29.29-.53.64-.71 1.04s-.31.83-.38 1.3h6.71zM200.2 340.26h3.22v2.14c.22-.42.49-.78.82-1.08.33-.3.69-.55 1.08-.75s.82-.35 1.27-.45c.45-.1.91-.14 1.38-.14.8 0 1.5.13 2.09.4.59.27 1.08.64 1.46 1.12.38.48.67 1.04.85 1.69.18.65.28 1.35.28 2.12v8.42h-3.27v-8.1c0-.95-.22-1.68-.65-2.21-.44-.52-1.13-.79-2.1-.79-1.01 0-1.8.29-2.37.87-.56.58-.85 1.35-.85 2.32v7.9h-3.22v-13.45zM228.04 350.79c-.28.59-.63 1.09-1.06 1.5s-.91.73-1.43.98c-.52.25-1.08.43-1.68.53-.6.11-1.21.16-1.83.16-1.06 0-2.02-.17-2.88-.51-.85-.34-1.58-.82-2.18-1.43s-1.06-1.35-1.38-2.22c-.32-.86-.48-1.82-.48-2.86 0-.99.16-1.91.49-2.76.33-.85.79-1.59 1.38-2.21s1.31-1.11 2.14-1.47c.83-.36 1.75-.53 2.76-.53 2.18 0 3.8.64 4.87 1.92 1.07 1.28 1.6 3.21 1.6 5.81h-9.96c0 .57.08 1.09.25 1.58s.4.9.72 1.24c.32.35.71.62 1.18.82.47.2 1.01.29 1.62.29.74 0 1.39-.16 1.97-.46.58-.31 1.04-.81 1.39-1.5l2.51 1.12zm-2.89-5.2c-.05-1.02-.36-1.82-.94-2.41-.57-.58-1.34-.87-2.29-.87-.5 0-.95.08-1.36.25-.4.17-.75.4-1.04.69-.29.29-.53.64-.71 1.04s-.31.83-.38 1.3h6.71zM231.51 342.62h-1.86v-2.36h1.86v-1.49c0-1.52.36-2.71 1.08-3.56.72-.85 1.85-1.27 3.39-1.27.4 0 .78.03 1.14.1.36.07.71.17 1.04.31l-.94 2.16c-.12-.04-.23-.07-.35-.08-.12-.01-.23-.02-.35-.02-.4 0-.72.07-.97.22-.24.15-.43.34-.56.58-.13.24-.21.52-.25.82s-.06.62-.06.95v1.28h3.12v2.36h-3.1v11.09h-3.19v-11.09zM240.28 336.39c0-.27.05-.51.15-.74.1-.22.24-.41.41-.58.18-.16.38-.29.61-.38s.48-.13.73-.13.5.05.73.14c.23.09.42.22.6.38.17.16.31.36.4.58s.14.47.14.74-.05.5-.14.73c-.1.23-.23.42-.39.58-.16.16-.36.29-.58.38-.23.09-.47.14-.74.14s-.51-.05-.74-.14a2.07 2.07 0 01-.62-.38c-.18-.16-.31-.36-.41-.58a1.8 1.8 0 01-.15-.73zm.29 3.9h3.22v13.43h-3.22v-13.43zM254.23 353.61c-.35.1-.71.18-1.07.24-.36.06-.74.09-1.14.09-1.28 0-2.28-.33-3-1s-1.08-1.67-1.08-3.01v-7.31h-1.81v-2.36h1.81v-2.78l3.22-1.39v4.17h2.96v2.36h-2.96v7.02c0 .53.12.94.37 1.25.25.31.67.46 1.26.46.23 0 .46-.02.71-.07s.49-.11.73-.19v2.52zM258.33 349.71c.12.33.3.61.53.86.23.25.49.45.78.61s.61.28.96.36a4.72 4.72 0 001.86.05c.27-.05.53-.13.75-.25.23-.12.41-.29.56-.49.15-.21.22-.47.22-.79 0-.33-.08-.61-.25-.83-.17-.22-.4-.4-.68-.55-.29-.15-.62-.27-.99-.36-.37-.1-.77-.19-1.19-.27-.54-.12-1.08-.25-1.63-.4s-1.04-.36-1.48-.64c-.44-.28-.79-.66-1.07-1.12s-.41-1.08-.41-1.83c0-.7.15-1.3.44-1.81s.68-.93 1.15-1.27c.47-.33 1.01-.59 1.61-.75.6-.17 1.2-.25 1.82-.25.54 0 1.08.05 1.63.16.55.11 1.07.27 1.56.51.49.23.93.54 1.33.91s.71.82.92 1.35l-2.39 1.03c-.13-.3-.31-.55-.53-.76s-.46-.38-.73-.51c-.27-.13-.55-.23-.84-.29a3.967 3.967 0 00-1.63-.01c-.25.05-.47.14-.67.26-.2.12-.35.28-.47.47-.12.19-.18.43-.18.7 0 .31.08.56.23.76.15.2.36.36.63.49s.58.24.94.32c.36.08.74.16 1.14.24.55.11 1.11.23 1.68.38.57.14 1.09.36 1.55.64.46.28.84.67 1.14 1.15.29.48.44 1.12.44 1.9s-.15 1.46-.46 2c-.31.55-.71.99-1.22 1.33s-1.09.58-1.74.73c-.65.15-1.33.23-2.03.23-.59 0-1.19-.05-1.78-.16s-1.15-.29-1.67-.54c-.52-.25-.98-.58-1.39-.99s-.71-.92-.92-1.52l2.48-1.04z"/></g><path data-name="Vector 12" d="M137.83 341.73c-.68-2.53-2.15-4.7-4.21-6.23l.77-1.48-2.55-1.34-.73 1.4c-2.34-.98-4.92-1.15-7.4-.49-2.97.8-5.46 2.7-7.01 5.38l-.72 1.25 8.68 5.01-5.69 9.85-1.53-.84 1.44-2.5-2.5-1.44-2.92 5.07 6.61 3.63 7.1-12.31 4.09 2.36 4.71 2.72.72-1.25c1.53-2.68 1.96-5.77 1.15-8.76h-.01zm-6.17-1.68c-.14 1.49-.68 3.26-1.52 5l-1.77-1.02-3.71-2.14c1.09-1.6 2.34-2.95 3.56-3.82 1.17-.83 2.24-1.15 2.77-.84.53.31.79 1.39.65 2.83h.01zm-5.61-3.96c-1.39 1.09-2.73 2.6-3.88 4.35l-2.15-1.24c1.53-1.85 3.74-2.93 6.03-3.11zm8.73 11.63l-2.15-1.24c.94-1.89 1.56-3.8 1.82-5.54a8.706 8.706 0 01.33 6.78z" fill="#fff"/></g><g mask="url(#experience-ui-a)" data-name="Vector 13"><path d="M434.35 249.11l-20.6 2.66c-.92.12-1.76.55-2.39 1.23l-14.06 15.22c-2.42 2.63-6.83.91-6.82-2.65l.06-47.9c0-3.16 3.59-5.01 6.19-3.19l39.37 27.55c2.93 2.05 1.8 6.62-1.75 7.08z" fill="#a61420"/><path d="M394.43 271.3c-.71 0-1.42-.13-2.12-.4a5.7 5.7 0 01-3.64-5.33l.06-47.9a5.68 5.68 0 013.09-5.06c1.91-.99 4.19-.84 5.95.4l39.37 27.55a5.686 5.686 0 012.28 6.04c-.57 2.31-2.47 4-4.83 4.31l-20.6 2.66c-.5.06-.96.3-1.29.66l-14.06 15.22a5.689 5.689 0 01-4.2 1.85zm.05-55.73c-.33 0-.67.08-.99.25-.71.37-1.13 1.06-1.14 1.86l-.06 47.9c0 1.33 1.03 1.83 1.34 1.95.32.13 1.43.46 2.34-.53l14.06-15.22c.91-.98 2.14-1.62 3.48-1.8l20.6-2.66c1.34-.17 1.7-1.26 1.78-1.58.08-.33.26-1.45-.84-2.21l-39.37-27.55c-.37-.26-.79-.39-1.22-.39z" fill="#fff"/></g></g></svg>