<svg xmlns="http://www.w3.org/2000/svg" viewBox="0 0 193 225"><rect x="1" y=".9" width="191" height="223.3" rx="14.5" ry="14.5" fill="#fff" fill-opacity=".2" stroke="#fff"/><path d="M70.8 45.8c-.1.4-.3.7-.6 1-.2.3-.5.6-.8.8-.3.2-.6.4-1 .5-.4.1-.7.2-1.1.2-.7 0-1.3-.1-1.8-.3-.5-.2-.9-.5-1.3-.9-.3-.4-.6-.9-.8-1.4-.2-.5-.3-1.1-.3-1.8s0-1.1.3-1.7c.2-.5.5-1 .8-1.4.4-.4.8-.7 1.3-1 .5-.2 1.1-.4 1.7-.4s.8 0 1.1.2c.4.1.7.3 1 .5.3.2.6.5.8.8.2.3.4.6.6 1l-.8.4c-.1-.3-.3-.5-.4-.8l-.6-.6c-.2-.2-.5-.3-.8-.4-.3 0-.6-.1-.9-.1-.5 0-1 .1-1.3.3-.4.2-.7.5-.9.8-.2.3-.4.7-.5 1.1-.1.4-.2.9-.2 1.3s0 .9.2 1.4c.1.4.3.8.6 1.1.3.3.6.6.9.8.4.2.8.3 1.3.3s.6 0 .9-.2c.3-.1.5-.3.8-.4.2-.2.4-.4.6-.7.2-.2.3-.5.4-.8l.8.3zM72 42h1v1.1c.2-.4.5-.7.8-.9.3-.2.7-.3 1.2-.3v.9c-.3 0-.6 0-.9.1-.3 0-.5.2-.6.4-.2.2-.3.4-.4.6 0 .2-.1.5-.1.9v3.4h-1v-6.3zm9.1 4.8c-.3.5-.6.9-1.1 1.2-.4.3-1 .4-1.5.4s-.9 0-1.3-.3c-.4-.2-.7-.4-1-.7-.3-.3-.5-.6-.6-1-.1-.4-.2-.8-.2-1.3s0-.9.2-1.3c.1-.4.3-.7.6-1 .3-.3.6-.5.9-.7.4-.2.8-.3 1.2-.3s1 0 1.3.3c.4.2.7.4.9.7.2.3.4.7.5 1.1 0 .4.1.9.1 1.3h-4.7c0 .3 0 .6.1.9 0 .3.2.5.4.7.2.2.4.4.6.5.3.1.5.2.9.2h.5c.2 0 .3-.1.5-.2.1-.1.3-.2.4-.4.1-.1.2-.3.3-.4l.9.4zm-1-2.3c0-.6-.2-1-.5-1.3-.3-.3-.7-.5-1.3-.5s-.5 0-.7.1c-.2 0-.4.2-.6.4-.2.2-.3.4-.4.6 0 .2-.2.5-.2.7h3.7zm5.9 2.9c-.2.3-.5.5-.9.7-.4.1-.7.2-1.1.2s-.5 0-.8-.1c-.2 0-.5-.2-.7-.3-.2-.2-.3-.3-.5-.6-.1-.2-.2-.5-.2-.8s0-.6.2-.8c.1-.2.3-.4.5-.6.2-.1.4-.3.7-.3.3 0 .5-.1.8-.2h1.8v-.8c0-.2-.1-.4-.2-.6-.1-.2-.3-.3-.5-.4-.2 0-.4-.1-.8-.1h-.5c-.2 0-.3.1-.5.2-.1 0-.3.2-.4.3-.1.1-.2.3-.2.4l-.8-.4c.1-.3.3-.5.4-.7.2-.2.4-.4.6-.5.2-.1.4-.2.7-.3h.8c.3 0 .7 0 1 .2.3.1.6.2.8.4.2.2.4.4.5.7.1.3.2.6.2 1v4.1h-1v-.8zm-.9-2.1h-.9c-.2 0-.3 0-.5.1-.2 0-.3.1-.4.2-.1 0-.2.2-.3.3 0 .1-.1.3-.1.5v.5c0 .1.1.2.2.3.1 0 .2.1.4.2h1.2c.2 0 .4-.2.6-.3.2-.1.3-.3.4-.5.1-.2.2-.4.2-.7v-.8H85zm6.3 2.9c-.3 0-.6.1-.9.1-.5 0-1-.1-1.3-.4-.3-.3-.4-.7-.4-1.2v-3.9h-.9V42h.9v-1.2l1-.4V42h1.5v.8h-1.5V47c0 .1 0 .2.1.3 0 0 .1.1.3.2h.4c.2 0 .5 0 .7-.1v.8zm6.4-1.4c-.3.5-.6.9-1.1 1.2-.4.3-1 .4-1.5.4s-.9 0-1.3-.3c-.4-.2-.7-.4-1-.7-.3-.3-.5-.6-.6-1-.1-.4-.2-.8-.2-1.3s0-.9.2-1.3c.1-.4.3-.7.6-1 .3-.3.6-.5.9-.7.4-.2.8-.3 1.2-.3s1 0 1.3.3c.4.2.7.4.9.7.2.3.4.7.5 1.1 0 .4.1.9.1 1.3h-4.7c0 .3 0 .6.1.9 0 .3.2.5.4.7.2.2.4.4.6.5.3.1.5.2.9.2h.5c.2 0 .3-.1.5-.2.1-.1.3-.2.4-.4.1-.1.2-.3.3-.4l.9.4zm-.9-2.3c0-.6-.2-1-.5-1.3-.3-.3-.7-.5-1.3-.5s-.5 0-.7.1c-.2 0-.4.2-.6.4-.2.2-.3.4-.4.6 0 .2-.2.5-.2.7h3.7zm4.5-4.8h2.7c.4 0 .8 0 1.2.1.4 0 .7.2 1 .5.3.2.5.5.6.8.2.3.2.7.2 1.2s0 .7-.2 1c-.1.3-.2.5-.4.7-.2.2-.4.3-.7.4-.2.1-.5.2-.8.3-.3 0-.6 0-.9.1h-1.6v3.5h-1v-8.6zm2.8 4.2c.6 0 1.1-.1 1.4-.4.3-.3.5-.7.5-1.3s0-.6-.1-.8c0-.2-.2-.4-.4-.5l-.6-.3h-2.5V44h1.7zm7.6 3.5c-.2.3-.5.5-.9.7-.4.1-.7.2-1.1.2s-.5 0-.8-.1c-.2 0-.5-.2-.7-.3-.2-.2-.3-.3-.5-.6-.1-.2-.2-.5-.2-.8s0-.6.2-.8c.1-.2.3-.4.5-.6.2-.1.4-.3.7-.3.3 0 .5-.1.8-.2h1.8v-.8c0-.2-.1-.4-.2-.6-.1-.2-.3-.3-.5-.4-.2 0-.4-.1-.8-.1h-.5c-.2 0-.3.1-.5.2-.1 0-.3.2-.4.3-.1.1-.2.3-.2.4l-.8-.4c.1-.3.3-.5.4-.7.2-.2.4-.4.6-.5.2-.1.4-.2.7-.3h.8c.3 0 .7 0 1 .2.3.1.6.2.8.4.2.2.4.4.5.7.1.3.2.6.2 1v4.1h-1v-.8zm-.9-2.1h-.9c-.2 0-.3 0-.5.1s-.3.1-.4.2c-.1 0-.2.2-.3.3 0 .1-.1.3-.1.5v.5c0 .1.1.2.2.3.1 0 .2.1.4.2h1.2c.2 0 .4-.2.6-.3.2-.1.3-.3.4-.5.1-.2.2-.4.2-.7v-.8h-.9zm5.2 2.3l-2.4-5.6h1.1l1.9 4.5 1.7-4.5h1l-3.5 8.5h-1l1.2-2.8zm6.6-7.9h2.8c.4 0 .8 0 1.1.1.4 0 .7.2 1 .4.3.2.5.4.7.7.2.3.2.7.2 1.1s0 .7-.2.9c-.1.3-.3.5-.4.7-.2.2-.4.4-.7.5-.3.1-.5.2-.9.3l2.6 3.8h-1.2l-2.5-3.7h-1.6v3.7h-1v-8.6zm2.9 4h.8c.2 0 .4-.2.6-.3.2-.1.3-.3.4-.5 0-.2.1-.5.1-.8s0-.6-.1-.8c0-.2-.2-.4-.4-.5l-.6-.3H123.8v3.2h1.9zm8.7 3.5c-.2.4-.5.7-.8.8-.3.2-.7.3-1.1.3s-.7 0-1-.2c-.3-.1-.5-.3-.7-.5-.2-.2-.4-.5-.5-.8-.1-.3-.2-.6-.2-1v-4h1v3.9c0 .5.1.9.4 1.2.3.3.7.4 1.2.4s.5 0 .7-.1c.2 0 .4-.2.5-.3.1-.2.3-.3.3-.5s.1-.4.1-.7v-3.8h1v6.3h-1v-1zM137 42h1v1c0-.2.2-.4.4-.5.1-.1.3-.3.5-.3s.4-.2.6-.2h.6c.4 0 .7 0 1 .2.3.1.5.3.7.5.2.2.3.5.4.8 0 .3.1.7.1 1v3.8h-1v-3.9c0-.5-.1-.9-.4-1.2-.3-.3-.6-.4-1.2-.4s-.5 0-.7.1c-.2 0-.4.2-.6.3-.2.1-.3.3-.4.5 0 .2-.1.4-.1.7v3.8h-1v-6.3zM65.9 85.3h1.3l3 8.6h-1l-.8-2.3h-3.6l-.8 2.3h-1l2.9-8.6zm2.1 5.4l-1.5-4.4-1.5 4.4h3.1zm3.5-3.1h1v1.1c.1-.2.2-.3.4-.5.2-.1.4-.3.6-.4.2-.1.4-.2.6-.2h.6c.5 0 .9 0 1.2.3.4.2.7.4.9.7.2.3.4.6.5 1 .1.4.2.8.2 1.2s0 .9-.2 1.3c-.1.4-.3.7-.5 1-.2.3-.5.5-.9.7-.4.2-.8.3-1.2.3H74c-.2 0-.4-.1-.6-.2-.2 0-.4-.2-.6-.4-.2-.1-.3-.3-.4-.5v3.2h-1v-8.5zm3 5.6c.4 0 .7 0 .9-.2.3-.1.5-.3.6-.5.2-.2.3-.5.3-.8v-.9c0-.3 0-.6-.1-.9 0-.3-.2-.5-.4-.8-.2-.2-.4-.4-.6-.5-.2-.1-.5-.2-.9-.2s-.7 0-.9.2c-.3.1-.5.3-.7.5-.2.2-.3.5-.4.8 0 .3-.1.6-.1.9s0 .7.1 1c0 .3.2.5.4.8.2.2.4.4.7.5.3.1.6.2.9.2zm4.3-5.6h1v1.1c.1-.2.2-.3.4-.5.2-.1.4-.3.6-.4.2-.1.4-.2.6-.2h.6c.5 0 .9 0 1.2.3.4.2.7.4.9.7.2.3.4.6.5 1 .1.4.2.8.2 1.2s0 .9-.2 1.3c-.1.4-.3.7-.5 1-.2.3-.5.5-.9.7-.4.2-.8.3-1.2.3h-.7c-.2 0-.4-.1-.6-.2-.2 0-.4-.2-.6-.4-.2-.1-.3-.3-.4-.5v3.2h-1v-8.5zm3.1 5.6c.4 0 .7 0 .9-.2.3-.1.5-.3.6-.5.2-.2.3-.5.3-.8v-.9c0-.3 0-.6-.1-.9 0-.3-.2-.5-.4-.8-.2-.2-.4-.4-.6-.5-.2-.1-.5-.2-.9-.2s-.7 0-.9.2c-.3.1-.5.3-.7.5-.2.2-.3.5-.4.8 0 .3-.1.6-.1.9s0 .7.1 1c0 .3.2.5.4.8.2.2.4.4.7.5.3.1.6.2.9.2zm4.3-5.6h1v1.1c.2-.4.5-.7.8-.9.3-.2.7-.3 1.2-.3v.9c-.3 0-.6 0-.9.1-.3 0-.5.2-.6.4-.2.2-.3.4-.4.6 0 .2-.1.5-.1.9v3.4h-1v-6.3zm6.5 6.4c-.5 0-.9 0-1.3-.3-.4-.2-.7-.4-1-.7-.3-.3-.5-.6-.6-1-.1-.4-.2-.8-.2-1.3s0-.9.2-1.3.4-.7.6-1c.3-.3.6-.5 1-.7.4-.2.8-.3 1.3-.3s.9 0 1.3.3c.4.2.7.4 1 .7.3.3.5.6.6 1 .1.4.2.8.2 1.3s0 .9-.2 1.3-.4.7-.7 1c-.3.3-.6.5-1 .7-.4.2-.8.2-1.3.2zm0-.8c.4 0 .7 0 .9-.2.3-.1.5-.3.7-.5.2-.2.3-.5.4-.8 0-.3.1-.6.1-.9s0-.6-.1-.9c0-.3-.2-.5-.4-.8-.2-.2-.4-.4-.7-.5-.3-.1-.6-.2-.9-.2s-.7 0-.9.2c-.3.1-.5.3-.6.5-.2.2-.3.5-.4.8 0 .3-.1.6-.1.9s0 .7.1.9c0 .3.2.5.4.8.2.2.4.4.7.5.3.1.6.2.9.2zm3.6-5.6h1.1l1.8 5.3 1.8-5.3h1l-2.2 6.3h-1.3l-2.2-6.3zm11.8 4.9c-.3.5-.6.9-1.1 1.2-.4.3-1 .4-1.5.4s-.9 0-1.3-.3c-.4-.2-.7-.4-1-.7-.3-.3-.5-.6-.6-1-.1-.4-.2-.8-.2-1.3s0-.9.2-1.3c.1-.4.3-.7.6-1 .3-.3.6-.5.9-.7.4-.2.8-.3 1.2-.3s1 0 1.3.3.7.4.9.7.4.7.5 1.1c0 .4.1.9.1 1.3h-4.7c0 .3 0 .6.1.9 0 .3.2.5.4.7.2.2.4.4.6.5.3.1.5.2.9.2h.5c.2 0 .3-.1.5-.2.1-.1.3-.2.4-.4.1-.1.2-.3.3-.4l.9.4zm-.9-2.3c0-.6-.2-1-.5-1.3-.3-.3-.7-.5-1.3-.5s-.5 0-.7.1c-.2 0-.4.2-.6.4-.2.2-.3.4-.4.6 0 .2-.2.5-.2.7h3.7zm4.5-4.9h2.7c.4 0 .8 0 1.2.1.4 0 .7.2 1 .5.3.2.5.5.6.8.2.3.2.7.2 1.2s0 .7-.2 1c-.1.3-.2.5-.4.7-.2.2-.4.3-.6.4-.2.1-.5.2-.8.3-.3 0-.6 0-.9.1h-1.6v3.5h-1v-8.6zm2.8 4.3c.6 0 1.1-.1 1.4-.4.3-.3.5-.7.5-1.3s0-.6-.1-.8c0-.2-.2-.4-.4-.5l-.6-.3h-2.5v3.4h1.7zm7.6 3.5c-.2.3-.5.5-.9.7-.4.1-.7.2-1.1.2s-.5 0-.8-.1c-.2 0-.5-.2-.7-.3-.2-.2-.3-.3-.5-.6-.1-.2-.2-.5-.2-.8s0-.6.2-.8c.1-.2.3-.4.5-.6.2-.1.4-.3.7-.3.3 0 .5-.1.8-.2h1.8v-.8c0-.2-.1-.4-.2-.6-.1-.2-.3-.3-.5-.4-.2 0-.4-.1-.8-.1h-.5c-.2 0-.3.1-.5.2-.1 0-.3.2-.4.3-.1.1-.2.3-.2.4l-.8-.4c.1-.3.3-.5.4-.7.2-.2.4-.4.6-.5.2-.1.4-.2.7-.3h.8c.3 0 .7 0 1 .2.3.1.5.2.8.4.2.2.4.4.5.7.1.3.2.6.2 1v4.1h-1V93zm-.9-2.2h-.9c-.2 0-.3 0-.5.1-.2 0-.3.1-.4.2-.1 0-.2.2-.3.3 0 .1-.1.3-.1.5v.5c0 .1.1.2.2.3.1 0 .2.1.4.2h1.2c.2 0 .4-.2.6-.3.2-.1.3-.3.4-.5.1-.2.2-.4.2-.7v-.8h-.9zm5.2 2.4l-2.4-5.6h1.1l1.9 4.5 1.7-4.5h1l-3.5 8.5h-1l1.2-2.8zm4.3-5.7h1v1.1c.2-.4.5-.7.8-.9.3-.2.7-.3 1.2-.3v.9c-.3 0-.6 0-.9.1-.3 0-.5.2-.6.4-.2.2-.3.4-.4.6 0 .2-.1.5-.1.9v3.4h-1v-6.3zm6.5 6.4c-.5 0-.9 0-1.3-.3-.4-.2-.7-.4-1-.7-.3-.3-.5-.6-.6-1-.1-.4-.2-.8-.2-1.3s0-.9.2-1.3.4-.7.6-1c.3-.3.6-.5 1-.7.4-.2.8-.3 1.3-.3s.9 0 1.3.3c.4.2.7.4 1 .7.3.3.5.6.6 1 .1.4.2.8.2 1.3s0 .9-.2 1.3-.4.7-.7 1c-.3.3-.6.5-1 .7-.4.2-.8.2-1.3.2zm0-.8c.4 0 .7 0 .9-.2.3-.1.5-.3.7-.5.2-.2.3-.5.4-.8 0-.3.1-.6.1-.9s0-.6-.1-.9c0-.3-.2-.5-.4-.8-.2-.2-.4-.4-.7-.5-.3-.1-.6-.2-.9-.2s-.7 0-.9.2c-.3.1-.5.3-.6.5-.2.2-.3.5-.4.8 0 .3-.1.6-.1.9s0 .7.1.9c0 .3.2.5.4.8.2.2.4.4.6.5.3.1.6.2.9.2zm4.4-8.4l1-.4v9.5h-1v-9.1zm2.8 0l1-.4v9.5h-1v-9.1zM63.6 129.5h1v8.6h-1v-8.6zm2.9 2.4h1v1c0-.2.2-.4.4-.5.1-.1.3-.3.5-.3s.4-.2.6-.2h.6c.4 0 .7 0 1 .2.3.1.5.3.7.5.2.2.3.5.4.8 0 .3.1.7.1 1v3.8h-1v-3.9c0-.5-.1-.9-.4-1.2-.3-.3-.6-.4-1.2-.4s-.5 0-.7.1c-.2 0-.4.2-.6.3-.2.1-.3.3-.4.5 0 .2-.1.4-.1.7v3.8h-1v-6.3zm7.1 0h1v6.3h-1v-6.3zm-.2-1.9c0-.2 0-.3.2-.5.1-.1.3-.2.5-.2s.3 0 .5.2c.1.1.2.3.2.5s0 .3-.2.5c-.1.1-.3.2-.5.2s-.3 0-.5-.2c-.1-.1-.2-.3-.2-.5zm5.7 8.1c-.3 0-.6.1-.9.1-.5 0-1-.1-1.3-.4-.3-.3-.4-.7-.4-1.2v-3.9h-.9v-.8h.9v-1.2l1-.4v1.6H79v.8h-1.5v4.2c0 .1 0 .2.1.3s.1.1.3.2h.4c.2 0 .5 0 .7-.1v.8zm1.2-6.2h1v6.3h-1v-6.3zm-.1-1.9c0-.2 0-.3.2-.5.1-.1.3-.2.5-.2s.3 0 .5.2c.1.1.2.3.2.5s0 .3-.2.5c-.1.1-.3.2-.5.2s-.3 0-.5-.2c-.1-.1-.2-.3-.2-.5zm6.4 7.3c-.2.3-.5.5-.9.7-.4.1-.7.2-1.1.2s-.5 0-.8-.1c-.2 0-.5-.2-.7-.3-.2-.2-.3-.3-.5-.6-.1-.2-.2-.5-.2-.8s0-.6.2-.8c.1-.2.3-.4.5-.6.2-.1.4-.3.7-.3.3 0 .5-.1.8-.2h1.8v-.8c0-.2-.1-.4-.2-.6-.1-.2-.3-.3-.5-.4-.2 0-.4-.1-.8-.1h-.5c-.2 0-.3.1-.5.2-.1 0-.3.2-.4.3-.1.1-.2.3-.2.4l-.8-.4c.1-.3.3-.5.4-.7.2-.2.4-.4.6-.5.2-.1.4-.2.7-.3h.8c.3 0 .7 0 1 .2.3.1.6.2.8.4.2.2.4.4.5.7.1.3.2.6.2 1v4.1h-1v-.8zm-.8-2.2h-.9c-.2 0-.3 0-.5.1-.2 0-.3.1-.4.2-.1 0-.2.2-.3.3 0 .1-.1.3-.1.5v.5c0 .1.1.2.2.3.1 0 .2.1.4.2h1.2c.2 0 .4-.2.6-.3.2-.1.3-.3.4-.5.1-.2.2-.4.2-.6v-.8h-.9zm6.3 3c-.3 0-.6.1-.9.1-.5 0-1-.1-1.3-.4-.3-.3-.4-.7-.4-1.2v-3.9h-.9v-.8h.9v-1.2l1-.4v1.6H92v.8h-1.5v4.2c0 .1 0 .2.1.3s.1.1.3.2h.4c.2 0 .5 0 .7-.1v.8zm6.4-1.4c-.3.5-.6.9-1.1 1.2-.4.3-1 .4-1.5.4s-.9 0-1.3-.3c-.4-.2-.7-.4-1-.7-.3-.3-.5-.6-.6-1-.1-.4-.2-.8-.2-1.3s0-.9.2-1.3c.1-.4.3-.7.6-1s.6-.5.9-.7c.4-.2.8-.3 1.2-.3s1 0 1.3.3c.4.2.7.4.9.7.2.3.4.7.5 1.1 0 .4.1.9.1 1.3h-4.7c0 .3 0 .6.1.9 0 .3.2.5.4.7.2.2.4.4.6.5.3.1.5.2.9.2h.5c.2 0 .3-.1.5-.2.1-.1.3-.2.4-.4.1-.1.2-.3.3-.4l.9.4zm-1-2.3c0-.6-.2-1-.5-1.3-.3-.3-.7-.5-1.3-.5s-.5 0-.7.1c-.2 0-.4.2-.6.4-.2.2-.3.4-.4.6 0 .2-.2.5-.2.7h3.7zm4.6-4.9h2.7c.4 0 .8 0 1.2.1.4 0 .7.2 1 .5.3.2.5.5.6.8.2.3.2.7.2 1.2s0 .7-.2 1c-.1.3-.2.5-.4.7-.2.2-.4.3-.7.4-.2.1-.5.2-.8.3-.3 0-.6 0-.9.1h-1.6v3.5h-1v-8.6zm2.7 4.3c.6 0 1.1-.1 1.4-.4.3-.3.5-.7.5-1.3s0-.6-.1-.8c0-.2-.2-.4-.4-.5l-.6-.3h-2.5v3.4h1.7zm7.7 3.5c-.2.3-.5.5-.9.7-.4.1-.7.2-1.1.2s-.5 0-.8-.1c-.2 0-.5-.2-.7-.3-.2-.2-.3-.3-.5-.6-.1-.2-.2-.5-.2-.8s0-.6.2-.8c.1-.2.3-.4.5-.6.2-.1.4-.3.7-.3.3 0 .5-.1.8-.2h1.8v-.8c0-.2-.1-.4-.2-.6-.1-.2-.3-.3-.5-.4-.2 0-.4-.1-.8-.1h-.5c-.2 0-.3.1-.5.2-.1 0-.3.2-.4.3-.1.1-.2.3-.2.4l-.8-.4c.1-.3.3-.5.4-.7.2-.2.4-.4.6-.5.2-.1.4-.2.7-.3h.8c.3 0 .7 0 1 .2.3.1.6.2.8.4.2.2.4.4.5.7.1.3.2.6.2 1v4.1h-1v-.8zm-.9-2.2h-.9c-.2 0-.3 0-.5.1-.2 0-.3.1-.4.2-.1 0-.2.2-.3.3 0 .1-.1.3-.1.5v.5c0 .1.1.2.2.3.1 0 .2.1.4.2h1.2c.2 0 .4-.2.6-.3.2-.1.3-.3.4-.5.1-.2.2-.4.2-.6v-.8h-.9zm5.2 2.4l-2.4-5.6h1.1l1.9 4.5 1.7-4.5h1l-3.5 8.5h-1l1.2-2.8zm4.3-5.6h1v1c.2-.4.4-.6.7-.8.3-.2.7-.3 1-.3h.6c.2 0 .4.1.6.2.2 0 .3.2.5.4.1.1.3.3.3.5.2-.4.5-.7.8-.9.4-.2.8-.3 1.2-.3s.7 0 1 .2c.3.1.5.3.7.5.2.2.3.5.4.8 0 .3.1.6.1 1v3.9h-1v-4c0-.5-.1-.9-.4-1.2-.2-.3-.6-.4-1.1-.4s-.5 0-.7.1c-.2 0-.3.2-.5.4-.1.2-.2.3-.3.5 0 .2-.1.4-.1.6v3.8h-1v-4c0-.5-.1-.9-.4-1.2-.2-.3-.6-.4-1.1-.4s-.5 0-.7.1c-.2 0-.3.2-.5.4-.1.2-.2.3-.3.5 0 .2-.1.4-.1.6v3.8h-1v-6.3zm15.9 4.8c-.3.5-.6.9-1.1 1.2-.4.3-1 .4-1.5.4s-.9 0-1.3-.3c-.4-.2-.7-.4-1-.7-.3-.3-.5-.6-.6-1-.1-.4-.2-.8-.2-1.3s0-.9.2-1.3c.1-.4.3-.7.6-1 .3-.3.6-.5.9-.7.4-.2.8-.3 1.2-.3s1 0 1.3.3c.4.2.6.4.9.7.2.3.4.7.5 1.1 0 .4.1.9.1 1.3h-4.7c0 .3 0 .6.1.9 0 .3.2.5.4.7.2.2.4.4.6.5.3.1.5.2.9.2h.5c.2 0 .3-.1.5-.2.1-.1.3-.2.4-.4.1-.1.2-.3.3-.4l.9.4zm-.9-2.3c0-.6-.2-1-.5-1.3-.3-.3-.7-.5-1.3-.5s-.5 0-.7.1c-.2 0-.4.2-.6.4s-.3.4-.4.6c0 .2-.2.5-.2.7h3.7zm2.3-2.5h1v1c0-.2.2-.4.4-.5.1-.1.3-.3.5-.3s.4-.2.6-.2h.6c.4 0 .7 0 1 .2.3.1.5.3.7.5.2.2.3.5.4.8 0 .3.1.7.1 1v3.8h-1v-3.9c0-.5-.1-.9-.4-1.2-.3-.3-.6-.4-1.2-.4s-.5 0-.7.1c-.2 0-.4.2-.6.3-.2.1-.3.3-.4.5s-.1.4-.1.7v3.8h-1v-6.3zm9.7 6.2c-.3 0-.6.1-.9.1-.5 0-1-.1-1.3-.4-.3-.3-.4-.7-.4-1.2v-3.9h-.9v-.8h.9v-1.2l1-.4v1.6h1.5v.8h-1.5v4.2c0 .1 0 .2.1.3 0 0 .1.1.3.2h.4c.2 0 .5 0 .7-.1v.8zm1.5-1.8c.1.4.3.6.6.8.3.2.6.3 1 .3h.5c.2 0 .3 0 .5-.2.1 0 .2-.2.3-.3 0-.1.1-.3.1-.5s0-.3-.1-.5c0-.1-.2-.2-.3-.3-.1 0-.3-.1-.5-.2-.2 0-.4-.1-.6-.2-.2 0-.5-.1-.7-.2-.2 0-.5-.2-.6-.3-.2-.1-.3-.3-.5-.5-.1-.2-.2-.5-.2-.8s0-.5.2-.7c.1-.2.3-.4.5-.6.2-.2.4-.3.7-.3.2 0 .5-.1.8-.1.5 0 .9.1 1.3.4.4.3.7.6.9 1l-.8.3c-.1-.3-.3-.5-.6-.7-.3-.2-.6-.2-.9-.2h-.4c-.1 0-.3 0-.4.2-.1 0-.2.2-.3.3v.4c0 .2 0 .3.1.4 0 .1.2.2.3.3.1 0 .3.1.5.2.2 0 .4 0 .6.1.2 0 .5.1.7.2.2 0 .5.2.7.3.2.1.4.3.5.5.1.2.2.5.2.8s0 .6-.2.9c-.1.2-.3.4-.5.6-.2.2-.5.3-.7.4-.3 0-.6.1-.9.1-.6 0-1.1-.1-1.5-.4-.4-.3-.7-.7-.9-1.2l.8-.3zM64 179.4c.2.6.5 1.1.9 1.4.4.3.9.5 1.4.5s.5 0 .8-.1c.2 0 .4-.2.6-.3.2-.1.3-.3.4-.5.1-.2.2-.4.2-.6s0-.5-.2-.7c-.1-.2-.3-.3-.5-.4-.2-.1-.4-.2-.7-.3-.3 0-.5-.1-.8-.2-.2 0-.4 0-.6-.1-.2 0-.4-.1-.6-.2-.2 0-.4-.2-.6-.3-.2-.1-.3-.2-.5-.4l-.3-.6c0-.2-.1-.5-.1-.8s0-.6.2-.9c.1-.3.3-.5.6-.7.2-.2.5-.4.9-.5.3-.1.7-.2 1.1-.2.7 0 1.3.2 1.7.5.5.3.8.8 1.1 1.5l-.9.4c-.2-.5-.5-.9-.8-1.1-.3-.3-.7-.4-1.2-.4h-.7c-.2 0-.4.2-.5.3-.2.1-.3.3-.4.5 0 .2-.1.4-.1.6s0 .5.2.7c.1.2.3.3.5.4.2.1.4.2.7.3.3 0 .5.1.8.2.3 0 .7.1 1 .2.3 0 .6.2.9.4.3.2.5.4.6.7.2.3.2.6.2 1.1s0 .7-.2 1c-.2.3-.4.6-.6.8-.3.2-.6.4-.9.5-.4.1-.7.2-1.2.2-.8 0-1.5-.2-2-.6-.5-.4-.9-1-1.2-1.8l.9-.4zm11.9 1.1c-.3.5-.6.9-1.1 1.2-.4.3-1 .4-1.5.4s-.9 0-1.3-.3c-.4-.2-.7-.4-1-.7-.3-.3-.5-.6-.6-1-.1-.4-.2-.8-.2-1.3s0-.9.2-1.3c.1-.4.3-.7.6-1 .3-.3.6-.5.9-.7.4-.2.8-.3 1.2-.3s1 0 1.3.3c.4.2.7.4.9.7.2.3.4.7.5 1.1 0 .4.1.9.1 1.3h-4.7c0 .3 0 .6.1.9 0 .3.2.5.4.7.2.2.4.4.6.5.3.1.5.2.9.2h.5c.1 0 .3-.1.5-.2.1-.1.3-.2.4-.4.1-.1.2-.3.3-.4l.9.4zm-1-2.3c0-.6-.2-1-.5-1.3-.3-.3-.7-.5-1.3-.5s-.5 0-.7.1c-.2 0-.4.2-.6.4-.2.2-.3.4-.4.6 0 .2-.2.5-.2.7h3.7zm2.3-2.5h1v1c0-.2.2-.4.4-.5.1-.1.3-.3.5-.3s.4-.2.6-.2h.6c.4 0 .7 0 1 .2.3.1.5.3.7.5.2.2.3.5.4.8 0 .3.1.7.1 1v3.8h-1v-3.9c0-.5-.1-.9-.4-1.2-.3-.3-.6-.4-1.2-.4s-.5 0-.7.1c-.2 0-.4.2-.6.3-.2.1-.3.3-.4.5s-.1.4-.1.7v3.8h-1v-6.3zm11.7 5.2c-.1.2-.3.3-.4.5-.2.1-.4.3-.6.4-.2.1-.4.2-.6.2h-.6c-.5 0-.9 0-1.2-.3-.4-.2-.7-.4-.9-.7-.2-.3-.4-.6-.5-1-.1-.4-.2-.8-.2-1.2s0-.8.2-1.2c.1-.4.3-.7.6-1 .2-.3.6-.5.9-.7.4-.2.8-.3 1.2-.3h.7c.2 0 .4.1.6.2.2 0 .4.2.5.3.2.1.3.3.4.5v-3.9h1v9.1h-1v-1.1zm-2.2.3c.4 0 .7 0 1-.2.3-.1.5-.3.7-.5.2-.2.3-.5.4-.8 0-.3.1-.6.1-1s0-.6-.1-.9c0-.3-.2-.5-.4-.8s-.4-.4-.6-.5c-.3-.1-.6-.2-.9-.2s-.7 0-1 .2c-.3.1-.5.3-.6.5-.2.2-.3.5-.3.8 0 .3-.1.6-.1.9s0 .6.1.9c0 .3.2.5.4.8.2.2.4.4.6.5.2.1.5.2.9.2zm7.2-7.8h2.7c.4 0 .8 0 1.2.1.4 0 .7.2 1 .5.3.2.5.5.6.8.2.3.2.7.2 1.2s0 .7-.2 1c-.1.3-.2.5-.4.7-.2.2-.4.3-.7.4-.2.1-.5.2-.8.3-.3 0-.6 0-.9.1H95v3.5h-1v-8.6zm2.7 4.3c.6 0 1.1-.1 1.4-.4.3-.3.5-.7.5-1.3s0-.6-.1-.8c0-.2-.2-.4-.4-.5l-.6-.3h-2.5v3.4h1.7zm7.6 3.5c-.2.3-.5.5-.9.7-.4.1-.7.2-1.1.2s-.5 0-.8-.1-.5-.2-.7-.3c-.2-.2-.3-.3-.5-.6-.1-.2-.2-.5-.2-.8s0-.6.2-.8c.1-.2.3-.4.5-.6.2-.1.4-.3.7-.3.3 0 .5-.1.8-.2h1.8v-.8c0-.2-.1-.4-.2-.6-.1-.2-.3-.3-.5-.4-.2 0-.4-.1-.8-.1h-.5c-.2 0-.3.1-.5.2-.1 0-.3.2-.4.3-.1.1-.2.3-.2.4l-.8-.4c.1-.3.3-.5.4-.7.2-.2.4-.4.6-.5.2-.1.4-.2.7-.3h.8c.3 0 .7 0 1 .2.3.1.6.2.8.4.2.2.4.4.5.7.1.3.2.6.2 1v4.1h-1v-.8zm-.8-2.2h-.9c-.2 0-.3 0-.5.1-.2 0-.3.1-.4.2-.1 0-.2.2-.3.3 0 .1-.1.3-.1.5v.5c0 .1.1.2.2.3.1 0 .2.1.4.2h1.2c.2 0 .4-.2.6-.3.2-.1.3-.3.4-.5.1-.2.2-.4.2-.7v-.8h-.9zm5.1 2.3l-2.4-5.6h1.1l1.9 4.5 1.7-4.5h1l-3.5 8.5h-1l1.2-2.8zm7.1-1.9c.2.6.5 1.1.9 1.4.4.3.9.5 1.4.5s.5 0 .8-.1c.2 0 .4-.2.6-.3.2-.1.3-.3.4-.5.1-.2.2-.4.2-.6s0-.5-.2-.7c-.1-.2-.3-.3-.5-.4-.2-.1-.4-.2-.7-.3-.3 0-.5-.1-.8-.2-.2 0-.4 0-.6-.1-.2 0-.4-.1-.6-.2-.2 0-.4-.2-.6-.3-.2-.1-.3-.2-.5-.4l-.3-.6c0-.2-.1-.5-.1-.8s0-.6.2-.9c.1-.3.3-.5.6-.7.2-.2.5-.4.9-.5.3-.1.7-.2 1.1-.2.7 0 1.3.2 1.7.5.5.3.8.8 1.1 1.5l-.9.4c-.2-.5-.5-.9-.8-1.1-.3-.3-.7-.4-1.2-.4h-.7c-.2 0-.4.2-.5.3-.2.1-.3.3-.4.5 0 .2-.1.4-.1.6s0 .5.2.7c.1.2.3.3.5.4.2.1.4.2.7.3.3 0 .5.1.8.2.3 0 .7.1 1 .2.3 0 .6.2.9.4s.5.4.6.7c.2.3.2.6.2 1.1s0 .7-.2 1c-.2.3-.4.6-.6.8-.3.2-.6.4-.9.5-.4.1-.7.2-1.2.2-.8 0-1.5-.2-2-.6-.5-.4-.9-1-1.2-1.8l.9-.4zm9.4 2.5c-.3 0-.6.1-.9.1-.5 0-1-.1-1.3-.4-.3-.3-.4-.7-.4-1.2v-3.9h-.9v-.8h.9v-1.2l1-.4v1.6h1.5v.8h-1.5v4.2c0 .1 0 .2.1.3 0 0 .1.1.3.2h.4c.2 0 .5 0 .7-.1v.8zm5.5-.9c-.2.4-.5.7-.8.8-.3.2-.7.3-1.1.3s-.7 0-1-.2c-.3-.1-.5-.3-.7-.5-.2-.2-.4-.5-.5-.8-.1-.3-.2-.6-.2-1v-4h1v3.9c0 .5.1.9.4 1.2.3.3.7.4 1.2.4s.5 0 .7-.1c.2 0 .4-.2.5-.3.1-.2.3-.3.3-.5s.1-.4.1-.7v-3.8h1v6.3h-1v-1zm2.3-8.1h1v3.9c.1-.2.3-.3.4-.5.2-.1.3-.3.5-.4.2-.1.4-.2.6-.2h.6c.5 0 .9 0 1.2.3.4.2.7.4.9.7.2.3.4.6.5 1 .1.4.2.8.2 1.2s0 .9-.2 1.3c-.1.4-.3.7-.6 1-.2.3-.5.5-.9.7-.4.2-.8.3-1.2.3h-.7c-.2 0-.4-.1-.6-.2-.2 0-.4-.2-.5-.4-.2-.1-.3-.3-.4-.5v1h-1V173zm3.1 8.3c.4 0 .7 0 .9-.2.3-.1.5-.3.6-.5.2-.2.3-.5.3-.8v-.9c0-.3 0-.6-.1-.9 0-.3-.2-.5-.4-.8-.2-.2-.4-.4-.6-.5-.2-.1-.5-.2-.9-.2s-.7 0-1 .2c-.3.1-.5.3-.7.5-.2.2-.3.5-.4.8 0 .3-.1.6-.1.9s0 .7.1 1c0 .3.2.5.4.8.2.2.4.4.7.5.3.1.6.2.9.2zm4.5-1.1c.1.4.3.6.6.8.3.2.6.3 1 .3h.5c.2 0 .3 0 .5-.2.1 0 .2-.2.3-.3s.1-.3.1-.5 0-.3-.1-.5c0-.1-.2-.2-.3-.3-.1 0-.3-.1-.5-.2-.2 0-.4-.1-.6-.2-.2 0-.5-.1-.7-.2-.2 0-.5-.2-.6-.3-.2-.1-.3-.3-.5-.5-.1-.2-.2-.5-.2-.8s0-.5.2-.7c.1-.2.3-.4.5-.6.2-.2.4-.3.7-.3.2 0 .5-.1.8-.1.5 0 .9.1 1.3.4.4.3.7.6.9 1l-.8.3c-.1-.3-.3-.5-.6-.7-.3-.2-.6-.2-.9-.2h-.4c-.1 0-.3 0-.4.2-.1 0-.2.2-.3.3v.4c0 .2 0 .3.1.4 0 .1.2.2.3.3.1 0 .3.1.5.2.2 0 .4 0 .6.1.2 0 .5.1.7.2.2 0 .5.2.7.3.2.1.4.3.5.5.1.2.2.5.2.8s0 .6-.2.9-.3.4-.5.6c-.2.2-.5.3-.7.4-.3 0-.6.1-.9.1-.6 0-1.1-.1-1.5-.4-.4-.3-.7-.7-.9-1.2l.8-.3z"/><path fill="none" stroke="#a2a2a2" stroke-width=".5" d="M41.1 54.9v23.4M41.1 99.3v23.4M41.1 143.7v23.5"/><circle cx="40.8" cy="133.4" r="8.3"/><path d="M44.5 131.6l-4.7 4.6-2.7-2.7 1-1 1.7 1.7 3.7-3.6 1 1z" fill="#fff" fill-rule="evenodd"/><circle cx="40.8" cy="88.6" r="8.3"/><path d="M44.5 86.8l-4.7 4.6-2.7-2.7 1-1 1.7 1.7 3.7-3.6 1 1z" fill="#fff" fill-rule="evenodd"/><g><circle cx="40.8" cy="44.5" r="8.3"/><path d="M44.5 42.7l-4.7 4.6-2.7-2.7 1-1 1.7 1.7 3.7-3.6 1 1z" fill="#fff" fill-rule="evenodd"/></g><g><circle cx="40.8" cy="177" r="8.3"/><path d="M44.5 175.2l-4.7 4.6-2.7-2.7 1-1 1.7 1.7 3.7-3.6 1 1z" fill="#fff" fill-rule="evenodd"/></g></svg>