<svg xmlns="http://www.w3.org/2000/svg" viewBox="0 0 340 380"><rect x="10.9" y=".9" width="318.2" height="74.5" rx="10.4" ry="10.4" fill="#faf2ed"/><path d="M76 30.3h5.2c.6 0 1.2 0 1.7.2.5.1 1 .3 1.4.6s.7.6.9 1.1c.2.5.3 1 .3 1.7s-.2 1.3-.5 1.8-.9.8-1.6 1c.9.2 1.6.5 2 1 .4.5.7 1.2.7 2.2s-.1 1.3-.4 1.8-.6.9-1 1.2-.9.5-1.5.6c-.6.1-1.2.2-1.8.2h-5.6V30.4zm4.9 5.6h1c.3 0 .5-.2.7-.3s.3-.4.4-.6c0-.3.2-.6.2-1s0-.7-.2-.9-.3-.4-.5-.5c-.2-.1-.4-.2-.7-.3h-3.3v3.8h2.4zm.4 5.9c.4 0 .7 0 1-.1.3 0 .6-.2.8-.4.2-.2.4-.4.5-.7s.2-.6.2-1 0-.8-.2-1c-.1-.3-.3-.5-.6-.6-.2-.2-.5-.3-.8-.3h-3.6v4.2h2.8zM96.7 41.5c-.2.4-.5.8-.8 1.1s-.7.5-1 .7-.8.3-1.2.4-.9.1-1.3.1c-.8 0-1.5-.1-2.1-.4s-1.1-.6-1.6-1-.8-1-1-1.6-.3-1.3-.3-2.1.1-1.4.3-2c.2-.6.6-1.2 1-1.6s.9-.8 1.5-1.1 1.3-.4 2-.4c1.6 0 2.8.5 3.5 1.4s1.2 2.3 1.2 4.2h-7.2c0 .4 0 .8.2 1.1s.3.7.5.9.5.5.8.6.7.2 1.2.2 1-.1 1.4-.3c.4-.2.8-.6 1-1.1l1.8.8zm-2.1-3.8c0-.7-.3-1.3-.7-1.7-.4-.4-1-.6-1.7-.6s-.7 0-1 .2-.5.3-.8.5-.4.5-.5.8l-.3.9h4.9zM98.6 33.8h2.3v1.5c.2-.3.3-.6.6-.8.2-.2.5-.4.8-.5.3-.2.6-.2.9-.3s.7 0 1 0c.6 0 1.1 0 1.5.3.4.2.8.5 1.1.8s.5.8.6 1.2c.1.5.2 1 .2 1.5v6.1h-2.4v-5.8c0-.7-.2-1.2-.5-1.6s-.8-.6-1.5-.6-1.3.2-1.7.6c-.4.4-.6 1-.6 1.7v5.7h-2.3v-9.7zM118.5 41.5c-.2.4-.5.8-.8 1.1s-.7.5-1 .7-.8.3-1.2.4-.9.1-1.3.1c-.8 0-1.5-.1-2.1-.4s-1.1-.6-1.6-1-.8-1-1-1.6-.3-1.3-.3-2.1.1-1.4.3-2c.2-.6.6-1.2 1-1.6s.9-.8 1.5-1.1 1.3-.4 2-.4c1.6 0 2.8.5 3.5 1.4s1.2 2.3 1.2 4.2h-7.2c0 .4 0 .8.2 1.1s.3.7.5.9.5.5.8.6.7.2 1.2.2 1-.1 1.4-.3c.4-.2.8-.6 1-1.1l1.8.8zm-2-3.8c0-.7-.3-1.3-.7-1.7-.4-.4-1-.6-1.7-.6s-.7 0-1 .2-.5.3-.8.5-.4.5-.5.8l-.3.9h4.9zM120.9 35.6h-1.3v-1.7h1.3v-1.1c0-1.1.3-2 .8-2.6s1.3-.9 2.4-.9h.8c.2 0 .5.1.8.2l-.7 1.6h-.2-.2c-.3 0-.5 0-.7.2s-.3.2-.4.4-.2.4-.2.6v1.6h2.2v1.7h-2.2v8H121v-8zM127.1 31.1c0-.2 0-.4.1-.5s.2-.3.3-.4.3-.2.4-.3c.2 0 .3-.1.5-.1s.4 0 .5.1c.2 0 .3.2.4.3s.2.3.3.4c0 .2.1.3.1.5s0 .4-.1.5c0 .2-.2.3-.3.4-.1.1-.3.2-.4.3h-1c-.1 0-.3-.2-.4-.3s-.2-.3-.3-.4-.1-.3-.1-.5zm.2 2.8h2.3v9.7h-2.3v-9.7zM137 43.5c-.2 0-.5.1-.8.2h-.8c-.9 0-1.6-.2-2.2-.7s-.8-1.2-.8-2.2v-5.3h-1.3v-1.7h1.3v-2l2.3-1v3h2.1v1.7h-2.1v5.1c0 .4 0 .7.3.9.2.2.5.3.9.3h.5c.2 0 .4 0 .5-.1v1.8zM139.8 40.7c0 .2.2.4.4.6s.4.3.6.4.4.2.7.3.5 0 .8 0h.6c.2 0 .4 0 .5-.2.2 0 .3-.2.4-.3.1-.2.2-.3.2-.6s0-.4-.2-.6-.3-.3-.5-.4c-.2-.1-.4-.2-.7-.3s-.6-.1-.9-.2c-.4 0-.8-.2-1.2-.3s-.8-.3-1.1-.5c-.3-.2-.6-.5-.8-.8s-.3-.8-.3-1.3.1-.9.3-1.3c.2-.4.5-.7.8-.9.3-.2.7-.4 1.2-.5.4-.1.9-.2 1.3-.2s.8 0 1.2.1.8.2 1.1.4.7.4 1 .7c.3.3.5.6.7 1l-1.7.7c-.1-.2-.2-.4-.4-.5-.2-.2-.3-.3-.5-.4-.2 0-.4-.2-.6-.2h-1.2c-.2 0-.3 0-.5.2-.1 0-.3.2-.3.3s-.1.3-.1.5 0 .4.2.5.3.3.4.3.4.2.7.2.5.1.8.2c.4 0 .8.2 1.2.3.4 0 .8.3 1.1.5.3.2.6.5.8.8.2.3.3.8.3 1.4s-.1 1-.3 1.5-.5.7-.9 1-.8.4-1.3.5-1 .2-1.5.2-.9 0-1.3-.1-.8-.2-1.2-.4-.7-.4-1-.7c-.3-.3-.5-.7-.7-1.1l1.8-.8zM152.8 39.6c.1.4.3.7.6 1 .2.3.5.5.8.7.3.2.6.3 1 .4s.8.2 1.1.2.6 0 .9-.1c.3 0 .6-.2.8-.4l.6-.6c.2-.2.2-.6.2-.9s0-.7-.2-.9-.4-.4-.7-.6c-.3-.1-.6-.2-1-.3-.4 0-.8-.2-1.2-.2-.5 0-1-.2-1.5-.3s-1-.3-1.4-.6c-.4-.3-.8-.6-1-1.1-.3-.5-.4-1.1-.4-1.8s.1-1.2.4-1.7c.3-.5.6-.9 1-1.2.4-.3.9-.6 1.5-.7s1.1-.2 1.7-.2 1 0 1.5.2.9.3 1.4.5.8.5 1.1.9c.3.4.6.8.8 1.3l-1.9.8c-.3-.6-.7-1-1.2-1.4s-1.1-.5-1.8-.5h-.8c-.3 0-.5.2-.7.3s-.4.3-.5.5-.2.5-.2.8 0 .7.2.9c.2.2.4.4.6.5l.9.3c.3.1.7.2 1.1.2.4 0 .7.1 1.1.2s.7.2 1 .3c.3.1.6.3.9.4.3.2.5.4.8.7.2.3.4.6.5 1s.2.8.2 1.3-.1 1.3-.4 1.8c-.3.5-.7 1-1.1 1.3-.5.3-1 .6-1.6.8-.6.2-1.2.3-1.8.3s-1.2 0-1.8-.2c-.6-.1-1.1-.3-1.6-.6s-.9-.6-1.3-1-.6-.9-.8-1.6l2-.9zM169.5 42c-.1.3-.3.5-.6.8-.2.2-.5.4-.8.5l-.9.3h-1c-.6 0-1.1 0-1.5-.3-.4-.2-.8-.4-1.1-.8-.3-.3-.5-.7-.6-1.2s-.2-1-.2-1.5v-6.2h2.3v6c0 .7.2 1.2.5 1.6s.8.6 1.5.6.7 0 1-.2c.3-.1.5-.3.7-.5.2-.2.4-.5.5-.7.1-.3.2-.6.2-1v-5.8h2.3v9.7h-2.3v-1.5zM174.2 33.8h2.3v1.5c.1-.3.3-.5.5-.7s.4-.4.7-.5c.3-.1.5-.2.8-.3s.6-.1.9-.1h.9c.3 0 .6.2.8.3.2.1.5.3.7.5.2.2.4.5.5.8.4-.6.9-1 1.4-1.3s1.2-.5 1.9-.5 1 0 1.4.3c.4.2.8.5 1 .8s.5.7.6 1.2c.1.5.2 1 .2 1.5v6.2h-2.3v-6c0-.6-.1-1.1-.5-1.5-.3-.4-.8-.5-1.4-.5s-.6 0-.9.2c-.3.1-.5.3-.6.5s-.3.4-.4.7c0 .3-.1.6-.1.9v5.8h-2.3v-6c0-.6-.1-1.1-.5-1.5-.3-.4-.8-.5-1.4-.5s-.6 0-.9.2c-.3.1-.5.3-.7.5s-.3.4-.4.7c0 .3-.1.6-.1.9v5.8H174V34zM191.4 33.8h2.3v1.5c.1-.3.3-.5.5-.7s.4-.4.7-.5c.3-.1.5-.2.8-.3s.6-.1.9-.1h.9c.3 0 .6.2.8.3.2.1.5.3.7.5.2.2.4.5.5.8.4-.6.9-1 1.4-1.3s1.2-.5 1.9-.5 1 0 1.4.3c.4.2.8.5 1 .8s.5.7.6 1.2c.1.5.2 1 .2 1.5v6.2h-2.3v-6c0-.6-.1-1.1-.5-1.5-.3-.4-.8-.5-1.4-.5s-.6 0-.9.2c-.3.1-.5.3-.6.5s-.3.4-.4.7c0 .3-.1.6-.1.9v5.8h-2.3v-6c0-.6-.1-1.1-.5-1.5-.3-.4-.8-.5-1.4-.5s-.6 0-.9.2c-.3.1-.5.3-.7.5s-.3.4-.4.7c0 .3-.1.6-.1.9v5.8h-2.3V34zM214.1 42.4c-.4.5-.8.8-1.3 1s-1.1.3-1.7.3-.9 0-1.3-.2c-.4-.1-.7-.3-1-.5-.3-.2-.5-.5-.7-.9-.2-.3-.2-.8-.2-1.2s0-.8.2-1.2c.1-.3.4-.6.6-.8s.6-.4.9-.6c.3-.2.7-.3 1.1-.3s.8-.1 1.2-.2.8 0 1.2 0h1.1v-.2-.9c0-.2-.1-.5-.3-.7s-.3-.3-.6-.5-.6-.2-1-.2-.9.1-1.3.4c-.4.2-.7.6-.9 1l-1.8-.8c.2-.4.4-.8.7-1.1s.6-.5 1-.7c.4-.2.8-.3 1.2-.4.4 0 .9-.1 1.3-.1s1.1 0 1.6.2c.5.1.9.4 1.3.7.4.3.6.7.8 1.1s.3 1 .3 1.6v6.3h-2.3v-1.2zm-1.2-3.2h-.9c-.3 0-.6 0-.9.2s-.5.3-.7.5-.3.5-.3.9 0 .4.1.6.2.3.3.4c.1 0 .3.2.5.2h.6c.2 0 .6 0 .9-.1.3 0 .5-.2.8-.3l.6-.6c.1-.2.2-.5.2-.9v-.9h-1.2zM218.6 33.8h2.3v1.8c.3-.7.8-1.2 1.3-1.5s1.2-.5 1.9-.5v2.2c-.5 0-.9 0-1.3.1-.4 0-.7.2-1 .4s-.5.5-.7.8c-.2.3-.2.8-.2 1.3v5h-2.3v-9.7zM228.7 42.6l-3.8-8.7h2.5l2.6 6.2 2.4-6.2h2.3l-5.4 13H227l1.8-4.3z"/><g><rect x="26.8" y="17.6" width="39.7" height="39.7" rx="5" ry="5" fill="#ffc740"/><path d="M56.8 34c-.6-2.1-1.8-4-3.6-5.3l.7-1.3-2.2-1.1-.6 1.2c-2-.8-4.2-1-6.3-.4-2.5.7-4.6 2.3-6 4.6l-.6 1.1 7.4 4.3-4.8 8.4-1.3-.7 1.2-2.1-2.1-1.2-2.5 4.3 5.6 3.1 6-10.5 3.5 2 4 2.3.6-1.1c1.3-2.3 1.7-4.9 1-7.5zm-5.2-1.5c-.1 1.3-.6 2.8-1.3 4.2l-1.5-.9-3.2-1.8c.9-1.4 2-2.5 3-3.2 1-.7 1.9-1 2.4-.7.5.3.7 1.2.5 2.4zm-4.8-3.3c-1.2.9-2.3 2.2-3.3 3.7l-1.8-1c1.3-1.6 3.2-2.5 5.1-2.6zm7.5 9.9l-1.8-1c.8-1.6 1.3-3.2 1.5-4.7.8 1.8 1 3.8.3 5.8z"/></g><g><rect x="12.5" y="125.6" width="315" height="254.1" rx="14.6" ry="14.6" fill="#ffefe7"/><path d="M54.2 319.7c-.5 0-.9-.1-1.2-.4-.3-.3-.6-.7-.8-1.2-.2-.5-.3-1.1-.3-1.8s0-1.3.3-1.8c.2-.5.4-.9.8-1.2.3-.3.8-.4 1.2-.4s.9.1 1.2.4c.3.3.6.7.8 1.2.2.5.3 1.1.3 1.8s0 1.3-.3 1.8c-.2.5-.4.9-.8 1.2-.3.3-.8.4-1.2.4zm0-.7c.5 0 .9-.2 1.1-.7.3-.5.4-1.1.4-2s0-1.1-.2-1.5c-.1-.4-.3-.7-.5-.9-.2-.2-.5-.3-.8-.3-.5 0-.9.2-1.1.7-.3.5-.4 1.1-.4 2s0 1.1.2 1.5c.1.4.3.7.5.9.2.2.5.3.8.3zM43 289c-.4 0-.8 0-1.1-.2-.3-.1-.6-.3-.8-.6-.2-.3-.3-.6-.3-.9h.8c0 .2 0 .4.2.6.1.2.3.3.5.4s.4.1.7.1.5 0 .8-.1c.2 0 .4-.2.5-.4.1-.2.2-.4.2-.6s0-.5-.2-.6c-.1-.2-.3-.3-.5-.4-.2-.1-.5-.2-.9-.2h-.5v-.7h.5c.3 0 .5 0 .7-.1.2 0 .4-.2.5-.4.1-.2.2-.4.2-.6s0-.4-.1-.6c0-.2-.2-.3-.4-.4-.2 0-.4-.1-.6-.1s-.4 0-.6.1c-.2 0-.4.2-.5.4-.1.2-.2.3-.2.6h-.8c0-.3.1-.6.3-.9.2-.3.5-.5.8-.6.3-.1.7-.2 1-.2s.8 0 1.1.2c.3.2.5.4.7.6.2.3.2.6.2.9s0 .7-.3 1c-.2.3-.5.4-.8.5.4.1.7.3 1 .6.2.3.4.6.4 1.1s0 .7-.3 1c-.2.3-.5.5-.8.7-.3.2-.7.2-1.1.2zm5.7 0c-.5 0-.9-.1-1.2-.4-.3-.3-.6-.7-.8-1.2-.2-.5-.3-1.1-.3-1.8s0-1.3.3-1.8c.2-.5.4-.9.8-1.2.3-.3.8-.4 1.2-.4s.9.1 1.2.4c.3.3.6.7.8 1.2.2.5.3 1.1.3 1.8s0 1.3-.3 1.8c-.2.5-.4.9-.8 1.2-.3.3-.8.4-1.2.4zm0-.7c.5 0 .9-.2 1.1-.7.3-.5.4-1.1.4-2s0-1.1-.2-1.5c-.1-.4-.3-.7-.5-.9-.2-.2-.5-.3-.8-.3-.5 0-.9.2-1.1.7-.3.5-.4 1.1-.4 2s0 1.1.2 1.5c.1.4.3.7.5.9.2.2.5.3.8.3zm3.5.6v-6.6h.8v3.3l3-3.3h1l-2.8 3 2.8 3.6h-1l-2.3-3.1-.8.9v2.1h-.8zM43.1 258.4c-.3 0-.5 0-.8-.2-.3 0-.5-.3-.7-.5-.2-.2-.4-.6-.5-1-.1-.4-.2-.9-.2-1.5s0-1.1.2-1.6c.1-.5.3-.8.5-1.1.2-.3.5-.5.8-.7.3-.2.6-.2 1-.2s.7 0 1 .2c.3.1.5.4.7.6.2.3.3.6.4.9h-.8c0-.3-.2-.5-.4-.7-.2-.2-.5-.3-.8-.3-.5 0-.9.2-1.2.7-.3.4-.4 1.1-.4 1.9.1-.2.3-.3.4-.5l.6-.3c.2 0 .4-.1.6-.1.4 0 .7 0 1 .3.3.2.6.4.8.8.2.3.3.7.3 1.1s0 .8-.3 1.1c-.2.3-.4.6-.8.8-.3.2-.7.3-1.2.3zm0-.8c.3 0 .5 0 .7-.2.2-.1.4-.3.5-.5.1-.2.2-.5.2-.8s0-.5-.2-.7c-.1-.2-.3-.4-.5-.5-.2-.1-.5-.2-.7-.2s-.4 0-.6.1c-.2 0-.3.2-.5.3-.1.1-.2.3-.3.5 0 .2-.1.4-.1.6s0 .5.2.7c.1.2.3.4.5.6.2.1.5.2.7.2zm5.6.8c-.5 0-.9-.1-1.2-.4-.3-.3-.6-.7-.8-1.2-.2-.5-.3-1.1-.3-1.8s0-1.3.3-1.8c.2-.5.4-.9.8-1.2.3-.3.8-.4 1.2-.4s.9.1 1.2.4c.3.3.6.7.8 1.2.2.5.3 1.1.3 1.8s0 1.3-.3 1.8c-.2.5-.4.9-.8 1.2-.3.3-.8.4-1.2.4zm0-.8c.5 0 .9-.2 1.1-.7.3-.5.4-1.1.4-2s0-1.1-.2-1.5c-.1-.4-.3-.7-.5-.9-.2-.2-.5-.3-.8-.3-.5 0-.9.2-1.1.7-.3.5-.4 1.1-.4 2s0 1.1.2 1.5c.1.4.3.7.5.9.2.2.5.3.8.3zm3.5.7v-6.6h.8v3.3l3-3.3h1l-2.8 3 2.8 3.6h-1l-2.3-3.1-.8.9v2.1h-.8zM39.9 221v6.6h-.8v-5.8l-1.6 1.1v-.8l1.7-1.1h.8zm1.8 6.6v-.6l2.2-2.4c.3-.3.5-.5.6-.7.2-.2.3-.4.4-.6 0-.2.1-.4.1-.6s0-.4-.2-.6c-.1-.2-.3-.3-.5-.4-.2 0-.4-.1-.6-.1s-.5 0-.7.2c-.2.1-.3.2-.4.4-.1.2-.2.4-.2.7h-.8c0-.4 0-.7.3-1 .2-.3.4-.5.7-.7.3-.2.7-.2 1-.2s.7 0 1 .2c.3.2.5.4.7.7.2.3.3.6.3.9s0 .5-.1.7c0 .2-.2.5-.5.8-.2.3-.5.6-.9 1l-1.5 1.6h3.1v.7h-4.2zm7.5.1c-.5 0-.9-.1-1.2-.4-.3-.3-.6-.7-.8-1.2-.2-.5-.3-1.1-.3-1.8s0-1.3.3-1.8c.2-.5.4-.9.8-1.2.3-.3.8-.4 1.2-.4s.9.1 1.2.4c.3.3.6.7.8 1.2.2.5.3 1.1.3 1.8s0 1.3-.3 1.8c-.2.5-.4.9-.8 1.2-.3.3-.8.4-1.2.4zm0-.7c.5 0 .9-.2 1.1-.7s.4-1.1.4-2 0-1.1-.2-1.5c-.1-.4-.3-.7-.5-.9-.2-.2-.5-.3-.8-.3-.5 0-.9.2-1.1.7-.3.5-.4 1.1-.4 2s0 1.1.2 1.5c.1.4.3.7.5.9.2.2.5.3.8.3zm3.6.6V221h.8v3.3l3-3.3h1l-2.8 3 2.8 3.6h-1l-2.3-3.1-.8.9v2.1h-.8z" fill="#666"/><path d="M36.9 154.1h4.6c.7 0 1.4 0 2 .2.6.1 1.1.4 1.6.7.4.3.8.8 1.1 1.3.3.5.4 1.2.4 1.9s-.2 1.5-.5 2.1c-.3.5-.7 1-1.2 1.3-.5.3-1.1.5-1.8.6-.7.1-1.3.2-2.1.2h-1.5v5h-2.6v-13.3zm4.6 6.5c.8 0 1.4-.2 1.8-.5.4-.4.7-.9.7-1.7s0-.8-.2-1.1c-.1-.3-.3-.5-.5-.7-.2-.2-.5-.3-.8-.4-.3 0-.6-.1-1-.1h-2v4.5h2zm11.7 5.6c-.4.5-.8.8-1.3 1.1-.5.2-1.1.3-1.7.3s-.9 0-1.3-.2c-.4-.1-.7-.3-1-.5-.3-.2-.5-.5-.7-.9-.2-.4-.3-.8-.3-1.3s0-.8.2-1.2c.2-.3.4-.6.6-.8l.9-.6c.3-.1.7-.3 1.1-.3.4 0 .8-.1 1.2-.2h2.3v-.2-.9c0-.3-.1-.5-.3-.7-.1-.2-.3-.4-.6-.5-.2-.1-.6-.2-1-.2s-.9.1-1.3.4c-.4.2-.7.6-.9 1l-1.8-.8c.2-.4.4-.8.7-1.1.3-.3.6-.5 1-.7.4-.2.8-.3 1.2-.4.4 0 .9-.1 1.3-.1s1.1 0 1.6.2c.5.1.9.4 1.3.6.4.3.6.7.8 1.1.2.4.3 1 .3 1.6v6.4h-2.3v-1.2zm-1.2-3.1h-.9c-.3 0-.6 0-.9.2-.3.1-.5.3-.7.5-.2.2-.3.5-.3.9s0 .4.1.6c0 .2.2.3.3.4.1.1.3.2.5.2h.6c.2 0 .6 0 .9-.1.3 0 .5-.2.8-.4l.6-.6c.1-.2.2-.5.2-.9v-.9H52zm8.4 3.3l-3.8-8.7h2.5l2.6 6.2 2.4-6.2h2.3l-5.3 13.1h-2.3l1.8-4.3zm7.2-8.7h2.3v1.8c.3-.7.8-1.2 1.3-1.5.5-.3 1.2-.5 1.9-.5v2.2c-.5 0-.9 0-1.3.1-.4 0-.7.2-1 .4-.3.2-.5.5-.7.8-.2.3-.2.8-.2 1.3v5h-2.3v-9.7zm6 4.9c0-.8.1-1.5.4-2.1.3-.6.7-1.2 1.2-1.6.5-.4 1.1-.8 1.7-1 .7-.2 1.4-.4 2.1-.4s1.4.1 2.1.4c.6.2 1.2.6 1.7 1s.8 1 1.1 1.6c.3.6.4 1.3.4 2s-.1 1.5-.4 2.1c-.3.6-.7 1.2-1.1 1.6-.5.4-1 .8-1.7 1-.6.2-1.3.4-2.1.4s-1.4-.1-2.1-.4c-.6-.2-1.2-.6-1.7-1s-.9-1-1.1-1.6c-.3-.6-.4-1.3-.4-2zm5.4 3.2c.5 0 .9 0 1.2-.3.4-.2.6-.4.9-.7.2-.3.4-.7.5-1 .1-.4.2-.8.2-1.2s0-.9-.2-1.3c-.1-.4-.3-.7-.5-1-.2-.3-.5-.5-.9-.7-.4-.2-.8-.3-1.2-.3s-.9 0-1.3.3c-.3.2-.6.4-.8.7-.2.3-.4.7-.5 1.1-.1.4-.2.8-.2 1.3s0 .8.2 1.2c.1.4.3.7.5 1 .2.3.5.5.9.7.4.2.8.3 1.2.3zm6.9-12l2.3-1v14.7h-2.3v-13.7zm4.8 0l2.3-1v14.7h-2.3v-13.7zm20.5 10c-.2.6-.5 1.2-.9 1.7s-.8.9-1.3 1.2c-.5.3-1.1.6-1.7.7-.6.2-1.2.2-1.9.2-1.1 0-2-.2-2.9-.5-.8-.3-1.5-.8-2.1-1.4-.6-.6-1-1.3-1.3-2.2-.3-.9-.4-1.8-.4-2.8s.2-1.8.5-2.7c.3-.8.8-1.5 1.3-2.1.6-.6 1.3-1.1 2.1-1.4.8-.4 1.7-.5 2.7-.5s1.2 0 1.8.2c.6.2 1.1.4 1.6.7.5.3.9.7 1.3 1.1.4.4.7 1 1 1.6l-2.1.9c-.1-.4-.3-.7-.6-1-.2-.3-.5-.6-.8-.8-.3-.2-.6-.4-1-.5-.4-.1-.7-.2-1.1-.2-.7 0-1.3.1-1.8.4-.5.3-.9.6-1.2 1.1-.3.5-.6 1-.7 1.6-.2.6-.2 1.2-.2 1.8s0 1.2.2 1.8c.2.6.4 1.1.7 1.5.3.4.8.8 1.3 1 .5.3 1.1.4 1.8.4s.8 0 1.2-.2c.4-.1.7-.3 1-.5.3-.2.6-.5.8-.8.2-.3.4-.7.6-1.1l2.1.9zm.6-1.2c0-.8.1-1.5.4-2.1.3-.6.7-1.2 1.2-1.6.5-.4 1.1-.8 1.7-1 .7-.2 1.4-.4 2.1-.4s1.4.1 2.1.4c.6.2 1.2.6 1.7 1s.8 1 1.1 1.6c.3.6.4 1.3.4 2s-.1 1.5-.4 2.1c-.3.6-.7 1.2-1.1 1.6-.5.4-1 .8-1.7 1-.6.2-1.3.4-2.1.4s-1.4-.1-2.1-.4c-.6-.2-1.2-.6-1.7-1s-.9-1-1.1-1.6c-.3-.6-.4-1.3-.4-2zm5.4 3.2c.5 0 .9 0 1.2-.3.4-.2.6-.4.9-.7.2-.3.4-.7.5-1 .1-.4.2-.8.2-1.2s0-.9-.2-1.3c-.1-.4-.3-.7-.5-1-.2-.3-.5-.5-.9-.7-.4-.2-.8-.3-1.2-.3s-.9 0-1.3.3c-.3.2-.6.4-.8.7-.2.3-.4.7-.5 1.1-.1.4-.2.8-.2 1.3s0 .8.2 1.2c.1.4.3.7.5 1 .2.3.5.5.9.7.4.2.8.3 1.2.3zm7.8-1.3c0 .2.2.4.4.6.2.2.4.3.6.4.2.1.4.2.7.3h1.4c.2 0 .4 0 .5-.2.2 0 .3-.2.4-.4.1-.2.2-.3.2-.6s0-.4-.2-.6c-.1-.2-.3-.3-.5-.4-.2-.1-.4-.2-.7-.3-.3 0-.6-.1-.9-.2-.4 0-.8-.2-1.2-.3-.4-.1-.7-.3-1.1-.5-.3-.2-.6-.5-.8-.8-.2-.3-.3-.8-.3-1.3s.1-.9.3-1.3c.2-.4.5-.7.8-.9.3-.2.7-.4 1.2-.5.4-.1.9-.2 1.3-.2s.8 0 1.2.1c.4 0 .8.2 1.1.4.4.2.7.4 1 .7.3.3.5.6.7 1l-1.7.7c0-.2-.2-.4-.4-.5-.2-.2-.3-.3-.5-.4-.2 0-.4-.2-.6-.2h-1.2c-.2 0-.3 0-.5.2-.1 0-.3.2-.3.3 0 .1-.1.3-.1.5s0 .4.2.6c.1.1.3.3.5.4.2 0 .4.2.7.2.3 0 .5.1.8.2.4 0 .8.2 1.2.3.4.1.8.3 1.1.5.3.2.6.5.8.8.2.3.3.8.3 1.4s-.1 1.1-.3 1.5c-.2.4-.5.7-.9 1-.4.2-.8.4-1.3.5-.5.1-1 .2-1.5.2s-.9 0-1.3-.1c-.4 0-.8-.2-1.2-.4-.4-.2-.7-.4-1-.7-.3-.3-.5-.7-.7-1.1l1.8-.8zm12.9 2.8c-.3 0-.5.1-.8.2h-.8c-.9 0-1.6-.2-2.2-.7-.5-.5-.8-1.2-.8-2.2v-5.3H132v-1.7h1.3v-2l2.3-1v3h2.1v1.7h-2.1v5.1c0 .4 0 .7.3.9.2.2.5.3.9.3h.5c.2 0 .4 0 .5-.1v1.8zm6.7-3.9c.1.4.3.7.6 1 .2.3.5.5.8.7.3.2.6.3 1 .4.4 0 .7.1 1.2.1s.6 0 .9-.1c.3 0 .6-.2.8-.4l.6-.6c.2-.3.2-.6.2-.9s0-.7-.3-.9c-.2-.2-.4-.4-.7-.6-.3-.1-.6-.3-1-.3s-.8-.2-1.2-.2c-.5 0-1-.2-1.5-.3-.5-.1-1-.3-1.4-.6-.4-.3-.7-.6-1-1.1-.3-.5-.4-1.1-.4-1.8s.1-1.2.4-1.7c.3-.5.6-.9 1-1.2.4-.3.9-.6 1.5-.7.6-.2 1.1-.2 1.7-.2s1 0 1.5.2c.5.1.9.3 1.4.5.4.2.8.5 1.1.9.3.4.6.8.8 1.3l-1.9.9c-.3-.6-.7-1-1.2-1.4-.5-.3-1.1-.5-1.8-.5h-.8c-.3 0-.5.2-.7.3-.2.1-.4.3-.5.5-.1.2-.2.5-.2.8s0 .6.2.9c.2.2.4.4.6.5.3.1.6.3.9.3.4 0 .7.2 1.1.2.4 0 .7.1 1.1.2.4 0 .7.2 1 .3.3.1.6.3.9.4.3.2.5.4.8.7.2.3.4.6.5 1 .1.4.2.8.2 1.3s-.1 1.3-.4 1.8c-.3.5-.7.9-1.1 1.3-.5.3-1 .6-1.6.8-.6.2-1.2.3-1.8.3s-1.2 0-1.8-.2c-.6-.1-1.1-.3-1.6-.6s-.9-.6-1.3-1-.6-.9-.8-1.6l2-.9zm16.7 2.5c-.2.3-.3.6-.6.8-.2.2-.5.4-.8.5l-.9.3h-1c-.6 0-1 0-1.5-.3-.4-.2-.8-.4-1.1-.7-.3-.3-.5-.7-.6-1.2-.1-.5-.2-1-.2-1.5v-6.2h2.3v5.9c0 .7.2 1.2.5 1.6.3.4.8.6 1.5.6s.7 0 1-.2c.3-.1.5-.3.7-.5.2-.2.4-.5.5-.7.1-.3.2-.6.2-1v-5.8h2.3v9.7h-2.3v-1.5zm4.7-8.2h2.3v1.5c.1-.3.3-.5.5-.7.2-.2.5-.4.7-.5.3-.1.5-.3.8-.3.3 0 .6-.1.9-.1h.9c.3 0 .6.2.8.3.3.1.5.3.7.5.2.2.3.5.5.8.4-.6.9-1 1.5-1.3.6-.3 1.2-.5 1.9-.5s1 0 1.5.3.8.5 1 .8c.3.3.5.7.6 1.2.1.5.2 1 .2 1.5v6.2h-2.3v-6c0-.6-.2-1.1-.5-1.5-.3-.4-.8-.5-1.4-.5s-.6 0-.9.2c-.3.1-.5.3-.7.5-.2.2-.3.4-.4.7 0 .3-.1.6-.1.9v5.8h-2.3v-6c0-.6-.2-1.1-.5-1.5s-.8-.5-1.4-.5-.6 0-.9.2c-.3.1-.5.3-.7.5-.2.2-.3.4-.4.7 0 .3-.1.6-.1.9v5.8h-2.3v-9.7zm17.1 0h2.3v1.5c.1-.3.3-.5.5-.7.2-.2.5-.4.7-.5.3-.1.5-.3.8-.3.3 0 .6-.1.9-.1h.9c.3 0 .6.2.8.3.3.1.5.3.7.5.2.2.3.5.5.8.4-.6.9-1 1.5-1.3.6-.3 1.2-.5 1.9-.5s1 0 1.5.3.8.5 1 .8c.3.3.5.7.6 1.2.1.5.2 1 .2 1.5v6.2h-2.3v-6c0-.6-.2-1.1-.5-1.5-.3-.4-.8-.5-1.4-.5s-.6 0-.9.2c-.3.1-.5.3-.7.5-.2.2-.3.4-.4.7 0 .3-.1.6-.1.9v5.8h-2.3v-6c0-.6-.2-1.1-.5-1.5s-.8-.5-1.4-.5-.6 0-.9.2c-.3.1-.5.3-.7.5-.2.2-.3.4-.4.7 0 .3-.1.6-.1.9v5.8H183v-9.7zm22.7 8.5c-.4.5-.8.8-1.3 1.1-.5.2-1.1.3-1.7.3s-.9 0-1.3-.2c-.4-.1-.7-.3-1-.5-.3-.2-.5-.5-.7-.9-.2-.4-.3-.8-.3-1.3s0-.8.2-1.2c.2-.3.4-.6.6-.8l.9-.6c.3-.1.7-.3 1.1-.3.4 0 .8-.1 1.2-.2h2.3v-.2-.9c0-.3-.1-.5-.3-.7-.1-.2-.3-.4-.6-.5-.2-.1-.6-.2-1-.2s-.9.1-1.3.4c-.4.2-.7.6-.9 1l-1.8-.8c.2-.4.4-.8.7-1.1.3-.3.6-.5 1-.7.4-.2.8-.3 1.2-.4.4 0 .9-.1 1.3-.1s1.1 0 1.6.2c.5.1.9.4 1.3.6.4.3.6.7.8 1.1.2.4.3 1 .3 1.6v6.4h-2.3v-1.2zm-1.2-3.1h-.9c-.3 0-.6 0-.9.2-.3.1-.5.3-.7.5-.2.2-.3.5-.3.9s0 .4.1.6c0 .2.2.3.3.4.1.1.3.2.5.2h.6c.2 0 .6 0 .9-.1.3 0 .5-.2.8-.4l.6-.6c.1-.2.2-.5.2-.9v-.9h-1.2zm5.8-5.4h2.3v1.8c.3-.7.8-1.2 1.3-1.5.5-.3 1.2-.5 1.9-.5v2.2c-.5 0-.9 0-1.3.1-.4 0-.7.2-1 .4-.3.2-.5.5-.7.8-.2.3-.2.8-.2 1.3v5h-2.3v-9.7zm10 8.7l-3.8-8.7h2.5l2.5 6.2 2.4-6.2h2.3l-5.3 13.1h-2.3l1.8-4.3z"/><path fill="none" stroke="#4c4c4c" stroke-width=".4" d="M68.5 340.6h229.6M68.2 340.5V203.7M297.8 340.5V203.7M240.4 340.5V203.7M183 340.5V203.7M125.6 340.5V203.7"/><path fill="#c7c7c1" d="M68.5 216.5h106.6v14.1H68.5zM68.5 246.8h116.1v14.1H68.5z"/><path fill="#fd7459" d="M68.5 277.2h128v14.1h-128z"/><path fill="#c7c7c1" d="M68.5 307.5h106.6v14.1H68.5z"/><rect x="166.8" y="236.1" width="144.4" height="96.4" rx="4.2" ry="4.2" fill="#f5f5f2"/><rect x="166.8" y="236.1" width="144.4" height="96.4" rx="4.2" ry="4.2" fill="#363636"/><rect x="166.3" y="235.5" width="145.6" height="97.5" rx="4.8" ry="4.8" fill="none" stroke="#edecea" stroke-width=".8"/><path d="M182 251.5h1l3 5v-5h.7v6.1h-.9l-3.2-5.2v5.2h-.7v-6.1zm9.8 5c-.2.4-.5.6-.8.8-.3.2-.7.3-1.1.3s-.6 0-.9-.2c-.3-.1-.5-.3-.7-.5-.2-.2-.3-.4-.4-.7 0-.3-.1-.6-.1-.9s0-.6.1-.9c0-.3.2-.5.4-.7.2-.2.4-.4.7-.5.3-.1.5-.2.9-.2s.7 0 .9.2c.3.1.5.3.6.5.2.2.3.5.3.8 0 .3.1.6.1.9h-3.3v.6c0 .2.2.4.3.5.1.1.3.3.4.3.2 0 .4.1.6.1h.4c.1 0 .2 0 .3-.2.1 0 .2-.2.3-.2 0 0 .2-.2.2-.3l.7.3zm-.6-1.6c0-.4-.1-.7-.3-.9-.2-.2-.5-.3-.9-.3h-.5c-.2 0-.3.2-.4.3-.1.1-.2.3-.3.4 0 .2-.1.3-.1.5h2.6zm3.7 2.6h-.6c-.4 0-.7 0-.9-.3-.2-.2-.3-.5-.3-.9v-2.7h-.6v-.6h.6v-.8l.7-.3v1.1h1v.6h-1v3.2s.1.1.2.1h.8v.6zm2.8-6h1.9c.3 0 .6 0 .8.1.3 0 .5.2.7.3.2.1.3.3.5.6.1.2.2.5.2.8s0 .5-.1.7c0 .2-.2.4-.3.5-.1.1-.3.2-.5.3-.2 0-.4.1-.6.2H198.5v2.5h-.7v-6.1zm2 3c.4 0 .7 0 1-.3.2-.2.4-.5.4-.9v-.6c0-.2-.1-.3-.3-.4-.1 0-.3-.2-.4-.2H198.6v2.4h1.2zm5.5 2.5c-.2.2-.4.4-.6.5-.3.1-.5.2-.8.2h-.6c-.2 0-.3-.1-.5-.2-.1-.1-.2-.2-.3-.4 0-.2-.1-.4-.1-.6s0-.4.1-.6c0-.2.2-.3.3-.4.1-.1.3-.2.5-.2s.4 0 .6-.1h1.3v-.6c0-.2 0-.3-.2-.4 0-.1-.2-.2-.3-.3h-.9c-.1 0-.2 0-.3.2 0 0-.2.1-.3.2 0 0-.1.2-.2.3l-.6-.3c0-.2.2-.3.3-.5.1-.1.3-.3.4-.3s.3-.2.5-.2h.6c.2 0 .5 0 .7.1.2 0 .4.2.5.3.2.1.3.3.4.5 0 .2.1.4.1.7v2.9h-.7v-.6zm-.6-1.6H203.7c-.1 0-.2 0-.3.2l-.2.2v.6s0 .2.2.2c0 0 .2.1.3.1h.8c.2 0 .3-.1.4-.2.1 0 .2-.2.3-.3 0-.1.1-.3.1-.5v-.6h-.6zm3.8 1.7l-1.7-4h.8l1.3 3.2 1.2-3.2h.7l-2.5 6h-.7l.8-2zM251.7 257.2l2.7-4.3h1.5v3.9h.8v.9h-.8v1.3h-1.1v-1.3h-3v-.4zm3-.4v-3.1l-1.8 3.1h1.8zm3.5.4c0 .3.2.5.4.7.2.1.4.2.8.2h.5c.1 0 .3-.1.4-.2 0-.1.2-.2.2-.4v-.5-.5c0-.1-.1-.3-.2-.4 0-.1-.2-.2-.4-.2h-.5c-.2 0-.5 0-.7.1-.2 0-.4.2-.5.4h-.6V253h3.8v.9h-2.8v1.6c.2-.2.4-.3.6-.4.2 0 .5-.1.7-.1s.6 0 .8.2c.2.1.4.2.6.4.2.2.3.4.4.6 0 .2.1.5.1.8s0 .6-.2.9c-.1.3-.3.5-.5.7-.2.2-.4.3-.7.4-.3 0-.6.1-.9.1h-.7c-.2 0-.4-.1-.6-.2-.2-.1-.4-.3-.5-.4-.1-.2-.2-.4-.3-.7l.9-.4zm4.9.5l1 .4-1.1 1.9-.7-.3.8-2zm1.6.8l2.3-2.2c.1-.1.2-.2.3-.4.1-.1.2-.3.3-.4 0-.1.2-.3.2-.5v-.5c0-.3 0-.5-.2-.7-.2-.2-.4-.2-.7-.2h-.5c-.1 0-.3.1-.4.3 0 .1-.2.2-.3.4 0 .1-.1.3-.2.4l-.9-.4c0-.3.2-.5.3-.7.1-.2.3-.4.5-.5l.6-.3c.2 0 .5-.1.8-.1s.5 0 .8.1c.2 0 .5.2.6.3.2.1.3.3.4.6.1.2.2.5.2.8v.7c0 .2-.1.4-.3.6-.1.2-.2.4-.4.5-.1.2-.3.3-.5.5l-1.4 1.3h2.7v.9h-4.5v-.5zm6.3-2.8c-.3-.1-.5-.3-.7-.5-.2-.2-.2-.5-.2-.8s0-.5.2-.7c.1-.2.3-.4.5-.5.2-.1.4-.2.7-.3.2 0 .5-.1.7-.1h.7c.2 0 .5.2.7.3.2.1.4.3.5.5.1.2.2.4.2.7v.4c0 .1-.1.2-.2.4 0 .1-.2.2-.3.3-.1 0-.2.2-.4.2.4.1.6.3.8.6.2.3.3.6.3 1s0 .6-.2.8c-.1.2-.3.4-.5.6-.2.1-.5.3-.7.3-.3 0-.6.1-.8.1s-.6 0-.8-.1c-.3 0-.5-.2-.7-.3-.2-.1-.4-.3-.5-.6-.1-.2-.2-.5-.2-.8s.1-.7.3-1c.2-.3.5-.5.8-.6zm.2-1.2v.4c0 .1.1.2.2.3 0 0 .2.1.3.2h.8c.1 0 .2 0 .3-.2 0 0 .1-.2.2-.3v-.4-.4c0-.1-.1-.2-.2-.3 0 0-.2-.1-.3-.2h-.8c-.1 0-.2 0-.3.2 0 0-.2.2-.2.3v.4zm-.2 2.6v.4c0 .1.1.2.2.3.1 0 .2.2.4.2h.8c.1 0 .3-.1.4-.2.1 0 .2-.2.2-.3v-.4-.4c0-.1-.1-.2-.2-.3 0 0-.2-.2-.4-.2h-.8c-.1 0-.3.1-.4.2-.1 0-.2.2-.2.3v.4zm6.9 1.9c-.5 0-.9 0-1.3-.3-.3-.2-.6-.4-.8-.7-.2-.3-.3-.6-.4-1s-.1-.8-.1-1.3 0-.8.2-1.1c.1-.4.3-.7.5-.9.2-.3.5-.5.8-.7.3-.2.7-.2 1.2-.2s.6 0 .8.1c.3 0 .5.2.7.3.2.1.4.3.5.5.1.2.2.4.3.7 0 .2.1.5.2.8v.8c0 .4 0 .8-.2 1.1-.1.4-.3.7-.5 1-.2.3-.5.5-.8.6-.3.2-.7.2-1.1.2zm0-.9c.2 0 .4 0 .6-.1.2 0 .3-.2.4-.3.1-.1.2-.3.2-.4 0-.2.1-.3.1-.5v-.5-.5-.7c0-.2-.1-.5-.2-.7-.1-.2-.3-.4-.4-.5-.2-.1-.4-.2-.7-.2s-.4 0-.6.1c-.2 0-.3.2-.4.3-.1.1-.2.3-.2.4 0 .2-.1.3-.1.5v1.7c0 .2.1.5.2.7.1.2.3.4.4.5.2.1.4.2.7.2zm3.2.2v-.3s0-.2.1-.2c0 0 .1-.1.2-.1h.6s.2 0 .2.1c0 0 .1.1.1.2v.6s0 .2-.1.2c0 0-.1.1-.2.1h-.6s-.2 0-.2-.1c0 0-.1-.1-.1-.2v-.3zm4.6.7c-.5 0-.9 0-1.3-.3-.3-.2-.6-.4-.8-.7-.2-.3-.3-.6-.4-1 0-.4-.1-.8-.1-1.3s0-.8.2-1.1c.1-.4.3-.7.5-.9.2-.3.5-.5.8-.7.3-.2.7-.2 1.2-.2s.6 0 .8.1c.3 0 .5.2.7.3.2.1.4.3.5.5.1.2.2.4.3.7 0 .2.1.5.2.8v.8c0 .4 0 .8-.2 1.1-.1.4-.3.7-.5 1-.2.3-.5.5-.8.6-.3.2-.7.2-1.1.2zm.1-.9c.2 0 .4 0 .6-.1.2 0 .3-.2.4-.3.1-.1.2-.3.2-.4 0-.2 0-.3.1-.5v-.5-.5-.7c0-.2-.1-.5-.2-.7-.1-.2-.3-.4-.4-.5-.2-.1-.4-.2-.7-.2s-.4 0-.6.1c-.2 0-.3.2-.4.3-.1.1-.2.3-.2.4 0 .2-.1.3-.1.5v1.7c0 .2.1.5.2.7.1.2.3.4.4.5.2.1.4.2.7.2zm6 .9c-.5 0-.9 0-1.3-.3-.3-.2-.6-.4-.8-.7-.2-.3-.3-.6-.4-1 0-.4-.1-.8-.1-1.3s0-.8.2-1.1c.1-.4.3-.7.5-.9.2-.3.5-.5.8-.7.3-.2.7-.2 1.2-.2s.6 0 .8.1c.3 0 .5.2.7.3.2.1.4.3.5.5.1.2.2.4.3.7 0 .2.1.5.2.8v.8c0 .4 0 .8-.2 1.1-.1.4-.3.7-.5 1-.2.3-.5.5-.8.6-.3.2-.7.2-1.1.2zm0-.9c.2 0 .4 0 .6-.1.2 0 .3-.2.4-.3.1-.1.2-.3.2-.4 0-.2 0-.3.1-.5v-.5-.5-.7c0-.2-.1-.5-.2-.7-.1-.2-.3-.4-.4-.5-.2-.1-.4-.2-.7-.2s-.4 0-.6.1c-.2 0-.3.2-.4.3-.1.1-.2.3-.2.4 0 .2-.1.3-.1.5v1.7c0 .2.1.5.2.7.1.2.3.4.4.5.2.1.4.2.7.2zM183.2 273.4h-1.8v-.6h4.3v.6h-1.8v5.5h-.7v-5.5zm5.7 5c-.2.2-.4.4-.6.5-.3.1-.5.2-.8.2h-.6c-.2 0-.3-.1-.5-.2-.1-.1-.2-.2-.3-.4 0-.2-.1-.4-.1-.6s0-.4.1-.6c0-.2.2-.3.3-.4.1-.1.3-.2.5-.2s.4 0 .6-.1h1.3v-.6c0-.2 0-.3-.2-.4 0-.1-.2-.2-.3-.3h-.9c-.1 0-.2 0-.3.2 0 0-.2.1-.3.2 0 0-.1.2-.2.3l-.6-.3c0-.2.2-.3.3-.5.1-.1.3-.3.4-.3.2 0 .3-.2.5-.2h.6c.2 0 .5 0 .7.1.2 0 .4.2.5.3.2.1.3.3.4.5 0 .2.1.4.1.7v2.9h-.7v-.6zm-.6-1.6H187.4c-.1 0-.2 0-.3.2l-.2.2v.6s0 .2.2.2c0 0 .2 0 .3.1h.8c.2 0 .3-.1.4-.2.1 0 .2-.2.3-.3 0-.1.1-.3.1-.5v-.6h-.6zm3.8-.2l-1.5-2.2h.8l1.1 1.6 1.1-1.6h.8l-1.5 2.1 1.6 2.3h-.8l-1.2-1.8-1.2 1.8h-.8l1.6-2.3zm6.9 1.3c-.2.4-.5.6-.8.8-.3.2-.7.3-1.1.3s-.6 0-.9-.2c-.3-.1-.5-.3-.7-.5-.2-.2-.3-.5-.4-.7 0-.3-.1-.6-.1-.9s0-.6.1-.9c0-.3.2-.5.4-.7.2-.2.4-.4.7-.5.3-.1.5-.2.9-.2s.7 0 .9.2c.3.1.5.3.6.5.2.2.3.5.3.8 0 .3.1.6.1.9h-3.3v.6c0 .2.2.4.3.5.1.1.3.3.4.3.2 0 .4.1.6.1h.4c.1 0 .2 0 .3-.2.1 0 .2-.2.3-.2 0 0 .2-.2.2-.3l.7.3zm-.7-1.6c0-.4-.1-.7-.3-.9-.2-.2-.5-.3-.9-.3h-.5c-.2 0-.3.2-.4.3-.1.1-.2.3-.3.4 0 .2-.1.3-.1.5h2.6zm2 1.3c0 .3.2.5.4.6.2.1.4.2.7.2h.4c.1 0 .2 0 .3-.1 0 0 .2-.1.2-.2v-.3-.3s-.1-.2-.2-.2c0 0-.2-.1-.3-.1-.1 0-.3 0-.4-.1-.2 0-.3 0-.5-.1-.2 0-.3-.1-.5-.2-.1 0-.2-.2-.3-.4 0-.1-.1-.3-.1-.6s0-.4.1-.5c0-.2.2-.3.3-.4.1-.1.3-.2.5-.2h.5c.3 0 .6 0 .9.3.3.2.5.4.7.7l-.5.2c0-.2-.2-.4-.4-.5-.2-.1-.4-.2-.6-.2h-.3s-.2 0-.3.1l-.2.2v.6s.1.2.2.2c0 0 .2 0 .3.1h.4c.2 0 .3 0 .5.1.2 0 .3.1.5.2.1 0 .3.2.3.3 0 .1.1.3.1.6s0 .4-.1.6c0 .2-.2.3-.4.4-.2.1-.3.2-.5.3h-.6c-.4 0-.8 0-1.1-.3-.3-.2-.5-.5-.6-.9l.5-.2zM260 279.9l2.3-2.2c.1-.1.2-.2.3-.4.1-.1.2-.3.3-.4 0-.1.2-.3.2-.5v-.5c0-.3 0-.5-.2-.7-.2-.2-.4-.2-.7-.2h-.5c-.1 0-.3.2-.4.3 0 .1-.2.2-.3.4 0 .1-.1.3-.2.4l-.9-.4c0-.3.2-.5.3-.7.1-.2.3-.4.5-.5l.6-.3c.2 0 .5-.1.8-.1s.5 0 .8.1c.2 0 .5.2.6.3.2.1.3.3.4.6.1.2.2.5.2.8v.7c0 .2-.1.4-.3.6-.1.2-.2.4-.4.5-.1.2-.3.3-.5.5l-1.4 1.3h2.7v.9h-4.5v-.5zm8.9-4.2c-.1-.2-.3-.4-.4-.5-.2-.1-.4-.2-.6-.2s-.5 0-.7.2c-.2.1-.3.3-.4.5-.1.2-.2.4-.2.7v.7c.2-.3.4-.5.7-.6.3-.1.6-.2.9-.2s.6 0 .8.1c.2 0 .5.2.6.4.2.2.3.4.4.6.1.2.2.5.2.8s0 .6-.2.9c-.1.3-.3.5-.5.6-.2.2-.4.3-.7.4-.3 0-.6.1-.9.1-.5 0-.9 0-1.2-.2-.3-.2-.6-.4-.7-.6-.2-.3-.3-.6-.4-.9 0-.4-.1-.8-.1-1.2v-.8c0-.3.1-.5.2-.8 0-.2.2-.5.3-.7.1-.2.3-.4.5-.5.2-.2.4-.3.7-.4.2 0 .5-.1.8-.1h.6c.2 0 .4.1.6.2.2 0 .3.2.5.4.1.1.3.3.4.5l-.9.4zm-1.2 3.8h.5c.1 0 .3-.1.4-.3 0-.1.2-.2.2-.4v-.5-.5c0-.1-.1-.3-.2-.4 0-.1-.2-.2-.4-.2h-1c-.1 0-.3.1-.4.2-.1 0-.2.2-.2.4v1c0 .2.1.3.2.4 0 .1.2.2.4.3h.5zm5.8-4.3h-2.9v-.9h4.3v.5l-2.2 5.6h-1.2l2.1-5.1zm4.4 5.2c-.5 0-.9 0-1.3-.3-.3-.2-.6-.4-.8-.7-.2-.3-.3-.6-.4-1 0-.4-.1-.8-.1-1.3s0-.8.2-1.1c.1-.4.3-.7.5-.9.2-.3.5-.5.8-.7.3-.2.7-.2 1.2-.2s.6 0 .8.1c.3 0 .5.2.7.3.2.1.4.3.5.5.1.2.2.4.3.7 0 .2.1.5.2.8v.8c0 .4 0 .8-.2 1.1-.1.4-.3.7-.5.9-.2.3-.5.5-.8.6-.3.2-.7.2-1.1.2zm0-.9c.2 0 .4 0 .6-.1.2 0 .3-.2.4-.3.1-.1.2-.3.2-.4 0-.2.1-.3.1-.5v-.5-.5-.7c0-.2-.1-.5-.2-.7-.1-.2-.3-.4-.4-.5-.2-.1-.4-.2-.7-.2s-.4 0-.6.1c-.2 0-.3.2-.4.3-.1.1-.2.3-.2.4 0 .2-.1.3-.1.5v1.7c0 .2.1.5.2.7.1.2.3.4.4.5.2.1.4.2.7.2zm3.2.2v-.3s0-.2.1-.2c0 0 .1-.1.2-.1h.6s.2 0 .2.1l.2.2v.6s0 .2-.2.2c0 0-.1.1-.2.1h-.6s-.2 0-.2-.1c0 0-.1-.1-.1-.2v-.3zm4.6.7c-.5 0-.9 0-1.3-.3-.3-.2-.6-.4-.8-.7-.2-.3-.3-.6-.4-1 0-.4-.1-.8-.1-1.3s0-.8.2-1.1c.1-.4.3-.7.5-.9.2-.3.5-.5.8-.7.3-.2.7-.2 1.2-.2s.6 0 .8.1c.3 0 .5.2.7.3.2.1.4.3.5.5.1.2.2.4.3.7 0 .2.1.5.2.8v.8c0 .4 0 .8-.2 1.1-.1.4-.3.7-.5.9-.2.3-.5.5-.8.6-.3.2-.7.2-1.1.2zm.1-.9c.2 0 .4 0 .6-.1.2 0 .3-.2.4-.3.1-.1.2-.3.2-.4 0-.2.1-.3.1-.5v-.5-.5-.7c0-.2-.1-.5-.2-.7-.1-.2-.3-.4-.4-.5-.2-.1-.4-.2-.7-.2s-.4 0-.6.1c-.2 0-.3.2-.4.3-.1.1-.2.3-.2.4 0 .2-.1.3-.1.5v1.7c0 .2.1.5.2.7.1.2.3.4.4.5.2.1.4.2.7.2zm6 .9c-.5 0-.9 0-1.3-.3-.3-.2-.6-.4-.8-.7-.2-.3-.3-.6-.4-1 0-.4-.1-.8-.1-1.3s0-.8.2-1.1c.1-.4.3-.7.5-.9.2-.3.5-.5.8-.7.3-.2.7-.2 1.2-.2s.6 0 .8.1c.3 0 .5.2.7.3.2.1.4.3.5.5.1.2.2.4.3.7 0 .2.1.5.2.8v.8c0 .4 0 .8-.2 1.1-.1.4-.3.7-.5.9-.2.3-.5.5-.8.6-.3.2-.7.2-1.1.2zm0-.9c.2 0 .4 0 .6-.1.2 0 .3-.2.4-.3.1-.1.2-.3.2-.4 0-.2 0-.3.1-.5v-.5-.5-.7c0-.2-.1-.5-.2-.7-.1-.2-.3-.4-.4-.5-.2-.1-.4-.2-.7-.2s-.4 0-.6.1c-.2 0-.3.2-.4.3-.1.1-.2.3-.2.4 0 .2-.1.3-.1.5v1.7c0 .2.1.5.2.7.1.2.3.4.4.5.2.1.4.2.7.2zM182 291.8h2.8c.2 0 .4.1.6.3.2.1.3.3.4.5 0 .2.1.5.1.8s0 .6-.2.8c-.2.2-.4.4-.7.5.4 0 .7.2.9.5.2.2.3.6.3 1s0 .6-.2.8c-.1.2-.2.4-.4.5l-.6.3H181.9v-6.1zm2.2 5.5h.5c.1 0 .3-.1.4-.2.1 0 .2-.2.3-.4v-.5c0-.2 0-.4-.1-.6 0-.2-.2-.3-.3-.3-.1 0-.3-.1-.4-.2h-1.9v2.3h1.5zm-.2-2.8h.5c.2 0 .3 0 .4-.2.1 0 .2-.2.2-.3v-.5-.5c0-.1-.2-.2-.3-.3-.1 0-.2-.1-.4-.1h-1.8v2.1h1.3zm7 2.4c-.2.4-.5.6-.8.8-.3.2-.7.3-1.1.3s-.6 0-.9-.2c-.3-.1-.5-.3-.7-.5-.2-.2-.3-.5-.4-.7 0-.3-.1-.6-.1-.9s0-.6.1-.9c0-.3.2-.5.4-.7.2-.2.4-.4.7-.5.3-.1.5-.2.9-.2s.7 0 .9.2c.3.1.5.3.6.5.2.2.3.5.3.8 0 .3.1.6.1.9h-3.3v.6c0 .2.2.4.3.5.1.1.3.3.4.3.2 0 .4.1.6.1h.4c.1 0 .2 0 .3-.2.1 0 .2-.2.3-.2 0 0 .2-.2.2-.3l.7.3zm-.6-1.7c0-.4-.1-.7-.3-.9-.2-.2-.5-.3-.9-.3h-.5c-.2 0-.3.2-.4.3-.1.1-.2.3-.3.4 0 .2-.1.3-.1.5h2.6zm1.8-1.8h.7v.7c0-.1.2-.3.3-.4.1 0 .2-.2.3-.2.1 0 .3-.1.4-.1h.4c.3 0 .5 0 .7.1.2 0 .4.2.5.4l.3.6V297.9h-.7v-2.7c0-.4 0-.7-.3-.9-.2-.2-.5-.3-.8-.3h-.5c-.2 0-.3.1-.4.2-.1.1-.2.2-.3.4s0 .3 0 .5v2.7h-.7v-4.4zm8.8 3.5c-.2.4-.5.6-.8.8-.3.2-.7.3-1.1.3s-.6 0-.9-.2c-.3-.1-.5-.3-.7-.5-.2-.2-.3-.5-.4-.7 0-.3-.1-.6-.1-.9s0-.6.1-.9c0-.3.2-.5.4-.7.2-.2.4-.4.7-.5.3-.1.5-.2.9-.2s.7 0 .9.2c.3.1.5.3.6.5.2.2.3.5.3.8 0 .3.1.6.1.9h-3.3v.6c0 .2.2.4.3.5.1.1.3.3.4.3.2 0 .4.1.6.1h.4c.1 0 .2 0 .3-.2.1 0 .2-.2.3-.2 0 0 .2-.2.2-.3l.7.3zm-.7-1.7c0-.4-.1-.7-.3-.9-.2-.2-.5-.3-.9-.3h-.5c-.2 0-.3.2-.4.3-.1.1-.2.3-.3.4 0 .2-.1.3-.1.5h2.6zm1.9-1.2h-.6v-.6h.6v-.2-.7c0-.2 0-.4.2-.6 0-.2.2-.3.4-.4.2-.1.4-.2.7-.2h.6l-.2.5h-.6s-.2 0-.2.2c0 0 0 .1-.1.2v1h1.1v.6H203v3.9h-.7v-3.9zm2.9-.6h.7v4.4h-.7v-4.4zm-.1-1.2c0-.1 0-.2.1-.3 0 0 .2-.1.3-.1s.2 0 .3.1c0 0 .1.2.1.3s0 .2-.1.3c0 0-.2.1-.3.1s-.2 0-.3-.1c0 0-.1-.2-.1-.3zm4.2 5.7h-.6c-.4 0-.7 0-.9-.3-.2-.2-.3-.5-.3-.9V294h-.6v-.6h.6v-.8l.7-.3v1.1h1v.6h-1v3.2c0 .1.1.1.2.1h.8v.6zm1.2-1.3c0 .3.2.5.4.6.2.1.4.2.7.2h.4c.1 0 .2 0 .3-.1 0 0 .2-.1.2-.2v-.3-.3s-.1-.2-.2-.2c0 0-.2-.1-.3-.1-.1 0-.3 0-.4-.1-.2 0-.3 0-.5-.1-.2 0-.3-.1-.5-.2-.1 0-.2-.2-.3-.4 0-.1-.1-.3-.1-.6s0-.4.1-.5c0-.2.2-.3.3-.4.1-.1.3-.2.5-.2h.5c.3 0 .6 0 .9.3.3.2.5.4.7.7l-.5.2c0-.2-.2-.4-.4-.5-.2-.1-.4-.2-.6-.2h-.3s-.2 0-.3.1l-.2.2v.6s.1.2.2.2c0 0 .2 0 .3.1h.4c.2 0 .3 0 .5.1.2 0 .3.1.5.2.1 0 .3.2.3.3 0 .1.1.3.1.6s0 .4-.1.6c0 .2-.2.3-.4.4-.2.1-.3.2-.5.3h-.6c-.4 0-.8 0-1.1-.3-.3-.2-.5-.5-.6-.9l.5-.2zM260.3 297.4c0 .2.1.3.2.4 0 .1.2.2.3.3.1 0 .2.2.4.2h.9c.1 0 .3 0 .4-.2.1 0 .2-.2.3-.3 0-.1.1-.3.1-.5s0-.4-.1-.6-.2-.2-.3-.3c-.1 0-.3-.1-.5-.1h-.6v-.8h.6c.2 0 .3 0 .4-.1.1 0 .2-.1.3-.3 0-.1.1-.3.1-.5v-.4c0-.1-.1-.2-.2-.3 0 0-.2-.1-.3-.2h-.4c-.3 0-.6 0-.7.2-.2.2-.3.4-.4.7l-.9-.4c0-.2.2-.5.3-.6.1-.2.3-.3.5-.4l.6-.3h1.4c.2 0 .5.2.7.3.2.1.3.3.5.5.1.2.2.4.2.7s0 .6-.3.8c-.2.2-.4.4-.7.5.4 0 .7.3.9.5.2.3.3.6.3 1s0 .6-.2.8c-.1.2-.3.4-.5.6-.2.1-.5.2-.7.3h-1.6c-.2 0-.5-.2-.7-.3-.2-.1-.4-.3-.5-.5-.1-.2-.3-.4-.3-.7l.9-.4zm4.3.1l2.7-4.3h1.5v3.9h.8v.9h-.8v1.3h-1.1V298h-3v-.4zm3.1-.4V294l-1.8 3.1h1.8zm2.3 1.7l2.3-2.2c.1-.1.2-.2.3-.4.1-.1.2-.3.3-.4 0-.1.2-.3.2-.5v-.5c0-.3 0-.5-.2-.7-.2-.2-.4-.2-.7-.2h-.5c-.1 0-.3.1-.4.3 0 .1-.2.2-.3.4 0 .1-.1.3-.2.4l-.9-.4c0-.3.2-.5.3-.7.1-.2.3-.4.5-.5l.6-.3c.2 0 .5-.1.8-.1s.5 0 .8.1c.2 0 .5.2.6.3.2.1.3.3.4.6.1.2.2.5.2.8v.7c0 .2-.1.4-.3.6-.1.2-.2.4-.4.5-.1.2-.3.3-.5.5l-1.4 1.3h2.7v.9h-4.5v-.5zm7.9.6c-.5 0-.9 0-1.3-.3-.3-.2-.6-.4-.8-.7-.2-.3-.3-.6-.4-1 0-.4-.1-.8-.1-1.3s0-.8.2-1.1c.1-.4.3-.7.5-.9.2-.3.5-.5.8-.7.3-.2.7-.2 1.2-.2s.6 0 .8.1c.3 0 .5.2.7.3.2.1.4.3.5.5.1.2.2.4.3.7 0 .2.1.5.2.8v.8c0 .4 0 .8-.2 1.1-.1.4-.3.7-.5 1-.2.3-.5.5-.8.6-.3.2-.7.2-1.1.2zm0-1c.2 0 .4 0 .6-.1.2 0 .3-.2.4-.3.1-.1.2-.3.2-.4 0-.2 0-.3.1-.5v-.5-.5-.7c0-.2-.1-.5-.2-.7-.1-.2-.3-.4-.4-.5-.2-.1-.4-.2-.7-.2s-.4 0-.6.1c-.2 0-.3.2-.4.3-.1.1-.2.3-.2.4 0 .2-.1.3-.1.5v1.7c0 .2.1.5.2.7.1.2.3.4.4.5.2.1.4.2.7.2zm3.2.3v-.3s0-.2.1-.2c0 0 .1-.1.2-.1h.6s.2 0 .2.1.1.1.1.2v.6s0 .2-.1.2c0 0-.1.1-.2.1h-.6s-.2 0-.2-.1c0 0-.1-.1-.1-.2v-.3zm4.6.7c-.5 0-.9 0-1.3-.3-.3-.2-.6-.4-.8-.7-.2-.3-.3-.6-.4-1 0-.4-.1-.8-.1-1.3s0-.8.2-1.1c.1-.4.3-.7.5-.9.2-.3.5-.5.8-.7.3-.2.7-.2 1.2-.2s.6 0 .8.1c.3 0 .5.2.7.3.2.1.4.3.5.5.1.2.2.4.3.7 0 .2.1.5.2.8v.8c0 .4 0 .8-.2 1.1-.1.4-.3.7-.5 1-.2.3-.5.5-.8.6-.3.2-.7.2-1.1.2zm.1-1c.2 0 .4 0 .6-.1.2 0 .3-.2.4-.3.1-.1.2-.3.2-.4 0-.2.1-.3.1-.5v-.5-.5-.7c0-.2-.1-.5-.2-.7-.1-.2-.3-.4-.4-.5-.2-.1-.4-.2-.7-.2s-.4 0-.6.1c-.2 0-.3.2-.4.3-.1.1-.2.3-.2.4 0 .2-.1.3-.1.5v1.7c0 .2.1.5.2.7.1.2.3.4.4.5.2.1.4.2.7.2zm6 1c-.5 0-.9 0-1.3-.3-.3-.2-.6-.4-.8-.7-.2-.3-.3-.6-.4-1 0-.4-.1-.8-.1-1.3s0-.8.2-1.1c.1-.4.3-.7.5-.9.2-.3.5-.5.8-.7.3-.2.7-.2 1.2-.2s.6 0 .8.1c.3 0 .5.2.7.3.2.1.4.3.5.5.1.2.2.4.3.7 0 .2.1.5.2.8v.8c0 .4 0 .8-.2 1.1-.1.4-.3.7-.5 1-.2.3-.5.5-.8.6-.3.2-.7.2-1.1.2zm0-1c.2 0 .4 0 .6-.1.2 0 .3-.2.4-.3.1-.1.2-.3.2-.4 0-.2.1-.3.1-.5v-.5-.5-.7c0-.2-.1-.5-.2-.7-.1-.2-.3-.4-.4-.5-.2-.1-.4-.2-.7-.2s-.4 0-.6.1c-.2 0-.3.2-.4.3-.1.1-.2.3-.2.4 0 .2-.1.3-.1.5v1.7c0 .2.1.5.2.7.1.2.3.4.4.5.2.1.4.2.7.2zM182 310.8h1.8c.5 0 .9 0 1.3.2.4.1.7.3 1 .6.3.3.5.6.6.9.1.4.2.8.2 1.3s0 .9-.2 1.3c-.1.4-.4.7-.6 1-.3.3-.6.5-1 .6-.4.1-.8.2-1.3.2H182v-6.1zm1.7 5.4c.4 0 .7 0 1-.2.3-.1.5-.3.7-.5.2-.2.3-.5.4-.8 0-.3.1-.7.1-1 0-.8-.2-1.4-.6-1.8-.4-.4-1-.6-1.8-.6h-1v4.9h1zm8-.4c-.2.4-.5.6-.8.8-.3.2-.7.3-1.1.3s-.6 0-.9-.2c-.3-.1-.5-.3-.7-.5-.2-.2-.3-.4-.4-.7 0-.3-.1-.6-.1-.9s0-.6.1-.9c0-.3.2-.5.4-.7.2-.2.4-.4.7-.5.3-.1.5-.2.9-.2s.7 0 .9.2c.3.1.5.3.6.5.2.2.3.5.3.8 0 .3.1.6.1.9h-3.3v.6c0 .2.2.4.3.5.1.1.3.3.4.3.2 0 .4.1.6.1h.4c.1 0 .2 0 .3-.2.1 0 .2-.2.3-.2 0 0 .2-.2.2-.3l.7.3zm-.7-1.6c0-.4-.1-.7-.3-.9-.2-.2-.5-.3-.9-.3h-.5c-.2 0-.3.2-.4.3-.1.1-.2.3-.3.4 0 .2-.1.3-.1.5h2.6zm5.1 1.9c0 .1-.2.2-.3.3-.1.1-.3.2-.4.3-.1 0-.3.1-.5.2h-.5c-.3 0-.6 0-.9-.2-.3-.1-.5-.3-.6-.5-.2-.2-.3-.4-.4-.7 0-.3-.1-.6-.1-.9s0-.6.1-.9c0-.3.2-.5.4-.7.2-.2.4-.4.6-.5.3-.1.5-.2.9-.2h.5c.1 0 .3 0 .4.1.1 0 .3.1.4.2.1 0 .2.2.3.4v-2.7h.7v6.5h-.7v-.8zm-1.5.2c.3 0 .5 0 .7-.1.2 0 .4-.2.5-.4.1-.2.2-.3.3-.6v-.7-.7c0-.2-.1-.4-.3-.5-.1-.1-.3-.3-.5-.4-.2 0-.4-.1-.7-.1s-.5 0-.7.1c-.2 0-.3.2-.4.4-.1.2-.2.3-.2.6V315.2c0 .2.1.4.3.5.1.2.3.3.4.4.2 0 .4.1.6.1zm6.6-.2c-.1.3-.3.5-.6.6-.2.1-.5.2-.8.2s-.5 0-.7-.1c-.2 0-.4-.2-.5-.3-.1-.1-.2-.3-.3-.5 0-.2-.1-.5-.1-.7v-2.8h.7v2.8c0 .4 0 .7.3.9.2.2.5.3.9.3h.5c.1 0 .3-.1.4-.2.1-.1.2-.2.2-.4v-3.2h.7v4.4h-.7v-.7zm5.9-.5c-.2.4-.4.8-.8 1-.3.2-.8.3-1.2.3s-.6 0-.9-.2c-.3-.1-.5-.3-.7-.5-.2-.2-.3-.5-.4-.7s-.1-.6-.1-.9 0-.6.2-.9c.1-.3.3-.5.4-.7.2-.2.4-.4.7-.5.3-.1.6-.2.9-.2.9 0 1.6.4 1.9 1.2l-.6.3c0-.1-.1-.3-.2-.4 0-.1-.2-.2-.3-.3-.1 0-.3-.1-.4-.2h-.4c-.2 0-.4 0-.6.2-.2 0-.3.2-.4.4l-.3.6v1.2c0 .2.2.4.3.5.1.2.3.3.5.4.2 0 .4.1.6.1h.5c.1 0 .3-.1.4-.2.1 0 .2-.2.3-.3 0-.1.2-.3.2-.4l.6.3zm3 1.2h-.6c-.4 0-.7 0-.9-.3-.2-.2-.3-.5-.3-.9v-2.7h-.6v-.6h.6v-.8l.7-.3v1.1h1v.6h-1v3.2s.1.1.2.1h.8v.6zm1-4.4h.7v4.4h-.7v-4.4zm-.1-1.3c0-.1 0-.2.1-.3 0 0 .2-.1.3-.1s.2 0 .3.1c0 0 .1.2.1.3s0 .2-.1.3c0 0-.2.1-.3.1s-.2 0-.3-.1c0 0-.1-.2-.1-.3zm4.1 5.8c-.3 0-.6 0-.9-.2-.3-.1-.5-.3-.7-.5-.2-.2-.3-.4-.4-.7-.1-.3-.2-.6-.2-.9s0-.6.2-.9c.1-.3.3-.5.5-.7.2-.2.4-.4.7-.5.3-.1.6-.2.9-.2s.6 0 .9.2c.3.1.5.3.7.5.2.2.3.5.4.7.1.3.2.6.2.9s0 .6-.2.9c-.1.3-.3.5-.5.7-.2.2-.4.4-.7.5-.3.1-.6.2-.9.2zm0-.6c.3 0 .5 0 .7-.1.2 0 .3-.2.5-.4.1-.2.2-.3.3-.5v-.6-.7c0-.2-.2-.4-.3-.5-.1-.2-.3-.3-.5-.4-.2 0-.4-.1-.7-.1s-.5 0-.7.1c-.2 0-.3.2-.5.4-.1.2-.2.3-.3.5v1.4c0 .2.2.4.3.5.1.2.3.3.5.4.2 0 .4.1.6.1zm3.3-3.9h.7v.7c0-.1.2-.3.3-.4.1 0 .2-.2.3-.2.1 0 .3-.1.4-.1h.4c.3 0 .5 0 .7.1.2 0 .4.2.5.4l.3.6V316.9h-.7v-2.7c0-.4 0-.7-.3-.9-.2-.2-.5-.3-.8-.3h-.5c-.2 0-.3.1-.4.2-.1.1-.2.2-.3.4v3.2h-.7v-4.4zm5.3 3.1c0 .3.2.5.4.6.2.1.4.2.7.2h.4c.1 0 .2 0 .3-.1 0 0 .2-.1.2-.2v-.3-.3s-.1-.2-.2-.2c0 0-.2-.1-.3-.1-.1 0-.3 0-.4-.1-.2 0-.3 0-.5-.1-.2 0-.3-.1-.5-.2-.1 0-.2-.2-.3-.4 0-.1-.1-.3-.1-.6s0-.4.1-.5c0-.2.2-.3.3-.4.1-.1.3-.2.5-.2h.5c.3 0 .6 0 .9.3.3.2.5.4.7.7l-.5.2c0-.2-.2-.4-.4-.5-.2-.1-.4-.2-.6-.2h-.3s-.2 0-.3.1l-.2.2v.6s.1.2.2.2c0 0 .2 0 .3.1h.4c.2 0 .3 0 .5.1.2 0 .3.1.5.2.1 0 .3.2.3.3 0 .1.1.3.1.6s0 .4-.1.6c0 .2-.2.3-.4.4-.2.1-.3.2-.5.3h-.6c-.4 0-.8 0-1.1-.3-.3-.2-.5-.5-.6-.9l.5-.2zM260.4 317.8l2.3-2.2c.1-.1.2-.2.3-.4.1-.1.2-.3.3-.4 0-.1.2-.3.2-.5v-.5c0-.3 0-.5-.2-.7-.2-.2-.4-.2-.7-.2h-.5c-.1 0-.3.1-.4.3 0 .1-.2.2-.3.4 0 .1-.1.3-.2.4l-.9-.4c0-.3.2-.5.3-.7.1-.2.3-.4.5-.5l.6-.3c.2 0 .5-.1.8-.1s.5 0 .8.1c.2 0 .5.2.6.3.2.1.3.3.4.6.1.2.2.5.2.8v.7c0 .2-.1.4-.3.6-.1.2-.2.4-.4.5-.1.2-.3.3-.5.5l-1.4 1.3h2.7v.9h-4.5v-.5zm6.1-1.4c0 .1 0 .3.2.4 0 .1.2.2.3.3.1 0 .2.2.4.2h.9c.1 0 .3 0 .4-.2.1 0 .2-.2.3-.3 0-.1.1-.3.1-.5s0-.4-.1-.6c0-.1-.2-.2-.3-.3-.1 0-.3-.1-.5-.1h-.6v-.8h.6c.2 0 .3 0 .4-.1s.2-.1.3-.3c0-.1.1-.3.1-.5v-.4c0-.1-.1-.2-.2-.3 0 0-.2-.1-.3-.2h-.4c-.3 0-.6 0-.7.2-.2.2-.3.4-.4.7l-.9-.4c0-.2.2-.5.3-.6.1-.2.3-.3.5-.4l.6-.3h1.4c.2 0 .5.2.7.3.2.1.4.3.5.5.1.2.2.4.2.7s0 .6-.3.8c-.2.2-.4.4-.7.5.4 0 .7.3.9.5.2.3.3.6.3 1s0 .6-.2.8c-.1.2-.3.4-.5.6-.2.1-.5.2-.7.3h-1.5c-.2 0-.5-.2-.7-.3-.2-.1-.4-.3-.5-.5-.1-.2-.3-.4-.3-.7l.9-.4zm7.2-3.3h-2.9v-.9h4.3v.5l-2.2 5.6h-1.2l2.1-5.1zm3 1.9c-.3-.1-.5-.3-.7-.5-.2-.2-.2-.5-.2-.8s0-.5.2-.7c.1-.2.3-.4.5-.5.2-.1.4-.2.7-.3.2 0 .5-.1.7-.1h.7c.2 0 .5.2.7.3.2.1.4.3.5.5.1.2.2.4.2.7v.4c0 .1-.1.2-.2.4 0 .1-.2.2-.3.3-.1 0-.2.2-.4.2.4.1.6.3.8.6.2.3.3.6.3 1s0 .6-.2.8c-.1.2-.3.4-.5.6-.2.1-.5.3-.7.3-.3 0-.6.1-.8.1s-.6 0-.8-.1c-.3 0-.5-.2-.7-.3-.2-.1-.4-.3-.5-.6-.1-.2-.2-.5-.2-.8s0-.7.3-1c.2-.3.5-.5.8-.6zm.2-1.2v.4c0 .1.1.2.2.3 0 0 .2.1.3.2h.8c.1 0 .2 0 .3-.2 0 0 .1-.2.2-.3v-.4-.4c0-.1-.1-.2-.2-.3 0 0-.2-.1-.3-.2h-.8c-.1 0-.2 0-.3.2 0 0-.2.2-.2.3v.4zm-.2 2.6v.4c0 .1.1.2.2.3.1 0 .2.2.4.2h.8c.1 0 .3-.1.4-.2.1 0 .2-.2.2-.3v-.4-.4c0-.1-.1-.2-.2-.3 0 0-.2-.2-.4-.2h-.8c-.1 0-.3.1-.4.2-.1 0-.2.2-.2.3v.4zm4.4 1.2v-.3s0-.2.1-.2c0 0 .1-.1.2-.1h.6s.2 0 .2.1l.2.2v.6s0 .2-.2.2c0 0-.1.1-.2.1h-.6s-.2 0-.2-.1c0 0-.1-.1-.1-.2v-.3zm4.6.7c-.5 0-.9 0-1.3-.3-.3-.2-.6-.4-.8-.7-.2-.3-.3-.6-.4-1 0-.4-.1-.8-.1-1.3s0-.8.2-1.1c.1-.4.3-.7.5-.9.2-.3.5-.5.8-.7.3-.2.7-.2 1.2-.2s.6 0 .8.1c.3 0 .5.2.7.3.2.1.4.3.5.5.1.2.2.4.3.7 0 .2.1.5.2.8v.8c0 .4 0 .8-.2 1.1-.1.4-.3.7-.5.9-.2.3-.5.5-.8.6-.3.2-.7.2-1.1.2zm.1-.9c.2 0 .4 0 .6-.1.2 0 .3-.2.4-.3.1-.1.2-.3.2-.4 0-.2.1-.3.1-.5v-.5-.5-.7c0-.2-.1-.5-.2-.7-.1-.2-.3-.4-.4-.5-.2-.1-.4-.2-.7-.2s-.4 0-.6.1c-.2 0-.3.2-.4.3-.1.1-.2.3-.2.4s-.1.3-.1.5v1.7c0 .2.1.5.2.7.1.2.3.4.4.5.2.1.4.2.7.2zm6 .9c-.5 0-.9 0-1.3-.3-.3-.2-.6-.4-.8-.7-.2-.3-.3-.6-.4-1 0-.4-.1-.8-.1-1.3s0-.8.2-1.1c.1-.4.3-.7.5-.9.2-.3.5-.5.8-.7.3-.2.7-.2 1.2-.2s.6 0 .8.1c.3 0 .5.2.7.3.2.1.4.3.5.5.1.2.2.4.3.7 0 .2.1.5.2.8v.8c0 .4 0 .8-.2 1.1-.1.4-.3.7-.5.9-.2.3-.5.5-.8.6-.3.2-.7.2-1.1.2zm0-.9c.2 0 .4 0 .6-.1.2 0 .3-.2.4-.3.1-.1.2-.3.2-.4 0-.2 0-.3.1-.5v-.5-.5-.7c0-.2-.1-.5-.2-.7-.1-.2-.3-.4-.4-.5-.2-.1-.4-.2-.7-.2s-.4 0-.6.1c-.2 0-.3.2-.4.3-.1.1-.2.3-.2.4s-.1.3-.1.5v1.7c0 .2.1.5.2.7.1.2.3.4.4.5.2.1.4.2.7.2z" fill="#fff"/><path d="M156.1 284.3l10.7 7.5v-15.1l-10.7 7.5z" fill="#363636"/></g></svg>