<svg data-name="Layer 1" xmlns="http://www.w3.org/2000/svg" viewBox="0 0 340 380"><g data-name="Group 10352"><g data-name="Group 10212"><rect data-name="Rectangle 1022" x="9.17" y=".41" width="322.4" height="265.68" rx="10.7" ry="10.7" fill="#f5f5f2"/><g data-name="Payroll Journal Summary"><path d="M43.92 30.9h4.46c.68 0 1.31.07 1.89.22s1.09.38 1.53.7c.43.32.77.74 1.02 1.25s.37 1.14.37 1.88c0 .81-.15 1.47-.44 1.99-.29.51-.69.92-1.18 1.2-.49.29-1.06.49-1.7.6s-1.3.16-1.99.16h-1.47v4.84h-2.49V30.91zm4.45 6.21c.76 0 1.36-.17 1.77-.51s.63-.9.63-1.67c0-.4-.06-.74-.17-1.02-.11-.27-.28-.49-.49-.66-.21-.17-.46-.29-.76-.36s-.62-.11-.99-.11h-1.95v4.32h1.95zM59.61 42.58c-.36.47-.78.81-1.28 1.02-.5.21-1.04.31-1.63.31-.44 0-.85-.06-1.23-.17-.38-.11-.72-.28-1-.51s-.51-.51-.67-.85c-.16-.34-.25-.74-.25-1.2 0-.43.07-.81.22-1.13.14-.32.34-.59.58-.81.24-.22.53-.4.85-.54.33-.14.67-.25 1.04-.33.37-.08.74-.13 1.13-.16.39-.03.76-.04 1.12-.04h1.1v-.15c0-.33-.02-.64-.07-.91s-.14-.5-.28-.69-.32-.34-.56-.44c-.24-.1-.54-.15-.93-.15-.46 0-.87.12-1.26.35-.38.23-.66.56-.83 1l-1.74-.75c.16-.41.38-.77.67-1.05.29-.29.61-.52.97-.7.36-.18.75-.31 1.17-.39s.83-.12 1.25-.12c.55 0 1.07.07 1.53.21s.87.35 1.21.63c.34.28.61.64.8 1.07.19.44.29.95.29 1.55v6.13H59.6v-1.15zm-1.15-3.05c-.26 0-.54.01-.85.04-.31.03-.6.09-.88.2-.27.11-.5.26-.68.47-.18.2-.27.49-.27.84 0 .23.04.42.11.58.08.15.18.28.32.38.14.1.3.17.48.21.18.04.38.07.59.07.29 0 .57-.04.84-.11.27-.08.52-.19.74-.34s.4-.35.53-.58c.13-.24.2-.51.2-.83v-.91h-1.13zM66.61 42.78l-3.68-8.43h2.4l2.46 5.99 2.3-5.99h2.18l-5.16 12.6h-2.2l1.7-4.17zM73.61 34.34h2.24v1.76c.32-.65.73-1.13 1.24-1.44.51-.31 1.13-.47 1.84-.47v2.08c-.46 0-.87.04-1.25.12-.38.08-.7.22-.97.42-.27.2-.48.47-.64.8-.15.33-.23.75-.23 1.25v4.85H73.6v-9.39zM79.42 39.06c0-.74.14-1.41.43-2.01s.66-1.12 1.14-1.55c.48-.43 1.04-.76 1.67-1 .63-.24 1.3-.35 2.01-.35s1.38.12 1.99.35 1.15.57 1.6 1c.45.43.81.94 1.06 1.54.26.6.39 1.26.39 1.98s-.13 1.41-.4 2.01c-.27.6-.64 1.12-1.1 1.54-.46.43-1.01.76-1.63.99s-1.29.35-2 .35-1.38-.12-2.01-.36c-.63-.24-1.17-.57-1.64-.99-.46-.43-.83-.94-1.1-1.53-.27-.59-.4-1.25-.4-1.97zm5.21 3.12c.47 0 .87-.09 1.2-.26.34-.18.61-.41.83-.7.22-.29.38-.62.48-1a4.598 4.598 0 00-.02-2.4c-.11-.38-.28-.72-.5-1.01-.22-.29-.51-.52-.85-.68-.34-.17-.74-.25-1.2-.25s-.88.09-1.21.26c-.34.17-.61.41-.82.7-.21.3-.37.64-.46 1.03-.1.39-.15.8-.15 1.23s.06.81.17 1.18.28.7.5.98c.22.28.51.5.84.67s.73.25 1.19.25zM91.25 30.54l2.24-.97v14.16h-2.24V30.54zM95.91 30.54l2.24-.97v14.16h-2.24V30.54zM103.58 41.59c.26.11.53.2.81.25.27.06.55.09.81.09.36 0 .67-.05.92-.16s.45-.25.6-.44.26-.42.33-.68.1-.56.1-.89V30.9h2.5v8.9c0 1.32-.34 2.34-1.01 3.05-.67.71-1.68 1.07-3.02 1.07-.35 0-.7-.03-1.05-.07-.35-.05-.68-.16-.99-.32v-1.92zM111 39.06c0-.74.14-1.41.43-2.01s.66-1.12 1.14-1.55c.48-.43 1.04-.76 1.67-1 .63-.24 1.3-.35 2.01-.35s1.38.12 1.99.35 1.15.57 1.6 1c.45.43.81.94 1.06 1.54.26.6.39 1.26.39 1.98s-.13 1.41-.4 2.01c-.27.6-.64 1.12-1.1 1.54-.46.43-1.01.76-1.63.99s-1.29.35-2 .35-1.38-.12-2.01-.36c-.63-.24-1.17-.57-1.64-.99-.46-.43-.83-.94-1.1-1.53-.27-.59-.4-1.25-.4-1.97zm5.22 3.12c.47 0 .87-.09 1.2-.26.34-.18.61-.41.83-.7.22-.29.38-.62.48-1a4.598 4.598 0 00-.02-2.4c-.11-.38-.28-.72-.5-1.01-.22-.29-.51-.52-.85-.68-.34-.17-.74-.25-1.2-.25s-.88.09-1.21.26c-.34.17-.61.41-.82.7-.21.3-.37.64-.46 1.03-.1.39-.15.8-.15 1.23s.06.81.17 1.18.28.7.5.98c.22.28.51.5.84.67s.73.25 1.19.25zM129.06 42.26a2.823 2.823 0 01-1.28 1.25c-.27.13-.56.23-.86.3-.31.06-.62.1-.95.1-.54 0-1.01-.09-1.42-.25-.41-.17-.76-.41-1.03-.72-.28-.31-.49-.69-.63-1.12-.14-.44-.21-.92-.21-1.45v-6.01h2.24v5.74c0 .64.15 1.15.46 1.52s.78.55 1.44.55c.35 0 .67-.05.94-.16.28-.11.51-.26.71-.46.2-.2.35-.43.45-.71.1-.28.15-.58.15-.92v-5.56h2.24v9.39h-2.24v-1.47zM133.6 34.34h2.24v1.76c.32-.65.73-1.13 1.24-1.44.51-.31 1.13-.47 1.84-.47v2.08c-.46 0-.87.04-1.25.12-.38.08-.7.22-.97.42-.27.2-.48.47-.64.8-.15.33-.23.75-.23 1.25v4.85h-2.24v-9.39zM140.54 34.34h2.24v1.49c.15-.29.34-.54.57-.75.23-.21.48-.39.75-.53s.57-.24.89-.31c.32-.07.64-.1.96-.1.56 0 1.05.09 1.46.28.41.19.75.45 1.02.78s.47.73.6 1.18c.13.45.19.94.19 1.48v5.87h-2.28v-5.65c0-.66-.15-1.17-.46-1.54-.3-.36-.79-.55-1.46-.55-.71 0-1.26.2-1.65.6s-.59.94-.59 1.62v5.51h-2.24v-9.39zM156.8 42.58c-.36.47-.78.81-1.28 1.02-.5.21-1.04.31-1.63.31-.44 0-.85-.06-1.23-.17-.38-.11-.72-.28-1-.51s-.51-.51-.67-.85c-.16-.34-.25-.74-.25-1.2 0-.43.07-.81.22-1.13.14-.32.34-.59.58-.81.24-.22.53-.4.85-.54.33-.14.67-.25 1.04-.33.37-.08.74-.13 1.13-.16.39-.03.76-.04 1.12-.04h1.1v-.15c0-.33-.02-.64-.07-.91s-.14-.5-.28-.69-.32-.34-.56-.44c-.24-.1-.54-.15-.93-.15-.46 0-.87.12-1.26.35-.38.23-.66.56-.83 1l-1.74-.75c.16-.41.38-.77.67-1.05.29-.29.61-.52.97-.7.36-.18.75-.31 1.17-.39s.83-.12 1.25-.12c.55 0 1.07.07 1.53.21s.87.35 1.21.63c.34.28.61.64.8 1.07.19.44.29.95.29 1.55v6.13h-2.21v-1.15zm-1.14-3.05c-.26 0-.54.01-.85.04-.31.03-.6.09-.88.2-.27.11-.5.26-.68.47-.18.2-.27.49-.27.84 0 .23.04.42.11.58.08.15.18.28.32.38.14.1.3.17.48.21.18.04.38.07.59.07.29 0 .57-.04.84-.11.27-.08.52-.19.74-.34s.4-.35.53-.58c.13-.24.2-.51.2-.83v-.91h-1.13zM161.28 30.54l2.24-.97v14.16h-2.24V30.54zM170.75 39.87a3.174 3.174 0 001.3 1.65c.29.19.61.33.96.42.35.09.72.14 1.11.14.3 0 .59-.04.88-.12.29-.08.55-.2.77-.36.23-.16.41-.36.56-.61s.22-.54.22-.87c0-.36-.08-.65-.25-.87-.16-.22-.38-.4-.65-.54s-.59-.24-.94-.32c-.36-.08-.73-.15-1.12-.22-.5-.09-.99-.19-1.49-.32s-.94-.32-1.34-.57c-.4-.26-.72-.61-.97-1.06s-.37-1.04-.37-1.78c0-.61.13-1.15.38-1.62.25-.46.59-.85 1-1.17.41-.31.89-.55 1.41-.7.53-.16 1.07-.23 1.63-.23.51 0 1.01.05 1.48.16s.91.28 1.32.51.77.52 1.09.88c.32.36.58.79.78 1.29l-1.82.82c-.27-.57-.66-1.01-1.15-1.33-.49-.32-1.06-.48-1.72-.48-.26 0-.52.03-.77.09s-.47.15-.67.29c-.2.13-.35.31-.47.52-.12.21-.18.48-.18.79 0 .34.08.62.23.84.15.22.36.39.62.53.26.13.56.24.91.32.34.08.71.15 1.11.22.34.06.68.12 1.02.19s.67.16.99.28c.32.11.62.26.9.42.28.17.53.38.74.64.21.26.38.57.49.93.12.37.18.8.18 1.29 0 .65-.14 1.22-.42 1.72-.28.5-.64.91-1.09 1.25s-.96.59-1.54.76c-.58.17-1.16.25-1.75.25s-1.15-.06-1.7-.17-1.08-.29-1.56-.54c-.48-.25-.9-.58-1.26-.99-.36-.41-.63-.91-.8-1.51l1.94-.83zM186.9 42.26c-.14.29-.33.53-.55.74-.22.21-.46.38-.73.51-.27.13-.56.23-.86.3-.31.06-.62.1-.95.1-.54 0-1.01-.09-1.42-.25-.41-.17-.76-.41-1.03-.72-.28-.31-.49-.69-.63-1.12-.14-.44-.21-.92-.21-1.45v-6.01h2.24v5.74c0 .64.15 1.15.46 1.52s.78.55 1.44.55c.35 0 .67-.05.94-.16.28-.11.51-.26.71-.46s.35-.43.45-.71c.1-.28.15-.58.15-.92v-5.56h2.24v9.39h-2.24v-1.47zM191.44 34.34h2.24v1.44c.14-.27.31-.5.52-.71.21-.2.44-.38.69-.51.25-.14.53-.24.82-.31.29-.07.58-.1.89-.1s.58.03.85.1.54.17.78.3c.24.14.46.31.64.52.19.21.34.46.45.75.36-.54.82-.95 1.4-1.24.58-.29 1.2-.43 1.88-.43.54 0 1.01.09 1.4.28.4.19.73.44.99.77.26.32.46.71.59 1.15.13.44.19.93.19 1.45v5.94h-2.24v-5.8c0-.59-.15-1.06-.44-1.41-.29-.35-.74-.53-1.34-.53-.33 0-.62.05-.87.16s-.46.26-.63.44c-.17.19-.3.41-.39.67-.09.26-.13.54-.13.84v5.62h-2.24v-5.8c0-.59-.15-1.06-.45-1.41s-.75-.53-1.35-.53c-.32 0-.61.05-.86.16s-.46.26-.63.44c-.17.19-.3.41-.39.67s-.13.54-.13.84v5.62h-2.24v-9.39zM207.98 34.34h2.24v1.44c.14-.27.31-.5.52-.71.21-.2.44-.38.69-.51.25-.14.53-.24.82-.31.29-.07.58-.1.89-.1s.58.03.85.1.54.17.78.3c.24.14.46.31.64.52.19.21.34.46.45.75.36-.54.82-.95 1.4-1.24.58-.29 1.2-.43 1.88-.43.54 0 1.01.09 1.4.28.4.19.73.44.99.77.26.32.46.71.59 1.15.13.44.19.93.19 1.45v5.94h-2.24v-5.8c0-.59-.15-1.06-.44-1.41-.29-.35-.74-.53-1.34-.53-.33 0-.62.05-.87.16s-.46.26-.63.44c-.17.19-.3.41-.39.67-.09.26-.13.54-.13.84v5.62h-2.24v-5.8c0-.59-.15-1.06-.45-1.41s-.75-.53-1.35-.53c-.32 0-.61.05-.86.16s-.46.26-.63.44c-.17.19-.3.41-.39.67s-.13.54-.13.84v5.62h-2.24v-9.39zM229.9 42.58c-.36.47-.78.81-1.28 1.02-.5.21-1.04.31-1.63.31-.44 0-.85-.06-1.23-.17s-.72-.28-1-.51c-.28-.23-.51-.51-.67-.85-.16-.34-.24-.74-.24-1.2 0-.43.07-.81.22-1.13.14-.32.34-.59.58-.81s.53-.4.85-.54c.33-.14.67-.25 1.04-.33.37-.08.74-.13 1.13-.16.39-.03.76-.04 1.12-.04h1.11v-.15c0-.33-.03-.64-.07-.91-.05-.27-.14-.5-.28-.69-.13-.19-.32-.34-.56-.44-.24-.1-.55-.15-.93-.15-.46 0-.87.12-1.26.35-.38.23-.66.56-.83 1l-1.74-.75c.16-.41.38-.77.67-1.05.29-.29.61-.52.97-.7.36-.18.75-.31 1.17-.39s.83-.12 1.25-.12c.56 0 1.07.07 1.53.21.47.14.87.35 1.21.63.34.28.61.64.8 1.07.19.44.29.95.29 1.55v6.13h-2.21v-1.15zm-1.15-3.05c-.26 0-.54.01-.85.04-.31.03-.6.09-.88.2-.27.11-.5.26-.68.47-.18.2-.27.49-.27.84 0 .23.04.42.11.58.08.15.18.28.32.38.14.1.3.17.48.21.18.04.38.07.59.07.29 0 .57-.04.84-.11.27-.08.52-.19.74-.34s.4-.35.53-.58c.13-.24.2-.51.2-.83v-.91h-1.13zM234.32 34.34h2.24v1.76c.32-.65.73-1.13 1.24-1.44.51-.31 1.13-.47 1.84-.47v2.08c-.46 0-.87.04-1.25.12s-.7.22-.97.42c-.27.2-.48.47-.64.8-.15.33-.23.75-.23 1.25v4.85h-2.24v-9.39zM244.03 42.78l-3.68-8.43h2.4l2.46 5.99 2.3-5.99h2.18l-5.16 12.6h-2.2l1.7-4.17z"/></g><path fill="#d5d8d1" d="M35.23 71.86h269.46v.89H35.23zM35.23 109.33h269.46v.89H35.23z"/><g data-name="Salaries and Employee Wages"><path d="M44.14 133.54c.19.62.5 1.1.91 1.44.42.34.91.52 1.48.52.28 0 .55-.04.8-.13s.46-.2.64-.35.32-.33.42-.53c.1-.21.16-.43.16-.67 0-.31-.06-.55-.19-.74a1.47 1.47 0 00-.49-.47c-.2-.12-.44-.21-.7-.28-.27-.07-.54-.13-.83-.2-.22-.05-.44-.1-.67-.15-.23-.05-.44-.12-.65-.2-.21-.08-.4-.18-.58-.29s-.34-.25-.48-.42c-.13-.17-.24-.37-.32-.6-.08-.23-.12-.5-.12-.82 0-.35.07-.67.22-.96s.35-.56.6-.77.55-.39.89-.51a3.3 3.3 0 011.1-.19c.71 0 1.3.17 1.78.51.47.34.86.86 1.17 1.56l-.9.4c-.2-.5-.48-.89-.83-1.17a1.91 1.91 0 00-1.23-.42c-.27 0-.51.03-.73.1-.22.07-.41.17-.57.29-.16.13-.28.29-.37.48-.09.19-.13.4-.13.64 0 .31.07.55.2.74s.3.35.51.46c.21.12.45.21.72.28.27.07.54.13.82.19.34.07.68.15 1.01.24.34.09.63.22.9.39s.48.4.64.69.25.67.25 1.14c0 .37-.08.71-.24 1.03-.16.32-.38.6-.66.84s-.61.43-.98.57c-.37.14-.77.21-1.2.21-.87 0-1.58-.2-2.12-.59s-.95-1-1.23-1.83l.98-.42zM55.02 135.44c-.24.31-.54.55-.91.7s-.75.23-1.15.23c-.29 0-.56-.04-.82-.12-.26-.08-.49-.2-.68-.36-.19-.16-.35-.36-.47-.6s-.17-.51-.17-.83c0-.33.06-.61.19-.84.13-.23.3-.42.51-.57.21-.15.46-.27.73-.35.28-.09.56-.15.86-.19.29-.04.59-.06.88-.07.29 0 .56-.01.8-.01h.23v-.04c0-.28-.02-.54-.06-.77s-.11-.43-.22-.6c-.11-.17-.27-.3-.47-.39-.2-.09-.46-.14-.78-.14a1.82 1.82 0 00-1 .31 1.626 1.626 0 00-.63.83l-.88-.38c.12-.27.27-.51.44-.71.18-.2.38-.37.6-.5.22-.13.47-.23.73-.3.26-.07.53-.1.82-.1.37 0 .7.05 1.01.16.31.11.57.26.79.47.22.2.39.45.52.74.12.29.19.62.19.99v4.28h-1.04v-.82zm-.9-2.27c-.14 0-.3 0-.46.01-.17.01-.33.03-.5.06s-.33.08-.49.13c-.16.06-.3.13-.42.23s-.22.21-.29.35-.11.3-.11.49.03.37.09.51.14.25.25.34c.11.09.23.15.38.19.15.04.31.06.48.06.24 0 .48-.03.71-.1.24-.07.45-.17.63-.3.19-.13.34-.3.45-.49.12-.19.17-.42.17-.68v-.81h-.9zM58.08 126.82l1.05-.46v9.9h-1.05v-9.44zM64.87 135.44c-.24.31-.54.55-.91.7s-.75.23-1.15.23c-.29 0-.56-.04-.82-.12-.26-.08-.49-.2-.68-.36-.19-.16-.35-.36-.47-.6s-.17-.51-.17-.83c0-.33.06-.61.19-.84.13-.23.3-.42.51-.57.21-.15.46-.27.73-.35.28-.09.56-.15.86-.19.29-.04.59-.06.88-.07.29 0 .56-.01.8-.01h.23v-.04c0-.28-.02-.54-.06-.77s-.11-.43-.22-.6c-.11-.17-.27-.3-.47-.39-.2-.09-.46-.14-.78-.14a1.82 1.82 0 00-1 .31 1.626 1.626 0 00-.63.83l-.88-.38c.12-.27.27-.51.44-.71.18-.2.38-.37.6-.5.22-.13.47-.23.73-.3.26-.07.53-.1.82-.1.37 0 .7.05 1.01.16.31.11.57.26.79.47.22.2.39.45.52.74.12.29.19.62.19.99v4.28h-1.04v-.82zm-.9-2.27c-.14 0-.3 0-.46.01-.17.01-.33.03-.5.06s-.33.08-.49.13c-.16.06-.3.13-.42.23s-.22.21-.29.35-.11.3-.11.49.03.37.09.51.14.25.25.34c.11.09.23.15.38.19.15.04.31.06.48.06.24 0 .48-.03.71-.1.24-.07.45-.17.63-.3.19-.13.34-.3.45-.49.12-.19.17-.42.17-.68v-.81h-.9zM67.9 129.73h1.04v1.17c.24-.44.53-.76.88-.96s.77-.31 1.26-.33v.98c-.36.01-.67.06-.94.14a1.517 1.517 0 00-1.07 1c-.09.26-.13.58-.13.95v3.58H67.9v-6.53zM72.38 127.86c0-.2.07-.36.2-.49s.3-.2.49-.2a.68.68 0 01.69.69.68.68 0 01-.69.69.68.68 0 01-.69-.69zm.19 1.88h1.04v6.52h-1.04v-6.52zM81.08 134.77c-.3.53-.67.93-1.13 1.2s-.99.4-1.59.4c-.5 0-.94-.09-1.33-.27a3.01 3.01 0 01-.99-.72c-.27-.31-.48-.66-.62-1.07-.14-.41-.21-.84-.21-1.3s.07-.9.21-1.31c.14-.41.35-.77.61-1.08.26-.31.58-.55.96-.74.38-.18.8-.27 1.27-.27.55 0 1.01.1 1.38.29s.68.45.91.77c.23.32.4.7.5 1.14.1.44.15.9.15 1.38h-4.92c0 .32.04.63.13.91s.22.52.4.73c.18.21.4.37.66.49s.56.18.9.18c.19 0 .37-.03.55-.08.17-.06.34-.14.49-.24.15-.1.29-.22.41-.37.12-.14.22-.29.31-.45l.96.41zm-.96-2.4c-.02-.58-.18-1.04-.5-1.37s-.77-.51-1.37-.51a1.86 1.86 0 00-1.74 1.15c-.1.23-.17.47-.2.74h3.81zM83.01 134.32c.12.38.33.67.62.87.3.21.64.31 1.03.31.18 0 .36-.02.53-.05.17-.04.33-.09.47-.17.14-.08.25-.18.34-.31.09-.13.13-.29.13-.49s-.04-.36-.13-.49-.21-.23-.35-.32c-.15-.09-.32-.16-.51-.21s-.39-.11-.6-.15c-.25-.06-.5-.13-.74-.2a2.42 2.42 0 01-.67-.31c-.2-.13-.36-.31-.48-.52s-.19-.49-.19-.83c0-.29.06-.55.19-.77s.29-.42.49-.58.43-.28.69-.36.53-.13.8-.13c.5 0 .95.13 1.35.4.4.27.72.63.96 1.09l-.8.35c-.15-.32-.36-.56-.64-.73-.28-.17-.58-.25-.91-.25-.15 0-.29.02-.43.05-.14.03-.27.09-.38.17s-.2.18-.27.3a.83.83 0 00-.1.43c0 .19.04.34.13.46s.2.22.35.3.31.14.5.19c.19.05.39.09.6.14.25.05.5.11.76.18.25.07.48.16.68.29s.37.3.49.51c.13.21.19.49.19.83s-.07.65-.2.91-.31.47-.54.63c-.22.17-.48.29-.77.37-.29.08-.59.12-.9.12-.6 0-1.12-.14-1.56-.43-.44-.29-.76-.71-.95-1.27l.8-.35zM94.85 135.44c-.24.31-.54.55-.91.7s-.75.23-1.15.23c-.29 0-.56-.04-.82-.12-.26-.08-.49-.2-.68-.36-.19-.16-.35-.36-.47-.6s-.17-.51-.17-.83c0-.33.06-.61.19-.84.13-.23.3-.42.51-.57.21-.15.46-.27.73-.35.28-.09.56-.15.86-.19.29-.04.59-.06.88-.07.29 0 .56-.01.8-.01h.23v-.04c0-.28-.02-.54-.06-.77s-.11-.43-.22-.6c-.11-.17-.27-.3-.47-.39-.2-.09-.46-.14-.78-.14a1.82 1.82 0 00-1 .31 1.626 1.626 0 00-.63.83l-.88-.38c.12-.27.27-.51.44-.71.18-.2.38-.37.6-.5.22-.13.47-.23.73-.3.26-.07.53-.1.82-.1.37 0 .7.05 1.01.16.31.11.57.26.79.47.22.2.39.45.52.74.12.29.19.62.19.99v4.28h-1.04v-.82zm-.9-2.27c-.14 0-.3 0-.46.01-.17.01-.33.03-.5.06s-.33.08-.49.13c-.16.06-.3.13-.42.23s-.22.21-.29.35-.11.3-.11.49.03.37.09.51.14.25.25.34c.11.09.23.15.38.19.15.04.31.06.48.06.24 0 .48-.03.71-.1.24-.07.45-.17.63-.3.19-.13.34-.3.45-.49.12-.19.17-.42.17-.68v-.81h-.9zM97.88 129.73h1.04v1.04c.1-.2.23-.38.38-.52s.32-.26.5-.36a2.746 2.746 0 011.24-.28c.41 0 .76.07 1.06.2.3.14.55.32.75.56.2.24.34.53.44.86.1.33.15.69.15 1.08v3.94h-1.04v-4.02c0-.56-.13-.98-.4-1.28-.26-.3-.67-.44-1.21-.44-.28 0-.54.04-.77.13-.23.08-.43.2-.59.36-.17.15-.29.34-.38.56-.09.22-.13.47-.13.74v3.96h-1.04v-6.53zM110.25 135.13c-.12.19-.27.36-.45.51a3.094 3.094 0 01-1.24.64c-.23.06-.45.09-.67.09-.49 0-.92-.09-1.29-.27-.37-.18-.68-.42-.92-.72s-.43-.66-.55-1.06c-.12-.41-.18-.84-.18-1.3s.07-.88.2-1.3c.14-.41.33-.77.59-1.09.26-.31.58-.56.95-.75.37-.18.8-.28 1.28-.28.23 0 .46.02.68.07s.43.12.62.21.38.22.55.36.31.32.43.52v-4h1.04v9.48h-1.04v-1.13zm-2.22.37c.39 0 .72-.07 1-.2s.51-.32.7-.55.33-.5.41-.82c.09-.31.13-.65.13-1.01s-.04-.67-.13-.97c-.09-.3-.22-.56-.39-.78-.18-.22-.4-.39-.67-.52s-.59-.19-.96-.19c-.39 0-.73.07-1 .21-.27.14-.49.33-.66.57s-.29.51-.36.83c-.07.31-.11.64-.11.99 0 .31.04.61.12.9.08.29.2.55.37.78.17.23.38.41.63.55s.55.2.9.2z"/><g><path d="M43.69 144.61h5.46v.88h-4.37v3.04h3.57v.88h-3.57v3.24h4.6v.88H43.7v-8.92zM50.9 147.01h1.04v1c.17-.38.41-.66.73-.84.32-.18.68-.27 1.09-.27.21 0 .42.03.64.08.22.05.42.13.61.23s.36.23.51.38.27.33.35.54c.21-.41.5-.71.88-.92s.79-.31 1.26-.31c.38 0 .72.07 1.01.2.29.13.54.31.74.55.2.23.35.51.45.82.1.32.15.66.15 1.03v4.05h-1.04v-4.12c0-.53-.13-.93-.38-1.21-.26-.28-.65-.41-1.19-.41-.25 0-.48.05-.67.14-.2.09-.36.22-.5.38s-.24.34-.31.56-.11.44-.11.68v3.99h-1.04v-4.12c0-.53-.13-.93-.38-1.21-.26-.28-.65-.41-1.19-.41-.25 0-.48.05-.67.14-.2.09-.36.22-.5.38s-.24.34-.31.56c-.07.21-.11.44-.11.68v3.99h-1.04v-6.53zM62.34 147.01h1.04v1.1c.11-.19.26-.36.44-.51.18-.15.37-.28.58-.38.21-.11.43-.19.66-.24.23-.05.45-.08.66-.08.5 0 .93.09 1.3.27s.68.42.93.73.43.66.55 1.06c.12.4.19.83.19 1.28s-.06.9-.19 1.31-.31.78-.56 1.09-.55.56-.92.74-.79.27-1.26.27c-.24 0-.47-.02-.7-.07-.23-.05-.45-.12-.66-.22s-.4-.22-.57-.37c-.17-.15-.32-.32-.44-.52v3.35h-1.04v-8.8zm3.2 5.77c.39 0 .72-.07.98-.21s.48-.32.63-.56c.16-.23.27-.5.34-.81.07-.31.1-.63.1-.97 0-.32-.04-.62-.13-.92-.09-.3-.21-.56-.38-.79-.17-.23-.39-.41-.65-.55-.26-.14-.56-.21-.91-.21-.38 0-.71.07-.99.2s-.5.32-.68.55c-.18.23-.31.5-.4.81s-.13.63-.13.97.05.69.14.99c.09.3.23.57.41.79s.41.4.69.52.6.19.97.19zM70.28 144.1l1.05-.46v9.9h-1.05v-9.44zM76.12 153.65c-.49 0-.93-.09-1.33-.26-.4-.18-.73-.41-1.01-.72-.28-.3-.49-.66-.64-1.07-.15-.41-.23-.84-.23-1.31s.08-.93.24-1.35c.16-.41.38-.77.67-1.08.29-.3.63-.54 1.03-.71.4-.17.84-.26 1.32-.26s.93.09 1.33.26.74.41 1.02.72.5.66.65 1.07c.15.41.23.85.23 1.31s-.08.93-.24 1.34c-.16.41-.39.77-.68 1.08-.29.3-.64.54-1.04.71-.4.17-.84.26-1.33.26zm.02-.87c.37 0 .7-.07.98-.21.28-.14.5-.32.69-.56.18-.23.31-.5.4-.8a3.5 3.5 0 00-.01-1.92c-.09-.31-.23-.57-.41-.8s-.42-.41-.69-.55-.6-.2-.96-.2-.69.07-.96.2-.49.32-.67.55c-.18.23-.3.5-.39.8-.08.3-.13.62-.13.96 0 .35.04.68.13.99s.22.57.41.8c.18.22.4.4.67.53s.58.19.94.19zM82.66 152.86l-2.52-5.85h1.11l1.96 4.68 1.81-4.68h1.06l-3.61 8.8h-1.05l1.24-2.95zM92.46 152.04c-.3.53-.67.93-1.13 1.2s-.99.4-1.59.4c-.5 0-.94-.09-1.33-.27a3.01 3.01 0 01-.99-.72c-.27-.31-.48-.66-.62-1.07-.14-.41-.21-.84-.21-1.3s.07-.9.21-1.31c.14-.41.35-.77.61-1.08.26-.31.58-.55.96-.74.38-.18.8-.27 1.27-.27.55 0 1.01.1 1.38.29s.68.45.91.77c.23.32.4.7.5 1.14.1.44.15.9.15 1.38h-4.92c0 .32.04.63.13.91s.22.52.4.73c.18.21.4.37.66.49s.56.18.9.18c.19 0 .37-.03.55-.08.17-.06.34-.14.49-.24.15-.1.29-.22.41-.37.12-.14.22-.29.31-.45l.96.41zm-.96-2.4c-.02-.58-.18-1.04-.5-1.37s-.77-.51-1.37-.51a1.86 1.86 0 00-1.74 1.15c-.1.23-.17.47-.2.74h3.81zM99.49 152.04c-.3.53-.67.93-1.13 1.2s-.99.4-1.59.4c-.5 0-.94-.09-1.33-.27a3.01 3.01 0 01-.99-.72c-.27-.31-.48-.66-.62-1.07-.14-.41-.21-.84-.21-1.3s.07-.9.21-1.31c.14-.41.35-.77.61-1.08.26-.31.58-.55.96-.74.38-.18.8-.27 1.27-.27.55 0 1.01.1 1.38.29s.68.45.91.77c.23.32.4.7.5 1.14.1.44.15.9.15 1.38h-4.92c0 .32.04.63.13.91s.22.52.4.73c.18.21.4.37.66.49s.56.18.9.18c.19 0 .37-.03.55-.08.17-.06.34-.14.49-.24.15-.1.29-.22.41-.37.12-.14.22-.29.31-.45l.96.41zm-.96-2.4c-.02-.58-.18-1.04-.5-1.37s-.77-.51-1.37-.51a1.86 1.86 0 00-1.74 1.15c-.1.23-.17.47-.2.74h3.81zM103.06 144.61h1.11l1.92 7.27 2.15-7.27h.82l2.12 7.29 1.91-7.29h1.01l-2.38 8.92h-1l-2.08-7.05-2.15 7.05h-.99l-2.44-8.92zM118.3 152.71c-.24.31-.54.55-.91.7s-.75.23-1.15.23c-.29 0-.56-.04-.82-.12-.26-.08-.49-.2-.68-.36-.19-.16-.35-.36-.47-.6s-.17-.51-.17-.83c0-.33.06-.61.19-.84.13-.23.3-.42.51-.57.21-.15.46-.27.73-.35.28-.09.56-.15.86-.19.29-.04.59-.06.88-.07.29 0 .56-.01.8-.01h.23v-.04c0-.28-.02-.54-.06-.77s-.11-.43-.22-.6c-.11-.17-.27-.3-.47-.39-.2-.09-.46-.14-.78-.14a1.82 1.82 0 00-1 .31 1.626 1.626 0 00-.63.83l-.88-.38c.12-.27.27-.51.44-.71.18-.2.38-.37.6-.5.22-.13.47-.23.73-.3.26-.07.53-.1.82-.1.37 0 .7.05 1.01.16.31.11.57.26.79.47.22.2.39.45.52.74.12.29.19.62.19.99v4.28h-1.04v-.82zm-.9-2.27c-.14 0-.3 0-.46.01-.17.01-.33.03-.5.06s-.33.08-.49.13c-.16.06-.3.13-.42.23s-.22.21-.29.35-.11.3-.11.49.03.37.09.51.14.25.25.34c.11.09.23.15.38.19.15.04.31.06.48.06.24 0 .48-.03.71-.1.24-.07.45-.17.63-.3.19-.13.34-.3.45-.49.12-.19.17-.42.17-.68v-.81h-.9zM121.8 153.98c.09.2.22.37.37.5.16.14.33.25.52.33.19.09.39.15.6.18s.42.05.62.05c.32 0 .62-.04.89-.13s.51-.21.71-.38c.2-.17.36-.38.47-.63.11-.25.17-.55.17-.88v-.96c-.12.2-.27.37-.44.52s-.36.29-.57.39c-.21.11-.42.19-.65.25-.22.06-.45.08-.68.08-.46 0-.87-.08-1.23-.25s-.68-.4-.94-.68-.46-.62-.6-1c-.14-.38-.21-.79-.21-1.21s.07-.86.22-1.26.36-.75.62-1.04c.27-.3.59-.54.96-.71.37-.18.78-.26 1.23-.26.23 0 .45.03.67.07.22.05.43.12.62.22.2.1.38.22.54.37s.31.32.43.51v-1.05h1.04v6.08c0 .48-.09.89-.26 1.24-.18.35-.41.65-.71.88-.3.23-.65.41-1.05.53-.4.12-.83.17-1.28.17-.3 0-.59-.03-.88-.08-.29-.05-.56-.14-.81-.27s-.49-.29-.69-.49c-.21-.2-.39-.45-.53-.74l.82-.36zm2.19-1.53c.35 0 .66-.06.94-.19.27-.12.51-.3.69-.51.19-.22.33-.47.43-.76.1-.29.15-.6.15-.94s-.05-.63-.14-.91c-.09-.28-.23-.52-.41-.73s-.4-.37-.66-.48a2.11 2.11 0 00-.89-.17c-.36 0-.67.06-.94.2-.27.13-.5.31-.68.53-.18.22-.32.48-.41.77-.09.29-.14.6-.14.92a2.455 2.455 0 00.57 1.58c.18.21.4.38.66.5.25.13.54.19.84.19zM134.64 152.04c-.3.53-.67.93-1.13 1.2s-.99.4-1.59.4c-.5 0-.94-.09-1.33-.27a3.01 3.01 0 01-.99-.72c-.27-.31-.48-.66-.62-1.07-.14-.41-.21-.84-.21-1.3s.07-.9.21-1.31c.14-.41.35-.77.61-1.08.26-.31.58-.55.96-.74.38-.18.8-.27 1.27-.27.55 0 1.01.1 1.38.29s.68.45.91.77c.23.32.4.7.5 1.14.1.44.15.9.15 1.38h-4.92c0 .32.04.63.13.91s.22.52.4.73c.18.21.4.37.66.49s.56.18.9.18c.19 0 .37-.03.55-.08.17-.06.34-.14.49-.24.15-.1.29-.22.41-.37.12-.14.22-.29.31-.45l.96.41zm-.97-2.4c-.02-.58-.18-1.04-.5-1.37s-.77-.51-1.37-.51a1.86 1.86 0 00-1.74 1.15c-.1.23-.17.47-.2.74h3.81zM136.57 151.6c.12.38.33.67.62.87.3.21.64.31 1.03.31.18 0 .36-.02.53-.05.17-.04.33-.09.47-.17.14-.08.25-.18.34-.31.09-.13.13-.29.13-.49s-.04-.36-.13-.49-.21-.23-.35-.32c-.15-.09-.32-.16-.51-.21s-.39-.11-.6-.15c-.25-.06-.5-.13-.74-.2a2.42 2.42 0 01-.67-.31c-.2-.13-.36-.31-.48-.52s-.19-.49-.19-.83c0-.29.06-.55.19-.77s.29-.42.49-.58.43-.28.69-.36.53-.13.8-.13c.5 0 .95.13 1.35.4.4.27.72.63.96 1.09l-.8.35c-.15-.32-.36-.56-.64-.73-.28-.17-.58-.25-.91-.25-.15 0-.29.02-.43.05-.14.03-.27.09-.38.17s-.2.18-.27.3a.83.83 0 00-.1.43c0 .19.04.34.13.46s.2.22.35.3.31.14.5.19c.19.05.39.09.6.14.25.05.5.11.76.18.25.07.48.16.68.29s.37.3.49.51c.13.21.19.49.19.83s-.07.65-.2.91-.31.47-.54.63c-.22.17-.48.29-.77.37-.29.08-.59.12-.9.12-.6 0-1.12-.14-1.56-.43-.44-.29-.76-.71-.95-1.27l.8-.35z"/></g></g><g data-name="Payroll Tax Payable"><path d="M43.69 182.05h2.79c.43 0 .84.05 1.22.15.38.1.71.26.99.48s.5.5.67.84c.16.34.24.76.24 1.24 0 .39-.05.73-.16 1.02-.11.28-.26.52-.45.71s-.42.35-.67.46-.54.2-.84.26c-.3.06-.62.1-.94.12s-.66.03-.98.03h-.77v3.62h-1.08v-8.92zm2.86 4.43c.62 0 1.1-.14 1.44-.42.35-.28.52-.74.52-1.38 0-.33-.05-.6-.14-.83s-.22-.4-.39-.54-.38-.23-.62-.3c-.24-.06-.51-.09-.81-.09h-1.77v3.56h1.77zM54.72 190.15c-.24.31-.54.55-.91.7s-.75.23-1.15.23c-.29 0-.56-.04-.82-.12-.26-.08-.49-.2-.68-.36-.19-.16-.35-.36-.47-.6s-.17-.51-.17-.83c0-.33.06-.61.19-.84.13-.23.3-.42.51-.57.21-.15.46-.27.73-.35.28-.09.56-.15.86-.19.29-.04.59-.06.88-.07.29 0 .56-.01.8-.01h.23v-.04c0-.28-.02-.54-.06-.77s-.11-.43-.22-.6c-.11-.17-.27-.3-.47-.39-.2-.09-.46-.14-.78-.14a1.82 1.82 0 00-1 .31 1.626 1.626 0 00-.63.83l-.88-.38c.12-.27.27-.51.44-.71.18-.2.38-.37.6-.5.22-.13.47-.23.73-.3.26-.07.53-.1.82-.1.37 0 .7.05 1.01.16.31.11.57.26.79.47.22.2.39.45.52.74.12.29.19.62.19.99v4.28h-1.04v-.82zm-.89-2.28c-.14 0-.3 0-.46.01-.17.01-.33.03-.5.06s-.33.08-.49.13c-.16.06-.3.13-.42.23s-.22.21-.29.35-.11.3-.11.49.03.37.09.51.14.25.25.34c.11.09.23.15.38.19.15.04.31.06.48.06.24 0 .48-.03.71-.1.24-.07.45-.17.63-.3.19-.13.34-.3.45-.49.12-.19.17-.42.17-.68v-.81h-.9zM59.45 190.29l-2.52-5.85h1.11l1.96 4.68 1.81-4.68h1.06l-3.61 8.8h-1.05l1.24-2.95zM64.18 184.44h1.04v1.17c.24-.44.53-.76.88-.96s.77-.31 1.26-.33v.98c-.36.01-.67.06-.94.14a1.517 1.517 0 00-1.07 1c-.09.26-.13.58-.13.95v3.58h-1.04v-6.53zM71.16 191.08c-.49 0-.93-.09-1.33-.26-.4-.18-.73-.41-1.01-.72-.28-.3-.49-.66-.64-1.07-.15-.41-.23-.84-.23-1.31s.08-.93.24-1.35c.16-.41.38-.77.67-1.08.29-.3.63-.54 1.03-.71.4-.17.84-.26 1.32-.26s.93.09 1.33.26.74.41 1.02.72.5.66.65 1.07c.15.41.23.85.23 1.31s-.08.93-.24 1.34c-.16.41-.39.77-.68 1.08-.29.3-.64.54-1.04.71-.4.17-.84.26-1.33.26zm.01-.87c.37 0 .7-.07.98-.21.28-.14.5-.32.69-.56.18-.23.31-.5.4-.8a3.5 3.5 0 00-.01-1.92c-.09-.31-.23-.57-.41-.8s-.42-.41-.69-.55-.6-.2-.96-.2-.69.07-.96.2-.49.32-.67.55c-.18.23-.3.5-.39.8-.08.3-.13.62-.13.96 0 .35.04.68.13.99s.22.57.41.8c.18.22.4.4.67.53s.58.19.94.19zM76.04 181.53l1.05-.46v9.9h-1.05v-9.44zM79.19 181.53l1.05-.46v9.9h-1.05v-9.44zM86.77 182.93h-2.6v-.88h6.28v.88h-2.6v8.04h-1.09v-8.04zM95.1 190.15c-.24.31-.54.55-.91.7s-.75.23-1.15.23c-.29 0-.56-.04-.82-.12-.26-.08-.49-.2-.68-.36-.19-.16-.35-.36-.47-.6s-.17-.51-.17-.83c0-.33.06-.61.19-.84.13-.23.3-.42.51-.57.21-.15.46-.27.73-.35.28-.09.56-.15.86-.19.29-.04.59-.06.88-.07.29 0 .56-.01.8-.01h.23v-.04c0-.28-.02-.54-.06-.77s-.11-.43-.22-.6c-.11-.17-.27-.3-.47-.39-.2-.09-.46-.14-.78-.14a1.82 1.82 0 00-1 .31 1.626 1.626 0 00-.63.83l-.88-.38c.12-.27.27-.51.44-.71.18-.2.38-.37.6-.5.22-.13.47-.23.73-.3.26-.07.53-.1.82-.1.37 0 .7.05 1.01.16.31.11.57.26.79.47.22.2.39.45.52.74.12.29.19.62.19.99v4.28h-1.04v-.82zm-.9-2.28c-.14 0-.3 0-.46.01-.17.01-.33.03-.5.06s-.33.08-.49.13c-.16.06-.3.13-.42.23s-.22.21-.29.35-.11.3-.11.49.03.37.09.51.14.25.25.34c.11.09.23.15.38.19.15.04.31.06.48.06.24 0 .48-.03.71-.1.24-.07.45-.17.63-.3.19-.13.34-.3.45-.49.12-.19.17-.42.17-.68v-.81h-.9zM99.76 187.61l-2.18-3.17h1.21l1.6 2.37 1.58-2.37h1.12l-2.16 3.1 2.38 3.43h-1.23l-1.76-2.63-1.8 2.63h-1.11l2.33-3.36zM107.3 182.05h2.79c.43 0 .84.05 1.22.15.38.1.71.26.99.48s.5.5.67.84c.16.34.24.76.24 1.24 0 .39-.05.73-.16 1.02-.11.28-.26.52-.45.71s-.42.35-.67.46-.54.2-.84.26c-.3.06-.62.1-.94.12s-.66.03-.98.03h-.77v3.62h-1.08v-8.92zm2.86 4.43c.62 0 1.1-.14 1.44-.42.35-.28.52-.74.52-1.38 0-.33-.05-.6-.14-.83s-.22-.4-.39-.54-.38-.23-.62-.3c-.24-.06-.51-.09-.81-.09h-1.77v3.56h1.77zM118.33 190.15c-.24.31-.54.55-.91.7s-.75.23-1.15.23c-.29 0-.56-.04-.82-.12-.26-.08-.49-.2-.68-.36-.19-.16-.35-.36-.47-.6s-.17-.51-.17-.83c0-.33.06-.61.19-.84.13-.23.3-.42.51-.57.21-.15.46-.27.73-.35.28-.09.56-.15.86-.19.29-.04.59-.06.88-.07.29 0 .56-.01.8-.01h.23v-.04c0-.28-.02-.54-.06-.77s-.11-.43-.22-.6c-.11-.17-.27-.3-.47-.39-.2-.09-.46-.14-.78-.14a1.82 1.82 0 00-1 .31 1.626 1.626 0 00-.63.83l-.88-.38c.12-.27.27-.51.44-.71.18-.2.38-.37.6-.5.22-.13.47-.23.73-.3.26-.07.53-.1.82-.1.37 0 .7.05 1.01.16.31.11.57.26.79.47.22.2.39.45.52.74.12.29.19.62.19.99v4.28h-1.04v-.82zm-.9-2.28c-.14 0-.3 0-.46.01-.17.01-.33.03-.5.06s-.33.08-.49.13c-.16.06-.3.13-.42.23s-.22.21-.29.35-.11.3-.11.49.03.37.09.51.14.25.25.34c.11.09.23.15.38.19.15.04.31.06.48.06.24 0 .48-.03.71-.1.24-.07.45-.17.63-.3.19-.13.34-.3.45-.49.12-.19.17-.42.17-.68v-.81h-.9zM123.05 190.29l-2.52-5.85h1.11l1.96 4.68 1.81-4.68h1.06l-3.61 8.8h-1.05l1.24-2.95zM131.43 190.15c-.24.31-.54.55-.91.7s-.75.23-1.15.23c-.29 0-.56-.04-.82-.12-.26-.08-.49-.2-.68-.36-.19-.16-.35-.36-.47-.6s-.17-.51-.17-.83c0-.33.06-.61.19-.84.13-.23.3-.42.51-.57.21-.15.46-.27.73-.35.28-.09.56-.15.86-.19.29-.04.59-.06.88-.07.29 0 .56-.01.8-.01h.23v-.04c0-.28-.02-.54-.06-.77s-.11-.43-.22-.6c-.11-.17-.27-.3-.47-.39-.2-.09-.46-.14-.78-.14a1.82 1.82 0 00-1 .31 1.626 1.626 0 00-.63.83l-.88-.38c.12-.27.27-.51.44-.71.18-.2.38-.37.6-.5.22-.13.47-.23.73-.3.26-.07.53-.1.82-.1.37 0 .7.05 1.01.16.31.11.57.26.79.47.22.2.39.45.52.74.12.29.19.62.19.99v4.28h-1.04v-.82zm-.9-2.28c-.14 0-.3 0-.46.01-.17.01-.33.03-.5.06s-.33.08-.49.13c-.16.06-.3.13-.42.23s-.22.21-.29.35-.11.3-.11.49.03.37.09.51.14.25.25.34c.11.09.23.15.38.19.15.04.31.06.48.06.24 0 .48-.03.71-.1.24-.07.45-.17.63-.3.19-.13.34-.3.45-.49.12-.19.17-.42.17-.68v-.81h-.9zM134.46 181.48h1.04v4.05c.12-.18.26-.35.44-.5.18-.15.36-.28.57-.38s.42-.19.64-.24c.22-.06.44-.09.66-.09.49 0 .92.09 1.3.27s.68.42.94.73c.25.31.44.66.57 1.06.13.4.19.83.19 1.28s-.07.89-.2 1.3c-.13.41-.32.78-.58 1.09-.25.31-.57.56-.94.75-.37.18-.79.28-1.27.28-.23 0-.46-.02-.69-.07a2.687 2.687 0 01-1.2-.59c-.17-.15-.32-.32-.44-.52v1.08h-1.04v-9.48zm3.23 8.73c.39 0 .72-.07.98-.21s.47-.33.63-.56c.16-.23.27-.5.33-.81.06-.31.1-.63.1-.97 0-.31-.04-.62-.12-.92-.08-.3-.21-.56-.37-.79s-.38-.41-.63-.56c-.26-.14-.56-.21-.91-.21-.38 0-.71.07-.99.2s-.51.32-.69.55c-.18.23-.32.5-.41.81-.09.31-.13.63-.13.97 0 .36.05.69.14.99.09.31.24.57.42.79.19.22.42.39.7.52s.6.19.97.19zM142.4 181.53l1.05-.46v9.9h-1.05v-9.44zM150.92 189.48c-.3.53-.67.93-1.13 1.2s-.99.4-1.59.4c-.5 0-.94-.09-1.33-.27a3.01 3.01 0 01-.99-.72c-.27-.31-.48-.66-.62-1.07-.14-.41-.21-.84-.21-1.3s.07-.9.21-1.31c.14-.41.35-.77.61-1.08.26-.31.58-.55.96-.74.38-.18.8-.27 1.27-.27.55 0 1.01.1 1.38.29s.68.45.91.77c.23.32.4.7.5 1.14.1.44.15.9.15 1.38h-4.92c0 .32.04.63.13.91s.22.52.4.73c.18.21.4.37.66.49s.56.18.9.18c.19 0 .37-.03.55-.08.17-.06.34-.14.49-.24.15-.1.29-.22.41-.37.12-.14.22-.29.31-.45l.96.41zm-.97-2.41c-.02-.58-.18-1.04-.5-1.37s-.77-.51-1.37-.51a1.86 1.86 0 00-1.74 1.15c-.1.23-.17.47-.2.74h3.81z"/></g><g data-name="Benefits Payable"><path d="M43.69 218.7h2.94c.41 0 .78.04 1.13.11s.65.2.91.38.46.42.61.73c.15.3.22.68.22 1.14s-.11.86-.34 1.18c-.23.32-.56.55-1.01.7.62.13 1.07.36 1.36.7.29.34.43.82.43 1.42 0 .46-.08.85-.23 1.17s-.36.59-.62.79-.57.35-.93.45c-.36.09-.74.14-1.15.14H43.7v-8.92zm2.94 3.89c.29 0 .55-.03.77-.08.22-.05.41-.14.57-.27s.27-.29.35-.5c.08-.21.12-.47.12-.78 0-.29-.05-.53-.15-.71-.1-.18-.23-.33-.4-.43-.17-.11-.36-.18-.58-.22-.22-.04-.46-.06-.71-.06h-1.85v3.05h1.88zm.35 4.18c.29 0 .56-.03.79-.09.24-.06.43-.16.6-.29.16-.13.29-.3.37-.51s.13-.47.13-.77c0-.34-.05-.61-.16-.83-.11-.22-.25-.39-.44-.51s-.4-.21-.65-.26c-.25-.05-.51-.07-.8-.07h-2.07v3.33h2.22zM56.99 226.13c-.3.53-.67.93-1.13 1.2s-.99.4-1.59.4c-.5 0-.94-.09-1.33-.27a3.01 3.01 0 01-.99-.72c-.27-.31-.48-.66-.62-1.07-.14-.41-.21-.84-.21-1.3s.07-.9.21-1.31c.14-.41.35-.77.61-1.08.26-.31.58-.55.96-.74.38-.18.8-.27 1.27-.27.55 0 1.01.1 1.38.29s.68.45.91.77c.23.32.4.7.5 1.14.1.44.15.9.15 1.38h-4.92c0 .32.04.63.13.91s.22.52.4.73c.18.21.4.37.66.49s.56.18.9.18c.19 0 .37-.03.55-.08.17-.06.34-.14.49-.24.15-.1.29-.22.41-.37.12-.14.22-.29.31-.45l.96.41zm-.96-2.4c-.02-.58-.18-1.04-.5-1.37s-.77-.51-1.37-.51a1.86 1.86 0 00-1.74 1.15c-.1.23-.17.47-.2.74h3.81zM58.63 221.09h1.04v1.04c.1-.2.23-.38.38-.52s.32-.26.5-.36a2.746 2.746 0 011.24-.28c.41 0 .76.07 1.06.2.3.14.55.32.75.56.2.24.34.53.44.86.1.33.15.69.15 1.08v3.94h-1.04v-4.02c0-.56-.13-.98-.4-1.28-.26-.3-.67-.44-1.21-.44-.28 0-.54.04-.77.13-.23.08-.43.2-.59.36-.17.15-.29.34-.38.56-.09.22-.13.47-.13.74v3.96h-1.04v-6.53zM71.57 226.13c-.3.53-.67.93-1.13 1.2s-.99.4-1.59.4c-.5 0-.94-.09-1.33-.27a3.01 3.01 0 01-.99-.72c-.27-.31-.48-.66-.62-1.07-.14-.41-.21-.84-.21-1.3s.07-.9.21-1.31c.14-.41.35-.77.61-1.08.26-.31.58-.55.96-.74.38-.18.8-.27 1.27-.27.55 0 1.01.1 1.38.29s.68.45.91.77c.23.32.4.7.5 1.14.1.44.15.9.15 1.38h-4.92c0 .32.04.63.13.91s.22.52.4.73c.18.21.4.37.66.49s.56.18.9.18c.19 0 .37-.03.55-.08.17-.06.34-.14.49-.24.15-.1.29-.22.41-.37.12-.14.22-.29.31-.45l.96.41zm-.96-2.4c-.02-.58-.18-1.04-.5-1.37s-.77-.51-1.37-.51A1.86 1.86 0 0067 223c-.1.23-.17.47-.2.74h3.81zM73.44 221.96h-.94v-.87h.94v-.29c0-.37.01-.73.04-1.06.03-.33.11-.63.24-.89s.33-.46.59-.61c.26-.15.63-.23 1.1-.23.14 0 .29 0 .44.03s.3.05.44.09l-.34.8c-.19-.03-.36-.05-.51-.05-.18 0-.33.03-.46.08-.12.05-.22.13-.3.23s-.13.22-.16.35-.05.29-.05.45v1.09h1.6v.87h-1.6v5.66h-1.04v-5.66zM77.45 219.21c0-.2.07-.36.2-.49s.3-.2.49-.2a.68.68 0 01.69.69.68.68 0 01-.69.69.68.68 0 01-.69-.69zm.19 1.89h1.04v6.52h-1.04v-6.52zM83.62 227.57c-.28.09-.58.13-.9.13-.57 0-1-.14-1.3-.42-.3-.28-.45-.71-.45-1.3v-4.02h-.94v-.87h.94v-1.23l1.04-.45v1.68h1.52v.87h-1.52v3.92c0 .14.01.27.04.38.03.12.08.22.14.3.06.09.15.15.26.2s.25.07.41.07c.24 0 .49-.05.76-.14v.88zM85.4 225.68c.12.38.33.67.62.87.3.21.64.31 1.03.31.18 0 .36-.02.53-.05.17-.04.33-.09.47-.17.14-.08.25-.18.34-.31.09-.13.13-.29.13-.49s-.04-.36-.13-.49-.21-.23-.35-.32c-.15-.09-.32-.16-.51-.21s-.39-.11-.6-.15c-.25-.06-.5-.13-.74-.2a2.42 2.42 0 01-.67-.31c-.2-.13-.36-.31-.48-.52s-.19-.49-.19-.83c0-.29.06-.55.19-.77s.29-.42.49-.58.43-.28.69-.36.53-.13.8-.13c.5 0 .95.13 1.35.4.4.27.72.63.96 1.09l-.8.35c-.15-.32-.36-.56-.64-.73-.28-.17-.58-.25-.91-.25-.15 0-.29.02-.43.05-.14.03-.27.09-.38.17s-.2.18-.27.3a.83.83 0 00-.1.43c0 .19.04.34.13.46s.2.22.35.3.31.14.5.19c.19.05.39.09.6.14.25.05.5.11.76.18.25.07.48.16.68.29s.37.3.49.51c.13.21.19.49.19.83s-.07.65-.2.91-.31.47-.54.63c-.22.17-.48.29-.77.37-.29.08-.59.12-.9.12-.6 0-1.12-.14-1.56-.43-.44-.29-.76-.71-.95-1.27l.8-.35zM93.66 218.7h2.79c.43 0 .84.05 1.22.15.38.1.71.26.99.48s.5.5.67.84c.16.34.24.76.24 1.24 0 .39-.05.73-.16 1.02-.11.28-.26.52-.45.71s-.42.35-.67.46-.54.2-.84.26c-.3.06-.62.1-.94.12s-.66.03-.98.03h-.77v3.62h-1.08v-8.92zm2.86 4.43c.62 0 1.1-.14 1.44-.42.35-.28.52-.74.52-1.38 0-.33-.05-.6-.14-.83s-.22-.4-.39-.54-.38-.23-.62-.3c-.24-.06-.51-.09-.81-.09h-1.77v3.56h1.77zM104.69 226.8c-.24.31-.54.55-.91.7s-.75.23-1.15.23c-.29 0-.56-.04-.82-.12-.26-.08-.49-.2-.68-.36-.19-.16-.35-.36-.47-.6s-.17-.51-.17-.83c0-.33.06-.61.19-.84.13-.23.3-.42.51-.57.21-.15.46-.27.73-.35.28-.09.56-.15.86-.19.29-.04.59-.06.88-.07.29 0 .56-.01.8-.01h.23v-.04c0-.28-.02-.54-.06-.77s-.11-.43-.22-.6c-.11-.17-.27-.3-.47-.39-.2-.09-.46-.14-.78-.14a1.82 1.82 0 00-1 .31 1.626 1.626 0 00-.63.83l-.88-.38c.12-.27.27-.51.44-.71.18-.2.38-.37.6-.5.22-.13.47-.23.73-.3.26-.07.53-.1.82-.1.37 0 .7.05 1.01.16.31.11.57.26.79.47.22.2.39.45.52.74.12.29.19.62.19.99v4.28h-1.04v-.82zm-.89-2.28c-.14 0-.3 0-.46.01-.17.01-.33.03-.5.06s-.33.08-.49.13c-.16.06-.3.13-.42.23s-.22.21-.29.35-.11.3-.11.49.03.37.09.51.14.25.25.34c.11.09.23.15.38.19.15.04.31.06.48.06.24 0 .48-.03.71-.1.24-.07.45-.17.63-.3.19-.13.34-.3.45-.49.12-.19.17-.42.17-.68v-.81h-.9zM109.42 226.94l-2.52-5.85h1.11l1.96 4.68 1.81-4.68h1.06l-3.61 8.8h-1.05l1.24-2.95zM117.79 226.8c-.24.31-.54.55-.91.7s-.75.23-1.15.23c-.29 0-.56-.04-.82-.12-.26-.08-.49-.2-.68-.36-.19-.16-.35-.36-.47-.6s-.17-.51-.17-.83c0-.33.06-.61.19-.84.13-.23.3-.42.51-.57.21-.15.46-.27.73-.35.28-.09.56-.15.86-.19.29-.04.59-.06.88-.07.29 0 .56-.01.8-.01h.23v-.04c0-.28-.02-.54-.06-.77s-.11-.43-.22-.6c-.11-.17-.27-.3-.47-.39-.2-.09-.46-.14-.78-.14a1.82 1.82 0 00-1 .31 1.626 1.626 0 00-.63.83l-.88-.38c.12-.27.27-.51.44-.71.18-.2.38-.37.6-.5.22-.13.47-.23.73-.3.26-.07.53-.1.82-.1.37 0 .7.05 1.01.16.31.11.57.26.79.47.22.2.39.45.52.74.12.29.19.62.19.99v4.28h-1.04v-.82zm-.89-2.28c-.14 0-.3 0-.46.01-.17.01-.33.03-.5.06s-.33.08-.49.13c-.16.06-.3.13-.42.23s-.22.21-.29.35-.11.3-.11.49.03.37.09.51.14.25.25.34c.11.09.23.15.38.19.15.04.31.06.48.06.24 0 .48-.03.71-.1.24-.07.45-.17.63-.3.19-.13.34-.3.45-.49.12-.19.17-.42.17-.68v-.81h-.9zM120.82 218.14h1.04v4.05c.12-.18.26-.35.44-.5.18-.15.36-.28.57-.38s.42-.19.64-.24c.22-.06.44-.09.66-.09.49 0 .92.09 1.3.27s.68.42.94.73c.25.31.44.66.57 1.06.13.4.19.83.19 1.28s-.07.89-.2 1.3c-.13.41-.32.78-.58 1.09-.25.31-.57.56-.94.75-.37.18-.79.28-1.27.28-.23 0-.46-.02-.69-.07a2.687 2.687 0 01-1.2-.59c-.17-.15-.32-.32-.44-.52v1.08h-1.04v-9.48zm3.23 8.72c.39 0 .72-.07.98-.21s.47-.33.63-.56c.16-.23.27-.5.33-.81.06-.31.1-.63.1-.97 0-.31-.04-.62-.12-.92-.08-.3-.21-.56-.37-.79s-.38-.41-.63-.56c-.26-.14-.56-.21-.91-.21-.38 0-.71.07-.99.2s-.51.32-.69.55c-.18.23-.32.5-.41.81-.09.31-.13.63-.13.97 0 .36.05.69.14.99.09.31.24.57.42.79.19.22.42.39.7.52s.6.19.97.19zM128.77 218.18l1.05-.46v9.9h-1.05v-9.44zM137.28 226.13c-.3.53-.67.93-1.13 1.2s-.99.4-1.59.4c-.5 0-.94-.09-1.33-.27a3.01 3.01 0 01-.99-.72c-.27-.31-.48-.66-.62-1.07-.14-.41-.21-.84-.21-1.3s.07-.9.21-1.31c.14-.41.35-.77.61-1.08.26-.31.58-.55.96-.74.38-.18.8-.27 1.27-.27.55 0 1.01.1 1.38.29s.68.45.91.77c.23.32.4.7.5 1.14.1.44.15.9.15 1.38h-4.92c0 .32.04.63.13.91s.22.52.4.73c.18.21.4.37.66.49s.56.18.9.18c.19 0 .37-.03.55-.08.17-.06.34-.14.49-.24.15-.1.29-.22.41-.37.12-.14.22-.29.31-.45l.96.41zm-.96-2.4c-.02-.58-.18-1.04-.5-1.37s-.77-.51-1.37-.51a1.86 1.86 0 00-1.74 1.15c-.1.23-.17.47-.2.74h3.81z"/></g><g data-name="Payroll Journal"><path d="M43.48 86.6h3.21c.49 0 .94.05 1.36.15.42.1.78.26 1.08.49.3.22.54.52.71.88.17.36.26.81.26 1.34 0 .41-.05.76-.16 1.06-.1.3-.25.55-.43.76-.18.21-.4.38-.65.51s-.52.23-.81.31a6.4 6.4 0 01-.91.15c-.31.03-.63.04-.95.04h-.7v3.24h-2.01v-8.92zm3.15 4.27c.49 0 .87-.11 1.12-.31s.39-.56.39-1.04c0-.26-.04-.47-.11-.65a1.076 1.076 0 00-.79-.66c-.19-.04-.39-.07-.62-.07h-1.15v2.73h1.15zM54.9 94.74c-.23.34-.51.59-.84.72-.33.14-.69.21-1.08.21-.32 0-.61-.04-.88-.12-.27-.08-.5-.2-.7-.36-.2-.16-.35-.36-.47-.61s-.17-.53-.17-.85c0-.41.09-.76.27-1.03.18-.27.41-.49.69-.65s.6-.27.95-.34c.35-.06.7-.09 1.06-.09h1.17c0-.22 0-.42-.03-.6-.02-.18-.07-.33-.14-.46s-.18-.23-.33-.3c-.15-.07-.35-.11-.61-.11-.14 0-.28.02-.42.05a1.316 1.316 0 00-.71.41c-.09.1-.16.23-.21.38l-1.38-.6c.11-.29.26-.54.47-.74.21-.2.45-.36.71-.48.26-.12.55-.2.85-.26.3-.05.6-.08.89-.08.39 0 .76.04 1.09.13.33.09.61.23.85.42s.42.44.55.75.2.68.2 1.12v4.25h-1.77v-.79zm-.71-2.05c-.16 0-.34 0-.53.02-.19.01-.37.05-.54.11-.17.06-.31.15-.42.28-.11.12-.17.3-.17.51 0 .15.03.27.08.37s.12.18.21.24.19.11.3.13c.12.03.24.04.37.04.18 0 .35-.02.52-.07.17-.05.32-.12.45-.21s.24-.22.32-.36c.08-.15.12-.32.12-.52v-.55h-.69zM60.09 94.86L57.52 89h1.95l1.56 3.92L62.49 89h1.74l-3.54 8.75h-1.75l1.15-2.89zM65.01 89h1.81v1.25c.22-.45.5-.79.84-1.02.34-.22.76-.33 1.27-.33v1.68c-.3 0-.57.02-.83.07s-.48.13-.67.26-.34.29-.45.51c-.11.22-.16.49-.16.83v3.27h-1.81v-6.53zM69.5 92.28c0-.51.09-.98.26-1.4.17-.42.41-.78.72-1.09.31-.3.68-.54 1.1-.7s.89-.25 1.4-.25.97.08 1.39.25c.42.17.77.4 1.07.7.3.3.53.66.69 1.08s.25.88.25 1.38-.09.98-.26 1.4a3.102 3.102 0 01-1.82 1.77c-.43.16-.89.24-1.39.24s-.97-.08-1.39-.25-.78-.4-1.08-.69c-.3-.3-.53-.66-.7-1.07-.16-.41-.25-.87-.25-1.37zm3.46 2.01c.3 0 .56-.06.76-.17.2-.12.37-.27.49-.46s.21-.4.26-.65.08-.49.08-.74c0-.27-.03-.53-.09-.78s-.15-.47-.28-.66c-.13-.19-.29-.34-.5-.45-.21-.11-.46-.17-.75-.17s-.56.06-.76.17c-.2.12-.36.27-.48.46s-.21.4-.26.65c-.05.24-.08.49-.08.74 0 .27.03.53.09.78s.15.47.27.65.29.34.5.45.46.16.75.16zM77.64 86.54l1.8-.79v9.78h-1.8v-8.99zM81.14 86.54l1.8-.79v9.78h-1.8v-8.99zM86.91 93.82c.18.07.37.13.55.17.19.05.38.07.57.07.23 0 .42-.03.58-.1.16-.07.29-.17.39-.29.1-.13.17-.28.22-.45.04-.18.07-.37.07-.59v-6.02h2.04v6.04c0 .97-.25 1.71-.74 2.24-.49.52-1.23.79-2.22.79-.25 0-.5-.02-.74-.06a2.35 2.35 0 01-.72-.24v-1.55zM92.52 92.28c0-.51.09-.98.26-1.4.17-.42.41-.78.72-1.09.31-.3.68-.54 1.1-.7s.89-.25 1.4-.25.97.08 1.39.25c.42.17.77.4 1.07.7.3.3.53.66.69 1.08s.25.88.25 1.38-.09.98-.26 1.4a3.102 3.102 0 01-1.82 1.77c-.43.16-.89.24-1.39.24s-.97-.08-1.39-.25-.78-.4-1.08-.69c-.3-.3-.53-.66-.7-1.07-.16-.41-.25-.87-.25-1.37zm3.46 2.01c.3 0 .56-.06.76-.17.2-.12.37-.27.49-.46s.21-.4.26-.65.08-.49.08-.74c0-.27-.03-.53-.09-.78s-.15-.47-.28-.66c-.13-.19-.29-.34-.5-.45-.21-.11-.46-.17-.75-.17s-.56.06-.76.17c-.2.12-.36.27-.48.46s-.21.4-.26.65c-.05.24-.08.49-.08.74 0 .27.03.53.09.78s.15.47.27.65.29.34.5.45.46.16.75.16zM104.92 94.5c-.11.2-.23.37-.39.52-.15.15-.32.27-.51.36a2.746 2.746 0 01-1.24.28c-.38 0-.71-.06-.98-.19-.28-.12-.51-.3-.69-.51s-.32-.48-.41-.78-.13-.63-.13-.98v-4.21h1.8v3.95c0 .19.02.37.06.53.04.16.11.3.2.41.09.12.21.21.36.27s.33.1.54.1c.43 0 .77-.13 1.02-.39s.38-.6.38-1.05v-3.83h1.8v6.53h-1.8v-1.02zM108.32 89h1.81v1.25c.22-.45.5-.79.84-1.02.34-.22.76-.33 1.27-.33v1.68c-.3 0-.57.02-.83.07s-.48.13-.67.26-.34.29-.45.51c-.11.22-.16.49-.16.83v3.27h-1.81v-6.53zM113.42 89h1.81v1.04a2.112 2.112 0 01.93-.9c.19-.1.4-.17.62-.22s.44-.07.66-.07c.38 0 .71.06.98.2.27.13.5.31.68.53.18.23.31.49.39.8.08.31.13.64.13.99v4.16h-1.81v-3.89c0-.41-.1-.73-.29-.96-.19-.23-.5-.35-.92-.35-.45 0-.79.13-1.02.39-.23.26-.34.61-.34 1.05v3.77h-1.81v-6.53zM124.9 94.74c-.23.34-.51.59-.84.72-.33.14-.69.21-1.08.21-.32 0-.61-.04-.88-.12-.27-.08-.5-.2-.7-.36-.2-.16-.35-.36-.47-.61s-.17-.53-.17-.85c0-.41.09-.76.27-1.03.18-.27.41-.49.69-.65s.6-.27.95-.34c.35-.06.7-.09 1.06-.09h1.17c0-.22 0-.42-.03-.6-.02-.18-.07-.33-.14-.46s-.18-.23-.33-.3c-.15-.07-.35-.11-.61-.11-.14 0-.28.02-.42.05a1.316 1.316 0 00-.71.41c-.09.1-.16.23-.21.38l-1.38-.6c.11-.29.26-.54.47-.74.21-.2.45-.36.71-.48.26-.12.55-.2.85-.26.3-.05.6-.08.89-.08.39 0 .76.04 1.09.13.33.09.61.23.85.42s.42.44.55.75.2.68.2 1.12v4.25h-1.77v-.79zm-.71-2.05c-.16 0-.34 0-.53.02-.19.01-.37.05-.54.11-.17.06-.31.15-.42.28-.11.12-.17.3-.17.51 0 .15.03.27.08.37s.12.18.21.24.19.11.3.13c.12.03.24.04.37.04.18 0 .35-.02.52-.07.17-.05.32-.12.45-.21s.24-.22.32-.36c.08-.15.12-.32.12-.52v-.55h-.69zM128.28 86.54l1.8-.79v9.78h-1.8v-8.99z"/></g><path d="M196.15 86.6h3.17c.73 0 1.39.09 1.97.27s1.07.46 1.47.83c.4.37.71.84.92 1.39.21.56.32 1.21.32 1.97s-.11 1.38-.34 1.93c-.22.56-.54 1.02-.95 1.39-.41.37-.9.66-1.48.84-.58.19-1.22.28-1.93.28h-3.16v-8.92zm3.09 7.35c.49 0 .9-.07 1.24-.2s.61-.33.82-.58.36-.56.45-.92c.09-.36.14-.76.14-1.2 0-.47-.05-.88-.15-1.24-.1-.36-.26-.66-.47-.9a2.12 2.12 0 00-.83-.55c-.34-.12-.74-.18-1.22-.18h-1.05v5.78h1.07zM211.22 94.13c-.13.29-.3.54-.51.74-.21.2-.45.36-.71.48-.26.12-.54.2-.83.25-.29.05-.58.07-.86.07-.54 0-1.02-.08-1.45-.24-.43-.16-.79-.39-1.09-.69s-.53-.66-.69-1.08-.24-.89-.24-1.42c0-.49.08-.94.25-1.36.17-.42.4-.77.7-1.08.3-.3.65-.54 1.07-.71.41-.17.87-.26 1.36-.26.32 0 .62.04.92.11s.57.18.82.33c.25.15.48.33.68.56.2.22.36.48.48.78.14.34.22.68.24 1.02s.03.68.03 1.03h-4.71c.01.25.05.48.13.69a1.443 1.443 0 00.8.89c.19.08.43.13.7.13.36 0 .67-.06.93-.17.26-.12.48-.34.65-.67l1.34.59zm-1.6-2.57c-.02-.45-.15-.8-.37-1.07-.22-.26-.56-.4-1.01-.4-.24 0-.44.04-.62.11s-.33.17-.46.31c-.13.13-.23.28-.3.46-.08.18-.13.37-.16.59h2.92zM212.56 86.04h1.81v3.98c.11-.19.24-.35.4-.5s.33-.27.52-.37c.19-.1.39-.18.6-.23.21-.05.42-.08.63-.08.5 0 .93.09 1.3.28.37.19.67.44.91.75s.42.68.53 1.09.17.84.17 1.27-.06.89-.18 1.3c-.12.41-.3.78-.55 1.09-.24.31-.54.56-.9.75-.36.19-.77.28-1.23.28-.23 0-.45-.02-.67-.07-.22-.05-.43-.12-.62-.22s-.37-.22-.52-.37c-.16-.15-.28-.32-.38-.52v1.04h-1.81v-9.48zm3.42 8.21c.31 0 .57-.06.78-.17.21-.11.37-.26.5-.45.12-.19.21-.41.26-.65s.08-.5.08-.78-.03-.51-.09-.75-.16-.45-.29-.63c-.13-.18-.31-.32-.51-.43-.21-.11-.46-.16-.75-.16s-.56.06-.77.17c-.21.11-.37.27-.5.45-.13.19-.22.4-.28.65-.06.24-.08.49-.08.75 0 .28.03.54.09.79.06.24.16.46.3.63.14.18.31.32.52.42.21.1.46.15.76.15zM220.55 87.11c0-.14.03-.27.08-.39s.13-.22.22-.31.2-.15.33-.2c.13-.05.26-.07.4-.07s.28.02.4.07c.13.05.23.12.33.2.09.09.17.19.22.31.05.12.08.25.08.4s-.03.28-.08.4-.13.22-.22.31-.2.15-.33.2c-.12.05-.26.07-.39.07s-.28-.03-.4-.07a.933.933 0 01-.33-.21c-.09-.09-.17-.2-.22-.32-.05-.12-.08-.26-.08-.4zm.14 1.9h1.8v6.52h-1.8v-6.52zM227.65 95.48a3.7 3.7 0 01-1.12.17c-.68 0-1.2-.17-1.56-.5s-.53-.85-.53-1.55v-3.31h-.84V89h.84v-1.42l1.8-.78V89h1.37v1.29h-1.37v3.15c0 .24.06.43.18.57s.32.2.6.2c.09 0 .2 0 .31-.03.11-.02.22-.05.33-.1v1.4zM267.78 93.12c-.13.44-.32.83-.58 1.15-.26.32-.57.58-.92.79-.35.21-.73.36-1.15.46-.41.1-.84.15-1.27.15-.73 0-1.38-.11-1.93-.32-.56-.22-1.03-.52-1.4-.93-.38-.4-.66-.89-.85-1.46-.19-.57-.29-1.22-.29-1.93 0-.65.11-1.25.32-1.8a4.206 4.206 0 012.31-2.4c.54-.23 1.15-.35 1.8-.35.44 0 .85.05 1.24.14.39.09.75.24 1.08.43s.63.44.89.74.48.65.65 1.06l-1.65.71c-.09-.21-.2-.41-.34-.59s-.3-.34-.47-.47c-.18-.13-.37-.24-.58-.31-.21-.08-.44-.11-.67-.11-.44 0-.81.08-1.12.26-.31.17-.56.4-.75.68s-.34.6-.43.97c-.09.36-.13.73-.13 1.12s.05.77.14 1.12c.09.36.24.67.44.93.2.27.45.48.76.64.31.16.68.24 1.11.24.57 0 1.02-.14 1.37-.42.35-.28.61-.68.8-1.2l1.65.71zM268.87 89h1.81v1.25c.22-.45.5-.79.84-1.02.34-.22.76-.33 1.27-.33v1.68c-.3 0-.57.02-.83.07s-.48.13-.67.26c-.19.12-.34.29-.45.51s-.16.49-.16.83v3.27h-1.81v-6.53zM279.56 94.13c-.13.29-.3.54-.51.74-.21.2-.45.36-.71.48-.26.12-.54.2-.83.25-.29.05-.58.07-.86.07-.54 0-1.02-.08-1.45-.24-.43-.16-.79-.39-1.09-.69-.3-.3-.53-.66-.69-1.08-.16-.42-.24-.89-.24-1.42 0-.49.08-.94.25-1.36.16-.42.4-.77.69-1.08.3-.3.66-.54 1.07-.71.41-.17.87-.26 1.36-.26.32 0 .62.04.92.11.29.07.57.18.82.33.25.15.48.33.68.56.2.22.36.48.48.78.14.34.22.68.24 1.02s.03.68.03 1.03h-4.71c.01.25.05.48.13.69a1.443 1.443 0 00.8.89c.19.08.43.13.7.13.36 0 .67-.06.93-.17.26-.12.48-.34.65-.67l1.33.59zm-1.59-2.57c-.03-.45-.15-.8-.37-1.07s-.56-.4-1.01-.4c-.23 0-.44.04-.62.11s-.33.17-.46.31c-.13.13-.23.28-.3.46-.07.18-.13.37-.15.59h2.92zM285.58 94.44c-.1.2-.23.37-.38.52-.16.15-.33.28-.52.38s-.39.19-.61.24c-.21.05-.43.08-.64.08-.5 0-.93-.09-1.29-.28-.36-.18-.67-.43-.9-.74a3.25 3.25 0 01-.53-1.07c-.12-.4-.17-.82-.17-1.26 0-.46.06-.9.19-1.31s.31-.79.55-1.11.55-.58.92-.76c.36-.19.78-.28 1.26-.28.44 0 .85.09 1.23.27.38.18.68.47.9.86v-3.93h1.8v9.48h-1.8v-1.09zm-1.6-.19c.31 0 .56-.06.77-.17.21-.11.38-.26.51-.45s.22-.41.28-.65c.06-.25.08-.5.08-.77s-.03-.52-.09-.76-.15-.45-.28-.63c-.13-.18-.3-.32-.5-.43-.21-.1-.46-.15-.76-.15s-.58.06-.78.17c-.21.11-.38.27-.5.46s-.21.41-.26.67c-.05.25-.08.51-.08.79 0 .26.03.5.09.74s.15.44.28.62.29.32.5.42c.2.11.45.16.74.16zM288.9 87.11c0-.14.03-.27.08-.39s.13-.22.22-.31.2-.15.33-.2c.13-.05.26-.07.4-.07s.28.02.4.07c.13.05.23.12.33.2.09.09.17.19.22.31.05.12.08.25.08.4s-.03.28-.08.4-.13.22-.22.31-.2.15-.33.2c-.12.05-.26.07-.39.07s-.28-.03-.4-.07a.933.933 0 01-.33-.21c-.09-.09-.17-.2-.22-.32-.05-.12-.08-.26-.08-.4zm.13 1.9h1.8v6.52h-1.8v-6.52zM295.99 95.48c-.34.11-.72.17-1.12.17-.68 0-1.2-.17-1.56-.5s-.53-.85-.53-1.55v-3.31h-.83V89h.83v-1.42l1.8-.78V89h1.37v1.29h-1.37v3.15c0 .24.06.43.18.57.12.14.32.2.6.2.09 0 .2 0 .31-.03.11-.02.22-.05.33-.1v1.4z"/><path data-name="Rectangle 759" fill="#d5d8d1" d="M188.09 147.81h40.26v8.5h-40.26z"/><path data-name="Rectangle 1046" fill="#d5d8d1" d="M188.09 182.37h40.26v8.5h-40.26z"/><path data-name="Rectangle 1048" fill="#d5d8d1" d="M188.09 219.02h40.26v8.5h-40.26z"/><path data-name="Rectangle 1030" fill="#d5d8d1" d="M257.55 147.81h40.26v8.5h-40.26z"/><path data-name="Rectangle 1047" fill="#d5d8d1" d="M257.55 182.37h40.26v8.5h-40.26z"/><path data-name="Rectangle 1049" fill="#d5d8d1" d="M257.55 219.02h40.26v8.5h-40.26z"/></g><g data-name="Group 10215"><rect data-name="Rectangle 1044" x="9.17" y="308.05" width="322.4" height="71.95" rx="8.64" ry="8.64" fill="#faf2ed"/><g data-name="Tax Summary"><path d="M81.32 338.99h-3.59v-1.94h9.67v1.94h-3.58v10.89h-2.49v-10.89z"/><path d="M91.86 348.74c-.36.47-.78.81-1.28 1.02-.5.21-1.04.31-1.63.31-.44 0-.85-.06-1.23-.17-.38-.11-.72-.28-1-.51s-.51-.51-.67-.85c-.16-.34-.25-.74-.25-1.2 0-.43.07-.81.22-1.13.14-.32.34-.59.58-.81.24-.22.53-.4.85-.54.33-.14.67-.25 1.04-.33.37-.08.74-.13 1.13-.16.39-.03.76-.04 1.12-.04h1.1v-.15c0-.33-.02-.64-.07-.91s-.14-.5-.28-.69-.32-.34-.56-.44c-.24-.1-.54-.15-.93-.15-.46 0-.87.12-1.26.35-.38.23-.66.56-.83 1l-1.74-.75c.16-.41.38-.77.67-1.05.29-.29.61-.52.97-.7.36-.18.75-.31 1.17-.39s.83-.12 1.25-.12c.55 0 1.07.07 1.53.21s.87.35 1.21.63c.34.28.61.64.8 1.07.19.44.29.95.29 1.55v6.13h-2.21v-1.15zm-1.15-3.05c-.26 0-.54.01-.85.04-.31.03-.6.09-.88.2-.27.11-.5.26-.68.47-.18.2-.27.49-.27.84 0 .23.04.42.11.58.08.15.18.28.32.38.14.1.3.17.48.21.18.04.38.07.59.07.29 0 .57-.04.84-.11.27-.08.52-.19.74-.34s.4-.35.53-.58c.13-.24.2-.51.2-.83v-.91h-1.13zM98.64 345.07l-3.06-4.57h2.59l1.95 3.01 1.93-3.01h2.34l-3.04 4.42 3.37 4.97h-2.61l-2.17-3.37-2.24 3.37h-2.34l3.29-4.81zM110.99 346.02a3.174 3.174 0 001.3 1.65c.29.19.61.33.96.42.35.09.72.14 1.11.14.3 0 .59-.04.88-.12.29-.08.55-.2.78-.36.23-.16.41-.36.56-.61.14-.25.21-.54.21-.87 0-.36-.08-.65-.25-.87s-.38-.4-.65-.54-.59-.24-.94-.32-.73-.15-1.12-.22c-.5-.09-.99-.19-1.49-.32s-.94-.32-1.34-.57c-.4-.26-.72-.61-.97-1.06s-.37-1.04-.37-1.78c0-.61.13-1.15.38-1.62.25-.46.59-.85 1-1.17.41-.31.89-.55 1.42-.7.53-.16 1.07-.23 1.63-.23.51 0 1.01.05 1.48.16s.91.28 1.32.51.77.52 1.09.88c.32.36.58.79.78 1.29l-1.82.82c-.27-.57-.66-1.01-1.15-1.33-.49-.32-1.06-.48-1.72-.48-.26 0-.52.03-.77.09s-.47.15-.67.29c-.2.13-.35.31-.47.52-.12.21-.18.48-.18.79 0 .34.08.62.23.84.15.22.36.39.62.53.26.13.56.24.91.32.34.08.71.15 1.1.22.34.06.68.12 1.02.19s.67.16.99.28.62.26.9.42c.28.17.53.38.74.64.21.26.38.57.5.93.12.37.18.8.18 1.29 0 .65-.14 1.22-.42 1.72-.28.5-.64.91-1.09 1.25s-.96.59-1.54.76c-.58.17-1.16.25-1.75.25s-1.15-.06-1.7-.17-1.08-.29-1.56-.54c-.48-.25-.9-.58-1.26-.99-.36-.41-.63-.91-.8-1.51l1.94-.83zM127.14 348.41a2.823 2.823 0 01-1.28 1.25c-.27.13-.56.23-.86.3-.31.06-.62.1-.95.1-.54 0-1.01-.09-1.42-.25-.41-.17-.76-.41-1.03-.72-.28-.31-.49-.69-.63-1.12-.14-.44-.21-.92-.21-1.45v-6.01H123v5.74c0 .64.15 1.15.46 1.52s.78.55 1.44.55c.35 0 .67-.05.94-.16.28-.11.51-.26.71-.46.2-.2.35-.43.45-.71.1-.28.15-.58.15-.92v-5.56h2.24v9.39h-2.24v-1.47zM131.68 340.5h2.24v1.44c.14-.27.31-.5.52-.71.21-.2.44-.38.69-.51.25-.14.53-.24.82-.31.29-.07.59-.1.89-.1s.58.03.85.1c.28.06.54.17.78.3.24.14.46.31.64.52.19.21.34.46.45.75.36-.54.82-.95 1.4-1.24s1.2-.43 1.88-.43c.54 0 1 .09 1.4.28.4.19.73.44.99.77.26.32.46.71.59 1.15s.19.93.19 1.45v5.94h-2.23v-5.8c0-.59-.15-1.06-.44-1.41-.29-.35-.74-.53-1.34-.53-.33 0-.62.05-.87.16s-.46.26-.63.44-.3.41-.39.67c-.09.26-.13.54-.13.84v5.62h-2.24v-5.8c0-.59-.15-1.06-.45-1.41s-.75-.53-1.35-.53c-.32 0-.61.05-.86.16s-.46.26-.63.44c-.17.19-.3.41-.39.67-.09.26-.13.54-.13.84v5.62h-2.24v-9.39zM148.22 340.5h2.24v1.44c.14-.27.31-.5.52-.71.21-.2.44-.38.69-.51.25-.14.53-.24.82-.31.29-.07.59-.1.89-.1s.58.03.85.1c.28.06.54.17.78.3.24.14.46.31.64.52.19.21.34.46.45.75.36-.54.82-.95 1.4-1.24s1.2-.43 1.88-.43c.54 0 1 .09 1.4.28.4.19.73.44.99.77.26.32.46.71.59 1.15s.19.93.19 1.45v5.94h-2.23v-5.8c0-.59-.15-1.06-.44-1.41-.29-.35-.74-.53-1.34-.53-.33 0-.62.05-.87.16s-.46.26-.63.44-.3.41-.39.67c-.09.26-.13.54-.13.84v5.62h-2.24v-5.8c0-.59-.15-1.06-.45-1.41s-.75-.53-1.35-.53c-.32 0-.61.05-.86.16s-.46.26-.63.44c-.17.19-.3.41-.39.67-.09.26-.13.54-.13.84v5.62h-2.24v-9.39zM170.14 348.74c-.36.47-.78.81-1.28 1.02-.5.21-1.04.31-1.63.31-.44 0-.85-.06-1.23-.17-.38-.11-.72-.28-1-.51s-.51-.51-.67-.85c-.16-.34-.25-.74-.25-1.2 0-.43.07-.81.22-1.13.14-.32.34-.59.58-.81.24-.22.53-.4.85-.54.33-.14.67-.25 1.04-.33.37-.08.74-.13 1.13-.16.39-.03.76-.04 1.12-.04h1.1v-.15c0-.33-.02-.64-.07-.91s-.14-.5-.28-.69-.32-.34-.56-.44c-.24-.1-.54-.15-.93-.15-.46 0-.87.12-1.26.35-.38.23-.66.56-.83 1l-1.74-.75c.16-.41.38-.77.67-1.05.29-.29.61-.52.97-.7.36-.18.75-.31 1.17-.39s.83-.12 1.25-.12c.55 0 1.07.07 1.53.21s.87.35 1.21.63c.34.28.61.64.8 1.07.19.44.29.95.29 1.55v6.13h-2.21v-1.15zm-1.14-3.05c-.26 0-.54.01-.85.04-.31.03-.6.09-.88.2-.27.11-.5.26-.68.47-.18.2-.27.49-.27.84 0 .23.04.42.11.58.08.15.18.28.32.38.14.1.3.17.48.21.18.04.38.07.59.07.29 0 .57-.04.84-.11.27-.08.52-.19.74-.34s.4-.35.53-.58c.13-.24.2-.51.2-.83v-.91H169zM174.56 340.5h2.24v1.76c.31-.65.73-1.13 1.24-1.44.51-.31 1.13-.47 1.84-.47v2.08c-.46 0-.87.04-1.25.12-.38.08-.7.22-.97.42-.27.2-.48.47-.64.8-.15.33-.23.75-.23 1.25v4.85h-2.24v-9.39zM184.27 348.93l-3.68-8.43h2.4l2.46 5.99 2.3-5.99h2.18l-5.16 12.6h-2.2l1.7-4.17z"/></g><g data-name="Group 10214"><rect data-name="Rectangle 734" x="27.04" y="324.83" width="38.32" height="38.32" rx="3.83" ry="3.83" fill="#e53617"/><g data-name="Group 10213" fill="#fff"><path data-name="Vector 3" d="M37.59 335.37v17.23h17.23v-17.23H37.59zm15.35 15.36H39.48v-13.48h13.48v13.48h-.01z"/><path data-name="Vector 4" d="M49.1 339.21l-7.38 7.38 1.59 1.59 7.38-7.38-1.59-1.59z"/><path data-name="Vector 5" d="M44.52 339.82h-2.25v2.14h2.25v-2.14z"/><path data-name="Vector 6" d="M50.12 345.91h-2.25v2.14h2.25v-2.14z"/></g></g></g></g></svg>