<svg data-name="Layer 1" xmlns="http://www.w3.org/2000/svg" viewBox="0 0 512 400"><g data-name="Group 10162"><g data-name="Group 10142"><path d="M49.63 399.81c.99 0 .99-1.54 0-1.54s-.99 1.54 0 1.54z"/><path data-name="Vector 2" d="M288.13 378.81c0 6.75 0 13.49-.02 20.23l1.16-.67c-12.87-5.9-25.75-11.79-38.62-17.69-1.85-.85-3.7-1.7-5.55-2.54l.38.67V93.07c0-3.86.07-7.73 0-11.59v-.5c0-.42-.35-.77-.77-.77H124.45c-1.59 0-3.31-.19-4.89 0h-.22c-.42 0-.77.35-.77.77v190.96c0 2.95.02 5.9 0 8.85-.03 5.31-2.68 10.27-7.31 12.96-1.55.9-3.3 1.47-4.97 2.12-2.44.94-4.88 1.87-7.32 2.81-1.31.5-2.63 1.01-3.94 1.51-.91.35-.52 1.84.41 1.48 3.84-1.47 7.67-2.94 11.51-4.42 1.65-.63 3.36-1.2 4.91-2.07 3.12-1.75 5.61-4.57 7-7.87 1.52-3.62 1.27-7.42 1.27-11.24V84.8c0-1.09.16-2.32 0-3.39-.02-.14 0-.29 0-.43l-.77.77h123.48c.47 0 1.22.15 1.67 0 .06-.02.16 0 .22 0l-.77-.77v285.74c0 3.86-.07 7.73 0 11.59v.5c0 .25.14.55.38.67 12.87 5.9 25.75 11.79 38.62 17.69 1.85.85 3.7 1.7 5.55 2.54.51.24 1.16-.04 1.16-.67 0-6.75 0-13.49.02-20.23 0-.99-1.54-.99-1.54 0h-.02z"/><path data-name="Vector 3" d="M288.9 379.58c.99 0 .99-1.54 0-1.54s-.99 1.54 0 1.54z"/><path data-name="Vector 4" d="M244.17 81.52l31.19 24.35c4.32 3.38 8.66 6.75 12.98 10.13.07.05.23.13.27.22-.29-.58-.22.73-.22.94v11.08c0 5.96 0 11.91-.01 17.87l-.06 80.45-.06 82.43-.06 69.01v6.91c0 .99 1.54.99 1.54 0 .03-22.32.04-44.64.06-66.96l.06-82.15.06-81.63c0-11.96.02-23.93.03-35.9 0-1.08.36-2.54-.46-3.33-.47-.46-1.06-.83-1.58-1.23l-6.85-5.35c-11.66-9.11-23.32-18.21-34.99-27.31l-.79-.62c-.77-.6-1.87.48-1.09 1.09h-.02z"/><path data-name="Vector 5" d="M289.59 333.73c3.42-1.38 6.84-2.75 10.26-4.13.32-.13.56-.37.56-.74.32-18.44.57-36.87.75-55.31.14-14.53.29-29.06.54-43.59.22-12.32.48-24.64.76-36.96l-.77.77h70.87c.88 0 2.03.2 2.89 0 .04-.01.09 0 .13 0l-.77-.77v100.3c0 .42-.09.95 0 1.36.01.06 0 .12 0 .18l.77-.77c-2.95-.33-5.9-.67-8.85-1.01l.67 1.16c1.78-3 4.69-5.69 7.49-7.94 7.52-6.03 16.84-9.5 26.29-11.02a78.446 78.446 0 0121.04-.5c5.76.65 11.48 2.12 16.7 4.65 7.43 3.6 13.68 9.29 17.92 16.37 1.87 3.12 3.7 6.71 4.4 10.33.53 2.72.77 5.53 1.15 8.27.99 7.08 1.96 14.18 2.95 21.26 1.23 8.83 2.45 17.67 3.68 26.5 1.09 7.9 2.19 15.79 3.28 23.69.6 4.29 1.19 8.58 1.78 12.87.03.2.06.39.08.59.13.98 1.62.56 1.48-.41l-1.29-9.3c-1.03-7.41-2.06-14.81-3.08-22.22-1.24-8.96-2.48-17.91-3.73-26.87-1.08-7.77-2.15-15.54-3.23-23.31-.52-3.75-.94-7.54-1.56-11.27-.46-2.78-1.77-5.57-3.03-8.06-3.45-6.87-8.7-12.78-15.13-16.99-10.28-6.72-22.78-8.53-34.84-7.99-11.03.49-22.15 3.19-31.54 9.15-4.46 2.83-8.72 6.41-11.75 10.79-.14.21-.29.42-.42.63-.32.55.11 1.09.67 1.16 2.95.33 5.9.67 8.85 1 .42.05.77-.39.77-.77v-97.71c0-1.31.09-2.65 0-3.96v-.17c0-.42-.35-.77-.77-.77h-70.87c-.95 0-1.94-.07-2.89 0h-.13c-.42 0-.76.35-.77.77-.45 19.17-.84 38.33-1.07 57.5-.18 14.32-.28 28.65-.45 42.98-.14 11.79-.33 23.59-.53 35.38l.56-.74c-3.42 1.37-6.84 2.75-10.26 4.12-.91.37-.51 1.85.41 1.48l.03.02z"/><path data-name="Vector 6" d="M365.98 304.39v94.86c0 .99 1.54.99 1.54 0v-94.86c0-.99-1.54-.99-1.54 0z"/><path data-name="Vector 7" d="M464.89 320.43c-7.45-3.72-15.19-6.91-23.23-9.12-7.19-1.98-14.61-3.14-22.06-3.38-7.46-.24-15.01.47-22.39 1.82-3.87.71-7.71 1.57-11.38 3.01-2.61 1.03-5.29 2.27-7.38 4.17-1.24 1.12-2.1 2.49-1.74 4.2.28 1.34 1.29 2.36 2.48 2.98 1.79.92 3.89 1.18 5.88 1.31 3.31.22 6.66-.03 9.95-.37 2.38-.25 4.76-.55 7.15-.73 2.39-.17 4.82-.28 7.24-.34 5.64-.13 11.28.03 16.89.5 5.72.49 11.45 1.31 17.01 2.79 4.68 1.25 9.45 2.96 13.33 5.94.79.61 1.52 1.27 2.2 2l-.23-.54c.44 3.41.88 6.82 1.31 10.22.06.5.13.99.19 1.49l1.16-.67c-1.35-.59-2.76-1.07-4.17-1.53-3.72-1.22-7.53-2.18-11.37-2.96-5.87-1.19-11.84-1.92-17.82-2.26-7.64-.43-15.32-.2-22.93.67-9.19 1.04-18.26 2.98-27.08 5.75-1.21.38-2.41.78-3.61 1.18-.31.11-.58.39-.56.74.22 4.85.44 9.7.65 14.54l.09 2.07c.02.51.47.86.97.74 1.67-.4 3.35-.72 5.04-1.03 4.4-.82 8.83-1.47 13.27-1.98 6.29-.72 12.62-1.16 18.95-1.28 7.29-.13 14.6.18 21.83 1.1 7.44.94 14.84 2.57 21.89 5.14.89.32 1.77.67 2.65 1.02l.21-1.51c-2.57.09-5.15.25-7.72.42-6.22.41-12.42.97-18.61 1.69-7.72.9-15.42 2.04-23.03 3.64-7.14 1.5-14.29 3.35-20.98 6.31-4.65 2.06-9.92 4.94-12.31 9.66-.25.49-.47 1.01-.64 1.53-.32.94 1.17 1.34 1.48.41s.79-1.82 1.43-2.7c.28-.38.6-.77.99-1.19.42-.45.87-.88 1.33-1.29 2-1.75 4.44-3.17 6.89-4.35 6.29-3.04 13.15-4.89 19.95-6.41 7.49-1.68 15.08-2.87 22.7-3.81 6.4-.79 12.82-1.4 19.25-1.85 3.05-.22 6.1-.32 9.15-.52h.13c.91-.03.98-1.2.21-1.51-7.06-2.86-14.5-4.69-22.02-5.82s-14.71-1.55-22.1-1.53c-6.53.02-13.05.39-19.54 1.08-4.83.51-9.64 1.17-14.42 2.02-1.44.26-2.89.53-4.32.83-.63.13-1.35.2-1.95.43-.03 0-.06.02-.09.02l.98.74c-.22-4.85-.44-9.7-.65-14.54l-.09-2.07-.56.74c8.88-3.02 18.03-5.23 27.32-6.5 7.71-1.05 15.52-1.44 23.3-1.15 6.1.23 12.18.87 18.18 1.98 4.09.76 8.15 1.72 12.12 2.96 1.15.36 2.3.74 3.44 1.16l1.02.39c.11.04.21.09.32.13.14.06.27.11.03.01.02 0 .04.02.07.03.46.2 1.24-.02 1.16-.67-.47-3.66-.94-7.33-1.42-10.99-.03-.22-.06-.44-.08-.66-.07-.49-.38-.77-.71-1.1-.85-.84-1.79-1.6-2.77-2.28-2.17-1.51-4.56-2.67-7.02-3.63-5.75-2.25-11.89-3.42-17.99-4.2-6.1-.78-12.79-1.13-19.2-1.11-5.11.02-10.24.25-15.31.87-3.83.46-7.72.83-11.58.64-2.04-.1-4.38-.31-6.09-1.41-.5-.32-.86-.68-1.13-1.26-.06-.12.04.11-.03-.07-.03-.07-.05-.14-.07-.21-.02-.07-.04-.14-.05-.21-.01-.05-.05-.26-.04-.18-.03-.18-.02-.59.03-.73.22-.74.95-1.49 1.62-2.06 1.1-.93 2.38-1.65 3.66-2.3 3.7-1.86 7.73-2.97 11.77-3.79 4.04-.82 8.46-1.5 12.73-1.88 8.14-.72 16.37-.45 24.43.98 8.69 1.53 17.12 4.31 25.18 7.88 2.21.98 4.38 2.01 6.54 3.08.88.44 1.66-.89.77-1.33v-.02l-.05.02z"/><path data-name="Vector 8" d="M463.58 307.99c-3.88-3.14-8.04-5.92-12.45-8.25-6.46-3.43-13.42-5.94-20.59-7.35a74.029 74.029 0 00-23.99-.75c-6.36.84-12.6 2.47-18.57 4.83a79.636 79.636 0 00-11.26 5.48c-.26.15-.51.31-.76.46-.85.51-.07 1.85.77 1.33 3.15-1.92 6.45-3.6 9.85-5.05a77.637 77.637 0 0117.28-5.1c7.65-1.32 15.53-1.43 23.21-.25s14.52 3.38 21.19 6.66c4.65 2.29 9.09 5.05 13.18 8.24.35.28.71.56 1.06.84.76.62 1.86-.47 1.09-1.09z"/><path data-name="Vector 9" d="M181.16 398.94c.22-12.53.42-25.07.53-37.61.08-8.53.12-17.07.09-25.6v-1.42c0 .17-.06.31-.16.42 0-.06-.12.05-.03.02.07-.02.14-.08.2-.11.14-.07.1-.05.31-.13.92-.33 1.88-.57 2.84-.8a93.6 93.6 0 014.48-.95c.39-.07.67-.58.54-.95-.94-2.62-1.89-5.24-2.83-7.86-1.51-4.18-3.02-8.37-4.52-12.55-.35-.97-.7-1.94-1.05-2.9-.35-.96-1.82-.52-1.48.41.94 2.62 1.89 5.24 2.83 7.86 1.51 4.18 3.02 8.37 4.52 12.55.35.97.7 1.94 1.05 2.9l.54-.95c-1.31.25-2.62.52-3.91.82-.93.22-1.85.44-2.76.72-.59.18-1.35.37-1.8.83-.29.3-.29.66-.29 1.05v10.77c-.02 9.93-.13 19.85-.26 29.78-.11 7.9-.24 15.79-.37 23.68-.02.99 1.52.99 1.54 0v.02z"/><path data-name="Vector 10" d="M206.34 398.91c0-10.59 0-21.17-.03-31.76 0-8.54-.03-17.09-.05-25.63v-4.64c0-.2 0-.18-.05.06-.04.04.11-.12.14-.13.33-.14.66-.42.98-.58 1.25-.63 2.58-1.11 3.9-1.55.39-.13.66-.53.54-.95-1.83-6.21-3.53-12.47-5.48-18.65-.23-.75-.69-.85-1.38-1.02l-4-1.02c-4.25-1.08-8.49-2.15-12.73-3.24l-5.06-1.29c-.7-.18-1.42-.43-2.13-.54-.6-.1-1.24-.03-1.84-.03H39.48c-.25 0-.56.14-.67.38-3.03 6.94-6.05 13.87-9.08 20.8-.43.98-.85 1.95-1.28 2.94-.18.41-.08 1.03.46 1.13 2.59.49 5.18.99 7.77 1.48.95.18 1.93.31 2.02 1.51.02.29 0 .59 0 .88v58.46c0 1.07-.07 2.17 0 3.24v.14c0 .99 1.54.99 1.54 0v-61.51c0-1.63-.09-3.39-2.02-3.98-1.02-.31-2.13-.42-3.17-.62-1.6-.3-3.19-.61-4.79-.91l-.95-.18.46 1.13c3.03-6.94 6.05-13.87 9.08-20.8.43-.98.85-1.96 1.28-2.94l-.67.38h138.83c.76 0 1.54.05 2.31 0 .39-.03-.15-.08.13 0 .82.27 1.7.43 2.53.64 6.79 1.72 13.57 3.45 20.36 5.17.54.14 1.09.28 1.64.41l-.54-.54c1.62 5.53 3.25 11.05 4.87 16.58.23.79.46 1.58.69 2.36l.54-.95c-1.2.39-2.39.85-3.55 1.36-.67.3-1.38.62-1.94 1.1-.67.57-.62 1.17-.62 2.02 0 4.64 0 9.28.02 13.91.02 9.02.04 18.04.04 27.06v20.27c0 .99 1.54.99 1.54 0h.02v.04z"/><path data-name="Vector 11" d="M179.81 388.61h-9.24l.77.77c-.09-3.01-.17-6.01-.26-9.01-.25-8.53-.49-17.06-.74-25.59-.2-6.93-.4-13.85-.59-20.77 0-.41-.34-.77-.77-.77h-8.95c-.43 0-.75.35-.77.77-.46 11.62-.84 23.26-1.1 34.89-.13 5.94-.24 11.88-.27 17.82v2.67l.77-.77h-8.46l.77.77c-.06-4.12-.1-8.24-.14-12.37-.09-8.97-.15-17.94-.17-26.91 0-5.37 0-10.73.03-16.1 0-.42-.35-.77-.77-.77h-9.74c-.44 0-.74.35-.77.77-.57 9.37-.78 18.76-.92 28.14-.11 7.6-.15 15.21-.13 22.81 0 1.48 0 2.95.02 4.43l.77-.77h-8.82l.77.77c-.02-4.64-.09-9.28-.17-13.92-.17-9.25-.42-18.5-.91-27.73-.25-4.58-.54-9.17-1.06-13.73-.05-.42-.31-.77-.77-.77h-8.86c-.44 0-.74.35-.77.77-.61 9.86-.92 19.74-1.1 29.62-.13 7.25-.2 14.5-.18 21.76 0 1.33 0 2.67.02 4.01l.77-.77h-8.77l.77.77c0-9.25 0-18.49-.01-27.74 0-5.48-.02-10.96-.03-16.44 0-2.72-.02-5.44-.04-8.16 0-.92 0-1.85-.03-2.77 0-.09 0-.17-.01-.26-.07-.55-.58-1-1.16-.68-.24.13-.38.4-.38.67l.77-.77H99.04c-.44 0-.74.35-.77.77-.63 8.01-1.02 16.04-1.19 24.07-.15 6.89-.14 13.78-.12 20.67.02 3.55.03 7.09.02 10.64l.77-.77h-14.9l.77.77v-36.52c0-.94.03-1.9-.03-2.84-.22-3.73-1.64-7.28-4.03-10.15-4.87-5.86-13.26-7.79-20.24-4.78-6.33 2.74-10.42 9.13-10.44 16v47.97c0 .99 1.54.99 1.54 0v-46.84c0-1.03 0-2.06.11-3.09.41-3.56 2.1-6.91 4.65-9.41 5.31-5.21 13.76-5.96 19.92-1.81a15.84 15.84 0 016.23 8.33c.56 1.79.74 3.61.74 5.48v37.68c0 .42.35.77.77.77h14.9c.42 0 .77-.35.77-.77.02-6.43-.05-12.87-.04-19.3.02-7.34.13-14.67.46-22 .21-4.69.5-9.39.87-14.07l-.77.77h10.14c.43 0 .75-.35.77-.77 0-.05-.02.21-.03.2 0 0-.08.18-.08.19-.58 1.04-1.25.23-1.41-.18 0 .02 0-.25-.03-.19-.03.07 0 .2.01.27.02.88.02 1.76.03 2.65.02 2.55.03 5.1.03 7.66.02 5.1.02 10.19.03 15.29.01 8.48.01 16.97.02 25.45v4.06c0 .42.35.77.77.77h8.77c.42 0 .77-.35.77-.77-.04-3.92-.03-7.83 0-11.75.05-8.92.2-17.85.49-26.76.18-5.62.43-11.25.77-16.86l-.77.77h8.86l-.77-.77c.99 8.72 1.3 17.53 1.58 26.29.27 8.08.43 16.16.51 24.24.02 1.62.04 3.23.04 4.84 0 .42.35.77.77.77h8.82c.42 0 .77-.35.77-.77-.04-4.27-.03-8.53-.02-12.8.03-9.03.14-18.07.39-27.1.15-5.16.34-10.33.66-15.48l-.77.77h9.74l-.77-.77c-.07 9.61-.04 19.22.03 28.83.05 7.43.12 14.87.21 22.3l.06 4.25c0 .42.35.77.77.77h8.46c.42 0 .77-.35.77-.77-.02-2.82.02-5.63.06-8.44.1-8.4.31-16.8.55-25.2.22-7.25.47-14.49.75-21.74l-.77.77h8.95l-.77-.77c.32 11.31.65 22.61.98 33.92.18 6.19.36 12.38.53 18.58.03.96.06 1.92.08 2.88 0 .42.34.77.77.77h9.24c.99 0 .99-1.54 0-1.54h.03v-.07z"/><path data-name="Vector 12" d="M234.54 398.91v-87.05c0-19.32-.28-38.64-.93-57.94-.51-15.21-1.26-30.41-2.31-45.59-.83-12.02-1.85-24.01-3.06-35.99-.95-9.47-2.03-18.93-3.12-28.38-.9-7.78-1.81-15.56-2.55-23.36-.65-6.83-1.15-13.67-1.32-20.53-.04-1.6-.06-3.2-.06-4.8 0-.43-.35-.75-.77-.77-24.58-.92-49.17-1.19-73.76-.66-7.55.16-15.09.39-22.64.66-.98.04-.99 1.57 0 1.54 25.25-.92 50.51-1.21 75.76-.63 6.88.16 13.76.37 20.64.63l-.77-.77c0 6.74.36 13.48.92 20.19.62 7.46 1.45 14.91 2.3 22.35 1.03 9.01 2.09 18.02 3.05 27.04 1.19 11.25 2.25 22.51 3.12 33.79 1.11 14.38 1.95 28.78 2.56 43.19.77 18.16 1.18 36.33 1.33 54.5.07 8.02.07 16.05.07 24.08v78.52c0 .99 1.54.99 1.54 0v-.02z"/><path data-name="Vector 13" d="M358.79 371.76c-14.94-2.32-30.14-2.97-45.2-1.56-4.05.38-8.07.9-12.08 1.56-.97.16-.56 1.64.41 1.48 14.34-2.36 28.96-2.83 43.43-1.58 4.36.38 8.71.91 13.03 1.58.97.15 1.39-1.33.41-1.48z"/><path data-name="Vector 14" d="M358.79 361.36c-14.63-3.4-29.76-4.62-44.67-2.55-4.25.59-8.46 1.45-12.61 2.55-.95.26-.55 1.74.41 1.48 14.37-3.83 29.4-4.41 44.1-2.33 4.15.59 8.28 1.38 12.37 2.33.96.23 1.37-1.26.41-1.48h-.01z"/></g><g data-name="Group 9121"><path data-name="Rectangle 555" d="M179.63 208.88c0-5.4-4.38-9.77-9.77-9.77H12.85c-5.4 0-9.77 4.38-9.77 9.77v62.35c0 5.4 4.38 9.77 9.77 9.77h166.77v-72.13z" fill="#cc6730"/><g fill="#fbf5f3" data-name="10"><path d="M50.83 244.18l-3.82 2.41v-3.01l4.25-2.8h3.06v18.08h-3.5v-14.67zM65.79 259.1c-1.5 0-2.75-.26-3.74-.78-1-.52-1.79-1.22-2.39-2.11s-1.02-1.92-1.27-3.09c-.25-1.18-.37-2.42-.37-3.74 0-1.19.16-2.33.48-3.4s.81-2.01 1.46-2.82c.65-.81 1.47-1.46 2.45-1.93.98-.48 2.13-.72 3.45-.72.94 0 1.78.12 2.53.37s1.4.59 1.96 1.04c.56.44 1.05.97 1.45 1.58.4.61.73 1.27.98 1.99s.44 1.48.56 2.28c.12.8.17 1.62.17 2.45 0 1.2-.16 2.34-.47 3.42-.31 1.07-.79 2.02-1.42 2.83s-1.44 1.45-2.41 1.93c-.97.47-2.11.71-3.42.71zm.12-2.73c.65 0 1.2-.1 1.65-.31s.83-.49 1.14-.85c.3-.36.54-.77.72-1.25.17-.47.3-.97.39-1.49s.14-1.05.16-1.59c.02-.54.03-1.06.03-1.55 0-.68-.06-1.39-.19-2.11-.12-.72-.35-1.38-.67-1.96a4.08 4.08 0 00-1.32-1.45c-.56-.38-1.27-.57-2.13-.57-.63 0-1.18.1-1.64.31s-.84.49-1.14.85c-.3.35-.55.77-.73 1.24s-.32.97-.41 1.49-.16 1.05-.19 1.59-.04 1.06-.04 1.55c0 .7.06 1.41.19 2.14.12.72.35 1.38.68 1.97s.78 1.07 1.34 1.44 1.28.56 2.16.56z"/></g><g fill="#fbf5f3"><path d="M36.07 243c0 2.05-1.67 3.72-3.72 3.72s-3.72-1.67-3.72-3.72 1.67-3.72 3.72-3.72 3.72 1.67 3.72 3.72zm-2.09 0a1.641 1.641 0 10-3.282.002A1.641 1.641 0 0033.98 243z" fill-rule="evenodd"/><path d="M37.53 250.09c-1.38-1.5-3.22-2.33-5.19-2.33s-3.81.83-5.19 2.33c-1.36 1.47-2.11 3.43-2.11 5.51v2.74h2.08v-2.74c0-2.49 1.44-4.62 3.46-5.41l-1.86 4.52 3.61 3.61 3.12-3.12.49-.49-1.13-2.75-1.6 1.6.27.66-1.15 1.15-.27-.27-.89-.89 1.77-4.33c2.58.34 4.59 2.77 4.59 5.71v2.74h2.08v-2.74c0-2.08-.75-4.03-2.11-5.51h.03z"/></g><g fill="#fbf5f3" data-name="Zylker Startup"><path d="M25.34 226.86l5.01-7.35H25.8v-1.12h6.37v.57l-4.89 7.31h4.79v1.16h-6.73v-.57zM35.27 226.74l-2.58-5.93h1.41l1.85 4.49 1.72-4.49h1.3l-3.63 8.91h-1.3l1.23-2.98zM40.24 218.28l1.32-.58v9.73h-1.32v-9.15zM43.57 217.7h1.32v6.07l2.62-2.96h1.46l-2.77 3.04 3 3.58h-1.54l-2.77-3.33v3.33h-1.32v-9.73zM55.4 225.95c-.14.28-.32.52-.52.73-.2.2-.42.37-.66.5s-.5.23-.77.29-.56.09-.85.09c-.52 0-.99-.09-1.4-.26s-.76-.41-1.04-.72-.5-.67-.65-1.08c-.15-.42-.23-.86-.23-1.35s.08-.94.23-1.36c.15-.42.36-.79.64-1.1.28-.31.61-.55 1.01-.73.4-.18.84-.27 1.32-.27.58 0 1.07.1 1.45.29.39.19.7.46.94.79s.41.73.51 1.18.15.93.15 1.45h-4.91c0 .3.04.59.12.85.08.26.2.49.36.68s.36.34.6.45.52.16.83.16c.41 0 .76-.09 1.06-.27.3-.18.54-.44.72-.77l1.09.46zm-1.17-2.5c-.02-.27-.06-.51-.14-.73-.08-.22-.19-.4-.33-.56s-.31-.27-.52-.36c-.2-.08-.44-.13-.71-.13s-.53.05-.74.14c-.22.09-.4.22-.56.37-.15.16-.28.35-.37.56-.09.22-.16.45-.2.69h3.57v.02zM57.01 220.81h1.32v1.22c.23-.46.53-.79.87-1.01.35-.22.78-.32 1.29-.32v1.23c-.34 0-.64.05-.91.12-.27.07-.49.18-.68.34s-.33.35-.43.6c-.1.24-.15.55-.15.92v3.53H57v-6.62h.01zM65.1 224.68c.08.27.19.52.33.74.14.22.31.41.5.56s.41.28.65.36.5.13.78.13c.24 0 .48-.03.71-.1s.43-.16.61-.29c.18-.13.32-.29.43-.49.11-.2.16-.43.16-.69s-.06-.5-.18-.68-.28-.32-.48-.43c-.2-.11-.43-.2-.7-.26-.26-.06-.54-.12-.82-.18-.23-.04-.46-.09-.69-.15-.23-.05-.46-.12-.67-.2s-.41-.18-.59-.29c-.18-.12-.34-.26-.48-.44-.14-.17-.24-.38-.32-.63-.08-.24-.11-.53-.11-.86 0-.41.08-.77.23-1.09.15-.32.37-.58.63-.8.27-.22.58-.38.95-.49s.76-.17 1.18-.17c1.45 0 2.47.68 3.06 2.05l-1.13.49c-.19-.44-.44-.78-.75-1.02s-.71-.36-1.2-.36c-.21 0-.41.02-.61.07s-.38.13-.53.23c-.15.1-.27.23-.37.39-.09.16-.14.35-.14.56 0 .28.06.5.17.68.12.17.27.32.47.43.2.11.43.2.69.26.26.07.54.13.83.19.23.05.46.09.69.15.23.05.46.12.68.2s.42.18.61.3.35.26.5.44c.14.18.25.39.33.64s.12.54.12.87c0 .44-.09.82-.28 1.16s-.43.63-.74.86-.65.41-1.04.53-.78.18-1.18.18c-.42 0-.82-.04-1.19-.13s-.7-.23-.99-.42c-.3-.19-.56-.43-.78-.73-.22-.3-.4-.65-.54-1.07l1.2-.53v.03zM75.36 227.38c-.31.1-.64.15-.99.15-.62 0-1.09-.15-1.4-.46-.32-.3-.48-.77-.48-1.4v-3.83h-.93v-1.03h.93v-1.3l1.3-.57v1.87h1.49v1.03h-1.49v3.71c0 .27.06.49.18.65.12.17.34.25.65.25.22 0 .47-.05.74-.14v1.06zM80.59 226.61c-.25.33-.55.57-.9.72-.36.15-.73.22-1.13.22-.3 0-.59-.04-.86-.12s-.5-.21-.7-.37-.36-.37-.48-.61a1.93 1.93 0 01-.18-.85c0-.3.05-.55.15-.77s.23-.4.4-.56c.17-.15.37-.28.59-.38.22-.1.46-.17.72-.23.25-.06.51-.09.78-.11s.53-.03.78-.03h.82c0-.27-.01-.51-.04-.73s-.09-.41-.19-.57a.92.92 0 00-.43-.37c-.19-.09-.43-.13-.74-.13-.16 0-.33.02-.49.07-.16.05-.31.12-.45.21s-.26.2-.37.33-.19.27-.25.44l-1.07-.46c.12-.28.27-.53.46-.73s.4-.37.64-.5.5-.23.77-.29c.28-.06.56-.09.85-.09.38 0 .73.05 1.05.15.32.1.59.26.82.46s.41.45.54.76c.13.3.19.65.19 1.05v4.33h-1.29v-.84zm-.84-2.23c-.2 0-.42 0-.66.03s-.47.08-.69.16-.39.21-.53.37-.22.38-.22.66c0 .34.11.58.32.73s.49.23.83.23c.22 0 .43-.03.65-.09.21-.06.4-.15.57-.27.17-.12.31-.27.41-.46.1-.18.16-.4.16-.64v-.73h-.84zM83.72 220.81h1.32v1.22c.23-.46.53-.79.87-1.01.35-.22.78-.32 1.29-.32v1.23c-.34 0-.64.05-.91.12-.27.07-.49.18-.68.34s-.33.35-.43.6c-.1.24-.15.55-.15.92v3.53h-1.32v-6.62h.01zM91.78 227.38c-.31.1-.64.15-.99.15-.62 0-1.09-.15-1.4-.46-.32-.3-.48-.77-.48-1.4v-3.83h-.93v-1.03h.93v-1.3l1.3-.57v1.87h1.49v1.03h-1.49v3.71c0 .27.06.49.18.65.12.17.34.25.65.25.22 0 .47-.05.74-.14v1.06zM97.68 226.38c-.2.4-.49.7-.87.89s-.8.28-1.27.28c-.38 0-.72-.06-1.01-.18s-.54-.29-.74-.51-.35-.49-.45-.8-.15-.66-.15-1.04v-4.22h1.3v4.1c0 .51.12.9.37 1.16.25.26.62.4 1.1.4.27 0 .51-.04.73-.12.21-.08.39-.19.54-.34s.26-.33.34-.53.12-.44.12-.69v-3.98h1.3v6.62h-1.3v-1.05h-.01zM100.93 220.81h1.32v1.1c.11-.19.25-.37.43-.52.17-.15.36-.28.57-.38s.42-.19.65-.24c.22-.06.44-.08.66-.08.51 0 .95.09 1.32.28s.69.44.93.75.43.68.55 1.09.18.84.18 1.29-.06.91-.19 1.33c-.13.42-.32.79-.57 1.1s-.56.56-.94.75c-.37.19-.8.28-1.29.28a3.113 3.113 0 01-1.31-.29c-.21-.1-.39-.22-.56-.37s-.31-.32-.42-.52v3.35h-1.32v-8.91h-.01zm3.33 5.68c.37 0 .67-.06.92-.19s.45-.3.6-.52.26-.48.32-.77c.06-.29.1-.6.1-.93 0-.3-.04-.59-.12-.87s-.2-.53-.36-.74c-.16-.22-.37-.39-.62-.52s-.55-.19-.9-.19-.64.06-.9.19c-.25.13-.46.3-.62.52s-.28.47-.36.76-.12.59-.12.9c0 .34.04.65.13.94s.21.54.39.75.39.37.65.49.56.18.91.18h-.02z"/></g><g data-name="Group 8247"><circle data-name="Ellipse 14" cx="147.35" cy="238.6" r="18.1" fill="#fcfaf8"/><g data-name="Group 8224"><path d="M139.736 237.661l15.26-.128.016 1.99-15.26.128z"/><path d="M146.31 230.976l1.99-.017.128 15.26-1.99.016z"/></g></g></g><g data-name="Group 9120"><path data-name="Rectangle 555 2" d="M508.92 91.35c0-6.03-4.89-10.92-10.92-10.92H277.33c-6.03 0-10.92 4.89-10.92 10.92v80.6H498c6.03 0 10.92-4.89 10.92-10.92V91.35z" fill="#ffc740"/><g data-name="10"><path d="M315.05 133.94l-4.27 2.69v-3.37l4.75-3.13h3.42v20.21h-3.91v-16.4zM331.77 150.61c-1.67 0-3.07-.29-4.18-.87s-2-1.36-2.67-2.35-1.14-2.14-1.42-3.46-.41-2.71-.41-4.18c0-1.33.18-2.6.54-3.8.36-1.2.9-2.25 1.63-3.15s1.64-1.63 2.74-2.16 2.38-.8 3.86-.8c1.05 0 1.99.14 2.82.41.83.28 1.56.66 2.2 1.16.63.5 1.17 1.09 1.61 1.77.45.68.81 1.42 1.1 2.22.29.8.49 1.65.62 2.55.13.9.19 1.81.19 2.74 0 1.34-.17 2.62-.52 3.82-.35 1.2-.88 2.25-1.59 3.16s-1.61 1.62-2.69 2.15-2.36.79-3.82.79zm.14-3.05c.73 0 1.34-.12 1.85-.35.51-.23.93-.55 1.27-.95.34-.4.61-.86.8-1.39s.34-1.08.43-1.66.16-1.17.18-1.77c.02-.6.04-1.18.04-1.73 0-.76-.07-1.55-.21-2.35-.14-.81-.39-1.54-.75-2.19-.36-.66-.85-1.2-1.47-1.62s-1.41-.64-2.38-.64c-.71 0-1.32.12-1.83.35-.51.23-.94.55-1.28.95s-.61.86-.81 1.38-.36 1.08-.46 1.66c-.11.58-.17 1.18-.21 1.78s-.05 1.18-.05 1.73c0 .78.07 1.58.21 2.39.14.81.39 1.54.76 2.2s.87 1.19 1.5 1.61c.63.41 1.43.62 2.41.62v-.02zM345.07 146.12l3.34 1.32-3.77 6.36-2.2-.97 2.62-6.72h.01zM359.26 150.61c-1.67 0-3.07-.29-4.18-.87s-2-1.36-2.67-2.35-1.14-2.14-1.42-3.46-.41-2.71-.41-4.18c0-1.33.18-2.6.54-3.8.36-1.2.9-2.25 1.63-3.15s1.64-1.63 2.74-2.16 2.38-.8 3.86-.8c1.05 0 1.99.14 2.82.41.83.28 1.56.66 2.2 1.16.63.5 1.17 1.09 1.61 1.77.45.68.81 1.42 1.1 2.22.29.8.49 1.65.62 2.55.13.9.19 1.81.19 2.74 0 1.34-.17 2.62-.52 3.82-.35 1.2-.88 2.25-1.59 3.16s-1.61 1.62-2.69 2.15-2.36.79-3.82.79zm.14-3.05c.73 0 1.34-.12 1.85-.35.51-.23.93-.55 1.27-.95.34-.4.61-.86.8-1.39s.34-1.08.43-1.66.16-1.17.18-1.77c.02-.6.04-1.18.04-1.73 0-.76-.07-1.55-.21-2.35-.14-.81-.39-1.54-.75-2.19-.36-.66-.85-1.2-1.47-1.62s-1.41-.64-2.38-.64c-.71 0-1.32.12-1.83.35-.51.23-.94.55-1.28.95s-.61.86-.81 1.38-.36 1.08-.46 1.66c-.11.58-.17 1.18-.21 1.78s-.05 1.18-.05 1.73c0 .78.07 1.58.21 2.39.14.81.39 1.54.76 2.2s.87 1.19 1.5 1.61c.63.41 1.43.62 2.41.62v-.02zM379.41 150.61c-1.67 0-3.07-.29-4.18-.87s-2-1.36-2.67-2.35-1.14-2.14-1.42-3.46-.41-2.71-.41-4.18c0-1.33.18-2.6.54-3.8.36-1.2.9-2.25 1.63-3.15s1.64-1.63 2.74-2.16 2.38-.8 3.86-.8c1.05 0 1.99.14 2.82.41.83.28 1.56.66 2.2 1.16.63.5 1.17 1.09 1.61 1.77.45.68.81 1.42 1.1 2.22.29.8.49 1.65.62 2.55.13.9.19 1.81.19 2.74 0 1.34-.17 2.62-.52 3.82-.35 1.2-.88 2.25-1.59 3.16s-1.61 1.62-2.69 2.15-2.36.79-3.82.79zm.14-3.05c.73 0 1.34-.12 1.85-.35.51-.23.93-.55 1.27-.95.34-.4.61-.86.8-1.39s.34-1.08.43-1.66.16-1.17.18-1.77c.02-.6.04-1.18.04-1.73 0-.76-.07-1.55-.21-2.35-.14-.81-.39-1.54-.75-2.19-.36-.66-.85-1.2-1.47-1.62s-1.41-.64-2.38-.64c-.71 0-1.32.12-1.83.35-.51.23-.94.55-1.28.95s-.61.86-.81 1.38-.36 1.08-.46 1.66c-.11.58-.17 1.18-.21 1.78s-.05 1.18-.05 1.73c0 .78.07 1.58.21 2.39.14.81.39 1.54.76 2.2s.87 1.19 1.5 1.61c.63.41 1.43.62 2.41.62v-.02zM399.56 150.61c-1.67 0-3.07-.29-4.18-.87s-2-1.36-2.67-2.35-1.14-2.14-1.42-3.46-.41-2.71-.41-4.18c0-1.33.18-2.6.54-3.8.36-1.2.9-2.25 1.63-3.15s1.64-1.63 2.74-2.16 2.38-.8 3.86-.8c1.05 0 1.99.14 2.82.41.83.28 1.56.66 2.2 1.16.63.5 1.17 1.09 1.61 1.77.45.68.81 1.42 1.1 2.22.29.8.49 1.65.62 2.55.13.9.19 1.81.19 2.74 0 1.34-.17 2.62-.52 3.82-.35 1.2-.88 2.25-1.59 3.16s-1.61 1.62-2.69 2.15-2.36.79-3.82.79zm.14-3.05c.73 0 1.34-.12 1.85-.35.51-.23.93-.55 1.27-.95.34-.4.61-.86.8-1.39s.34-1.08.43-1.66.16-1.17.18-1.77c.02-.6.04-1.18.04-1.73 0-.76-.07-1.55-.21-2.35-.14-.81-.39-1.54-.75-2.19-.36-.66-.85-1.2-1.47-1.62s-1.41-.64-2.38-.64c-.71 0-1.32.12-1.83.35-.51.23-.94.55-1.28.95s-.61.86-.81 1.38-.36 1.08-.46 1.66c-.11.58-.17 1.18-.21 1.78s-.05 1.18-.05 1.73c0 .78.07 1.58.21 2.39.14.81.39 1.54.76 2.2s.87 1.19 1.5 1.61c.63.41 1.43.62 2.41.62v-.02zM415.85 142.05h-5.16v-2.72h5.16v-5.56h2.95v5.56h5.19v2.72h-5.19v5.56h-2.95v-5.56z"/></g><g data-name="accountant 2"><path data-name="Shape 2" d="M298.69 132.61c0 2.29-1.87 4.16-4.16 4.16s-4.16-1.87-4.16-4.16 1.87-4.16 4.16-4.16 4.16 1.87 4.16 4.16zm-2.33 0a1.83 1.83 0 10-3.662.002 1.83 1.83 0 003.662-.002z" fill-rule="evenodd"/><path data-name="Path 2" d="M300.32 140.53c-1.54-1.68-3.6-2.6-5.8-2.6s-4.25.92-5.8 2.6c-1.52 1.65-2.35 3.83-2.35 6.15v3.06h2.33v-3.06c0-2.79 1.61-5.16 3.86-6.05l-2.07 5.06 4.03 4.03 3.48-3.48.55-.55-1.26-3.07-1.78 1.78.3.74-1.29 1.29-.3-.3-.99-.99 1.98-4.84c2.88.38 5.13 3.09 5.13 6.38v3.06h2.33v-3.06c0-2.32-.84-4.51-2.35-6.15z"/></g><g data-name="Zylker Corp"><path d="M291.3 111.93l6.22-9.12h-5.65v-1.4h7.91v.71l-6.07 9.08h5.95v1.44h-8.36v-.71zM303.63 111.78l-3.21-7.37h1.76l2.29 5.58 2.14-5.58h1.62l-4.51 11.06h-1.62l1.53-3.7zM309.8 101.28l1.63-.72v12.08h-1.63v-11.36zM313.94 100.55h1.63v7.54l3.25-3.67h1.82l-3.44 3.78 3.72 4.44H319l-3.44-4.14v4.14h-1.63v-12.08h.01zM328.63 110.79c-.18.35-.39.65-.64.9s-.52.46-.82.62c-.3.16-.62.28-.96.36s-.69.11-1.06.11c-.65 0-1.23-.11-1.74-.33s-.94-.52-1.29-.89a4.04 4.04 0 01-.81-1.34c-.19-.52-.28-1.07-.28-1.67s.09-1.17.28-1.69.45-.98.8-1.36c.34-.39.76-.69 1.25-.91s1.04-.33 1.64-.33c.72 0 1.32.12 1.81.36.48.24.87.57 1.17.98s.5.9.63 1.46c.12.56.19 1.16.19 1.8h-6.1c0 .38.05.73.15 1.05s.25.61.45.84c.2.24.45.42.74.56.3.14.64.2 1.04.2.51 0 .95-.11 1.32-.34s.67-.55.89-.96l1.35.58h-.01zm-1.46-3.1c-.02-.33-.08-.63-.18-.9s-.23-.5-.41-.69-.39-.34-.64-.44-.55-.16-.88-.16-.66.06-.92.17-.5.27-.69.46-.35.43-.46.7-.2.56-.25.86h4.43zM330.62 104.41h1.63v1.51c.29-.57.65-.99 1.08-1.25.43-.27.96-.4 1.6-.4v1.53c-.42.02-.79.07-1.13.15-.33.09-.61.23-.84.42s-.41.44-.53.74-.18.68-.18 1.14v4.39h-1.63v-8.22zM349.52 109.49c-.18.51-.43.96-.75 1.37-.31.41-.68.76-1.09 1.04-.41.28-.87.5-1.36.66-.49.15-1.01.23-1.54.23-.89 0-1.67-.14-2.35-.43-.68-.28-1.25-.68-1.71-1.2s-.81-1.13-1.05-1.84c-.24-.71-.36-1.5-.36-2.36 0-.79.13-1.53.38-2.22.26-.7.62-1.3 1.08-1.82s1.02-.93 1.68-1.23c.65-.3 1.38-.45 2.19-.45.53 0 1.04.07 1.53.2.49.14.94.33 1.36.59s.78.58 1.1.96.58.82.77 1.31l-1.43.62c-.14-.34-.31-.65-.52-.94a3.51 3.51 0 00-.72-.72c-.27-.2-.57-.36-.9-.47-.33-.11-.68-.16-1.06-.16-.63 0-1.18.12-1.63.37-.46.25-.83.58-1.12.99s-.51.88-.65 1.4c-.14.53-.21 1.07-.21 1.62 0 .58.08 1.14.23 1.66.15.53.38.99.68 1.38.3.4.69.71 1.15.94.46.23 1 .35 1.63.35.39 0 .75-.06 1.1-.19.34-.12.66-.3.94-.52.28-.22.53-.48.75-.79s.39-.63.51-.99l1.39.61-.02.03zM354.81 112.79c-.62 0-1.19-.11-1.7-.33s-.94-.52-1.3-.9c-.36-.39-.63-.84-.83-1.37-.19-.53-.29-1.1-.29-1.72s.1-1.16.31-1.68.5-.96.87-1.33c.37-.38.81-.67 1.33-.88s1.08-.32 1.7-.32 1.19.11 1.69.33.94.52 1.3.9.64.83.83 1.35c.19.52.29 1.08.29 1.68s-.1 1.2-.31 1.72-.5.98-.87 1.35c-.37.38-.82.67-1.33.89-.52.21-1.08.32-1.69.32zm.06-1.31c.45 0 .83-.08 1.14-.25.31-.16.57-.38.77-.65.2-.27.35-.59.44-.94.09-.36.14-.73.14-1.11s-.05-.78-.15-1.14-.25-.68-.46-.95-.47-.49-.79-.65-.69-.24-1.13-.24-.82.08-1.13.25-.57.38-.76.66c-.2.27-.34.59-.43.95a4.582 4.582 0 00.01 2.28c.1.36.25.67.46.94.2.27.46.48.78.63s.69.23 1.12.23zM360.89 104.41h1.63v1.51c.29-.57.65-.99 1.08-1.25.43-.27.96-.4 1.6-.4v1.53c-.42.02-.79.07-1.13.15-.33.09-.61.23-.84.42s-.41.44-.53.74-.18.68-.18 1.14v4.39h-1.63v-8.22zM366.97 104.41h1.63v1.37c.14-.24.31-.45.53-.64a3.66 3.66 0 011.51-.78c.28-.07.55-.1.82-.1.63 0 1.18.12 1.64.35.46.23.85.54 1.16.93s.54.84.69 1.35.23 1.04.23 1.61-.08 1.13-.24 1.65-.39.98-.71 1.37-.7.7-1.16.93-1 .35-1.61.35c-.27 0-.55-.03-.82-.09-.28-.06-.55-.15-.8-.28-.26-.12-.49-.28-.7-.46s-.39-.4-.53-.64v4.16h-1.63v-11.08zm4.14 7.06c.46 0 .84-.08 1.14-.24.31-.16.55-.38.74-.65s.32-.59.4-.96c.08-.36.12-.75.12-1.15 0-.37-.05-.73-.15-1.08s-.25-.66-.45-.92c-.2-.27-.46-.48-.77-.64s-.69-.24-1.12-.24-.8.08-1.11.24-.57.38-.77.65-.35.59-.45.94c-.1.36-.15.73-.15 1.12 0 .42.05.81.16 1.17.1.36.26.67.48.93.21.26.48.47.81.61.32.15.7.22 1.13.22h-.01z"/></g><g data-name="Group 8247 2"><circle data-name="Ellipse 14 2" cx="467.37" cy="124.55" r="20.22" fill="#fcfaf8"/><g data-name="Group 8224 2"><path d="M458.836 123.533l17.049-.134.017 2.22-17.049.133z"/><path d="M466.186 116.02l2.22-.019.142 17.05-2.22.018z"/></g></g></g></g></svg>